# Rook occupied-cell surface mesh
# Alpine valley
# One cell is one unit. Y points up; Z follows the 3md slice index.
o sculpture
v -7 1 -10
v -7 1 -9
v -7 2 -9
v -7 2 -10
v -6 1 -10
v -6 2 -10
v -6 2 -9
v -6 1 -9
v -7 0 -10
v -7 0 -9
v -6 0 -10
v -6 0 -9
v -8 -1 -10
v -8 -1 -9
v -8 0 -9
v -8 0 -10
v -7 -1 -10
v -6 -1 -10
v -5 -1 -10
v -5 0 -10
v -5 0 -9
v -5 -1 -9
v -8 -2 -10
v -8 -2 -9
v -7 -2 -10
v -6 -2 -10
v -5 -2 -10
v -5 -2 -9
v -9 -3 -10
v -9 -3 -9
v -9 -2 -9
v -9 -2 -10
v -8 -3 -10
v -7 -3 -10
v -6 -3 -10
v -5 -3 -10
v -4 -3 -10
v -4 -2 -10
v -4 -2 -9
v -4 -3 -9
v 6 -3 -10
v 6 -3 -9
v 6 -2 -9
v 6 -2 -10
v 7 -3 -10
v 7 -2 -10
v 7 -2 -9
v 7 -3 -9
v -10 -4 -10
v -10 -4 -9
v -10 -3 -9
v -10 -3 -10
v -9 -4 -10
v -9 -4 -9
v -8 -4 -10
v -8 -4 -9
v -7 -4 -10
v -7 -4 -9
v -6 -4 -10
v -6 -4 -9
v -5 -4 -10
v -5 -4 -9
v -4 -4 -10
v -4 -4 -9
v -3 -4 -10
v -3 -4 -9
v -3 -3 -9
v -3 -3 -10
v -2 -4 -10
v -2 -4 -9
v -2 -3 -9
v -2 -3 -10
v -1 -4 -10
v -1 -4 -9
v -1 -3 -9
v -1 -3 -10
v 0 -4 -10
v 0 -4 -9
v 0 -3 -9
v 0 -3 -10
v 1 -4 -10
v 1 -4 -9
v 1 -3 -9
v 1 -3 -10
v 2 -4 -10
v 2 -4 -9
v 2 -3 -9
v 2 -3 -10
v 3 -4 -10
v 3 -4 -9
v 3 -3 -9
v 3 -3 -10
v 4 -4 -10
v 4 -4 -9
v 4 -3 -9
v 4 -3 -10
v 5 -4 -10
v 5 -4 -9
v 5 -3 -9
v 5 -3 -10
v 6 -4 -10
v 6 -4 -9
v 7 -4 -10
v 7 -4 -9
v 8 -4 -10
v 8 -4 -9
v 8 -3 -9
v 8 -3 -10
v 9 -4 -10
v 9 -4 -9
v 9 -3 -9
v 9 -3 -10
v 10 -4 -10
v 10 -3 -10
v 10 -3 -9
v 10 -4 -9
v -7 2 -8
v -7 3 -8
v -7 3 -9
v -6 3 -9
v -6 3 -8
v -6 2 -8
v -7 1 -8
v -6 1 -8
v 5 1 -9
v 5 1 -8
v 5 2 -8
v 5 2 -9
v 6 1 -9
v 6 2 -9
v 6 2 -8
v 6 1 -8
v -8 0 -8
v -8 1 -8
v -8 1 -9
v -5 1 -9
v -5 1 -8
v -5 0 -8
v 5 0 -9
v 5 0 -8
v 6 0 -9
v 6 0 -8
v -8 -1 -8
v -5 -1 -8
v 5 -1 -9
v 5 -1 -8
v 6 -1 -9
v 6 -1 -8
v -9 -2 -8
v -9 -1 -8
v -9 -1 -9
v -4 -1 -9
v -4 -1 -8
v -4 -2 -8
v 6 -2 -8
v 7 -1 -9
v 7 -1 -8
v 7 -2 -8
v -9 -3 -8
v -4 -3 -8
v 6 -3 -8
v 7 -3 -8
v -10 -4 -8
v -10 -3 -8
v -9 -4 -8
v -8 -4 -8
v -7 -4 -8
v -6 -4 -8
v -5 -4 -8
v -4 -4 -8
v -3 -4 -8
v -3 -3 -8
v -2 -4 -8
v -2 -3 -8
v -1 -4 -8
v -1 -3 -8
v 0 -4 -8
v 0 -3 -8
v 1 -4 -8
v 1 -3 -8
v 2 -4 -8
v 2 -3 -8
v 3 -4 -8
v 3 -3 -8
v 4 -4 -8
v 4 -3 -8
v 5 -4 -8
v 5 -3 -8
v 6 -4 -8
v 7 -4 -8
v 8 -4 -8
v 8 -3 -8
v 9 -4 -8
v 9 -3 -8
v 10 -3 -8
v 10 -4 -8
v -7 3 -7
v -7 4 -7
v -7 4 -8
v -6 4 -8
v -6 4 -7
v -6 3 -7
v -7 2 -7
v -6 2 -7
v -8 1 -7
v -8 2 -7
v -8 2 -8
v -5 2 -8
v -5 2 -7
v -5 1 -7
v 4 1 -8
v 4 1 -7
v 4 2 -7
v 4 2 -8
v 5 2 -7
v 5 1 -7
v 6 2 -7
v 7 1 -8
v 7 2 -8
v 7 2 -7
v 7 1 -7
v 6 1 -7
v -8 0 -7
v -5 0 -7
v 3 0 -8
v 3 0 -7
v 3 1 -7
v 3 1 -8
v 4 0 -8
v 7 0 -8
v 7 0 -7
v -9 -1 -7
v -9 0 -7
v -9 0 -8
v -4 0 -8
v -4 0 -7
v -4 -1 -7
v 3 -1 -8
v 3 -1 -7
v 4 -1 -8
v 5 -1 -7
v 4 -1 -7
v 7 -1 -7
v -9 -2 -7
v -4 -2 -7
v 3 -2 -8
v 3 -2 -7
v 4 -2 -8
v 4 -2 -7
v 5 -2 -8
v 5 -2 -7
v 7 -2 -7
v -10 -3 -7
v -10 -2 -7
v -10 -2 -8
v -3 -2 -8
v -3 -2 -7
v -3 -3 -7
v 5 -3 -7
v 8 -2 -8
v 8 -2 -7
v 8 -3 -7
v -10 -4 -7
v -9 -4 -7
v -8 -4 -7
v -7 -4 -7
v -6 -4 -7
v -5 -4 -7
v -4 -4 -7
v -3 -4 -7
v -2 -4 -7
v -2 -3 -7
v -1 -4 -7
v -1 -3 -7
v 0 -4 -7
v 0 -3 -7
v 1 -4 -7
v 1 -3 -7
v 2 -4 -7
v 2 -3 -7
v 3 -4 -7
v 3 -3 -7
v 4 -4 -7
v 4 -3 -7
v 5 -4 -7
v 6 -4 -7
v 7 -4 -7
v 8 -4 -7
v 9 -4 -7
v 9 -3 -7
v 10 -3 -7
v 10 -4 -7
v -7 4 -6
v -7 5 -6
v -7 5 -7
v -6 5 -7
v -6 5 -6
v -6 4 -6
v -7 3 -6
v -6 3 -6
v -8 2 -6
v -8 3 -6
v -8 3 -7
v -5 3 -7
v -5 3 -6
v -5 2 -6
v -8 1 -6
v -5 1 -6
v 5 1 -6
v 5 2 -6
v 6 2 -6
v 6 1 -6
v -9 0 -6
v -9 1 -6
v -9 1 -7
v -4 1 -7
v -4 1 -6
v -4 0 -6
v 2 0 -7
v 2 0 -6
v 2 1 -6
v 2 1 -7
v 3 1 -6
v 3 0 -6
v 4 1 -6
v 4 0 -6
v 5 0 -6
v 6 0 -6
v 7 1 -6
v 7 0 -6
v -9 -1 -6
v -4 -1 -6
v 2 -1 -7
v 2 -1 -6
v 3 -1 -6
v 4 -1 -6
v 5 -1 -6
v 7 -1 -6
v -10 -2 -6
v -10 -1 -6
v -10 -1 -7
v -3 -1 -7
v -3 -1 -6
v -3 -2 -6
v 2 -2 -7
v 2 -2 -6
v 3 -2 -6
v 5 -2 -6
v 4 -2 -6
v 8 -1 -7
v 8 -1 -6
v 8 -2 -6
v -10 -3 -6
v -3 -3 -6
v 3 -3 -6
v 4 -3 -6
v 5 -3 -6
v 8 -3 -6
v -10 -4 -6
v -9 -4 -6
v -8 -4 -6
v -7 -4 -6
v -6 -4 -6
v -5 -4 -6
v -4 -4 -6
v -3 -4 -6
v -2 -4 -6
v -2 -3 -6
v -1 -4 -6
v -1 -3 -6
v 0 -4 -6
v 0 -3 -6
v 1 -4 -6
v 1 -3 -6
v 2 -4 -6
v 2 -3 -6
v 3 -4 -6
v 4 -4 -6
v 5 -4 -6
v 6 -4 -6
v 7 -4 -6
v 8 -4 -6
v 9 -4 -6
v 9 -3 -6
v 10 -3 -6
v 10 -4 -6
v -7 5 -5
v -7 6 -5
v -7 6 -6
v -6 6 -6
v -6 6 -5
v -6 5 -5
v -7 4 -5
v -6 4 -5
v -8 3 -5
v -8 4 -5
v -8 4 -6
v -5 4 -6
v -5 4 -5
v -5 3 -5
v -8 2 -5
v -5 2 -5
v -9 1 -5
v -9 2 -5
v -9 2 -6
v -4 2 -6
v -4 2 -5
v -4 1 -5
v 6 1 -5
v 6 2 -5
v 7 2 -6
v 7 2 -5
v 7 1 -5
v -9 0 -5
v -4 0 -5
v 3 0 -5
v 3 1 -5
v 4 1 -5
v 4 0 -5
v 6 0 -5
v 7 0 -5
v -10 -1 -5
v -10 0 -5
v -10 0 -6
v -3 0 -6
v -3 0 -5
v -3 -1 -5
v 3 -1 -5
v 4 -1 -5
v 5 -1 -5
v 5 0 -5
v 8 0 -6
v 8 0 -5
v 8 -1 -5
v -10 -2 -5
v -3 -2 -5
v 3 -2 -5
v 4 -2 -5
v 5 -2 -5
v 8 -2 -5
v -10 -3 -5
v -2 -2 -6
v -2 -2 -5
v -2 -3 -5
v 4 -3 -5
v 9 -2 -6
v 9 -2 -5
v 9 -3 -5
v -10 -4 -5
v -9 -4 -5
v -8 -4 -5
v -7 -4 -5
v -6 -4 -5
v -5 -4 -5
v -4 -4 -5
v -3 -4 -5
v -2 -4 -5
v -1 -4 -5
v -1 -3 -5
v 0 -4 -5
v 0 -3 -5
v 1 -4 -5
v 1 -3 -5
v 2 -4 -5
v 2 -3 -5
v 3 -4 -5
v 3 -3 -5
v 4 -4 -5
v 5 -4 -5
v 6 -4 -5
v 7 -4 -5
v 8 -4 -5
v 9 -4 -5
v 10 -3 -5
v 10 -4 -5
v -7 6 -4
v -7 7 -4
v -7 7 -5
v -6 7 -5
v -6 7 -4
v -6 6 -4
v -7 5 -4
v -6 5 -4
v -8 4 -4
v -8 5 -4
v -8 5 -5
v -5 5 -5
v -5 5 -4
v -5 4 -4
v -8 3 -4
v -5 3 -4
v -9 2 -4
v -9 3 -4
v -9 3 -5
v -4 3 -5
v -4 3 -4
v -4 2 -4
v 6 2 -4
v 6 3 -4
v 6 3 -5
v 7 3 -5
v 7 3 -4
v 7 2 -4
v -9 1 -4
v -4 1 -4
v 3 1 -4
v 3 2 -4
v 3 2 -5
v 4 2 -5
v 4 2 -4
v 4 1 -4
v 6 1 -4
v 7 1 -4
v -10 0 -4
v -10 1 -4
v -10 1 -5
v -3 1 -5
v -3 1 -4
v -3 0 -4
v 3 0 -4
v 4 0 -4
v 5 0 -4
v 5 1 -4
v 5 1 -5
v 8 1 -5
v 8 1 -4
v 8 0 -4
v -10 -1 -4
v -3 -1 -4
v 3 -1 -4
v 4 -1 -4
v 5 -1 -4
v 8 -1 -4
v -10 -2 -4
v -2 -1 -5
v -2 -1 -4
v -2 -2 -4
v 4 -2 -4
v 9 -1 -5
v 9 -1 -4
v 9 -2 -4
v -10 -3 -4
v -2 -3 -4
v 4 -3 -4
v 9 -3 -4
v -10 -4 -4
v -9 -4 -4
v -8 -4 -4
v -7 -4 -4
v -6 -4 -4
v -5 -4 -4
v -4 -4 -4
v -3 -4 -4
v -2 -4 -4
v -1 -4 -4
v -1 -3 -4
v 0 -4 -4
v 0 -3 -4
v 1 -4 -4
v 1 -3 -4
v 2 -4 -4
v 2 -3 -4
v 3 -4 -4
v 3 -3 -4
v 4 -4 -4
v 5 -4 -4
v 6 -4 -4
v 7 -4 -4
v 8 -4 -4
v 9 -4 -4
v 10 -3 -4
v 10 -4 -4
v -7 7 -3
v -7 8 -3
v -7 8 -4
v -6 8 -4
v -6 8 -3
v -6 7 -3
v -7 6 -3
v -6 6 -3
v -8 5 -3
v -8 6 -3
v -8 6 -4
v -7 5 -3
v -5 6 -4
v -5 6 -3
v -5 5 -3
v -6 5 -3
v -8 4 -3
v -5 4 -3
v -9 3 -3
v -9 4 -3
v -9 4 -4
v -8 3 -3
v -4 4 -4
v -4 4 -3
v -4 3 -3
v -5 3 -3
v 6 3 -3
v 6 4 -3
v 6 4 -4
v 7 4 -4
v 7 4 -3
v 7 3 -3
v -9 2 -3
v -4 2 -3
v 6 2 -3
v 7 2 -3
v -10 1 -3
v -10 2 -3
v -10 2 -4
v -9 1 -3
v -3 2 -4
v -3 2 -3
v -3 1 -3
v -4 1 -3
v 2 1 -4
v 2 1 -3
v 2 2 -3
v 2 2 -4
v 3 2 -3
v 3 1 -3
v 4 2 -3
v 5 2 -3
v 5 2 -4
v 4 1 -3
v 5 1 -3
v 8 2 -4
v 8 2 -3
v 8 1 -3
v -10 0 -3
v -3 0 -3
v 2 0 -4
v 2 0 -3
v 3 0 -3
v 8 0 -3
v -10 -1 -3
v -2 0 -4
v -2 0 -3
v -2 -1 -3
v -3 -1 -3
v 2 -1 -4
v 2 -1 -3
v 3 -1 -3
v 9 0 -4
v 9 0 -3
v 9 -1 -3
v -10 -2 -3
v -2 -2 -3
v 3 -2 -4
v 3 -2 -3
v 9 -2 -3
v -10 -3 -3
v -1 -2 -4
v -1 -2 -3
v -1 -3 -3
v -2 -3 -3
v 3 -3 -3
v 10 -2 -4
v 10 -2 -3
v 10 -3 -3
v -10 -4 -3
v -9 -4 -3
v -8 -4 -3
v -7 -4 -3
v -6 -4 -3
v -5 -4 -3
v -4 -4 -3
v -3 -4 -3
v -2 -4 -3
v -1 -4 -3
v 0 -4 -3
v 0 -3 -3
v 1 -4 -3
v 1 -3 -3
v 2 -4 -3
v 2 -3 -3
v 3 -4 -3
v 4 -4 -3
v 5 -4 -3
v 6 -4 -3
v 7 -4 -3
v 8 -4 -3
v 9 -4 -3
v 10 -4 -3
v -7 6 -2
v -7 7 -2
v -6 7 -2
v -6 6 -2
v -7 5 -2
v -6 5 -2
v -8 4 -2
v -8 5 -2
v -7 4 -2
v -5 5 -2
v -5 4 -2
v -6 4 -2
v 6 4 -2
v 6 5 -2
v 6 5 -3
v 7 5 -3
v 7 5 -2
v 7 4 -2
v -8 3 -2
v -5 3 -2
v 6 3 -2
v 7 3 -2
v -9 2 -2
v -9 3 -2
v -8 2 -2
v -4 3 -2
v -4 2 -2
v -5 2 -2
v 5 2 -2
v 5 3 -2
v 5 3 -3
v 8 3 -3
v 8 3 -2
v 8 2 -2
v -9 1 -2
v -4 1 -2
v 3 1 -2
v 3 2 -2
v 4 2 -2
v 4 1 -2
v 5 1 -2
v 8 1 -2
v -10 0 -2
v -10 1 -2
v -9 0 -2
v -3 1 -2
v -3 0 -2
v -4 0 -2
v 3 0 -2
v 4 0 -2
v 9 1 -3
v 9 1 -2
v 9 0 -2
v -10 -1 -2
v -3 -1 -2
v 3 -1 -2
v 9 -1 -2
v -10 -2 -2
v -2 -1 -2
v -2 -2 -2
v -3 -2 -2
v 3 -2 -2
v 10 -1 -3
v 10 -1 -2
v 10 -2 -2
v -10 -3 -2
v -2 -3 -2
v 3 -3 -2
v 10 -3 -2
v -10 -4 -2
v -9 -4 -2
v -8 -4 -2
v -7 -4 -2
v -6 -4 -2
v -5 -4 -2
v -4 -4 -2
v -3 -4 -2
v -2 -4 -2
v -1 -4 -2
v -1 -3 -2
v 0 -4 -2
v 0 -3 -2
v 1 -4 -2
v 1 -3 -2
v 2 -4 -2
v 2 -3 -2
v 3 -4 -2
v 4 -4 -2
v 5 -4 -2
v 6 -4 -2
v 7 -4 -2
v 8 -4 -2
v 9 -4 -2
v 10 -4 -2
v -7 5 -1
v -7 6 -1
v -6 6 -1
v -6 5 -1
v 6 5 -1
v 6 6 -1
v 6 6 -2
v 7 6 -2
v 7 6 -1
v 7 5 -1
v -7 4 -1
v -6 4 -1
v 6 4 -1
v 7 4 -1
v -8 3 -1
v -8 4 -1
v -7 3 -1
v -5 4 -1
v -5 3 -1
v -6 3 -1
v 5 3 -1
v 5 4 -1
v 5 4 -2
v 8 4 -2
v 8 4 -1
v 8 3 -1
v -8 2 -1
v -5 2 -1
v 5 2 -1
v 8 2 -1
v -9 1 -1
v -9 2 -1
v -8 1 -1
v -4 2 -1
v -4 1 -1
v -5 1 -1
v 4 1 -1
v 4 2 -1
v 9 2 -2
v 9 2 -1
v 9 1 -1
v -9 0 -1
v -4 0 -1
v 4 0 -1
v 9 0 -1
v -10 -1 -1
v -10 0 -1
v -9 -1 -1
v -3 0 -1
v -3 -1 -1
v -4 -1 -1
v 3 -1 -1
v 3 0 -1
v 10 0 -2
v 10 0 -1
v 10 -1 -1
v -10 -2 -1
v -3 -2 -1
v 3 -2 -1
v 10 -2 -1
v -10 -3 -1
v -2 -2 -1
v -2 -3 -1
v -3 -3 -1
v 2 -3 -1
v 2 -2 -1
v 2 -2 -2
v 10 -3 -1
v -10 -4 -1
v -9 -4 -1
v -8 -4 -1
v -7 -4 -1
v -6 -4 -1
v -5 -4 -1
v -4 -4 -1
v -3 -4 -1
v -2 -4 -1
v -1 -4 -1
v -1 -3 -1
v 0 -4 -1
v 0 -3 -1
v 1 -4 -1
v 1 -3 -1
v 2 -4 -1
v 3 -4 -1
v 4 -4 -1
v 5 -4 -1
v 6 -4 -1
v 7 -4 -1
v 8 -4 -1
v 9 -4 -1
v 10 -4 -1
v 6 6 0
v 6 7 0
v 6 7 -1
v 7 7 -1
v 7 7 0
v 7 6 0
v 6 5 0
v 7 5 0
v -7 4 0
v -7 5 0
v -6 5 0
v -6 4 0
v 5 4 0
v 5 5 0
v 5 5 -1
v 8 5 -1
v 8 5 0
v 8 4 0
v -7 3 0
v -6 3 0
v 5 3 0
v 8 3 0
v -8 2 0
v -8 3 0
v -7 2 0
v -5 3 0
v -5 2 0
v -6 2 0
v 4 2 0
v 4 3 0
v 4 3 -1
v 9 3 -1
v 9 3 0
v 9 2 0
v -8 1 0
v -5 1 0
v 4 1 0
v 9 1 0
v -9 0 0
v -9 1 0
v -8 0 0
v -4 1 0
v -4 0 0
v -5 0 0
v 3 0 0
v 3 1 0
v 3 1 -1
v 10 1 -1
v 10 1 0
v 10 0 0
v -9 -1 0
v -4 -1 0
v 3 -1 0
v 10 -1 0
v -10 -2 0
v -10 -1 0
v -9 -2 0
v -3 -1 0
v -3 -2 0
v 2 -2 0
v 2 -1 0
v 2 -1 -1
v 10 -2 0
v -10 -3 0
v -3 -3 0
v 2 -3 0
v 10 -3 0
v -10 -4 0
v -9 -4 0
v -8 -4 0
v -7 -4 0
v -6 -4 0
v -5 -4 0
v -4 -4 0
v -3 -4 0
v -2 -4 0
v -2 -3 0
v -1 -4 0
v -1 -3 0
v 0 -4 0
v 0 -3 0
v 1 -4 0
v 1 -3 0
v 2 -4 0
v 3 -4 0
v 4 -4 0
v 5 -4 0
v 6 -4 0
v 7 -4 0
v 8 -4 0
v 9 -4 0
v 10 -4 0
v 6 7 1
v 6 8 1
v 6 8 0
v 7 8 0
v 7 8 1
v 7 7 1
v 6 6 1
v 7 6 1
v 5 5 1
v 5 6 1
v 5 6 0
v 8 6 0
v 8 6 1
v 8 5 1
v 5 4 1
v 8 4 1
v -7 3 1
v -7 4 1
v -6 4 1
v -6 3 1
v 4 3 1
v 4 4 1
v 4 4 0
v 9 4 0
v 9 4 1
v 9 3 1
v -7 2 1
v -6 2 1
v 4 2 1
v 9 2 1
v -8 1 1
v -8 2 1
v -7 1 1
v -5 2 1
v -5 1 1
v -6 1 1
v 3 1 1
v 3 2 1
v 3 2 0
v 10 2 0
v 10 2 1
v 10 1 1
v -8 0 1
v -5 0 1
v -4 0 1
v -4 1 1
v -3 0 0
v -3 1 0
v -3 1 1
v -3 0 1
v 3 0 1
v 10 0 1
v -9 -1 1
v -9 0 1
v -8 -1 1
v -3 -1 1
v 2 -1 1
v 2 0 1
v 2 0 0
v 10 -1 1
v -9 -2 1
v -3 -2 1
v 2 -2 1
v 10 -2 1
v -10 -3 1
v -10 -2 1
v -9 -3 1
v -3 -3 1
v 1 -3 1
v 1 -2 1
v 1 -2 0
v 10 -3 1
v -10 -4 1
v -9 -4 1
v -8 -4 1
v -7 -4 1
v -6 -4 1
v -5 -4 1
v -4 -4 1
v -3 -4 1
v -2 -4 1
v -2 -3 1
v -1 -4 1
v -1 -3 1
v 0 -4 1
v 0 -3 1
v 1 -4 1
v 2 -4 1
v 3 -4 1
v 4 -4 1
v 5 -4 1
v 6 -4 1
v 7 -4 1
v 8 -4 1
v 9 -4 1
v 10 -4 1
v 6 8 2
v 6 9 2
v 6 9 1
v 7 9 1
v 7 9 2
v 7 8 2
v 6 7 2
v 7 7 2
v 5 6 2
v 5 7 2
v 5 7 1
v 8 7 1
v 8 7 2
v 8 6 2
v 5 5 2
v 8 5 2
v 4 4 2
v 4 5 2
v 4 5 1
v 9 5 1
v 9 5 2
v 9 4 2
v 4 3 2
v 9 3 2
v -7 2 2
v -7 3 2
v -6 3 2
v -6 2 2
v 3 2 2
v 3 3 2
v 3 3 1
v 10 3 1
v 10 3 2
v 10 2 2
v -7 1 2
v -6 1 2
v 3 1 2
v 10 1 2
v -8 0 2
v -8 1 2
v -7 0 2
v -5 1 2
v -6 0 2
v -5 0 2
v -4 1 2
v -3 1 2
v -2 0 1
v -2 1 1
v -2 1 2
v -2 0 2
v -3 0 2
v 2 0 2
v 2 1 2
v 2 1 1
v 10 0 2
v -8 -1 2
v -2 -1 1
v -2 -1 2
v -3 -1 2
v 2 -1 2
v 10 -1 2
v -9 -2 2
v -9 -1 2
v -8 -2 2
v -2 -2 1
v -2 -2 2
v -3 -2 2
v 1 -2 2
v 1 -1 2
v 1 -1 1
v 10 -2 2
v -9 -3 2
v -3 -3 2
v -4 -3 2
v -4 -2 2
v 1 -3 2
v 10 -3 2
v -10 -4 2
v -10 -3 2
v -9 -4 2
v -8 -4 2
v -7 -4 2
v -6 -4 2
v -5 -4 2
v -4 -4 2
v -3 -4 2
v -2 -4 2
v -2 -3 2
v -1 -4 2
v -1 -3 2
v 0 -4 2
v 0 -3 2
v 1 -4 2
v 2 -4 2
v 3 -4 2
v 4 -4 2
v 5 -4 2
v 6 -4 2
v 7 -4 2
v 8 -4 2
v 9 -4 2
v 10 -4 2
v 6 9 3
v 6 10 3
v 6 10 2
v 7 10 2
v 7 10 3
v 7 9 3
v 6 8 3
v 7 8 3
v 5 7 3
v 5 8 3
v 5 8 2
v 8 8 2
v 8 8 3
v 8 7 3
v 5 6 3
v 8 6 3
v 4 5 3
v 4 6 3
v 4 6 2
v 9 6 2
v 9 6 3
v 9 5 3
v 4 4 3
v 9 4 3
v 3 3 3
v 3 4 3
v 3 4 2
v 10 4 2
v 10 4 3
v 10 3 3
v 3 2 3
v 10 2 3
v -7 1 3
v -7 2 3
v -6 2 3
v -6 1 3
v 2 1 3
v 2 2 3
v 2 2 2
v 10 1 3
v -7 0 3
v -6 0 3
v -5 0 3
v -5 1 3
v -4 1 3
v -3 1 3
v -3 0 3
v 2 0 3
v 10 0 3
v -8 -1 3
v -8 0 3
v -7 -1 3
v -3 -1 3
v 1 -1 3
v 1 0 3
v 1 0 2
v 10 -1 3
v -8 -2 3
v -3 -2 3
v -4 -2 3
v 1 -2 3
v 10 -2 3
v -9 -3 3
v -9 -2 3
v -8 -3 3
v -4 -3 3
v 0 -3 3
v 0 -2 3
v 0 -2 2
v 10 -3 3
v -10 -4 3
v -10 -3 3
v -9 -4 3
v -8 -4 3
v -7 -4 3
v -6 -4 3
v -5 -4 3
v -4 -4 3
v -3 -4 3
v -3 -3 3
v -2 -4 3
v -2 -3 3
v -1 -4 3
v -1 -3 3
v 0 -4 3
v 1 -4 3
v 2 -4 3
v 3 -4 3
v 4 -4 3
v 5 -4 3
v 6 -4 3
v 7 -4 3
v 8 -4 3
v 9 -4 3
v 10 -4 3
v 6 10 4
v 6 11 4
v 6 11 3
v 7 11 3
v 7 11 4
v 7 10 4
v 6 9 4
v 7 9 4
v 5 8 4
v 5 9 4
v 5 9 3
v 6 8 4
v 8 9 3
v 8 9 4
v 8 8 4
v 7 8 4
v 5 7 4
v 8 7 4
v 4 6 4
v 4 7 4
v 4 7 3
v 5 6 4
v 9 7 3
v 9 7 4
v 9 6 4
v 8 6 4
v 4 5 4
v 9 5 4
v 3 4 4
v 3 5 4
v 3 5 3
v 4 4 4
v 10 5 3
v 10 5 4
v 10 4 4
v 9 4 4
v 3 3 4
v 10 3 4
v 2 2 4
v 2 3 4
v 2 3 3
v 3 2 4
v 10 2 4
v 2 1 4
v 10 1 4
v -7 0 4
v -7 1 4
v -6 1 4
v -6 0 4
v -5 1 4
v -5 0 4
v -4 1 4
v -3 1 4
v -3 0 4
v -4 0 4
v 1 0 4
v 1 1 4
v 1 1 3
v 2 0 4
v 10 0 4
v -7 -1 4
v -6 -1 4
v -5 -1 4
v -3 -1 4
v -4 -1 4
v 1 -1 4
v 10 -1 4
v -8 -2 4
v -8 -1 4
v -7 -2 4
v -6 -2 4
v -5 -2 4
v -3 -2 4
v -4 -2 4
v 0 -2 4
v 0 -1 4
v 0 -1 3
v 1 -2 4
v 10 -2 4
v -8 -3 4
v -4 -3 4
v -5 -3 4
v 0 -3 4
v 10 -3 4
v -10 -4 4
v -10 -3 4
v -9 -4 4
v -9 -3 4
v -8 -4 4
v -7 -4 4
v -6 -4 4
v -5 -4 4
v -4 -4 4
v -3 -4 4
v -3 -3 4
v -2 -4 4
v -2 -3 4
v -1 -4 4
v -1 -3 4
v 0 -4 4
v 1 -4 4
v 2 -4 4
v 3 -4 4
v 4 -4 4
v 5 -4 4
v 6 -4 4
v 7 -4 4
v 8 -4 4
v 9 -4 4
v 10 -4 4
v 6 9 5
v 6 10 5
v 7 10 5
v 7 9 5
v 6 8 5
v 7 8 5
v 5 7 5
v 5 8 5
v 6 7 5
v 8 8 5
v 8 7 5
v 7 7 5
v 5 6 5
v 8 6 5
v 4 5 5
v 4 6 5
v 5 5 5
v 9 6 5
v 9 5 5
v 8 5 5
v 4 4 5
v 9 4 5
v 3 3 5
v 3 4 5
v 4 3 5
v 10 4 5
v 10 3 5
v 9 3 5
v 3 2 5
v 10 2 5
v 2 1 5
v 2 2 5
v 3 1 5
v 10 1 5
v -5 0 5
v -5 1 5
v -4 1 5
v -4 0 5
v 2 0 5
v 10 0 5
v -7 -1 5
v -7 0 5
v -6 0 5
v -6 -1 5
v -5 -1 5
v -4 -1 5
v 1 -1 5
v 1 0 5
v 2 -1 5
v 10 -1 5
v -7 -2 5
v -6 -2 5
v -5 -2 5
v -4 -2 5
v 1 -2 5
v 10 -2 5
v -8 -3 5
v -8 -2 5
v -7 -3 5
v -5 -3 5
v 0 -3 5
v 0 -2 5
v 1 -3 5
v 10 -3 5
v -10 -4 5
v -10 -3 5
v -9 -4 5
v -9 -3 5
v -8 -4 5
v -7 -4 5
v -6 -4 5
v -5 -4 5
v -4 -4 5
v -4 -3 5
v -3 -4 5
v -3 -3 5
v -2 -4 5
v -2 -3 5
v -1 -4 5
v -1 -3 5
v 0 -4 5
v 1 -4 5
v 2 -4 5
v 3 -4 5
v 4 -4 5
v 5 -4 5
v 6 -4 5
v 7 -4 5
v 8 -4 5
v 9 -4 5
v 10 -4 5
v 6 8 6
v 6 9 6
v 7 9 6
v 7 8 6
v 6 7 6
v 7 7 6
v 5 6 6
v 5 7 6
v 6 6 6
v 8 7 6
v 8 6 6
v 7 6 6
v 5 5 6
v 8 5 6
v 4 4 6
v 4 5 6
v 5 4 6
v 9 5 6
v 9 4 6
v 8 4 6
v 4 3 6
v 9 3 6
v 3 2 6
v 3 3 6
v 4 2 6
v 10 3 6
v 10 2 6
v 9 2 6
v 3 1 6
v 10 1 6
v -5 0 6
v -5 1 6
v -4 1 6
v -4 0 6
v 2 0 6
v 2 1 6
v 3 0 6
v 10 0 6
v -6 -1 6
v -6 0 6
v -3 -1 5
v -3 0 5
v -3 0 6
v -3 -1 6
v 2 -1 6
v 10 -1 6
v -7 -2 6
v -7 -1 6
v -6 -2 6
v -3 -2 5
v -2 -2 5
v -2 -1 5
v -2 -1 6
v -2 -2 6
v 1 -2 6
v 1 -1 6
v 2 -2 6
v 10 -2 6
v -7 -3 6
v -2 -3 6
v 1 -3 6
v 10 -3 6
v -10 -4 6
v -10 -3 6
v -9 -4 6
v -9 -3 6
v -8 -4 6
v -8 -3 6
v -7 -4 6
v -6 -4 6
v -5 -4 6
v -4 -4 6
v -3 -4 6
v -2 -4 6
v -1 -4 6
v -1 -3 6
v 0 -4 6
v 0 -3 6
v 1 -4 6
v 2 -4 6
v 3 -4 6
v 4 -4 6
v 5 -4 6
v 6 -4 6
v 7 -4 6
v 8 -4 6
v 9 -4 6
v 10 -4 6
v 6 7 7
v 6 8 7
v 7 8 7
v 7 7 7
v 6 6 7
v 7 6 7
v 5 5 7
v 5 6 7
v 6 5 7
v 8 6 7
v 8 5 7
v 7 5 7
v 5 4 7
v 8 4 7
v 4 3 7
v 4 4 7
v 5 3 7
v 9 4 7
v 9 3 7
v 8 3 7
v 4 2 7
v 9 2 7
v 3 1 7
v 3 2 7
v 4 1 7
v 10 2 7
v 10 1 7
v 9 1 7
v -5 0 7
v -5 1 7
v -4 1 7
v -4 0 7
v 3 0 7
v 10 0 7
v -6 -1 7
v -6 0 7
v -3 0 7
v -3 -1 7
v 2 -1 7
v 2 0 7
v 3 -1 7
v 10 -1 7
v -6 -2 7
v -2 -1 7
v -2 -2 7
v 2 -2 7
v 10 -2 7
v -7 -3 7
v -7 -2 7
v -6 -3 7
v -2 -3 7
v 1 -3 7
v 1 -2 7
v 2 -3 7
v 10 -3 7
v -10 -4 7
v -10 -3 7
v -9 -4 7
v -9 -3 7
v -8 -4 7
v -8 -3 7
v -7 -4 7
v -6 -4 7
v -5 -4 7
v -4 -4 7
v -3 -4 7
v -2 -4 7
v -1 -4 7
v -1 -3 7
v 0 -4 7
v 0 -3 7
v 1 -4 7
v 2 -4 7
v 3 -4 7
v 4 -4 7
v 5 -4 7
v 6 -4 7
v 7 -4 7
v 8 -4 7
v 9 -4 7
v 10 -4 7
v 6 6 8
v 6 7 8
v 7 7 8
v 7 6 8
v 6 5 8
v 7 5 8
v 5 4 8
v 5 5 8
v 6 4 8
v 8 5 8
v 8 4 8
v 7 4 8
v 5 3 8
v 8 3 8
v 4 2 8
v 4 3 8
v 5 2 8
v 9 3 8
v 9 2 8
v 8 2 8
v 4 1 8
v 9 1 8
v -5 0 8
v -5 1 8
v -4 1 8
v -4 0 8
v 3 0 8
v 3 1 8
v 4 0 8
v 10 1 8
v 10 0 8
v 9 0 8
v -6 -1 8
v -6 0 8
v -3 0 8
v -3 -1 8
v 3 -1 8
v 10 -1 8
v -6 -2 8
v -2 -1 8
v -2 -2 8
v 2 -2 8
v 2 -1 8
v 3 -2 8
v 10 -2 8
v -6 -3 8
v -2 -3 8
v 2 -3 8
v 10 -3 8
v -10 -4 8
v -10 -3 8
v -9 -4 8
v -9 -3 8
v -8 -4 8
v -8 -3 8
v -7 -4 8
v -7 -3 8
v -6 -4 8
v -5 -4 8
v -4 -4 8
v -3 -4 8
v -2 -4 8
v -1 -4 8
v -1 -3 8
v 0 -4 8
v 0 -3 8
v 1 -4 8
v 1 -3 8
v 2 -4 8
v 3 -4 8
v 4 -4 8
v 5 -4 8
v 6 -4 8
v 7 -4 8
v 8 -4 8
v 9 -4 8
v 10 -4 8
v 6 5 9
v 6 6 9
v 7 6 9
v 7 5 9
v 6 4 9
v 7 4 9
v 5 3 9
v 5 4 9
v 6 3 9
v 8 4 9
v 8 3 9
v 7 3 9
v 5 2 9
v 8 2 9
v 4 1 9
v 4 2 9
v 5 1 9
v 9 2 9
v 9 1 9
v 8 1 9
v -5 0 9
v -5 1 9
v -4 1 9
v -4 0 9
v 4 0 9
v 9 0 9
v -6 -1 9
v -6 0 9
v -5 -1 9
v -4 -1 9
v -3 0 9
v -3 -1 9
v 3 -1 9
v 3 0 9
v 4 -1 9
v 10 0 9
v 10 -1 9
v 9 -1 9
v -6 -2 9
v -5 -2 9
v -4 -2 9
v -3 -2 9
v -2 -1 9
v -2 -2 9
v 3 -2 9
v 10 -2 9
v -6 -3 9
v -5 -3 9
v -4 -3 9
v -3 -3 9
v -2 -3 9
v 2 -3 9
v 2 -2 9
v 3 -3 9
v 10 -3 9
v -10 -4 9
v -10 -3 9
v -9 -4 9
v -9 -3 9
v -8 -4 9
v -8 -3 9
v -7 -4 9
v -7 -3 9
v -6 -4 9
v -5 -4 9
v -4 -4 9
v -3 -4 9
v -2 -4 9
v -1 -4 9
v -1 -3 9
v 0 -4 9
v 0 -3 9
v 1 -4 9
v 1 -3 9
v 2 -4 9
v 3 -4 9
v 4 -4 9
v 5 -4 9
v 6 -4 9
v 7 -4 9
v 8 -4 9
v 9 -4 9
v 10 -4 9
v 6 4 10
v 6 5 10
v 7 5 10
v 7 4 10
v 6 3 10
v 7 3 10
v 5 2 10
v 5 3 10
v 6 2 10
v 7 2 10
v 8 3 10
v 8 2 10
v 5 1 10
v 6 1 10
v 7 1 10
v 8 1 10
v 4 0 10
v 4 1 10
v 5 0 10
v 6 0 10
v 7 0 10
v 8 0 10
v 9 1 10
v 9 0 10
v 4 -1 10
v 5 -1 10
v 6 -1 10
v 7 -1 10
v 8 -1 10
v 9 -1 10
v 3 -2 10
v 3 -1 10
v 4 -2 10
v 5 -2 10
v 6 -2 10
v 7 -2 10
v 8 -2 10
v 9 -2 10
v 10 -1 10
v 10 -2 10
v 3 -3 10
v 4 -3 10
v 5 -3 10
v 6 -3 10
v 7 -3 10
v 8 -3 10
v 9 -3 10
v 10 -3 10
v -10 -4 10
v -10 -3 10
v -9 -4 10
v -9 -3 10
v -8 -4 10
v -8 -3 10
v -7 -4 10
v -7 -3 10
v -6 -4 10
v -6 -3 10
v -5 -4 10
v -5 -3 10
v -4 -4 10
v -4 -3 10
v -3 -4 10
v -3 -3 10
v -2 -4 10
v -2 -3 10
v -1 -4 10
v -1 -3 10
v 0 -4 10
v 0 -3 10
v 1 -4 10
v 1 -3 10
v 2 -4 10
v 2 -3 10
v 3 -4 10
v 4 -4 10
v 5 -4 10
v 6 -4 10
v 7 -4 10
v 8 -4 10
v 9 -4 10
v 10 -4 10
vn -1 0 0
vn 1 0 0
vn 0 -1 0
vn 0 1 0
vn 0 0 -1
vn 0 0 1
s off
g glyph_35
f 250//1 251//1 241//1 146//1
f 250//5 146//5 148//5 155//5
f 282//1 355//1 347//1 247//1
f 284//2 249//2 349//2 356//2
f 282//5 247//5 249//5 284//5
f 355//6 356//6 349//6 347//6
f 650//1 651//1 644//1 530//1
f 650//5 530//5 531//5 538//5
f 1031//2 1025//2 1126//2 1132//2
f 1133//6 1132//6 1126//6 1134//6
f 1227//2 1221//2 1330//2 1337//2
f 1338//6 1337//6 1330//6 1328//6
f 1418//5 1410//5 1411//5 1419//5
f 1420//5 1412//5 1498//5 1507//5
f 1426//5 1419//5 1420//5 1440//5
f 1440//5 1420//5 1507//5 1442//5
f 1444//2 1508//2 1511//2 1517//2
f 1442//5 1507//5 1508//5 1444//5
f 1506//1 1588//1 1580//1 1496//1
f 1517//2 1511//2 1590//2 1596//2
f 1588//1 1665//1 1659//1 1580//1
f 1595//1 1672//1 1665//1 1588//1
f 1596//2 1590//2 1667//2 1673//2
f 1732//6 1733//6 1727//6 1724//6
f 1665//1 1742//1 1730//1 1659//1
f 1742//6 1743//6 1732//6 1730//6
f 1743//6 1744//6 1733//6 1732//6
f 1744//6 1745//6 1735//6 1733//6
f 1672//1 1750//1 1742//1 1665//1
f 1750//6 1751//6 1743//6 1742//6
f 1751//6 1752//6 1744//6 1743//6
f 1752//6 1753//6 1745//6 1744//6
f 1673//2 1667//2 1747//2 1754//2
f 1753//6 1754//6 1747//6 1745//6
g glyph_42
f 388//1 476//1 477//1 478//1
f 391//2 479//2 480//2 481//2
f 478//4 477//4 480//4 479//4
f 388//5 478//5 479//5 391//5
f 477//1 573//1 574//1 575//1
f 480//2 576//2 577//2 578//2
f 575//4 574//4 577//4 576//4
f 477//5 575//5 576//5 480//5
f 573//6 578//6 577//6 574//6
f 579//1 686//1 687//1 573//1
f 580//2 578//2 688//2 689//2
f 573//4 687//4 688//4 578//4
f 686//6 689//6 688//6 687//6
f 785//1 872//1 873//1 874//1
f 788//2 875//2 876//2 877//2
f 874//4 873//4 876//4 875//4
f 785//5 874//5 875//5 788//5
f 873//1 964//1 965//1 966//1
f 876//2 967//2 968//2 969//2
f 966//4 965//4 968//4 967//4
f 873//5 966//5 967//5 876//5
f 965//1 1060//1 1061//1 1062//1
f 968//2 1063//2 1064//2 1065//2
f 1062//4 1061//4 1064//4 1063//4
f 965//5 1062//5 1063//5 968//5
f 973//1 1068//1 1069//1 1070//1
f 1070//4 1069//4 1066//4 964//4
f 973//5 1070//5 964//5 970//5
f 976//2 1071//2 1072//2 1073//2
f 969//4 1067//4 1072//4 1071//4
f 971//5 969//5 1071//5 976//5
f 1061//1 1162//1 1163//1 1164//1
f 1064//2 1165//2 1166//2 1167//2
f 1164//4 1163//4 1166//4 1165//4
f 1061//5 1164//5 1165//5 1064//5
f 1069//1 1170//1 1171//1 1172//1
f 1172//4 1171//4 1168//4 1060//4
f 1069//5 1172//5 1060//5 1066//5
f 1072//2 1173//2 1174//2 1175//2
f 1065//4 1169//4 1174//4 1173//4
f 1067//5 1065//5 1173//5 1072//5
f 1163//1 1257//1 1258//1 1259//1
f 1166//2 1260//2 1261//2 1262//2
f 1259//4 1258//4 1261//4 1260//4
f 1163//5 1259//5 1260//5 1166//5
f 1257//6 1262//6 1261//6 1258//6
f 1171//1 1265//1 1266//1 1267//1
f 1267//4 1266//4 1263//4 1162//4
f 1171//5 1267//5 1162//5 1168//5
f 1265//6 1268//6 1263//6 1266//6
f 1174//2 1269//2 1270//2 1271//2
f 1167//4 1264//4 1270//4 1269//4
f 1169//5 1167//5 1269//5 1174//5
f 1272//6 1271//6 1270//6 1264//6
f 1179//1 1275//1 1276//1 1277//1
f 1277//4 1276//4 1273//4 1170//4
f 1179//5 1277//5 1170//5 1176//5
f 1275//6 1278//6 1273//6 1276//6
f 1182//2 1279//2 1280//2 1281//2
f 1175//4 1274//4 1280//4 1279//4
f 1177//5 1175//5 1279//5 1182//5
f 1282//6 1281//6 1280//6 1274//6
f 1263//1 1367//1 1368//1 1257//1
f 1264//2 1262//2 1369//2 1370//2
f 1257//4 1368//4 1369//4 1262//4
f 1367//6 1370//6 1369//6 1368//6
f 1273//1 1373//1 1374//1 1265//1
f 1265//4 1374//4 1371//4 1268//4
f 1373//6 1375//6 1371//6 1374//6
f 1274//2 1271//2 1376//2 1377//2
f 1272//4 1372//4 1376//4 1271//4
f 1378//6 1377//6 1376//6 1372//6
f 1371//1 1458//1 1459//1 1367//1
f 1372//2 1370//2 1460//2 1461//2
f 1367//4 1459//4 1460//4 1370//4
f 1458//6 1461//6 1460//6 1459//6
f 1379//1 1464//1 1465//1 1373//1
f 1373//4 1465//4 1462//4 1375//4
f 1464//6 1466//6 1462//6 1465//6
f 1380//2 1377//2 1467//2 1468//2
f 1378//4 1463//4 1467//4 1377//4
f 1469//6 1468//6 1467//6 1463//6
f 1462//1 1546//1 1547//1 1458//1
f 1463//2 1461//2 1548//2 1549//2
f 1458//4 1547//4 1548//4 1461//4
f 1546//6 1549//6 1548//6 1547//6
f 1550//1 1627//1 1628//1 1546//1
f 1551//2 1549//2 1629//2 1630//2
f 1546//4 1628//4 1629//4 1549//4
f 1627//6 1630//6 1629//6 1628//6
g glyph_43
f 1//1 2//1 3//1 4//1
f 5//2 6//2 7//2 8//2
f 4//4 3//4 7//4 6//4
f 1//5 4//5 6//5 5//5
f 13//1 14//1 15//1 16//1
f 16//4 15//4 10//4 9//4
f 13//5 16//5 9//5 17//5
f 19//2 20//2 21//2 22//2
f 11//4 12//4 21//4 20//4
f 18//5 11//5 20//5 19//5
f 29//1 30//1 31//1 32//1
f 32//4 31//4 24//4 23//4
f 29//5 32//5 23//5 33//5
f 37//2 38//2 39//2 40//2
f 27//4 28//4 39//4 38//4
f 36//5 27//5 38//5 37//5
f 41//1 42//1 43//1 44//1
f 45//2 46//2 47//2 48//2
f 44//4 43//4 47//4 46//4
f 41//5 44//5 46//5 45//5
f 49//1 50//1 51//1 52//1
f 49//3 53//3 54//3 50//3
f 52//4 51//4 30//4 29//4
f 49//5 52//5 29//5 53//5
f 63//3 65//3 66//3 64//3
f 37//4 40//4 67//4 68//4
f 63//5 37//5 68//5 65//5
f 65//3 69//3 70//3 66//3
f 68//4 67//4 71//4 72//4
f 65//5 68//5 72//5 69//5
f 69//3 73//3 74//3 70//3
f 72//4 71//4 75//4 76//4
f 69//5 72//5 76//5 73//5
f 81//3 85//3 86//3 82//3
f 84//4 83//4 87//4 88//4
f 81//5 84//5 88//5 85//5
f 85//3 89//3 90//3 86//3
f 88//4 87//4 91//4 92//4
f 85//5 88//5 92//5 89//5
f 89//3 93//3 94//3 90//3
f 92//4 91//4 95//4 96//4
f 89//5 92//5 96//5 93//5
f 93//3 97//3 98//3 94//3
f 96//4 95//4 99//4 100//4
f 93//5 96//5 100//5 97//5
f 97//3 101//3 102//3 98//3
f 100//4 99//4 42//4 41//4
f 97//5 100//5 41//5 101//5
f 103//3 105//3 106//3 104//3
f 45//4 48//4 107//4 108//4
f 103//5 45//5 108//5 105//5
f 105//3 109//3 110//3 106//3
f 108//4 107//4 111//4 112//4
f 105//5 108//5 112//5 109//5
f 113//2 114//2 115//2 116//2
f 109//3 113//3 116//3 110//3
f 112//4 111//4 115//4 114//4
f 109//5 112//5 114//5 113//5
f 3//1 117//1 118//1 119//1
f 7//2 120//2 121//2 122//2
f 119//4 118//4 121//4 120//4
f 3//5 119//5 120//5 7//5
f 15//1 133//1 134//1 135//1
f 135//4 134//4 123//4 2//4
f 15//5 135//5 2//5 10//5
f 21//2 136//2 137//2 138//2
f 8//4 124//4 137//4 136//4
f 12//5 8//5 136//5 21//5
f 31//1 149//1 150//1 151//1
f 151//4 150//4 143//4 14//4
f 31//5 151//5 14//5 24//5
f 39//2 152//2 153//2 154//2
f 22//4 144//4 153//4 152//4
f 28//5 22//5 152//5 39//5
f 43//1 155//1 148//1 147//1
f 47//2 156//2 157//2 158//2
f 147//4 148//4 157//4 156//4
f 43//5 147//5 156//5 47//5
f 50//1 163//1 164//1 51//1
f 50//3 54//3 165//3 163//3
f 51//4 164//4 159//4 30//4
f 64//3 66//3 171//3 170//3
f 40//4 160//4 172//4 67//4
f 66//3 70//3 173//3 171//3
f 67//4 172//4 174//4 71//4
f 70//3 74//3 175//3 173//3
f 71//4 174//4 176//4 75//4
f 82//3 86//3 181//3 179//3
f 83//4 180//4 182//4 87//4
f 86//3 90//3 183//3 181//3
f 87//4 182//4 184//4 91//4
f 90//3 94//3 185//3 183//3
f 91//4 184//4 186//4 95//4
f 94//3 98//3 187//3 185//3
f 95//4 186//4 188//4 99//4
f 98//3 102//3 189//3 187//3
f 99//4 188//4 161//4 42//4
f 104//3 106//3 191//3 190//3
f 48//4 162//4 192//4 107//4
f 106//3 110//3 193//3 191//3
f 107//4 192//4 194//4 111//4
f 116//2 115//2 195//2 196//2
f 110//3 116//3 196//3 193//3
f 111//4 194//4 195//4 115//4
f 118//1 197//1 198//1 199//1
f 121//2 200//2 201//2 202//2
f 199//4 198//4 201//4 200//4
f 118//5 199//5 200//5 121//5
f 134//1 205//1 206//1 207//1
f 207//4 206//4 203//4 117//4
f 134//5 207//5 117//5 123//5
f 137//2 208//2 209//2 210//2
f 122//4 204//4 209//4 208//4
f 124//5 122//5 208//5 137//5
f 150//1 232//1 233//1 234//1
f 234//4 233//4 223//4 133//4
f 150//5 234//5 133//5 143//5
f 153//2 235//2 236//2 237//2
f 138//4 224//4 236//4 235//4
f 144//5 138//5 235//5 153//5
f 157//2 230//2 231//2 243//2
f 148//5 142//5 230//5 157//5
f 164//1 253//1 254//1 255//1
f 255//4 254//4 244//4 149//4
f 164//5 255//5 149//5 159//5
f 172//2 256//2 257//2 258//2
f 154//4 245//4 257//4 256//4
f 160//5 154//5 256//5 172//5
f 188//1 259//1 251//1 250//1
f 188//5 250//5 155//5 161//5
f 192//2 260//2 261//2 262//2
f 158//4 252//4 261//4 260//4
f 162//5 158//5 260//5 192//5
f 171//3 173//3 271//3 270//3
f 172//4 258//4 272//4 174//4
f 173//3 175//3 273//3 271//3
f 174//4 272//4 274//4 176//4
f 179//3 181//3 279//3 277//3
f 180//4 278//4 280//4 182//4
f 181//3 183//3 281//3 279//3
f 182//4 280//4 282//4 184//4
f 183//3 185//3 283//3 281//3
f 184//4 282//4 284//4 186//4
f 185//3 187//3 285//3 283//3
f 186//4 284//4 259//4 188//4
f 191//3 193//3 289//3 288//3
f 192//4 262//4 290//4 194//4
f 196//2 195//2 291//2 292//2
f 193//3 196//3 292//3 289//3
f 194//4 290//4 291//4 195//4
f 198//1 293//1 294//1 295//1
f 201//2 296//2 297//2 298//2
f 295//4 294//4 297//4 296//4
f 198//5 295//5 296//5 201//5
f 206//1 301//1 302//1 303//1
f 303//4 302//4 299//4 197//4
f 206//5 303//5 197//5 203//5
f 209//2 304//2 305//2 306//2
f 202//4 300//4 305//4 304//4
f 204//5 202//5 304//5 209//5
f 233//1 313//1 314//1 315//1
f 315//4 314//4 307//4 205//4
f 233//5 315//5 205//5 223//5
f 236//2 316//2 317//2 318//2
f 210//4 308//4 317//4 316//4
f 224//5 210//5 316//5 236//5
f 231//2 221//2 329//2 330//2
f 222//4 312//4 329//4 221//4
f 254//1 339//1 340//1 341//1
f 341//4 340//4 331//4 232//4
f 254//5 341//5 232//5 244//5
f 257//2 342//2 343//2 344//2
f 237//4 332//4 343//4 342//4
f 245//5 237//5 342//5 257//5
f 261//2 350//2 351//2 352//2
f 243//4 338//4 351//4 350//4
f 252//5 243//5 350//5 261//5
f 270//3 271//3 367//3 366//3
f 258//4 354//4 368//4 272//4
f 271//3 273//3 369//3 367//3
f 272//4 368//4 370//4 274//4
f 277//3 279//3 375//3 373//3
f 278//4 374//4 376//4 280//4
f 279//3 281//3 377//3 375//3
f 280//4 376//4 355//4 282//4
f 281//3 283//3 378//3 377//3
f 283//3 285//3 379//3 378//3
f 284//4 356//4 357//4 259//4
f 288//3 289//3 383//3 382//3
f 262//4 358//4 384//4 290//4
f 292//2 291//2 385//2 386//2
f 289//3 292//3 386//3 383//3
f 290//4 384//4 385//4 291//4
f 294//1 387//1 388//1 389//1
f 297//2 390//2 391//2 392//2
f 389//4 388//4 391//4 390//4
f 294//5 389//5 390//5 297//5
f 302//1 395//1 396//1 397//1
f 397//4 396//4 393//4 293//4
f 302//5 397//5 293//5 299//5
f 305//2 398//2 399//2 400//2
f 298//4 394//4 399//4 398//4
f 300//5 298//5 398//5 305//5
f 314//1 403//1 404//1 405//1
f 405//4 404//4 401//4 301//4
f 314//5 405//5 301//5 307//5
f 317//2 406//2 407//2 408//2
f 306//4 402//4 407//4 406//4
f 308//5 306//5 406//5 317//5
f 312//1 409//1 410//1 311//1
f 329//2 411//2 412//2 413//2
f 311//4 410//4 412//4 411//4
f 312//5 311//5 411//5 329//5
f 340//1 422//1 423//1 424//1
f 424//4 423//4 414//4 313//4
f 340//5 424//5 313//5 331//5
f 343//2 425//2 426//2 427//2
f 318//4 415//4 426//4 425//4
f 332//5 318//5 425//5 343//5
f 337//1 430//1 431//1 327//1
f 327//4 431//4 420//4 328//4
f 351//2 432//2 433//2 434//2
f 330//4 421//4 433//4 432//4
f 338//5 330//5 432//5 351//5
f 368//2 442//2 443//2 444//2
f 344//4 436//4 443//4 442//4
f 354//5 344//5 442//5 368//5
f 356//1 445//1 438//1 349//1
f 349//4 438//4 439//4 348//4
f 356//5 349//5 348//5 357//5
f 384//2 446//2 447//2 448//2
f 352//4 440//4 447//4 446//4
f 358//5 352//5 446//5 384//5
f 367//3 369//3 458//3 457//3
f 368//4 444//4 459//4 370//4
f 373//3 375//3 464//3 462//3
f 374//4 463//4 465//4 376//4
f 375//3 377//3 466//3 464//3
f 376//4 465//4 467//4 355//4
f 377//3 378//3 468//3 466//3
f 355//4 467//4 445//4 356//4
f 386//2 385//2 474//2 475//2
f 383//3 386//3 475//3 473//3
f 384//4 448//4 474//4 385//4
f 396//1 484//1 485//1 486//1
f 486//4 485//4 482//4 387//4
f 396//5 486//5 387//5 393//5
f 399//2 487//2 488//2 489//2
f 392//4 483//4 488//4 487//4
f 394//5 392//5 487//5 399//5
f 404//1 492//1 493//1 494//1
f 494//4 493//4 490//4 395//4
f 404//5 494//5 395//5 401//5
f 407//2 495//2 496//2 497//2
f 400//4 491//4 496//4 495//4
f 402//5 400//5 495//5 407//5
f 410//1 498//1 499//1 500//1
f 412//2 501//2 502//2 503//2
f 500//4 499//4 502//4 501//4
f 410//5 500//5 501//5 412//5
f 423//1 514//1 515//1 516//1
f 516//4 515//4 504//4 403//4
f 423//5 516//5 403//5 414//5
f 426//2 517//2 518//2 519//2
f 408//4 505//4 518//4 517//4
f 415//5 408//5 517//5 426//5
f 431//1 522//1 523//1 524//1
f 524//4 523//4 512//4 409//4
f 431//5 524//5 409//5 420//5
f 433//2 525//2 526//2 527//2
f 413//4 513//4 526//4 525//4
f 421//5 413//5 525//5 433//5
f 443//2 535//2 536//2 537//2
f 427//4 529//4 536//4 535//4
f 436//5 427//5 535//5 443//5
f 438//1 538//1 531//1 429//1
f 429//4 531//4 532//4 430//4
f 438//5 429//5 430//5 439//5
f 447//2 539//2 540//2 541//2
f 434//4 533//4 540//4 539//4
f 440//5 434//5 539//5 447//5
f 457//3 458//3 555//3 554//3
f 444//4 543//4 556//4 459//4
f 462//3 464//3 561//3 559//3
f 463//4 560//4 562//4 465//4
f 464//3 466//3 563//3 561//3
f 465//4 562//4 564//4 467//4
f 466//3 468//3 565//3 563//3
f 467//4 564//4 544//4 445//4
f 475//2 474//2 571//2 572//2
f 473//3 475//3 572//3 570//3
f 448//4 545//4 571//4 474//4
f 485//1 581//1 582//1 583//1
f 583//4 582//4 579//4 476//4
f 485//5 583//5 476//5 482//5
f 581//6 584//6 579//6 582//6
f 488//2 585//2 586//2 587//2
f 481//4 580//4 586//4 585//4
f 483//5 481//5 585//5 488//5
f 588//6 587//6 586//6 580//6
f 493//1 591//1 592//1 593//1
f 593//4 592//4 589//4 484//4
f 493//5 593//5 484//5 490//5
f 591//6 594//6 589//6 592//6
f 496//2 595//2 596//2 597//2
f 489//4 590//4 596//4 595//4
f 491//5 489//5 595//5 496//5
f 598//6 597//6 596//6 590//6
f 499//1 599//1 600//1 601//1
f 502//2 602//2 603//2 604//2
f 601//4 600//4 603//4 602//4
f 499//5 601//5 602//5 502//5
f 515//1 609//1 610//1 611//1
f 611//4 610//4 605//4 492//4
f 515//5 611//5 492//5 504//5
f 609//6 612//6 605//6 610//6
f 518//2 613//2 614//2 615//2
f 497//4 606//4 614//4 613//4
f 505//5 497//5 613//5 518//5
f 616//6 615//6 614//6 606//6
f 625//4 624//4 607//4 498//4
f 523//5 625//5 498//5 512//5
f 526//2 628//2 629//2 630//2
f 503//4 608//4 629//4 628//4
f 513//5 503//5 628//5 526//5
f 536//2 638//2 639//2 640//2
f 519//4 632//4 639//4 638//4
f 529//5 519//5 638//5 536//5
f 641//6 640//6 639//6 632//6
f 531//5 521//5 522//5 532//5
f 540//2 645//2 646//2 647//2
f 527//4 636//4 646//4 645//4
f 533//5 527//5 645//5 540//5
f 556//2 654//2 655//2 656//2
f 537//4 649//4 655//4 654//4
f 543//5 537//5 654//5 556//5
f 657//6 656//6 655//6 649//6
f 564//1 658//1 651//1 650//1
f 564//5 650//5 538//5 544//5
f 571//2 659//2 660//2 661//2
f 541//4 652//4 660//4 659//4
f 545//5 541//5 659//5 571//5
f 559//3 561//3 676//3 674//3
f 560//4 675//4 677//4 562//4
f 561//3 563//3 678//3 676//3
f 562//4 677//4 658//4 564//4
f 589//1 692//1 693//1 581//1
f 581//4 693//4 690//4 584//4
f 692//6 694//6 690//6 693//6
f 590//2 587//2 695//2 696//2
f 588//4 691//4 695//4 587//4
f 697//6 696//6 695//6 691//6
f 600//1 698//1 699//1 700//1
f 603//2 701//2 702//2 703//2
f 700//4 699//4 702//4 701//4
f 600//5 700//5 701//5 603//5
f 605//1 708//1 709//1 591//1
f 591//4 709//4 704//4 594//4
f 708//6 710//6 704//6 709//6
f 606//2 597//2 711//2 712//2
f 598//4 705//4 711//4 597//4
f 713//6 712//6 711//6 705//6
f 624//1 714//1 715//1 716//1
f 716//4 715//4 706//4 599//4
f 624//5 716//5 599//5 607//5
f 629//2 717//2 718//2 719//2
f 604//4 707//4 718//4 717//4
f 608//5 604//5 717//5 629//5
f 631//1 728//1 729//1 609//1
f 609//4 729//4 720//4 612//4
f 728//6 730//6 720//6 729//6
f 632//2 615//2 731//2 732//2
f 616//4 721//4 731//4 615//4
f 733//6 732//6 731//6 721//6
f 626//4 725//4 726//4 627//4
f 646//2 736//2 737//2 738//2
f 630//4 727//4 737//4 736//4
f 636//5 630//5 736//5 646//5
f 649//2 640//2 744//2 745//2
f 641//4 740//4 744//4 640//4
f 746//6 745//6 744//6 740//6
f 651//1 747//1 741//1 644//1
f 660//2 748//2 749//2 750//2
f 647//4 742//4 749//4 748//4
f 652//5 647//5 748//5 660//5
f 670//3 671//3 764//3 763//3
f 657//4 752//4 765//4 656//4
f 674//3 676//3 770//3 768//3
f 675//4 769//4 771//4 677//4
f 676//3 678//3 772//3 770//3
f 677//4 771//4 753//4 658//4
f 690//1 780//1 781//1 686//1
f 691//2 689//2 782//2 783//2
f 686//4 781//4 782//4 689//4
f 780//6 783//6 782//6 781//6
f 699//1 784//1 785//1 786//1
f 702//2 787//2 788//2 789//2
f 786//4 785//4 788//4 787//4
f 699//5 786//5 787//5 702//5
f 704//1 794//1 795//1 692//1
f 692//4 795//4 790//4 694//4
f 794//6 796//6 790//6 795//6
f 705//2 696//2 797//2 798//2
f 697//4 791//4 797//4 696//4
f 799//6 798//6 797//6 791//6
f 715//1 800//1 801//1 802//1
f 802//4 801//4 792//4 698//4
f 715//5 802//5 698//5 706//5
f 718//2 803//2 804//2 805//2
f 703//4 793//4 804//4 803//4
f 707//5 703//5 803//5 718//5
f 720//1 810//1 811//1 708//1
f 708//4 811//4 806//4 710//4
f 810//6 812//6 806//6 811//6
f 721//2 712//2 813//2 814//2
f 713//4 807//4 813//4 712//4
f 815//6 814//6 813//6 807//6
f 725//1 816//1 817//1 724//1
f 724//4 817//4 808//4 714//4
f 725//5 724//5 714//5 726//5
f 737//2 818//2 819//2 820//2
f 719//4 809//4 819//4 818//4
f 727//5 719//5 818//5 737//5
f 739//1 825//1 826//1 728//1
f 728//4 826//4 821//4 730//4
f 825//6 827//6 821//6 826//6
f 740//2 732//2 828//2 829//2
f 733//4 822//4 828//4 732//4
f 830//6 829//6 828//6 822//6
f 741//1 831//1 832//1 734//1
f 734//4 832//4 823//4 735//4
f 749//2 833//2 834//2 835//2
f 738//4 824//4 834//4 833//4
f 742//5 738//5 833//5 749//5
f 752//2 745//2 841//2 842//2
f 746//4 837//4 841//4 745//4
f 843//6 842//6 841//6 837//6
f 771//1 844//1 845//1 846//1
f 846//4 845//4 838//4 747//4
f 771//5 846//5 747//5 753//5
f 763//3 764//3 857//3 856//3
f 752//4 842//4 858//4 765//4
f 768//3 770//3 863//3 861//3
f 769//4 862//4 844//4 771//4
f 790//1 880//1 881//1 780//1
f 791//2 783//2 882//2 883//2
f 780//4 881//4 882//4 783//4
f 880//6 883//6 882//6 881//6
f 801//1 884//1 885//1 886//1
f 886//4 885//4 878//4 784//4
f 801//5 886//5 784//5 792//5
f 804//2 887//2 888//2 889//2
f 789//4 879//4 888//4 887//4
f 793//5 789//5 887//5 804//5
f 806//1 894//1 895//1 794//1
f 794//4 895//4 890//4 796//4
f 894//6 896//6 890//6 895//6
f 807//2 798//2 897//2 898//2
f 799//4 891//4 897//4 798//4
f 899//6 898//6 897//6 891//6
f 817//1 900//1 901//1 902//1
f 902//4 901//4 892//4 800//4
f 817//5 902//5 800//5 808//5
f 819//2 903//2 904//2 905//2
f 805//4 893//4 904//4 903//4
f 809//5 805//5 903//5 819//5
f 821//1 910//1 911//1 810//1
f 810//4 911//4 906//4 812//4
f 910//6 912//6 906//6 911//6
f 822//2 814//2 913//2 914//2
f 815//4 907//4 913//4 814//4
f 915//6 914//6 913//6 907//6
f 832//1 916//1 917//1 918//1
f 918//4 917//4 908//4 816//4
f 832//5 918//5 816//5 823//5
f 834//2 919//2 920//2 921//2
f 820//4 909//4 920//4 919//4
f 824//5 820//5 919//5 834//5
f 836//1 926//1 927//1 825//1
f 825//4 927//4 922//4 827//4
f 926//6 928//6 922//6 927//6
f 837//2 829//2 929//2 930//2
f 830//4 923//4 929//4 829//4
f 845//1 931//1 932//1 933//1
f 933//4 932//4 924//4 831//4
f 845//5 933//5 831//5 838//5
f 855//3 856//3 947//3 946//3
f 843//4 936//4 948//4 842//4
f 856//3 857//3 949//3 947//3
f 842//4 948//4 950//4 858//4
f 861//3 863//3 955//3 953//3
f 862//4 954//4 937//4 844//4
f 885//1 972//1 973//1 974//1
f 974//4 973//4 970//4 872//4
f 885//5 974//5 872//5 878//5
f 888//2 975//2 976//2 977//2
f 877//4 971//4 976//4 975//4
f 879//5 877//5 975//5 888//5
f 890//1 980//1 981//1 880//1
f 891//2 883//2 982//2 983//2
f 880//4 981//4 982//4 883//4
f 980//6 983//6 982//6 981//6
f 901//1 984//1 985//1 986//1
f 986//4 985//4 978//4 884//4
f 901//5 986//5 884//5 892//5
f 904//2 987//2 988//2 989//2
f 889//4 979//4 988//4 987//4
f 893//5 889//5 987//5 904//5
f 906//1 994//1 995//1 894//1
f 894//4 995//4 990//4 896//4
f 994//6 996//6 990//6 995//6
f 907//2 898//2 997//2 998//2
f 899//4 991//4 997//4 898//4
f 999//6 998//6 997//6 991//6
f 917//1 1000//1 1001//1 1002//1
f 1002//4 1001//4 992//4 900//4
f 917//5 1002//5 900//5 908//5
f 920//2 1003//2 1004//2 1005//2
f 905//4 993//4 1004//4 1003//4
f 909//5 905//5 1003//5 920//5
f 922//1 1016//1 1017//1 910//1
f 910//4 1017//4 1006//4 912//4
f 1016//6 1018//6 1006//6 1017//6
f 915//4 1007//4 1008//4 914//4
f 932//1 1020//1 1021//1 1022//1
f 1022//4 1021//4 1014//4 916//4
f 932//5 1022//5 916//5 924//5
f 935//1 1028//1 1029//1 926//1
f 926//4 1029//4 1024//4 928//4
f 1028//6 1030//6 1024//6 1029//6
f 936//2 930//2 1025//2 1031//2
f 954//1 1032//1 1033//1 1034//1
f 1034//4 1033//4 1026//4 931//4
f 954//5 1034//5 931//5 937//5
f 946//3 947//3 1044//3 1043//3
f 936//4 1031//4 1045//4 948//4
f 947//3 949//3 1046//3 1044//3
f 948//4 1045//4 1047//4 950//4
f 985//1 1076//1 1077//1 1078//1
f 1078//4 1077//4 1074//4 972//4
f 985//5 1078//5 972//5 978//5
f 988//2 1079//2 1080//2 1081//2
f 977//4 1075//4 1080//4 1079//4
f 979//5 977//5 1079//5 988//5
f 990//1 1084//1 1085//1 980//1
f 991//2 983//2 1086//2 1087//2
f 980//4 1085//4 1086//4 983//4
f 1084//6 1087//6 1086//6 1085//6
f 1001//1 1088//1 1089//1 1090//1
f 1090//4 1089//4 1082//4 984//4
f 1001//5 1090//5 984//5 992//5
f 1004//2 1091//2 1092//2 1093//2
f 989//4 1083//4 1092//4 1091//4
f 993//5 989//5 1091//5 1004//5
f 1006//1 1098//1 1099//1 994//1
f 994//4 1099//4 1094//4 996//4
f 1098//6 1100//6 1094//6 1099//6
f 999//4 1095//4 1101//4 998//4
f 1102//6 1103//6 1101//6 1095//6
f 1021//1 1111//1 1112//1 1113//1
f 1113//4 1112//4 1096//4 1000//4
f 1021//5 1113//5 1000//5 1014//5
f 1024//1 1121//1 1122//1 1016//1
f 1016//4 1122//4 1115//4 1018//4
f 1121//6 1123//6 1115//6 1122//6
f 1033//1 1127//1 1128//1 1129//1
f 1129//4 1128//4 1119//4 1020//4
f 1033//5 1129//5 1020//5 1026//5
f 1036//1 1137//1 1138//1 1028//1
f 1036//3 1037//3 1139//3 1137//3
f 1028//4 1138//4 1131//4 1030//4
f 1042//3 1043//3 1145//3 1144//3
f 1043//3 1044//3 1146//3 1145//3
f 1031//4 1132//4 1147//4 1045//4
f 1044//3 1046//3 1148//3 1146//3
f 1045//4 1147//4 1149//4 1047//4
f 1077//1 1178//1 1179//1 1180//1
f 1180//4 1179//4 1176//4 1068//4
f 1077//5 1180//5 1068//5 1074//5
f 1080//2 1181//2 1182//2 1183//2
f 1073//4 1177//4 1182//4 1181//4
f 1075//5 1073//5 1181//5 1080//5
f 1089//1 1186//1 1187//1 1188//1
f 1188//4 1187//4 1184//4 1076//4
f 1089//5 1188//5 1076//5 1082//5
f 1092//2 1189//2 1190//2 1191//2
f 1081//4 1185//4 1190//4 1189//4
f 1083//5 1081//5 1189//5 1092//5
f 1094//1 1194//1 1195//1 1084//1
f 1095//2 1087//2 1196//2 1197//2
f 1084//4 1195//4 1196//4 1087//4
f 1194//6 1197//6 1196//6 1195//6
f 1112//1 1198//1 1199//1 1200//1
f 1200//4 1199//4 1192//4 1088//4
f 1112//5 1200//5 1088//5 1096//5
f 1115//1 1211//1 1212//1 1098//1
f 1098//4 1212//4 1202//4 1100//4
f 1211//6 1213//6 1202//6 1212//6
f 1102//4 1203//4 1204//4 1103//4
f 1128//1 1215//1 1216//1 1217//1
f 1217//4 1216//4 1209//4 1111//4
f 1128//5 1217//5 1111//5 1119//5
f 1131//1 1224//1 1225//1 1121//1
f 1121//4 1225//4 1219//4 1123//4
f 1224//6 1226//6 1219//6 1225//6
f 1133//2 1134//2 1221//2 1227//2
f 1151//1 1228//1 1229//1 1230//1
f 1230//4 1229//4 1222//4 1127//4
f 1151//5 1230//5 1127//5 1135//5
f 1137//1 1232//1 1233//1 1138//1
f 1137//3 1139//3 1234//3 1232//3
f 1138//4 1233//4 1224//4 1131//4
f 1144//3 1145//3 1240//3 1239//3
f 1133//4 1227//4 1241//4 1132//4
f 1145//3 1146//3 1242//3 1240//3
f 1132//4 1241//4 1243//4 1147//4
f 1146//3 1148//3 1244//3 1242//3
f 1147//4 1243//4 1245//4 1149//4
f 1187//1 1285//1 1286//1 1287//1
f 1287//4 1286//4 1283//4 1178//4
f 1187//5 1287//5 1178//5 1184//5
f 1285//6 1288//6 1283//6 1286//6
f 1190//2 1289//2 1290//2 1291//2
f 1183//4 1284//4 1290//4 1289//4
f 1185//5 1183//5 1289//5 1190//5
f 1292//6 1291//6 1290//6 1284//6
f 1199//1 1295//1 1296//1 1297//1
f 1297//4 1296//4 1293//4 1186//4
f 1199//5 1297//5 1186//5 1192//5
f 1295//6 1298//6 1293//6 1296//6
f 1202//1 1302//1 1303//1 1194//1
f 1194//4 1303//4 1304//4 1197//4
f 1302//6 1305//6 1304//6 1303//6
f 1216//1 1312//1 1313//1 1314//1
f 1314//4 1313//4 1300//4 1198//4
f 1216//5 1314//5 1198//5 1209//5
f 1312//6 1315//6 1300//6 1313//6
f 1219//1 1324//1 1325//1 1211//1
f 1211//4 1325//4 1317//4 1213//4
f 1324//6 1326//6 1317//6 1325//6
f 1327//6 1328//6 1319//6 1318//6
f 1229//1 1331//1 1332//1 1333//1
f 1333//4 1332//4 1322//4 1215//4
f 1229//5 1333//5 1215//5 1222//5
f 1331//6 1334//6 1322//6 1332//6
f 1232//1 1341//1 1342//1 1233//1
f 1232//3 1234//3 1343//3 1341//3
f 1233//4 1342//4 1344//4 1224//4
f 1234//3 1235//3 1345//3 1343//3
f 1224//4 1344//4 1336//4 1226//4
f 1238//3 1239//3 1349//3 1348//3
f 1239//3 1240//3 1350//3 1349//3
f 1227//4 1337//4 1351//4 1241//4
f 1240//3 1242//3 1352//3 1350//3
f 1241//4 1351//4 1353//4 1243//4
f 1242//3 1244//3 1354//3 1352//3
f 1243//4 1353//4 1355//4 1245//4
f 1283//1 1381//1 1382//1 1275//1
f 1275//4 1382//4 1379//4 1278//4
f 1381//6 1383//6 1379//6 1382//6
f 1284//2 1281//2 1384//2 1385//2
f 1282//4 1380//4 1384//4 1281//4
f 1386//6 1385//6 1384//6 1380//6
f 1293//1 1389//1 1390//1 1285//1
f 1285//4 1390//4 1387//4 1288//4
f 1389//6 1391//6 1387//6 1390//6
f 1294//2 1291//2 1392//2 1393//2
f 1292//4 1388//4 1392//4 1291//4
f 1394//6 1393//6 1392//6 1388//6
f 1300//1 1397//1 1398//1 1295//1
f 1295//4 1398//4 1395//4 1298//4
f 1397//6 1399//6 1395//6 1398//6
f 1317//1 1407//1 1408//1 1302//1
f 1318//2 1305//2 1409//2 1410//2
f 1302//4 1408//4 1409//4 1305//4
f 1407//6 1410//6 1409//6 1408//6
f 1322//1 1413//1 1414//1 1312//1
f 1312//4 1414//4 1405//4 1315//4
f 1413//6 1415//6 1405//6 1414//6
f 1336//1 1423//1 1424//1 1324//1
f 1324//4 1424//4 1417//4 1326//4
f 1423//6 1425//6 1417//6 1424//6
f 1338//2 1328//2 1419//2 1426//2
f 1327//4 1418//4 1419//4 1328//4
f 1339//1 1427//1 1428//1 1331//1
f 1331//4 1428//4 1421//4 1334//4
f 1427//6 1429//6 1421//6 1428//6
f 1341//1 1431//1 1432//1 1342//1
f 1341//3 1343//3 1433//3 1431//3
f 1342//4 1432//4 1434//4 1344//4
f 1343//3 1345//3 1435//3 1433//3
f 1344//4 1434//4 1423//4 1336//4
f 1348//3 1349//3 1439//3 1438//3
f 1338//4 1426//4 1440//4 1337//4
f 1349//3 1350//3 1441//3 1439//3
f 1337//4 1440//4 1442//4 1351//4
f 1350//3 1352//3 1443//3 1441//3
f 1351//4 1442//4 1444//4 1353//4
f 1352//3 1354//3 1445//3 1443//3
f 1353//4 1444//4 1446//4 1355//4
f 1387//1 1472//1 1473//1 1381//1
f 1381//4 1473//4 1470//4 1383//4
f 1472//6 1474//6 1470//6 1473//6
f 1388//2 1385//2 1475//2 1476//2
f 1386//4 1471//4 1475//4 1385//4
f 1477//6 1476//6 1475//6 1471//6
f 1395//1 1480//1 1481//1 1389//1
f 1389//4 1481//4 1478//4 1391//4
f 1480//6 1482//6 1478//6 1481//6
f 1396//2 1393//2 1483//2 1484//2
f 1394//4 1479//4 1483//4 1393//4
f 1485//6 1484//6 1483//6 1479//6
f 1405//1 1492//1 1493//1 1397//1
f 1397//4 1493//4 1486//4 1399//4
f 1492//6 1494//6 1486//6 1493//6
f 1417//1 1504//1 1505//1 1407//1
f 1407//4 1505//4 1496//4 1410//4
f 1504//6 1506//6 1496//6 1505//6
f 1421//1 1512//1 1513//1 1413//1
f 1413//4 1513//4 1502//4 1415//4
f 1512//6 1514//6 1502//6 1513//6
f 1431//1 1520//1 1521//1 1432//1
f 1431//3 1433//3 1522//3 1520//3
f 1432//4 1521//4 1523//4 1434//4
f 1433//3 1435//3 1524//3 1522//3
f 1434//4 1523//4 1525//4 1423//4
f 1435//3 1436//3 1526//3 1524//3
f 1423//4 1525//4 1516//4 1425//4
f 1437//3 1438//3 1528//3 1527//3
f 1438//3 1439//3 1529//3 1528//3
f 1439//3 1441//3 1530//3 1529//3
f 1441//3 1443//3 1531//3 1530//3
f 1443//3 1445//3 1532//3 1531//3
f 1444//4 1517//4 1533//4 1446//4
f 1470//1 1552//1 1553//1 1464//1
f 1464//4 1553//4 1550//4 1466//4
f 1552//6 1554//6 1550//6 1553//6
f 1471//2 1468//2 1555//2 1556//2
f 1469//4 1551//4 1555//4 1468//4
f 1557//6 1556//6 1555//6 1551//6
f 1478//1 1560//1 1561//1 1472//1
f 1472//4 1561//4 1558//4 1474//4
f 1560//6 1562//6 1558//6 1561//6
f 1479//2 1476//2 1563//2 1564//2
f 1477//4 1559//4 1563//4 1476//4
f 1565//6 1564//6 1563//6 1559//6
f 1486//1 1568//1 1569//1 1480//1
f 1480//4 1569//4 1566//4 1482//4
f 1568//6 1570//6 1566//6 1569//6
f 1487//2 1484//2 1571//2 1572//2
f 1485//4 1567//4 1571//4 1484//4
f 1573//6 1572//6 1571//6 1567//6
f 1502//1 1584//1 1585//1 1492//1
f 1492//4 1585//4 1578//4 1494//4
f 1584//6 1586//6 1578//6 1585//6
f 1516//1 1593//1 1594//1 1504//1
f 1504//4 1594//4 1588//4 1506//4
f 1593//6 1595//6 1588//6 1594//6
f 1518//1 1597//1 1598//1 1512//1
f 1512//4 1598//4 1591//4 1514//4
f 1597//6 1599//6 1591//6 1598//6
f 1520//1 1601//1 1602//1 1521//1
f 1520//3 1522//3 1603//3 1601//3
f 1521//4 1602//4 1604//4 1523//4
f 1522//3 1524//3 1605//3 1603//3
f 1523//4 1604//4 1606//4 1525//4
f 1524//3 1526//3 1607//3 1605//3
f 1525//4 1606//4 1593//4 1516//4
f 1527//3 1528//3 1609//3 1608//3
f 1528//3 1529//3 1610//3 1609//3
f 1529//3 1530//3 1611//3 1610//3
f 1530//3 1531//3 1612//3 1611//3
f 1531//3 1532//3 1613//3 1612//3
f 1517//4 1596//4 1614//4 1533//4
f 1558//1 1633//1 1634//1 1552//1
f 1552//4 1634//4 1631//4 1554//4
f 1633//6 1635//6 1631//6 1634//6
f 1559//2 1556//2 1636//2 1637//2
f 1557//4 1632//4 1636//4 1556//4
f 1638//6 1637//6 1636//6 1632//6
f 1566//1 1641//1 1642//1 1560//1
f 1560//4 1642//4 1639//4 1562//4
f 1641//6 1643//6 1639//6 1642//6
f 1567//2 1564//2 1644//2 1645//2
f 1565//4 1640//4 1644//4 1564//4
f 1646//6 1645//6 1644//6 1640//6
f 1578//1 1653//1 1654//1 1568//1
f 1568//4 1654//4 1647//4 1570//4
f 1653//6 1655//6 1647//6 1654//6
f 1579//2 1572//2 1656//2 1657//2
f 1573//4 1648//4 1656//4 1572//4
f 1658//6 1657//6 1656//6 1648//6
f 1591//1 1668//1 1669//1 1584//1
f 1584//4 1669//4 1663//4 1586//4
f 1668//6 1670//6 1663//6 1669//6
f 1601//1 1676//1 1677//1 1602//1
f 1601//3 1603//3 1678//3 1676//3
f 1602//4 1677//4 1679//4 1604//4
f 1603//3 1605//3 1680//3 1678//3
f 1604//4 1679//4 1681//4 1606//4
f 1605//3 1607//3 1682//3 1680//3
f 1606//4 1681//4 1683//4 1593//4
f 1607//3 1608//3 1684//3 1682//3
f 1593//4 1683//4 1672//4 1595//4
f 1608//3 1609//3 1685//3 1684//3
f 1609//3 1610//3 1686//3 1685//3
f 1610//3 1611//3 1687//3 1686//3
f 1611//3 1612//3 1688//3 1687//3
f 1612//3 1613//3 1689//3 1688//3
f 1596//4 1673//4 1690//4 1614//4
f 1617//3 1618//3 1695//3 1693//3
f 1597//4 1694//4 1674//4 1599//4
f 1631//1 1704//1 1705//1 1627//1
f 1632//2 1630//2 1706//2 1707//2
f 1627//4 1705//4 1706//4 1630//4
f 1704//6 1707//6 1706//6 1705//6
f 1639//1 1710//1 1711//1 1633//1
f 1633//4 1711//4 1708//4 1635//4
f 1710//6 1712//6 1708//6 1711//6
f 1640//2 1637//2 1713//2 1714//2
f 1638//4 1709//4 1713//4 1637//4
f 1715//6 1714//6 1713//6 1709//6
f 1647//1 1718//1 1719//1 1641//1
f 1641//4 1719//4 1716//4 1643//4
f 1718//6 1720//6 1716//6 1719//6
f 1648//2 1645//2 1721//2 1722//2
f 1646//4 1717//4 1721//4 1645//4
f 1723//6 1722//6 1721//6 1717//6
f 1663//1 1736//1 1737//1 1653//1
f 1653//4 1737//4 1728//4 1655//4
f 1736//6 1738//6 1728//6 1737//6
f 1664//2 1657//2 1739//2 1740//2
f 1658//4 1729//4 1739//4 1657//4
f 1741//6 1740//6 1739//6 1729//6
f 1674//1 1755//1 1756//1 1668//1
f 1668//4 1756//4 1748//4 1670//4
f 1755//6 1757//6 1748//6 1756//6
f 1676//1 1759//1 1760//1 1677//1
f 1676//3 1678//3 1761//3 1759//3
f 1677//4 1760//4 1762//4 1679//4
f 1678//3 1680//3 1763//3 1761//3
f 1679//4 1762//4 1764//4 1681//4
f 1680//3 1682//3 1765//3 1763//3
f 1681//4 1764//4 1766//4 1683//4
f 1682//3 1684//3 1767//3 1765//3
f 1683//4 1766//4 1750//4 1672//4
f 1684//3 1685//3 1768//3 1767//3
f 1685//3 1686//3 1769//3 1768//3
f 1686//3 1687//3 1770//3 1769//3
f 1687//3 1688//3 1771//3 1770//3
f 1688//3 1689//3 1772//3 1771//3
f 1673//4 1754//4 1773//4 1690//4
f 1693//3 1695//3 1778//3 1776//3
f 1694//4 1777//4 1755//4 1674//4
f 1708//1 1787//1 1788//1 1704//1
f 1709//2 1707//2 1789//2 1790//2
f 1704//4 1788//4 1789//4 1707//4
f 1787//6 1790//6 1789//6 1788//6
f 1716//1 1793//1 1794//1 1710//1
f 1710//4 1794//4 1791//4 1712//4
f 1793//6 1795//6 1791//6 1794//6
f 1717//2 1714//2 1797//2 1798//2
f 1715//4 1792//4 1797//4 1714//4
f 1796//6 1798//6 1797//6 1792//6
f 1728//1 1803//1 1804//1 1718//1
f 1718//4 1804//4 1799//4 1720//4
f 1803//6 1805//6 1799//6 1804//6
f 1729//2 1722//2 1809//2 1810//2
f 1723//4 1802//4 1809//4 1722//4
f 1808//6 1810//6 1809//6 1802//6
f 1748//1 1817//1 1818//1 1736//1
f 1736//4 1818//4 1811//4 1738//4
f 1817//6 1819//6 1811//6 1818//6
f 1749//2 1740//2 1825//2 1826//2
f 1741//4 1816//4 1825//4 1740//4
f 1824//6 1826//6 1825//6 1816//6
f 1759//1 1835//1 1836//1 1760//1
f 1759//3 1761//3 1837//3 1835//3
f 1760//4 1836//4 1838//4 1762//4
f 1835//6 1837//6 1838//6 1836//6
f 1761//3 1763//3 1839//3 1837//3
f 1762//4 1838//4 1840//4 1764//4
f 1837//6 1839//6 1840//6 1838//6
f 1763//3 1765//3 1841//3 1839//3
f 1764//4 1840//4 1842//4 1766//4
f 1839//6 1841//6 1842//6 1840//6
f 1765//3 1767//3 1843//3 1841//3
f 1766//4 1842//4 1844//4 1750//4
f 1841//6 1843//6 1844//6 1842//6
f 1767//3 1768//3 1845//3 1843//3
f 1750//4 1844//4 1846//4 1751//4
f 1843//6 1845//6 1846//6 1844//6
f 1768//3 1769//3 1847//3 1845//3
f 1751//4 1846//4 1848//4 1752//4
f 1845//6 1847//6 1848//6 1846//6
f 1769//3 1770//3 1849//3 1847//3
f 1752//4 1848//4 1850//4 1753//4
f 1847//6 1849//6 1850//6 1848//6
f 1770//3 1771//3 1851//3 1849//3
f 1753//4 1850//4 1852//4 1754//4
f 1849//6 1851//6 1852//6 1850//6
f 1771//3 1772//3 1853//3 1851//3
f 1754//4 1852//4 1854//4 1773//4
f 1851//6 1853//6 1854//6 1852//6
f 1776//3 1778//3 1859//3 1857//3
f 1777//4 1858//4 1860//4 1755//4
f 1857//6 1859//6 1860//6 1858//6
f 1778//3 1779//3 1861//3 1859//3
f 1755//4 1860//4 1827//4 1757//4
f 1859//6 1861//6 1827//6 1860//6
g glyph_58
f 9//1 10//1 2//1 1//1
f 11//2 5//2 8//2 12//2
f 9//5 1//5 5//5 11//5
f 17//5 9//5 11//5 18//5
f 23//1 24//1 14//1 13//1
f 23//5 13//5 17//5 25//5
f 25//5 17//5 18//5 26//5
f 27//2 19//2 22//2 28//2
f 26//5 18//5 19//5 27//5
f 33//5 23//5 25//5 34//5
f 34//5 25//5 26//5 35//5
f 35//5 26//5 27//5 36//5
f 53//3 55//3 56//3 54//3
f 53//5 29//5 33//5 55//5
f 55//3 57//3 58//3 56//3
f 55//5 33//5 34//5 57//5
f 57//3 59//3 60//3 58//3
f 57//5 34//5 35//5 59//5
f 59//3 61//3 62//3 60//3
f 59//5 35//5 36//5 61//5
f 61//3 63//3 64//3 62//3
f 61//5 36//5 37//5 63//5
f 101//3 103//3 104//3 102//3
f 101//5 41//5 45//5 103//5
f 2//1 123//1 117//1 3//1
f 8//2 7//2 122//2 124//2
f 14//1 143//1 133//1 15//1
f 22//2 21//2 138//2 144//2
f 30//1 159//1 149//1 31//1
f 40//2 39//2 154//2 160//2
f 42//1 161//1 155//1 43//1
f 48//2 47//2 158//2 162//2
f 54//3 56//3 166//3 165//3
f 56//3 58//3 167//3 166//3
f 58//3 60//3 168//3 167//3
f 60//3 62//3 169//3 168//3
f 62//3 64//3 170//3 169//3
f 102//3 104//3 190//3 189//3
f 117//1 203//1 197//1 118//1
f 122//2 121//2 202//2 204//2
f 133//1 223//1 205//1 134//1
f 138//2 137//2 210//2 224//2
f 149//1 244//1 232//1 150//1
f 154//2 153//2 237//2 245//2
f 158//2 157//2 243//2 252//2
f 163//1 263//1 253//1 164//1
f 163//3 165//3 264//3 263//3
f 165//3 166//3 265//3 264//3
f 166//3 167//3 266//3 265//3
f 167//3 168//3 267//3 266//3
f 168//3 169//3 268//3 267//3
f 169//3 170//3 269//3 268//3
f 170//3 171//3 270//3 269//3
f 187//3 189//3 286//3 285//3
f 189//3 190//3 287//3 286//3
f 190//3 191//3 288//3 287//3
f 197//1 299//1 293//1 198//1
f 202//2 201//2 298//2 300//2
f 205//1 307//1 301//1 206//1
f 210//2 209//2 306//2 308//2
f 232//1 331//1 313//1 233//1
f 237//2 236//2 318//2 332//2
f 243//2 231//2 330//2 338//2
f 253//1 353//1 339//1 254//1
f 258//2 257//2 344//2 354//2
f 259//1 357//1 348//1 251//1
f 262//2 261//2 352//2 358//2
f 263//1 359//1 353//1 253//1
f 263//3 264//3 360//3 359//3
f 264//3 265//3 361//3 360//3
f 265//3 266//3 362//3 361//3
f 266//3 267//3 363//3 362//3
f 267//3 268//3 364//3 363//3
f 268//3 269//3 365//3 364//3
f 269//3 270//3 366//3 365//3
f 285//3 286//3 380//3 379//3
f 286//3 287//3 381//3 380//3
f 287//3 288//3 382//3 381//3
f 293//1 393//1 387//1 294//1
f 298//2 297//2 392//2 394//2
f 301//1 401//1 395//1 302//1
f 306//2 305//2 400//2 402//2
f 313//1 414//1 403//1 314//1
f 318//2 317//2 408//2 415//2
f 328//1 420//1 409//1 312//1
f 330//2 329//2 413//2 421//2
f 339//1 435//1 422//1 340//1
f 344//2 343//2 427//2 436//2
f 348//1 439//1 430//1 337//1
f 352//2 351//2 434//2 440//2
f 353//1 441//1 435//1 339//1
f 359//1 449//1 441//1 353//1
f 359//3 360//3 450//3 449//3
f 360//3 361//3 451//3 450//3
f 361//3 362//3 452//3 451//3
f 362//3 363//3 453//3 452//3
f 363//3 364//3 454//3 453//3
f 364//3 365//3 455//3 454//3
f 365//3 366//3 456//3 455//3
f 366//3 367//3 457//3 456//3
f 378//3 379//3 469//3 468//3
f 379//3 380//3 470//3 469//3
f 380//3 381//3 471//3 470//3
f 381//3 382//3 472//3 471//3
f 382//3 383//3 473//3 472//3
f 387//1 482//1 476//1 388//1
f 392//2 391//2 481//2 483//2
f 395//1 490//1 484//1 396//1
f 400//2 399//2 489//2 491//2
f 403//1 504//1 492//1 404//1
f 408//2 407//2 497//2 505//2
f 409//1 512//1 498//1 410//1
f 413//2 412//2 503//2 513//2
f 422//1 528//1 514//1 423//1
f 427//2 426//2 519//2 529//2
f 430//1 532//1 522//1 431//1
f 434//2 433//2 527//2 533//2
f 435//1 534//1 528//1 422//1
f 441//1 542//1 534//1 435//1
f 444//2 443//2 537//2 543//2
f 445//1 544//1 538//1 438//1
f 448//2 447//2 541//2 545//2
f 449//1 546//1 542//1 441//1
f 449//3 450//3 547//3 546//3
f 450//3 451//3 548//3 547//3
f 451//3 452//3 549//3 548//3
f 452//3 453//3 550//3 549//3
f 453//3 454//3 551//3 550//3
f 454//3 455//3 552//3 551//3
f 455//3 456//3 553//3 552//3
f 456//3 457//3 554//3 553//3
f 468//3 469//3 566//3 565//3
f 469//3 470//3 567//3 566//3
f 470//3 471//3 568//3 567//3
f 471//3 472//3 569//3 568//3
f 472//3 473//3 570//3 569//3
f 476//1 579//1 573//1 477//1
f 481//2 480//2 578//2 580//2
f 484//1 589//1 581//1 485//1
f 489//2 488//2 587//2 590//2
f 492//1 605//1 591//1 493//1
f 497//2 496//2 597//2 606//2
f 498//1 607//1 599//1 499//1
f 503//2 502//2 604//2 608//2
f 514//1 631//1 609//1 515//1
f 519//2 518//2 615//2 632//2
f 527//2 526//2 630//2 636//2
f 528//1 637//1 631//1 514//1
f 534//1 648//1 637//1 528//1
f 537//2 536//2 640//2 649//2
f 541//2 540//2 647//2 652//2
f 542//1 653//1 648//1 534//1
f 546//1 662//1 653//1 542//1
f 546//3 547//3 663//3 662//3
f 547//3 548//3 664//3 663//3
f 548//3 549//3 665//3 664//3
f 549//3 550//3 666//3 665//3
f 550//3 551//3 667//3 666//3
f 551//3 552//3 668//3 667//3
f 552//3 553//3 669//3 668//3
f 553//3 554//3 670//3 669//3
f 554//3 555//3 671//3 670//3
f 563//3 565//3 679//3 678//3
f 565//3 566//3 680//3 679//3
f 566//3 567//3 681//3 680//3
f 567//3 568//3 682//3 681//3
f 568//3 569//3 683//3 682//3
f 569//3 570//3 684//3 683//3
f 572//2 571//2 661//2 685//2
f 570//3 572//3 685//3 684//3
f 584//1 690//1 686//1 579//1
f 588//2 580//2 689//2 691//2
f 594//1 704//1 692//1 589//1
f 598//2 590//2 696//2 705//2
f 599//1 706//1 698//1 600//1
f 604//2 603//2 703//2 707//2
f 612//1 720//1 708//1 605//1
f 616//2 606//2 712//2 721//2
f 627//1 726//1 714//1 624//1
f 630//2 629//2 719//2 727//2
f 637//1 739//1 728//1 631//1
f 641//2 632//2 732//2 740//2
f 647//2 646//2 738//2 742//2
f 648//1 743//1 739//1 637//1
f 653//1 751//1 743//1 648//1
f 657//2 649//2 745//2 752//2
f 658//1 753//1 747//1 651//1
f 661//2 660//2 750//2 754//2
f 662//1 755//1 751//1 653//1
f 662//3 663//3 756//3 755//3
f 663//3 664//3 757//3 756//3
f 664//3 665//3 758//3 757//3
f 665//3 666//3 759//3 758//3
f 666//3 667//3 760//3 759//3
f 667//3 668//3 761//3 760//3
f 668//3 669//3 762//3 761//3
f 669//3 670//3 763//3 762//3
f 678//3 679//3 773//3 772//3
f 679//3 680//3 774//3 773//3
f 680//3 681//3 775//3 774//3
f 681//3 682//3 776//3 775//3
f 682//3 683//3 777//3 776//3
f 683//3 684//3 778//3 777//3
f 685//2 661//2 754//2 779//2
f 684//3 685//3 779//3 778//3
f 694//1 790//1 780//1 690//1
f 697//2 691//2 783//2 791//2
f 698//1 792//1 784//1 699//1
f 703//2 702//2 789//2 793//2
f 710//1 806//1 794//1 704//1
f 713//2 705//2 798//2 807//2
f 714//1 808//1 800//1 715//1
f 719//2 718//2 805//2 809//2
f 730//1 821//1 810//1 720//1
f 733//2 721//2 814//2 822//2
f 735//1 823//1 816//1 725//1
f 738//2 737//2 820//2 824//2
f 743//1 836//1 825//1 739//1
f 746//2 740//2 829//2 837//2
f 747//1 838//1 831//1 741//1
f 750//2 749//2 835//2 839//2
f 751//1 840//1 836//1 743//1
f 754//2 750//2 839//2 847//2
f 755//1 848//1 840//1 751//1
f 755//3 756//3 849//3 848//3
f 756//3 757//3 850//3 849//3
f 757//3 758//3 851//3 850//3
f 758//3 759//3 852//3 851//3
f 759//3 760//3 853//3 852//3
f 760//3 761//3 854//3 853//3
f 761//3 762//3 855//3 854//3
f 762//3 763//3 856//3 855//3
f 770//3 772//3 864//3 863//3
f 772//3 773//3 865//3 864//3
f 773//3 774//3 866//3 865//3
f 774//3 775//3 867//3 866//3
f 775//3 776//3 868//3 867//3
f 776//3 777//3 869//3 868//3
f 777//3 778//3 870//3 869//3
f 779//2 754//2 847//2 871//2
f 778//3 779//3 871//3 870//3
f 784//1 878//1 872//1 785//1
f 789//2 788//2 877//2 879//2
f 796//1 890//1 880//1 790//1
f 799//2 791//2 883//2 891//2
f 800//1 892//1 884//1 801//1
f 805//2 804//2 889//2 893//2
f 812//1 906//1 894//1 806//1
f 815//2 807//2 898//2 907//2
f 816//1 908//1 900//1 817//1
f 820//2 819//2 905//2 909//2
f 827//1 922//1 910//1 821//1
f 830//2 822//2 914//2 923//2
f 831//1 924//1 916//1 832//1
f 835//2 834//2 921//2 925//2
f 839//2 835//2 925//2 934//2
f 840//1 935//1 926//1 836//1
f 843//2 837//2 930//2 936//2
f 844//1 937//1 931//1 845//1
f 847//2 839//2 934//2 938//2
f 848//1 939//1 935//1 840//1
f 848//3 849//3 940//3 939//3
f 849//3 850//3 941//3 940//3
f 850//3 851//3 942//3 941//3
f 851//3 852//3 943//3 942//3
f 852//3 853//3 944//3 943//3
f 853//3 854//3 945//3 944//3
f 854//3 855//3 946//3 945//3
f 863//3 864//3 956//3 955//3
f 864//3 865//3 957//3 956//3
f 865//3 866//3 958//3 957//3
f 866//3 867//3 959//3 958//3
f 867//3 868//3 960//3 959//3
f 868//3 869//3 961//3 960//3
f 869//3 870//3 962//3 961//3
f 871//2 847//2 938//2 963//2
f 870//3 871//3 963//3 962//3
f 872//1 970//1 964//1 873//1
f 877//2 876//2 969//2 971//2
f 884//1 978//1 972//1 885//1
f 889//2 888//2 977//2 979//2
f 896//1 990//1 980//1 890//1
f 899//2 891//2 983//2 991//2
f 900//1 992//1 984//1 901//1
f 905//2 904//2 989//2 993//2
f 912//1 1006//1 994//1 906//1
f 915//2 907//2 998//2 1007//2
f 916//1 1014//1 1000//1 917//1
f 921//2 920//2 1005//2 1015//2
f 925//2 921//2 1015//2 1023//2
f 928//1 1024//1 1016//1 922//1
f 931//1 1026//1 1020//1 932//1
f 934//2 925//2 1023//2 1027//2
f 938//2 934//2 1027//2 1035//2
f 939//1 1036//1 1028//1 935//1
f 939//3 940//3 1037//3 1036//3
f 940//3 941//3 1038//3 1037//3
f 941//3 942//3 1039//3 1038//3
f 942//3 943//3 1040//3 1039//3
f 943//3 944//3 1041//3 1040//3
f 944//3 945//3 1042//3 1041//3
f 945//3 946//3 1043//3 1042//3
f 953//3 955//3 1051//3 1050//3
f 955//3 956//3 1052//3 1051//3
f 956//3 957//3 1053//3 1052//3
f 957//3 958//3 1054//3 1053//3
f 958//3 959//3 1055//3 1054//3
f 959//3 960//3 1056//3 1055//3
f 960//3 961//3 1057//3 1056//3
f 961//3 962//3 1058//3 1057//3
f 963//2 938//2 1035//2 1059//2
f 962//3 963//3 1059//3 1058//3
f 964//1 1066//1 1060//1 965//1
f 969//2 968//2 1065//2 1067//2
f 972//1 1074//1 1068//1 973//1
f 977//2 976//2 1073//2 1075//2
f 984//1 1082//1 1076//1 985//1
f 989//2 988//2 1081//2 1083//2
f 996//1 1094//1 1084//1 990//1
f 999//2 991//2 1087//2 1095//2
f 1000//1 1096//1 1088//1 1001//1
f 1005//2 1004//2 1093//2 1097//2
f 1015//2 1005//2 1097//2 1114//2
f 1018//1 1115//1 1098//1 1006//1
f 1020//1 1119//1 1111//1 1021//1
f 1023//2 1015//2 1114//2 1120//2
f 1027//2 1023//2 1120//2 1130//2
f 1030//1 1131//1 1121//1 1024//1
f 1032//1 1135//1 1127//1 1033//1
f 1035//2 1027//2 1130//2 1136//2
f 1037//3 1038//3 1140//3 1139//3
f 1038//3 1039//3 1141//3 1140//3
f 1039//3 1040//3 1142//3 1141//3
f 1040//3 1041//3 1143//3 1142//3
f 1041//3 1042//3 1144//3 1143//3
f 1050//3 1051//3 1153//3 1152//3
f 1051//3 1052//3 1154//3 1153//3
f 1052//3 1053//3 1155//3 1154//3
f 1053//3 1054//3 1156//3 1155//3
f 1054//3 1055//3 1157//3 1156//3
f 1055//3 1056//3 1158//3 1157//3
f 1056//3 1057//3 1159//3 1158//3
f 1057//3 1058//3 1160//3 1159//3
f 1059//2 1035//2 1136//2 1161//2
f 1058//3 1059//3 1161//3 1160//3
f 1060//1 1168//1 1162//1 1061//1
f 1065//2 1064//2 1167//2 1169//2
f 1068//1 1176//1 1170//1 1069//1
f 1073//2 1072//2 1175//2 1177//2
f 1076//1 1184//1 1178//1 1077//1
f 1081//2 1080//2 1183//2 1185//2
f 1088//1 1192//1 1186//1 1089//1
f 1093//2 1092//2 1191//2 1193//2
f 1097//2 1093//2 1193//2 1201//2
f 1100//1 1202//1 1194//1 1094//1
f 1102//2 1095//2 1197//2 1203//2
f 1111//1 1209//1 1198//1 1112//1
f 1114//2 1097//2 1201//2 1210//2
f 1120//2 1114//2 1210//2 1218//2
f 1123//1 1219//1 1211//1 1115//1
f 1127//1 1222//1 1215//1 1128//1
f 1130//2 1120//2 1218//2 1223//2
f 1136//2 1130//2 1223//2 1231//2
f 1139//3 1140//3 1235//3 1234//3
f 1140//3 1141//3 1236//3 1235//3
f 1141//3 1142//3 1237//3 1236//3
f 1142//3 1143//3 1238//3 1237//3
f 1143//3 1144//3 1239//3 1238//3
f 1152//3 1153//3 1248//3 1247//3
f 1153//3 1154//3 1249//3 1248//3
f 1154//3 1155//3 1250//3 1249//3
f 1155//3 1156//3 1251//3 1250//3
f 1156//3 1157//3 1252//3 1251//3
f 1157//3 1158//3 1253//3 1252//3
f 1158//3 1159//3 1254//3 1253//3
f 1159//3 1160//3 1255//3 1254//3
f 1161//2 1136//2 1231//2 1256//2
f 1160//3 1161//3 1256//3 1255//3
f 1162//1 1263//1 1257//1 1163//1
f 1167//2 1166//2 1262//2 1264//2
f 1170//1 1273//1 1265//1 1171//1
f 1175//2 1174//2 1271//2 1274//2
f 1178//1 1283//1 1275//1 1179//1
f 1183//2 1182//2 1281//2 1284//2
f 1186//1 1293//1 1285//1 1187//1
f 1191//2 1190//2 1291//2 1294//2
f 1193//2 1191//2 1294//2 1299//2
f 1198//1 1300//1 1295//1 1199//1
f 1201//2 1193//2 1299//2 1301//2
f 1210//2 1201//2 1301//2 1316//2
f 1213//1 1317//1 1302//1 1202//1
f 1215//1 1322//1 1312//1 1216//1
f 1218//2 1210//2 1316//2 1323//2
f 1223//2 1218//2 1323//2 1335//2
f 1226//1 1336//1 1324//1 1219//1
f 1228//1 1339//1 1331//1 1229//1
f 1231//2 1223//2 1335//2 1340//2
f 1235//3 1236//3 1346//3 1345//3
f 1236//3 1237//3 1347//3 1346//3
f 1237//3 1238//3 1348//3 1347//3
f 1247//3 1248//3 1358//3 1357//3
f 1248//3 1249//3 1359//3 1358//3
f 1249//3 1250//3 1360//3 1359//3
f 1250//3 1251//3 1361//3 1360//3
f 1251//3 1252//3 1362//3 1361//3
f 1252//3 1253//3 1363//3 1362//3
f 1253//3 1254//3 1364//3 1363//3
f 1254//3 1255//3 1365//3 1364//3
f 1256//2 1231//2 1340//2 1366//2
f 1255//3 1256//3 1366//3 1365//3
f 1268//1 1371//1 1367//1 1263//1
f 1272//2 1264//2 1370//2 1372//2
f 1278//1 1379//1 1373//1 1273//1
f 1282//2 1274//2 1377//2 1380//2
f 1288//1 1387//1 1381//1 1283//1
f 1292//2 1284//2 1385//2 1388//2
f 1298//1 1395//1 1389//1 1293//1
f 1299//2 1294//2 1393//2 1396//2
f 1301//2 1299//2 1396//2 1400//2
f 1315//1 1405//1 1397//1 1300//1
f 1316//2 1301//2 1400//2 1406//2
f 1323//2 1316//2 1406//2 1416//2
f 1326//1 1417//1 1407//1 1317//1
f 1327//2 1318//2 1410//2 1418//2
f 1334//1 1421//1 1413//1 1322//1
f 1335//2 1323//2 1416//2 1422//2
f 1340//2 1335//2 1422//2 1430//2
f 1345//3 1346//3 1436//3 1435//3
f 1346//3 1347//3 1437//3 1436//3
f 1347//3 1348//3 1438//3 1437//3
f 1357//3 1358//3 1449//3 1448//3
f 1358//3 1359//3 1450//3 1449//3
f 1359//3 1360//3 1451//3 1450//3
f 1360//3 1361//3 1452//3 1451//3
f 1361//3 1362//3 1453//3 1452//3
f 1362//3 1363//3 1454//3 1453//3
f 1363//3 1364//3 1455//3 1454//3
f 1364//3 1365//3 1456//3 1455//3
f 1366//2 1340//2 1430//2 1457//2
f 1365//3 1366//3 1457//3 1456//3
f 1375//1 1462//1 1458//1 1371//1
f 1378//2 1372//2 1461//2 1463//2
f 1383//1 1470//1 1464//1 1379//1
f 1386//2 1380//2 1468//2 1471//2
f 1391//1 1478//1 1472//1 1387//1
f 1394//2 1388//2 1476//2 1479//2
f 1399//1 1486//1 1480//1 1395//1
f 1400//2 1396//2 1484//2 1487//2
f 1406//2 1400//2 1487//2 1495//2
f 1415//1 1502//1 1492//1 1405//1
f 1416//2 1406//2 1495//2 1503//2
f 1422//2 1416//2 1503//2 1515//2
f 1425//1 1516//1 1504//1 1417//1
f 1429//1 1518//1 1512//1 1421//1
f 1430//2 1422//2 1515//2 1519//2
f 1436//3 1437//3 1527//3 1526//3
f 1448//3 1449//3 1537//3 1536//3
f 1449//3 1450//3 1538//3 1537//3
f 1450//3 1451//3 1539//3 1538//3
f 1451//3 1452//3 1540//3 1539//3
f 1452//3 1453//3 1541//3 1540//3
f 1453//3 1454//3 1542//3 1541//3
f 1454//3 1455//3 1543//3 1542//3
f 1455//3 1456//3 1544//3 1543//3
f 1457//2 1430//2 1519//2 1545//2
f 1456//3 1457//3 1545//3 1544//3
f 1466//1 1550//1 1546//1 1462//1
f 1469//2 1463//2 1549//2 1551//2
f 1474//1 1558//1 1552//1 1470//1
f 1477//2 1471//2 1556//2 1559//2
f 1482//1 1566//1 1560//1 1478//1
f 1485//2 1479//2 1564//2 1567//2
f 1494//1 1578//1 1568//1 1486//1
f 1495//2 1487//2 1572//2 1579//2
f 1503//2 1495//2 1579//2 1587//2
f 1514//1 1591//1 1584//1 1502//1
f 1515//2 1503//2 1587//2 1592//2
f 1519//2 1515//2 1592//2 1600//2
f 1526//3 1527//3 1608//3 1607//3
f 1536//3 1537//3 1618//3 1617//3
f 1537//3 1538//3 1619//3 1618//3
f 1538//3 1539//3 1620//3 1619//3
f 1539//3 1540//3 1621//3 1620//3
f 1540//3 1541//3 1622//3 1621//3
f 1541//3 1542//3 1623//3 1622//3
f 1542//3 1543//3 1624//3 1623//3
f 1543//3 1544//3 1625//3 1624//3
f 1545//2 1519//2 1600//2 1626//2
f 1544//3 1545//3 1626//3 1625//3
f 1554//1 1631//1 1627//1 1550//1
f 1557//2 1551//2 1630//2 1632//2
f 1562//1 1639//1 1633//1 1558//1
f 1565//2 1559//2 1637//2 1640//2
f 1570//1 1647//1 1641//1 1566//1
f 1573//2 1567//2 1645//2 1648//2
f 1586//1 1663//1 1653//1 1578//1
f 1587//2 1579//2 1657//2 1664//2
f 1592//2 1587//2 1664//2 1671//2
f 1599//1 1674//1 1668//1 1591//1
f 1600//2 1592//2 1671//2 1675//2
f 1618//3 1619//3 1696//3 1695//3
f 1619//3 1620//3 1697//3 1696//3
f 1620//3 1621//3 1698//3 1697//3
f 1621//3 1622//3 1699//3 1698//3
f 1622//3 1623//3 1700//3 1699//3
f 1623//3 1624//3 1701//3 1700//3
f 1624//3 1625//3 1702//3 1701//3
f 1626//2 1600//2 1675//2 1703//2
f 1625//3 1626//3 1703//3 1702//3
f 1635//1 1708//1 1704//1 1631//1
f 1638//2 1632//2 1707//2 1709//2
f 1643//1 1716//1 1710//1 1639//1
f 1646//2 1640//2 1714//2 1717//2
f 1655//1 1728//1 1718//1 1647//1
f 1658//2 1648//2 1722//2 1729//2
f 1670//1 1748//1 1736//1 1663//1
f 1671//2 1664//2 1740//2 1749//2
f 1675//2 1671//2 1749//2 1758//2
f 1695//3 1696//3 1779//3 1778//3
f 1696//3 1697//3 1780//3 1779//3
f 1697//3 1698//3 1781//3 1780//3
f 1698//3 1699//3 1782//3 1781//3
f 1699//3 1700//3 1783//3 1782//3
f 1700//3 1701//3 1784//3 1783//3
f 1701//3 1702//3 1785//3 1784//3
f 1703//2 1675//2 1758//2 1786//2
f 1702//3 1703//3 1786//3 1785//3
f 1712//1 1791//1 1787//1 1708//1
f 1715//2 1709//2 1790//2 1792//2
f 1791//6 1792//6 1790//6 1787//6
f 1795//6 1796//6 1792//6 1791//6
f 1720//1 1799//1 1793//1 1716//1
f 1799//6 1800//6 1795//6 1793//6
f 1800//6 1801//6 1796//6 1795//6
f 1723//2 1717//2 1798//2 1802//2
f 1801//6 1802//6 1798//6 1796//6
f 1805//6 1806//6 1800//6 1799//6
f 1806//6 1807//6 1801//6 1800//6
f 1807//6 1808//6 1802//6 1801//6
f 1738//1 1811//1 1803//1 1728//1
f 1811//6 1812//6 1805//6 1803//6
f 1812//6 1813//6 1806//6 1805//6
f 1813//6 1814//6 1807//6 1806//6
f 1814//6 1815//6 1808//6 1807//6
f 1741//2 1729//2 1810//2 1816//2
f 1815//6 1816//6 1810//6 1808//6
f 1819//6 1820//6 1812//6 1811//6
f 1820//6 1821//6 1813//6 1812//6
f 1821//6 1822//6 1814//6 1813//6
f 1822//6 1823//6 1815//6 1814//6
f 1823//6 1824//6 1816//6 1815//6
f 1757//1 1827//1 1817//1 1748//1
f 1827//6 1828//6 1819//6 1817//6
f 1828//6 1829//6 1820//6 1819//6
f 1829//6 1830//6 1821//6 1820//6
f 1830//6 1831//6 1822//6 1821//6
f 1831//6 1832//6 1823//6 1822//6
f 1832//6 1833//6 1824//6 1823//6
f 1758//2 1749//2 1826//2 1834//2
f 1833//6 1834//6 1826//6 1824//6
f 1779//3 1780//3 1862//3 1861//3
f 1861//6 1862//6 1828//6 1827//6
f 1780//3 1781//3 1863//3 1862//3
f 1862//6 1863//6 1829//6 1828//6
f 1781//3 1782//3 1864//3 1863//3
f 1863//6 1864//6 1830//6 1829//6
f 1782//3 1783//3 1865//3 1864//3
f 1864//6 1865//6 1831//6 1830//6
f 1783//3 1784//3 1866//3 1865//3
f 1865//6 1866//6 1832//6 1831//6
f 1784//3 1785//3 1867//3 1866//3
f 1866//6 1867//6 1833//6 1832//6
f 1786//2 1758//2 1834//2 1868//2
f 1785//3 1786//3 1868//3 1867//3
f 1867//6 1868//6 1834//6 1833//6
g glyph_61
f 73//3 77//3 78//3 74//3
f 76//4 75//4 79//4 80//4
f 73//5 76//5 80//5 77//5
f 77//3 81//3 82//3 78//3
f 80//4 79//4 83//4 84//4
f 77//5 80//5 84//5 81//5
f 74//3 78//3 177//3 175//3
f 75//4 176//4 178//4 79//4
f 78//3 82//3 179//3 177//3
f 79//4 178//4 180//4 83//4
f 175//3 177//3 275//3 273//3
f 176//4 274//4 276//4 178//4
f 177//3 179//3 277//3 275//3
f 178//4 276//4 278//4 180//4
f 273//3 275//3 371//3 369//3
f 274//4 370//4 372//4 276//4
f 275//3 277//3 373//3 371//3
f 276//4 372//4 374//4 278//4
f 369//3 371//3 460//3 458//3
f 370//4 459//4 461//4 372//4
f 371//3 373//3 462//3 460//3
f 372//4 461//4 463//4 374//4
f 458//3 460//3 557//3 555//3
f 459//4 556//4 558//4 461//4
f 460//3 462//3 559//3 557//3
f 461//4 558//4 560//4 463//4
f 555//3 557//3 672//3 671//3
f 556//4 656//4 673//4 558//4
f 557//3 559//3 674//3 672//3
f 558//4 673//4 675//4 560//4
f 671//3 672//3 766//3 764//3
f 656//4 765//4 767//4 673//4
f 672//3 674//3 768//3 766//3
f 673//4 767//4 769//4 675//4
f 764//3 766//3 859//3 857//3
f 765//4 858//4 860//4 767//4
f 766//3 768//3 861//3 859//3
f 767//4 860//4 862//4 769//4
f 857//3 859//3 951//3 949//3
f 858//4 950//4 952//4 860//4
f 859//3 861//3 953//3 951//3
f 860//4 952//4 954//4 862//4
f 949//3 951//3 1048//3 1046//3
f 950//4 1047//4 1049//4 952//4
f 951//3 953//3 1050//3 1048//3
f 952//4 1049//4 1032//4 954//4
f 1046//3 1048//3 1150//3 1148//3
f 1047//4 1149//4 1151//4 1049//4
f 1048//3 1050//3 1152//3 1150//3
f 1049//4 1151//4 1135//4 1032//4
f 1148//3 1150//3 1246//3 1244//3
f 1149//4 1245//4 1228//4 1151//4
f 1150//3 1152//3 1247//3 1246//3
f 1244//3 1246//3 1356//3 1354//3
f 1245//4 1355//4 1339//4 1228//4
f 1246//3 1247//3 1357//3 1356//3
f 1354//3 1356//3 1447//3 1445//3
f 1355//4 1446//4 1427//4 1339//4
f 1356//3 1357//3 1448//3 1447//3
f 1445//3 1447//3 1534//3 1532//3
f 1446//4 1533//4 1535//4 1427//4
f 1447//3 1448//3 1536//3 1534//3
f 1427//4 1535//4 1518//4 1429//4
f 1532//3 1534//3 1615//3 1613//3
f 1533//4 1614//4 1616//4 1535//4
f 1534//3 1536//3 1617//3 1615//3
f 1535//4 1616//4 1597//4 1518//4
f 1613//3 1615//3 1691//3 1689//3
f 1614//4 1690//4 1692//4 1616//4
f 1615//3 1617//3 1693//3 1691//3
f 1616//4 1692//4 1694//4 1597//4
f 1689//3 1691//3 1774//3 1772//3
f 1690//4 1773//4 1775//4 1692//4
f 1691//3 1693//3 1776//3 1774//3
f 1692//4 1775//4 1777//4 1694//4
f 1772//3 1774//3 1855//3 1853//3
f 1773//4 1854//4 1856//4 1775//4
f 1853//6 1855//6 1856//6 1854//6
f 1774//3 1776//3 1857//3 1855//3
f 1775//4 1856//4 1858//4 1777//4
f 1855//6 1857//6 1858//6 1856//6
g glyph_64
f 1401//1 1488//1 1489//1 1402//1
f 1404//2 1403//2 1490//2 1491//2
f 1402//4 1489//4 1490//4 1403//4
f 1410//1 1496//1 1497//1 1409//1
f 1409//4 1497//4 1488//4 1401//4
f 1410//5 1409//5 1401//5 1411//5
f 1498//2 1499//2 1500//2 1501//2
f 1404//4 1491//4 1500//4 1499//4
f 1412//5 1404//5 1499//5 1498//5
f 1508//2 1509//2 1510//2 1511//2
f 1498//4 1501//4 1510//4 1509//4
f 1507//5 1498//5 1509//5 1508//5
f 1488//1 1574//1 1575//1 1489//1
f 1491//2 1490//2 1576//2 1577//2
f 1489//4 1575//4 1576//4 1490//4
f 1496//1 1580//1 1581//1 1497//1
f 1497//4 1581//4 1574//4 1488//4
f 1501//2 1500//2 1582//2 1583//2
f 1491//4 1577//4 1582//4 1500//4
f 1511//2 1510//2 1589//2 1590//2
f 1501//4 1583//4 1589//4 1510//4
f 1574//1 1649//1 1650//1 1575//1
f 1577//2 1576//2 1651//2 1652//2
f 1575//4 1650//4 1651//4 1576//4
f 1580//1 1659//1 1660//1 1581//1
f 1581//4 1660//4 1649//4 1574//4
f 1583//2 1582//2 1661//2 1662//2
f 1577//4 1652//4 1661//4 1582//4
f 1590//2 1589//2 1666//2 1667//2
f 1583//4 1662//4 1666//4 1589//4
f 1649//1 1724//1 1725//1 1650//1
f 1652//2 1651//2 1726//2 1727//2
f 1650//4 1725//4 1726//4 1651//4
f 1724//6 1727//6 1726//6 1725//6
f 1659//1 1730//1 1731//1 1660//1
f 1660//4 1731//4 1724//4 1649//4
f 1730//6 1732//6 1724//6 1731//6
f 1662//2 1661//2 1734//2 1735//2
f 1652//4 1727//4 1734//4 1661//4
f 1733//6 1735//6 1734//6 1727//6
f 1667//2 1666//2 1746//2 1747//2
f 1662//4 1735//4 1746//4 1666//4
f 1745//6 1747//6 1746//6 1735//6
g glyph_120
f 125//1 126//1 127//1 128//1
f 129//2 130//2 131//2 132//2
f 128//4 127//4 131//4 130//4
f 125//5 128//5 130//5 129//5
f 139//1 140//1 126//1 125//1
f 141//2 129//2 132//2 142//2
f 139//5 125//5 129//5 141//5
f 145//1 146//1 140//1 139//1
f 147//2 141//2 142//2 148//2
f 145//3 147//3 148//3 146//3
f 145//5 139//5 141//5 147//5
f 211//1 212//1 213//1 214//1
f 214//4 213//4 215//4 127//4
f 211//5 214//5 127//5 126//5
f 212//6 216//6 215//6 213//6
f 127//4 215//4 217//4 131//4
f 218//2 219//2 220//2 221//2
f 131//4 217//4 220//4 219//4
f 132//5 131//5 219//5 218//5
f 222//6 221//6 220//6 217//6
f 225//1 226//1 227//1 228//1
f 228//4 227//4 212//4 211//4
f 225//5 228//5 211//5 229//5
f 229//5 211//5 126//5 140//5
f 230//2 218//2 221//2 231//2
f 142//5 132//5 218//5 230//5
f 238//1 239//1 226//1 225//1
f 238//5 225//5 229//5 240//5
f 240//3 146//3 241//3 242//3
f 240//5 229//5 140//5 146//5
f 246//1 247//1 239//1 238//1
f 248//2 240//2 242//2 249//2
f 246//3 248//3 249//3 247//3
f 246//5 238//5 240//5 248//5
f 216//1 309//1 310//1 215//1
f 222//2 217//2 311//2 312//2
f 215//4 310//4 311//4 217//4
f 309//6 312//6 311//6 310//6
f 319//1 320//1 321//1 322//1
f 322//4 321//4 323//4 227//4
f 319//5 322//5 227//5 226//5
f 320//6 324//6 323//6 321//6
f 227//4 323//4 325//4 212//4
f 212//4 325//4 309//4 216//4
f 326//6 327//6 309//6 325//6
f 327//6 328//6 312//6 309//6
f 333//1 334//1 320//1 319//1
f 333//5 319//5 226//5 239//5
f 334//6 335//6 324//6 320//6
f 336//6 337//6 327//6 326//6
f 345//1 346//1 334//1 333//1
f 345//3 247//3 347//3 346//3
f 345//5 333//5 239//5 247//5
f 346//6 347//6 335//6 334//6
f 249//3 251//3 348//3 349//3
f 249//5 242//5 241//5 251//5
f 349//6 348//6 337//6 336//6
f 324//1 416//1 417//1 323//1
f 326//2 325//2 418//2 419//2
f 323//4 417//4 418//4 325//4
f 335//1 428//1 416//1 324//1
f 336//2 326//2 419//2 429//2
f 347//1 437//1 428//1 335//1
f 349//2 336//2 429//2 438//2
f 347//3 349//3 438//3 437//3
f 437//6 438//6 429//6 428//6
f 417//1 506//1 507//1 508//1
f 418//2 509//2 510//2 511//2
f 508//4 507//4 510//4 509//4
f 417//5 508//5 509//5 418//5
f 416//1 520//1 506//1 417//1
f 419//2 418//2 511//2 521//2
f 428//1 530//1 520//1 416//1
f 429//2 419//2 521//2 531//2
f 428//3 429//3 531//3 530//3
f 617//1 618//1 619//1 620//1
f 620//4 619//4 621//4 507//4
f 617//5 620//5 507//5 506//5
f 618//6 622//6 621//6 619//6
f 507//4 621//4 623//4 510//4
f 510//4 623//4 624//4 625//4
f 511//5 510//5 625//5 523//5
f 626//6 627//6 624//6 623//6
f 633//1 634//1 618//1 617//1
f 633//5 617//5 506//5 520//5
f 634//6 635//6 622//6 618//6
f 521//5 511//5 523//5 522//5
f 642//1 643//1 634//1 633//1
f 642//3 530//3 644//3 643//3
f 642//5 633//5 520//5 530//5
f 643//6 644//6 635//6 634//6
f 622//1 722//1 723//1 621//1
f 626//2 623//2 724//2 725//2
f 621//4 723//4 724//4 623//4
f 722//6 725//6 724//6 723//6
f 635//1 734//1 722//1 622//1
f 734//6 735//6 725//6 722//6
f 644//1 741//1 734//1 635//1
f 914//1 1008//1 1009//1 913//1
f 1010//2 1011//2 1012//2 1013//2
f 913//4 1009//4 1012//4 1011//4
f 914//5 913//5 1011//5 1010//5
f 929//2 1010//2 1013//2 1019//2
f 923//5 914//5 1010//5 929//5
f 930//2 929//2 1019//2 1025//2
f 998//4 1101//4 1104//4 1009//4
f 1007//5 998//5 1009//5 1008//5
f 1009//4 1104//4 1105//4 1012//4
f 1106//2 1107//2 1108//2 1109//2
f 1012//4 1105//4 1108//4 1107//4
f 1013//5 1012//5 1107//5 1106//5
f 1110//6 1109//6 1108//6 1105//6
f 1116//2 1106//2 1109//2 1117//2
f 1019//5 1013//5 1106//5 1116//5
f 1118//6 1117//6 1109//6 1110//6
f 1124//2 1116//2 1117//2 1125//2
f 1025//3 1124//3 1125//3 1126//3
f 1025//5 1019//5 1116//5 1124//5
f 1126//6 1125//6 1117//6 1118//6
f 1103//1 1204//1 1205//1 1101//1
f 1101//4 1205//4 1206//4 1104//4
f 1110//2 1105//2 1207//2 1208//2
f 1104//4 1206//4 1207//4 1105//4
f 1118//2 1110//2 1208//2 1214//2
f 1126//2 1118//2 1214//2 1220//2
f 1134//3 1126//3 1220//3 1221//3
f 1197//4 1304//4 1306//4 1205//4
f 1203//5 1197//5 1205//5 1204//5
f 1305//6 1307//6 1306//6 1304//6
f 1205//4 1306//4 1308//4 1206//4
f 1208//2 1207//2 1309//2 1310//2
f 1206//4 1308//4 1309//4 1207//4
f 1311//6 1310//6 1309//6 1308//6
f 1318//6 1319//6 1307//6 1305//6
f 1214//2 1208//2 1310//2 1320//2
f 1321//6 1320//6 1310//6 1311//6
f 1220//2 1214//2 1320//2 1329//2
f 1221//3 1220//3 1329//3 1330//3
f 1330//6 1329//6 1320//6 1321//6
f 1307//1 1401//1 1402//1 1306//1
f 1311//2 1308//2 1403//2 1404//2
f 1306//4 1402//4 1403//4 1308//4
f 1319//1 1411//1 1401//1 1307//1
f 1321//2 1311//2 1404//2 1412//2
f 1328//1 1419//1 1411//1 1319//1
f 1330//2 1321//2 1412//2 1420//2
f 1328//3 1330//3 1420//3 1419//3
