# Rook occupied-cell surface mesh
# Canal city
# One cell is one unit. Y points up; Z follows the 3md slice index.
o sculpture
v -3 -2 -10
v -3 -2 -9
v -3 -1 -9
v -3 -1 -10
v -2 -2 -10
v -2 -1 -10
v -2 -1 -9
v -2 -2 -9
v 2 -2 -10
v 2 -2 -9
v 2 -1 -9
v 2 -1 -10
v 3 -2 -10
v 3 -1 -10
v 3 -1 -9
v 3 -2 -9
v -3 -3 -10
v -3 -3 -9
v -2 -3 -10
v -2 -3 -9
v 2 -3 -10
v 2 -3 -9
v 3 -3 -10
v 3 -3 -9
v -10 -4 -10
v -10 -4 -9
v -10 -3 -9
v -10 -3 -10
v -9 -4 -10
v -9 -4 -9
v -9 -3 -9
v -9 -3 -10
v -8 -4 -10
v -8 -4 -9
v -8 -3 -9
v -8 -3 -10
v -7 -4 -10
v -7 -4 -9
v -7 -3 -9
v -7 -3 -10
v -6 -4 -10
v -6 -4 -9
v -6 -3 -9
v -6 -3 -10
v -5 -4 -10
v -5 -4 -9
v -5 -3 -9
v -5 -3 -10
v -4 -4 -10
v -4 -4 -9
v -4 -3 -9
v -4 -3 -10
v -3 -4 -10
v -3 -4 -9
v -2 -4 -10
v -2 -4 -9
v -1 -4 -10
v -1 -4 -9
v -1 -3 -9
v -1 -3 -10
v 0 -4 -10
v 0 -4 -9
v 0 -3 -9
v 0 -3 -10
v 1 -4 -10
v 1 -4 -9
v 1 -3 -9
v 1 -3 -10
v 2 -4 -10
v 2 -4 -9
v 3 -4 -10
v 3 -4 -9
v 4 -4 -10
v 4 -4 -9
v 4 -3 -9
v 4 -3 -10
v 5 -4 -10
v 5 -4 -9
v 5 -3 -9
v 5 -3 -10
v 6 -4 -10
v 6 -4 -9
v 6 -3 -9
v 6 -3 -10
v 7 -4 -10
v 7 -4 -9
v 7 -3 -9
v 7 -3 -10
v 8 -4 -10
v 8 -4 -9
v 8 -3 -9
v 8 -3 -10
v 9 -4 -10
v 9 -4 -9
v 9 -3 -9
v 9 -3 -10
v 10 -4 -10
v 10 -3 -10
v 10 -3 -9
v 10 -4 -9
v -3 -2 -8
v -3 -1 -8
v -2 -1 -8
v -2 -2 -8
v 2 -2 -8
v 2 -1 -8
v 3 -1 -8
v 3 -2 -8
v -3 -3 -8
v -2 -3 -8
v 2 -3 -8
v 3 -3 -8
v -10 -4 -8
v -10 -3 -8
v -9 -4 -8
v -9 -3 -8
v -8 -4 -8
v -8 -3 -8
v -7 -4 -8
v -7 -3 -8
v -6 -4 -8
v -6 -3 -8
v -5 -4 -8
v -5 -3 -8
v -4 -4 -8
v -4 -3 -8
v -3 -4 -8
v -2 -4 -8
v -1 -4 -8
v -1 -3 -8
v 0 -4 -8
v 0 -3 -8
v 1 -4 -8
v 1 -3 -8
v 2 -4 -8
v 3 -4 -8
v 4 -4 -8
v 4 -3 -8
v 5 -4 -8
v 5 -3 -8
v 6 -4 -8
v 6 -3 -8
v 7 -4 -8
v 7 -3 -8
v 8 -4 -8
v 8 -3 -8
v 9 -4 -8
v 9 -3 -8
v 10 -3 -8
v 10 -4 -8
v 5 6 -8
v 5 6 -7
v 5 7 -7
v 5 7 -8
v 6 6 -8
v 6 7 -8
v 6 7 -7
v 6 6 -7
v 4 5 -8
v 4 5 -7
v 4 6 -7
v 4 6 -8
v 5 5 -8
v 6 5 -8
v 5 5 -7
v 6 5 -7
v 7 5 -8
v 7 6 -8
v 7 6 -7
v 7 5 -7
v 4 4 -8
v 4 4 -7
v 5 4 -8
v 6 4 -8
v 5 4 -7
v 6 4 -7
v 7 4 -8
v 7 4 -7
v 8 4 -8
v 8 5 -8
v 8 5 -7
v 8 4 -7
v -7 3 -8
v -7 3 -7
v -7 4 -7
v -7 4 -8
v -6 3 -8
v -6 4 -8
v -6 4 -7
v -6 3 -7
v 4 3 -8
v 4 3 -7
v 5 3 -8
v 6 3 -8
v 5 3 -7
v 6 3 -7
v 7 3 -8
v 7 3 -7
v 8 3 -8
v 8 3 -7
v -8 2 -8
v -8 2 -7
v -8 3 -7
v -8 3 -8
v -7 2 -8
v -6 2 -8
v -7 2 -7
v -6 2 -7
v -5 2 -8
v -5 3 -8
v -5 3 -7
v -5 2 -7
v 4 2 -8
v 4 2 -7
v 5 2 -8
v 6 2 -8
v 5 2 -7
v 6 2 -7
v 7 2 -8
v 7 2 -7
v 8 2 -8
v 8 2 -7
v -8 1 -8
v -8 1 -7
v -7 1 -8
v -6 1 -8
v -7 1 -7
v -6 1 -7
v -5 1 -8
v -5 1 -7
v -4 1 -8
v -4 2 -8
v -4 2 -7
v -4 1 -7
v 4 1 -8
v 4 1 -7
v 5 1 -8
v 6 1 -8
v 5 1 -7
v 6 1 -7
v 7 1 -8
v 7 1 -7
v 8 1 -8
v 8 1 -7
v -8 0 -8
v -8 0 -7
v -7 0 -8
v -6 0 -8
v -7 0 -7
v -6 0 -7
v -5 0 -8
v -5 0 -7
v -4 0 -8
v -4 0 -7
v 4 0 -8
v 4 0 -7
v 5 0 -8
v 6 0 -8
v 5 0 -7
v 6 0 -7
v 7 0 -8
v 7 0 -7
v 8 0 -8
v 8 0 -7
v -8 -1 -8
v -8 -1 -7
v -7 -1 -8
v -6 -1 -8
v -7 -1 -7
v -6 -1 -7
v -5 -1 -8
v -5 -1 -7
v -4 -1 -8
v -4 -1 -7
v 4 -1 -8
v 4 -1 -7
v 5 -1 -8
v 6 -1 -8
v 5 -1 -7
v 6 -1 -7
v 7 -1 -8
v 7 -1 -7
v 8 -1 -8
v 8 -1 -7
v -8 -2 -8
v -8 -2 -7
v -7 -2 -8
v -6 -2 -8
v -7 -2 -7
v -6 -2 -7
v -5 -2 -8
v -5 -2 -7
v -4 -2 -8
v -4 -2 -7
v -3 -2 -7
v -3 -1 -7
v -2 -1 -7
v -2 -2 -7
v 2 -2 -7
v 2 -1 -7
v 3 -1 -7
v 3 -2 -7
v 4 -2 -8
v 4 -2 -7
v 5 -2 -8
v 6 -2 -8
v 5 -2 -7
v 6 -2 -7
v 7 -2 -8
v 7 -2 -7
v 8 -2 -8
v 8 -2 -7
v -8 -3 -7
v -7 -3 -7
v -6 -3 -7
v -5 -3 -7
v -4 -3 -7
v -3 -3 -7
v -2 -3 -7
v 2 -3 -7
v 3 -3 -7
v 4 -3 -7
v 5 -3 -7
v 6 -3 -7
v 7 -3 -7
v 8 -3 -7
v -10 -4 -7
v -10 -3 -7
v -9 -4 -7
v -9 -3 -7
v -8 -4 -7
v -7 -4 -7
v -6 -4 -7
v -5 -4 -7
v -4 -4 -7
v -3 -4 -7
v -2 -4 -7
v -1 -4 -7
v -1 -3 -7
v 0 -4 -7
v 0 -3 -7
v 1 -4 -7
v 1 -3 -7
v 2 -4 -7
v 3 -4 -7
v 4 -4 -7
v 5 -4 -7
v 6 -4 -7
v 7 -4 -7
v 8 -4 -7
v 9 -4 -7
v 9 -3 -7
v 10 -3 -7
v 10 -4 -7
v 5 6 -6
v 5 7 -6
v 6 7 -6
v 6 6 -6
v 4 5 -6
v 4 6 -6
v 5 5 -6
v 6 5 -6
v 7 6 -6
v 7 5 -6
v 4 4 -6
v 5 4 -6
v 7 4 -6
v 8 5 -6
v 8 4 -6
v -7 3 -6
v -7 4 -6
v -6 4 -6
v -6 3 -6
v 4 3 -6
v 5 3 -6
v 7 3 -6
v 8 3 -6
v -8 2 -6
v -8 3 -6
v -7 2 -6
v -6 2 -6
v -5 3 -6
v -5 2 -6
v 4 2 -6
v 5 2 -6
v 7 2 -6
v 8 2 -6
v -8 1 -6
v -7 1 -6
v -5 1 -6
v -4 2 -6
v -4 1 -6
v 4 1 -6
v 5 1 -6
v 7 1 -6
v 8 1 -6
v -8 0 -6
v -7 0 -6
v -5 0 -6
v -4 0 -6
v 4 0 -6
v 5 0 -6
v 7 0 -6
v 8 0 -6
v -8 -1 -6
v -7 -1 -6
v -5 -1 -6
v -4 -1 -6
v 4 -1 -6
v 5 -1 -6
v 7 -1 -6
v 8 -1 -6
v -8 -2 -6
v -7 -2 -6
v -5 -2 -6
v -4 -2 -6
v -3 -2 -6
v -3 -1 -6
v -2 -1 -6
v -2 -2 -6
v 2 -2 -6
v 2 -1 -6
v 3 -1 -6
v 3 -2 -6
v 4 -2 -6
v 5 -2 -6
v 7 -2 -6
v 8 -2 -6
v -8 -3 -6
v -7 -3 -6
v -5 -3 -6
v -4 -3 -6
v -3 -3 -6
v -2 -3 -6
v 2 -3 -6
v 3 -3 -6
v 4 -3 -6
v 5 -3 -6
v 7 -3 -6
v 8 -3 -6
v -10 -4 -6
v -10 -3 -6
v -9 -4 -6
v -9 -3 -6
v -8 -4 -6
v -7 -4 -6
v -6 -4 -6
v -6 -3 -6
v -5 -4 -6
v -4 -4 -6
v -3 -4 -6
v -2 -4 -6
v -1 -4 -6
v -1 -3 -6
v 0 -4 -6
v 0 -3 -6
v 1 -4 -6
v 1 -3 -6
v 2 -4 -6
v 3 -4 -6
v 4 -4 -6
v 5 -4 -6
v 6 -4 -6
v 6 -3 -6
v 7 -4 -6
v 8 -4 -6
v 9 -4 -6
v 9 -3 -6
v 10 -3 -6
v 10 -4 -6
v 5 6 -5
v 5 7 -5
v 6 7 -5
v 6 6 -5
v 4 5 -5
v 4 6 -5
v 5 5 -5
v 6 5 -5
v 7 6 -5
v 7 5 -5
v 4 4 -5
v 5 4 -5
v 7 4 -5
v 8 5 -5
v 8 4 -5
v -7 3 -5
v -7 4 -5
v -6 4 -5
v -6 3 -5
v 4 3 -5
v 5 3 -5
v 7 3 -5
v 8 3 -5
v -8 2 -5
v -8 3 -5
v -7 2 -5
v -6 2 -5
v -5 3 -5
v -5 2 -5
v 4 2 -5
v 5 2 -5
v 7 2 -5
v 8 2 -5
v -8 1 -5
v -7 1 -5
v -5 1 -5
v -4 2 -5
v -4 1 -5
v 4 1 -5
v 5 1 -5
v 7 1 -5
v 8 1 -5
v -8 0 -5
v -7 0 -5
v -5 0 -5
v -4 0 -5
v 4 0 -5
v 5 0 -5
v 7 0 -5
v 8 0 -5
v -8 -1 -5
v -7 -1 -5
v -5 -1 -5
v -4 -1 -5
v 4 -1 -5
v 5 -1 -5
v 7 -1 -5
v 8 -1 -5
v -8 -2 -5
v -7 -2 -5
v -5 -2 -5
v -4 -2 -5
v -3 -2 -5
v -3 -1 -5
v -2 -1 -5
v -2 -2 -5
v 2 -2 -5
v 2 -1 -5
v 3 -1 -5
v 3 -2 -5
v 4 -2 -5
v 5 -2 -5
v 7 -2 -5
v 8 -2 -5
v -8 -3 -5
v -7 -3 -5
v -5 -3 -5
v -4 -3 -5
v -3 -3 -5
v -2 -3 -5
v 2 -3 -5
v 3 -3 -5
v 4 -3 -5
v 5 -3 -5
v 7 -3 -5
v 8 -3 -5
v -10 -4 -5
v -10 -3 -5
v -9 -4 -5
v -9 -3 -5
v -8 -4 -5
v -7 -4 -5
v -6 -4 -5
v -6 -3 -5
v -5 -4 -5
v -4 -4 -5
v -3 -4 -5
v -2 -4 -5
v -1 -4 -5
v -1 -3 -5
v 0 -4 -5
v 0 -3 -5
v 1 -4 -5
v 1 -3 -5
v 2 -4 -5
v 3 -4 -5
v 4 -4 -5
v 5 -4 -5
v 6 -4 -5
v 6 -3 -5
v 7 -4 -5
v 8 -4 -5
v 9 -4 -5
v 9 -3 -5
v 10 -3 -5
v 10 -4 -5
v 5 6 -4
v 5 7 -4
v 6 7 -4
v 6 6 -4
v 4 5 -4
v 4 6 -4
v 5 5 -4
v 6 5 -4
v 7 6 -4
v 7 5 -4
v 4 4 -4
v 5 4 -4
v 7 4 -4
v 8 5 -4
v 8 4 -4
v -7 3 -4
v -7 4 -4
v -6 4 -4
v -6 3 -4
v 4 3 -4
v 5 3 -4
v 7 3 -4
v 8 3 -4
v -8 2 -4
v -8 3 -4
v -7 2 -4
v -6 2 -4
v -5 3 -4
v -5 2 -4
v 4 2 -4
v 5 2 -4
v 7 2 -4
v 8 2 -4
v -8 1 -4
v -7 1 -4
v -5 1 -4
v -4 2 -4
v -4 1 -4
v 4 1 -4
v 5 1 -4
v 7 1 -4
v 8 1 -4
v -8 0 -4
v -7 0 -4
v -5 0 -4
v -4 0 -4
v 4 0 -4
v 5 0 -4
v 7 0 -4
v 8 0 -4
v -8 -1 -4
v -7 -1 -4
v -5 -1 -4
v -4 -1 -4
v 4 -1 -4
v 5 -1 -4
v 7 -1 -4
v 8 -1 -4
v -8 -2 -4
v -7 -2 -4
v -5 -2 -4
v -4 -2 -4
v -3 -2 -4
v -3 -1 -4
v -2 -1 -4
v -2 -2 -4
v 2 -2 -4
v 2 -1 -4
v 3 -1 -4
v 3 -2 -4
v 4 -2 -4
v 5 -2 -4
v 7 -2 -4
v 8 -2 -4
v -8 -3 -4
v -7 -3 -4
v -5 -3 -4
v -4 -3 -4
v -3 -3 -4
v -2 -3 -4
v 2 -3 -4
v 3 -3 -4
v 4 -3 -4
v 5 -3 -4
v 7 -3 -4
v 8 -3 -4
v -10 -4 -4
v -10 -3 -4
v -9 -4 -4
v -9 -3 -4
v -8 -4 -4
v -7 -4 -4
v -6 -4 -4
v -6 -3 -4
v -5 -4 -4
v -4 -4 -4
v -3 -4 -4
v -2 -4 -4
v -1 -4 -4
v -1 -3 -4
v 0 -4 -4
v 0 -3 -4
v 1 -4 -4
v 1 -3 -4
v 2 -4 -4
v 3 -4 -4
v 4 -4 -4
v 5 -4 -4
v 6 -4 -4
v 6 -3 -4
v 7 -4 -4
v 8 -4 -4
v 9 -4 -4
v 9 -3 -4
v 10 -3 -4
v 10 -4 -4
v 5 6 -3
v 5 7 -3
v 6 7 -3
v 6 6 -3
v 4 5 -3
v 4 6 -3
v 5 5 -3
v 6 5 -3
v 7 6 -3
v 7 5 -3
v 4 4 -3
v 5 4 -3
v 7 4 -3
v 8 5 -3
v 8 4 -3
v -7 3 -3
v -7 4 -3
v -6 4 -3
v -6 3 -3
v 4 3 -3
v 5 3 -3
v 7 3 -3
v 8 3 -3
v -8 2 -3
v -8 3 -3
v -7 2 -3
v -6 2 -3
v -5 3 -3
v -5 2 -3
v 4 2 -3
v 5 2 -3
v 7 2 -3
v 8 2 -3
v -8 1 -3
v -7 1 -3
v -5 1 -3
v -4 2 -3
v -4 1 -3
v 4 1 -3
v 5 1 -3
v 7 1 -3
v 8 1 -3
v -8 0 -3
v -7 0 -3
v -5 0 -3
v -4 0 -3
v 4 0 -3
v 5 0 -3
v 7 0 -3
v 8 0 -3
v -8 -1 -3
v -7 -1 -3
v -5 -1 -3
v -4 -1 -3
v 4 -1 -3
v 5 -1 -3
v 7 -1 -3
v 8 -1 -3
v -8 -2 -3
v -7 -2 -3
v -5 -2 -3
v -4 -2 -3
v -3 -2 -3
v -3 -1 -3
v -2 -1 -3
v -2 -2 -3
v 2 -2 -3
v 2 -1 -3
v 3 -1 -3
v 3 -2 -3
v 4 -2 -3
v 5 -2 -3
v 7 -2 -3
v 8 -2 -3
v -8 -3 -3
v -7 -3 -3
v -5 -3 -3
v -4 -3 -3
v -3 -3 -3
v -2 -3 -3
v 2 -3 -3
v 3 -3 -3
v 4 -3 -3
v 5 -3 -3
v 7 -3 -3
v 8 -3 -3
v -10 -4 -3
v -10 -3 -3
v -9 -4 -3
v -9 -3 -3
v -8 -4 -3
v -7 -4 -3
v -6 -4 -3
v -6 -3 -3
v -5 -4 -3
v -4 -4 -3
v -3 -4 -3
v -2 -4 -3
v -1 -4 -3
v -1 -3 -3
v 0 -4 -3
v 0 -3 -3
v 1 -4 -3
v 1 -3 -3
v 2 -4 -3
v 3 -4 -3
v 4 -4 -3
v 5 -4 -3
v 6 -4 -3
v 6 -3 -3
v 7 -4 -3
v 8 -4 -3
v 9 -4 -3
v 9 -3 -3
v 10 -3 -3
v 10 -4 -3
v 5 6 -2
v 5 7 -2
v 6 7 -2
v 6 6 -2
v 4 5 -2
v 4 6 -2
v 5 5 -2
v 6 5 -2
v 7 6 -2
v 7 5 -2
v 4 4 -2
v 5 4 -2
v 6 4 -3
v 6 4 -2
v 7 4 -2
v 8 5 -2
v 8 4 -2
v -7 3 -2
v -7 4 -2
v -6 4 -2
v -6 3 -2
v 4 3 -2
v 5 3 -2
v 6 3 -3
v 6 3 -2
v 7 3 -2
v 8 3 -2
v -8 2 -2
v -8 3 -2
v -7 2 -2
v -6 2 -2
v -5 3 -2
v -5 2 -2
v 4 2 -2
v 5 2 -2
v 6 2 -3
v 6 2 -2
v 7 2 -2
v 8 2 -2
v -8 1 -2
v -7 1 -2
v -6 1 -3
v -6 1 -2
v -5 1 -2
v -4 2 -2
v -4 1 -2
v 4 1 -2
v 5 1 -2
v 6 1 -3
v 6 1 -2
v 7 1 -2
v 8 1 -2
v -8 0 -2
v -7 0 -2
v -6 0 -3
v -6 0 -2
v -5 0 -2
v -4 0 -2
v 4 0 -2
v 5 0 -2
v 6 0 -3
v 6 0 -2
v 7 0 -2
v 8 0 -2
v -8 -1 -2
v -7 -1 -2
v -6 -1 -3
v -6 -1 -2
v -5 -1 -2
v -4 -1 -2
v 4 -1 -2
v 5 -1 -2
v 6 -1 -3
v 6 -1 -2
v 7 -1 -2
v 8 -1 -2
v -8 -2 -2
v -7 -2 -2
v -6 -2 -3
v -6 -2 -2
v -5 -2 -2
v -4 -2 -2
v -3 -2 -2
v -3 -1 -2
v -2 -1 -2
v -2 -2 -2
v 2 -2 -2
v 2 -1 -2
v 3 -1 -2
v 3 -2 -2
v 4 -2 -2
v 5 -2 -2
v 6 -2 -3
v 6 -2 -2
v 7 -2 -2
v 8 -2 -2
v -8 -3 -2
v -7 -3 -2
v -6 -3 -2
v -5 -3 -2
v -4 -3 -2
v -3 -3 -2
v -2 -3 -2
v 2 -3 -2
v 3 -3 -2
v 4 -3 -2
v 5 -3 -2
v 6 -3 -2
v 7 -3 -2
v 8 -3 -2
v -10 -4 -2
v -10 -3 -2
v -9 -4 -2
v -9 -3 -2
v -8 -4 -2
v -7 -4 -2
v -6 -4 -2
v -5 -4 -2
v -4 -4 -2
v -3 -4 -2
v -2 -4 -2
v -1 -4 -2
v -1 -3 -2
v 0 -4 -2
v 0 -3 -2
v 1 -4 -2
v 1 -3 -2
v 2 -4 -2
v 3 -4 -2
v 4 -4 -2
v 5 -4 -2
v 6 -4 -2
v 7 -4 -2
v 8 -4 -2
v 9 -4 -2
v 9 -3 -2
v 10 -3 -2
v 10 -4 -2
v -3 -2 -1
v -3 -1 -1
v -2 -1 -1
v -2 -2 -1
v 2 -2 -1
v 2 -1 -1
v 3 -1 -1
v 3 -2 -1
v -3 -3 -1
v -2 -3 -1
v 2 -3 -1
v 3 -3 -1
v -10 -4 -1
v -10 -3 -1
v -9 -4 -1
v -9 -3 -1
v -8 -4 -1
v -8 -3 -1
v -7 -4 -1
v -7 -3 -1
v -6 -4 -1
v -6 -3 -1
v -5 -4 -1
v -5 -3 -1
v -4 -4 -1
v -4 -3 -1
v -3 -4 -1
v -2 -4 -1
v -1 -4 -1
v -1 -3 -1
v 0 -4 -1
v 0 -3 -1
v 1 -4 -1
v 1 -3 -1
v 2 -4 -1
v 3 -4 -1
v 4 -4 -1
v 4 -3 -1
v 5 -4 -1
v 5 -3 -1
v 6 -4 -1
v 6 -3 -1
v 7 -4 -1
v 7 -3 -1
v 8 -4 -1
v 8 -3 -1
v 9 -4 -1
v 9 -3 -1
v 10 -3 -1
v 10 -4 -1
v -4 0 -1
v -4 0 0
v -4 1 0
v -4 1 -1
v -3 0 -1
v -3 0 0
v -3 1 0
v -3 1 -1
v -2 0 -1
v -2 0 0
v -2 1 0
v -2 1 -1
v -1 0 -1
v -1 0 0
v -1 1 0
v -1 1 -1
v 0 0 -1
v 0 0 0
v 0 1 0
v 0 1 -1
v 1 0 -1
v 1 0 0
v 1 1 0
v 1 1 -1
v 2 0 -1
v 2 0 0
v 2 1 0
v 2 1 -1
v 3 0 -1
v 3 0 0
v 3 1 0
v 3 1 -1
v 4 0 -1
v 4 1 -1
v 4 1 0
v 4 0 0
v -3 -2 0
v -3 -1 0
v -2 -1 0
v -2 -2 0
v 2 -2 0
v 2 -1 0
v 3 -1 0
v 3 -2 0
v -3 -3 0
v -2 -3 0
v 2 -3 0
v 3 -3 0
v -10 -4 0
v -10 -3 0
v -9 -4 0
v -9 -3 0
v -8 -4 0
v -8 -3 0
v -7 -4 0
v -7 -3 0
v -6 -4 0
v -6 -3 0
v -5 -4 0
v -5 -3 0
v -4 -4 0
v -4 -3 0
v -3 -4 0
v -2 -4 0
v -1 -4 0
v -1 -3 0
v 0 -4 0
v 0 -3 0
v 1 -4 0
v 1 -3 0
v 2 -4 0
v 3 -4 0
v 4 -4 0
v 4 -3 0
v 5 -4 0
v 5 -3 0
v 6 -4 0
v 6 -3 0
v 7 -4 0
v 7 -3 0
v 8 -4 0
v 8 -3 0
v 9 -4 0
v 9 -3 0
v 10 -3 0
v 10 -4 0
v -4 0 1
v -4 1 1
v -3 0 1
v -3 1 1
v -2 0 1
v -2 1 1
v -1 0 1
v -1 1 1
v 0 0 1
v 0 1 1
v 1 0 1
v 1 1 1
v 2 0 1
v 2 1 1
v 3 0 1
v 3 1 1
v 4 1 1
v 4 0 1
v -3 -2 1
v -3 -1 1
v -2 -1 1
v -2 -2 1
v 2 -2 1
v 2 -1 1
v 3 -1 1
v 3 -2 1
v -3 -3 1
v -2 -3 1
v 2 -3 1
v 3 -3 1
v -10 -4 1
v -10 -3 1
v -9 -4 1
v -9 -3 1
v -8 -4 1
v -8 -3 1
v -7 -4 1
v -7 -3 1
v -6 -4 1
v -6 -3 1
v -5 -4 1
v -5 -3 1
v -4 -4 1
v -4 -3 1
v -3 -4 1
v -2 -4 1
v -1 -4 1
v -1 -3 1
v 0 -4 1
v 0 -3 1
v 1 -4 1
v 1 -3 1
v 2 -4 1
v 3 -4 1
v 4 -4 1
v 4 -3 1
v 5 -4 1
v 5 -3 1
v 6 -4 1
v 6 -3 1
v 7 -4 1
v 7 -3 1
v 8 -4 1
v 8 -3 1
v 9 -4 1
v 9 -3 1
v 10 -3 1
v 10 -4 1
v -3 -2 2
v -3 -1 2
v -2 -1 2
v -2 -2 2
v 2 -2 2
v 2 -1 2
v 3 -1 2
v 3 -2 2
v -3 -3 2
v -2 -3 2
v 2 -3 2
v 3 -3 2
v -10 -4 2
v -10 -3 2
v -9 -4 2
v -9 -3 2
v -8 -4 2
v -8 -3 2
v -7 -4 2
v -7 -3 2
v -6 -4 2
v -6 -3 2
v -5 -4 2
v -5 -3 2
v -4 -4 2
v -4 -3 2
v -3 -4 2
v -2 -4 2
v -1 -4 2
v -1 -3 2
v 0 -4 2
v 0 -3 2
v 1 -4 2
v 1 -3 2
v 2 -4 2
v 3 -4 2
v 4 -4 2
v 4 -3 2
v 5 -4 2
v 5 -3 2
v 6 -4 2
v 6 -3 2
v 7 -4 2
v 7 -3 2
v 8 -4 2
v 8 -3 2
v 9 -4 2
v 9 -3 2
v 10 -3 2
v 10 -4 2
v -7 5 2
v -7 5 3
v -7 6 3
v -7 6 2
v -6 5 2
v -6 6 2
v -6 6 3
v -6 5 3
v -8 4 2
v -8 4 3
v -8 5 3
v -8 5 2
v -7 4 2
v -6 4 2
v -7 4 3
v -6 4 3
v -5 4 2
v -5 5 2
v -5 5 3
v -5 4 3
v -8 3 2
v -8 3 3
v -7 3 2
v -6 3 2
v -7 3 3
v -6 3 3
v -5 3 2
v -5 3 3
v -4 3 2
v -4 4 2
v -4 4 3
v -4 3 3
v -8 2 2
v -8 2 3
v -7 2 2
v -6 2 2
v -7 2 3
v -6 2 3
v -5 2 2
v -5 2 3
v -4 2 2
v -4 2 3
v 5 2 2
v 5 2 3
v 5 3 3
v 5 3 2
v 6 2 2
v 6 3 2
v 6 3 3
v 6 2 3
v -8 1 2
v -8 1 3
v -7 1 2
v -6 1 2
v -7 1 3
v -6 1 3
v -5 1 2
v -5 1 3
v -4 1 2
v -4 1 3
v 4 1 2
v 4 1 3
v 4 2 3
v 4 2 2
v 5 1 2
v 6 1 2
v 5 1 3
v 6 1 3
v 7 1 2
v 7 2 2
v 7 2 3
v 7 1 3
v -8 0 2
v -8 0 3
v -7 0 2
v -6 0 2
v -7 0 3
v -6 0 3
v -5 0 2
v -5 0 3
v -4 0 2
v -4 0 3
v 4 0 2
v 4 0 3
v 5 0 2
v 6 0 2
v 5 0 3
v 6 0 3
v 7 0 2
v 7 0 3
v 8 0 2
v 8 1 2
v 8 1 3
v 8 0 3
v -8 -1 2
v -8 -1 3
v -7 -1 2
v -6 -1 2
v -7 -1 3
v -6 -1 3
v -5 -1 2
v -5 -1 3
v -4 -1 2
v -4 -1 3
v 4 -1 2
v 4 -1 3
v 5 -1 2
v 6 -1 2
v 5 -1 3
v 6 -1 3
v 7 -1 2
v 7 -1 3
v 8 -1 2
v 8 -1 3
v -8 -2 2
v -8 -2 3
v -7 -2 2
v -6 -2 2
v -7 -2 3
v -6 -2 3
v -5 -2 2
v -5 -2 3
v -4 -2 2
v -4 -2 3
v -3 -2 3
v -3 -1 3
v -2 -1 3
v -2 -2 3
v 2 -2 3
v 2 -1 3
v 3 -1 3
v 3 -2 3
v 4 -2 2
v 4 -2 3
v 5 -2 2
v 6 -2 2
v 5 -2 3
v 6 -2 3
v 7 -2 2
v 7 -2 3
v 8 -2 2
v 8 -2 3
v -8 -3 3
v -7 -3 3
v -6 -3 3
v -5 -3 3
v -4 -3 3
v -3 -3 3
v -2 -3 3
v 2 -3 3
v 3 -3 3
v 4 -3 3
v 5 -3 3
v 6 -3 3
v 7 -3 3
v 8 -3 3
v -10 -4 3
v -10 -3 3
v -9 -4 3
v -9 -3 3
v -8 -4 3
v -7 -4 3
v -6 -4 3
v -5 -4 3
v -4 -4 3
v -3 -4 3
v -2 -4 3
v -1 -4 3
v -1 -3 3
v 0 -4 3
v 0 -3 3
v 1 -4 3
v 1 -3 3
v 2 -4 3
v 3 -4 3
v 4 -4 3
v 5 -4 3
v 6 -4 3
v 7 -4 3
v 8 -4 3
v 9 -4 3
v 9 -3 3
v 10 -3 3
v 10 -4 3
v -7 5 4
v -7 6 4
v -6 6 4
v -6 5 4
v -8 4 4
v -8 5 4
v -7 4 4
v -6 4 4
v -5 5 4
v -5 4 4
v -8 3 4
v -7 3 4
v -5 3 4
v -4 4 4
v -4 3 4
v -8 2 4
v -7 2 4
v -5 2 4
v -4 2 4
v 5 2 4
v 5 3 4
v 6 3 4
v 6 2 4
v -8 1 4
v -7 1 4
v -5 1 4
v -4 1 4
v 4 1 4
v 4 2 4
v 5 1 4
v 6 1 4
v 7 2 4
v 7 1 4
v -8 0 4
v -7 0 4
v -5 0 4
v -4 0 4
v 4 0 4
v 5 0 4
v 7 0 4
v 8 1 4
v 8 0 4
v -8 -1 4
v -7 -1 4
v -5 -1 4
v -4 -1 4
v 4 -1 4
v 5 -1 4
v 7 -1 4
v 8 -1 4
v -8 -2 4
v -7 -2 4
v -5 -2 4
v -4 -2 4
v -3 -2 4
v -3 -1 4
v -2 -1 4
v -2 -2 4
v 2 -2 4
v 2 -1 4
v 3 -1 4
v 3 -2 4
v 4 -2 4
v 5 -2 4
v 7 -2 4
v 8 -2 4
v -8 -3 4
v -7 -3 4
v -5 -3 4
v -4 -3 4
v -3 -3 4
v -2 -3 4
v 2 -3 4
v 3 -3 4
v 4 -3 4
v 5 -3 4
v 7 -3 4
v 8 -3 4
v -10 -4 4
v -10 -3 4
v -9 -4 4
v -9 -3 4
v -8 -4 4
v -7 -4 4
v -6 -4 4
v -6 -3 4
v -5 -4 4
v -4 -4 4
v -3 -4 4
v -2 -4 4
v -1 -4 4
v -1 -3 4
v 0 -4 4
v 0 -3 4
v 1 -4 4
v 1 -3 4
v 2 -4 4
v 3 -4 4
v 4 -4 4
v 5 -4 4
v 6 -4 4
v 6 -3 4
v 7 -4 4
v 8 -4 4
v 9 -4 4
v 9 -3 4
v 10 -3 4
v 10 -4 4
v -7 5 5
v -7 6 5
v -6 6 5
v -6 5 5
v -8 4 5
v -8 5 5
v -7 4 5
v -6 4 5
v -5 5 5
v -5 4 5
v -8 3 5
v -7 3 5
v -5 3 5
v -4 4 5
v -4 3 5
v -8 2 5
v -7 2 5
v -5 2 5
v -4 2 5
v 5 2 5
v 5 3 5
v 6 3 5
v 6 2 5
v -8 1 5
v -7 1 5
v -5 1 5
v -4 1 5
v 4 1 5
v 4 2 5
v 5 1 5
v 6 1 5
v 7 2 5
v 7 1 5
v -8 0 5
v -7 0 5
v -5 0 5
v -4 0 5
v 4 0 5
v 5 0 5
v 7 0 5
v 8 1 5
v 8 0 5
v -8 -1 5
v -7 -1 5
v -5 -1 5
v -4 -1 5
v 4 -1 5
v 5 -1 5
v 7 -1 5
v 8 -1 5
v -8 -2 5
v -7 -2 5
v -5 -2 5
v -4 -2 5
v -3 -2 5
v -3 -1 5
v -2 -1 5
v -2 -2 5
v 2 -2 5
v 2 -1 5
v 3 -1 5
v 3 -2 5
v 4 -2 5
v 5 -2 5
v 7 -2 5
v 8 -2 5
v -8 -3 5
v -7 -3 5
v -5 -3 5
v -4 -3 5
v -3 -3 5
v -2 -3 5
v 2 -3 5
v 3 -3 5
v 4 -3 5
v 5 -3 5
v 7 -3 5
v 8 -3 5
v -10 -4 5
v -10 -3 5
v -9 -4 5
v -9 -3 5
v -8 -4 5
v -7 -4 5
v -6 -4 5
v -6 -3 5
v -5 -4 5
v -4 -4 5
v -3 -4 5
v -2 -4 5
v -1 -4 5
v -1 -3 5
v 0 -4 5
v 0 -3 5
v 1 -4 5
v 1 -3 5
v 2 -4 5
v 3 -4 5
v 4 -4 5
v 5 -4 5
v 6 -4 5
v 6 -3 5
v 7 -4 5
v 8 -4 5
v 9 -4 5
v 9 -3 5
v 10 -3 5
v 10 -4 5
v -7 5 6
v -7 6 6
v -6 6 6
v -6 5 6
v -8 4 6
v -8 5 6
v -7 4 6
v -6 4 6
v -5 5 6
v -5 4 6
v -8 3 6
v -7 3 6
v -5 3 6
v -4 4 6
v -4 3 6
v -8 2 6
v -7 2 6
v -5 2 6
v -4 2 6
v 5 2 6
v 5 3 6
v 6 3 6
v 6 2 6
v -8 1 6
v -7 1 6
v -5 1 6
v -4 1 6
v 4 1 6
v 4 2 6
v 5 1 6
v 6 1 6
v 7 2 6
v 7 1 6
v -8 0 6
v -7 0 6
v -5 0 6
v -4 0 6
v 4 0 6
v 5 0 6
v 7 0 6
v 8 1 6
v 8 0 6
v -8 -1 6
v -7 -1 6
v -5 -1 6
v -4 -1 6
v 4 -1 6
v 5 -1 6
v 7 -1 6
v 8 -1 6
v -8 -2 6
v -7 -2 6
v -5 -2 6
v -4 -2 6
v -3 -2 6
v -3 -1 6
v -2 -1 6
v -2 -2 6
v 2 -2 6
v 2 -1 6
v 3 -1 6
v 3 -2 6
v 4 -2 6
v 5 -2 6
v 7 -2 6
v 8 -2 6
v -8 -3 6
v -7 -3 6
v -5 -3 6
v -4 -3 6
v -3 -3 6
v -2 -3 6
v 2 -3 6
v 3 -3 6
v 4 -3 6
v 5 -3 6
v 7 -3 6
v 8 -3 6
v -10 -4 6
v -10 -3 6
v -9 -4 6
v -9 -3 6
v -8 -4 6
v -7 -4 6
v -6 -4 6
v -6 -3 6
v -5 -4 6
v -4 -4 6
v -3 -4 6
v -2 -4 6
v -1 -4 6
v -1 -3 6
v 0 -4 6
v 0 -3 6
v 1 -4 6
v 1 -3 6
v 2 -4 6
v 3 -4 6
v 4 -4 6
v 5 -4 6
v 6 -4 6
v 6 -3 6
v 7 -4 6
v 8 -4 6
v 9 -4 6
v 9 -3 6
v 10 -3 6
v 10 -4 6
v -7 5 7
v -7 6 7
v -6 6 7
v -6 5 7
v -8 4 7
v -8 5 7
v -7 4 7
v -6 4 7
v -5 5 7
v -5 4 7
v -8 3 7
v -7 3 7
v -5 3 7
v -4 4 7
v -4 3 7
v -8 2 7
v -7 2 7
v -5 2 7
v -4 2 7
v 5 2 7
v 5 3 7
v 6 3 7
v 6 2 7
v -8 1 7
v -7 1 7
v -5 1 7
v -4 1 7
v 4 1 7
v 4 2 7
v 5 1 7
v 6 1 7
v 7 2 7
v 7 1 7
v -8 0 7
v -7 0 7
v -5 0 7
v -4 0 7
v 4 0 7
v 5 0 7
v 7 0 7
v 8 1 7
v 8 0 7
v -8 -1 7
v -7 -1 7
v -5 -1 7
v -4 -1 7
v 4 -1 7
v 5 -1 7
v 7 -1 7
v 8 -1 7
v -8 -2 7
v -7 -2 7
v -5 -2 7
v -4 -2 7
v -3 -2 7
v -3 -1 7
v -2 -1 7
v -2 -2 7
v 2 -2 7
v 2 -1 7
v 3 -1 7
v 3 -2 7
v 4 -2 7
v 5 -2 7
v 7 -2 7
v 8 -2 7
v -8 -3 7
v -7 -3 7
v -5 -3 7
v -4 -3 7
v -3 -3 7
v -2 -3 7
v 2 -3 7
v 3 -3 7
v 4 -3 7
v 5 -3 7
v 7 -3 7
v 8 -3 7
v -10 -4 7
v -10 -3 7
v -9 -4 7
v -9 -3 7
v -8 -4 7
v -7 -4 7
v -6 -4 7
v -6 -3 7
v -5 -4 7
v -4 -4 7
v -3 -4 7
v -2 -4 7
v -1 -4 7
v -1 -3 7
v 0 -4 7
v 0 -3 7
v 1 -4 7
v 1 -3 7
v 2 -4 7
v 3 -4 7
v 4 -4 7
v 5 -4 7
v 6 -4 7
v 6 -3 7
v 7 -4 7
v 8 -4 7
v 9 -4 7
v 9 -3 7
v 10 -3 7
v 10 -4 7
v -7 5 8
v -7 6 8
v -6 6 8
v -6 5 8
v -8 4 8
v -8 5 8
v -7 4 8
v -6 4 8
v -5 5 8
v -5 4 8
v -8 3 8
v -7 3 8
v -6 3 7
v -6 3 8
v -5 3 8
v -4 4 8
v -4 3 8
v -8 2 8
v -7 2 8
v -6 2 7
v -6 2 8
v -5 2 8
v -4 2 8
v 5 2 8
v 5 3 8
v 6 3 8
v 6 2 8
v -8 1 8
v -7 1 8
v -6 1 7
v -6 1 8
v -5 1 8
v -4 1 8
v 4 1 8
v 4 2 8
v 5 1 8
v 6 1 8
v 7 2 8
v 7 1 8
v -8 0 8
v -7 0 8
v -6 0 7
v -6 0 8
v -5 0 8
v -4 0 8
v 4 0 8
v 5 0 8
v 6 0 7
v 6 0 8
v 7 0 8
v 8 1 8
v 8 0 8
v -8 -1 8
v -7 -1 8
v -6 -1 7
v -6 -1 8
v -5 -1 8
v -4 -1 8
v 4 -1 8
v 5 -1 8
v 6 -1 7
v 6 -1 8
v 7 -1 8
v 8 -1 8
v -8 -2 8
v -7 -2 8
v -6 -2 7
v -6 -2 8
v -5 -2 8
v -4 -2 8
v -3 -2 8
v -3 -1 8
v -2 -1 8
v -2 -2 8
v 2 -2 8
v 2 -1 8
v 3 -1 8
v 3 -2 8
v 4 -2 8
v 5 -2 8
v 6 -2 7
v 6 -2 8
v 7 -2 8
v 8 -2 8
v -8 -3 8
v -7 -3 8
v -6 -3 8
v -5 -3 8
v -4 -3 8
v -3 -3 8
v -2 -3 8
v 2 -3 8
v 3 -3 8
v 4 -3 8
v 5 -3 8
v 6 -3 8
v 7 -3 8
v 8 -3 8
v -10 -4 8
v -10 -3 8
v -9 -4 8
v -9 -3 8
v -8 -4 8
v -7 -4 8
v -6 -4 8
v -5 -4 8
v -4 -4 8
v -3 -4 8
v -2 -4 8
v -1 -4 8
v -1 -3 8
v 0 -4 8
v 0 -3 8
v 1 -4 8
v 1 -3 8
v 2 -4 8
v 3 -4 8
v 4 -4 8
v 5 -4 8
v 6 -4 8
v 7 -4 8
v 8 -4 8
v 9 -4 8
v 9 -3 8
v 10 -3 8
v 10 -4 8
v -3 -2 9
v -3 -1 9
v -2 -1 9
v -2 -2 9
v 2 -2 9
v 2 -1 9
v 3 -1 9
v 3 -2 9
v -3 -3 9
v -2 -3 9
v 2 -3 9
v 3 -3 9
v -10 -4 9
v -10 -3 9
v -9 -4 9
v -9 -3 9
v -8 -4 9
v -8 -3 9
v -7 -4 9
v -7 -3 9
v -6 -4 9
v -6 -3 9
v -5 -4 9
v -5 -3 9
v -4 -4 9
v -4 -3 9
v -3 -4 9
v -2 -4 9
v -1 -4 9
v -1 -3 9
v 0 -4 9
v 0 -3 9
v 1 -4 9
v 1 -3 9
v 2 -4 9
v 3 -4 9
v 4 -4 9
v 4 -3 9
v 5 -4 9
v 5 -3 9
v 6 -4 9
v 6 -3 9
v 7 -4 9
v 7 -3 9
v 8 -4 9
v 8 -3 9
v 9 -4 9
v 9 -3 9
v 10 -3 9
v 10 -4 9
v -3 -2 10
v -3 -1 10
v -2 -1 10
v -2 -2 10
v 2 -2 10
v 2 -1 10
v 3 -1 10
v 3 -2 10
v -3 -3 10
v -2 -3 10
v 2 -3 10
v 3 -3 10
v -10 -4 10
v -10 -3 10
v -9 -4 10
v -9 -3 10
v -8 -4 10
v -8 -3 10
v -7 -4 10
v -7 -3 10
v -6 -4 10
v -6 -3 10
v -5 -4 10
v -5 -3 10
v -4 -4 10
v -4 -3 10
v -3 -4 10
v -2 -4 10
v -1 -4 10
v -1 -3 10
v 0 -4 10
v 0 -3 10
v 1 -4 10
v 1 -3 10
v 2 -4 10
v 3 -4 10
v 4 -4 10
v 4 -3 10
v 5 -4 10
v 5 -3 10
v 6 -4 10
v 6 -3 10
v 7 -4 10
v 7 -3 10
v 8 -4 10
v 8 -3 10
v 9 -4 10
v 9 -3 10
v 10 -3 10
v 10 -4 10
vn -1 0 0
vn 1 0 0
vn 0 -1 0
vn 0 1 0
vn 0 0 -1
vn 0 0 1
s off
g glyph_35
f 1//1 2//1 3//1 4//1
f 5//2 6//2 7//2 8//2
f 4//4 3//4 7//4 6//4
f 1//5 4//5 6//5 5//5
f 9//1 10//1 11//1 12//1
f 13//2 14//2 15//2 16//2
f 12//4 11//4 15//4 14//4
f 9//5 12//5 14//5 13//5
f 17//1 18//1 2//1 1//1
f 19//2 5//2 8//2 20//2
f 17//5 1//5 5//5 19//5
f 21//1 22//1 10//1 9//1
f 23//2 13//2 16//2 24//2
f 21//5 9//5 13//5 23//5
f 2//1 101//1 102//1 3//1
f 8//2 7//2 103//2 104//2
f 3//4 102//4 103//4 7//4
f 10//1 105//1 106//1 11//1
f 16//2 15//2 107//2 108//2
f 11//4 106//4 107//4 15//4
f 18//1 109//1 101//1 2//1
f 20//2 8//2 104//2 110//2
f 22//1 111//1 105//1 10//1
f 24//2 16//2 108//2 112//2
f 163//5 151//5 155//5 164//5
f 165//6 166//6 158//6 152//6
f 171//1 172//1 160//1 159//1
f 171//5 159//5 163//5 173//5
f 173//5 163//5 164//5 174//5
f 175//6 176//6 166//6 165//6
f 174//5 164//5 167//5 177//5
f 176//6 178//6 170//6 166//6
f 191//1 192//1 172//1 171//1
f 191//5 171//5 173//5 193//5
f 193//5 173//5 174//5 194//5
f 195//6 196//6 176//6 175//6
f 194//5 174//5 177//5 197//5
f 196//6 198//6 178//6 176//6
f 199//2 179//2 182//2 200//2
f 197//5 177//5 179//5 199//5
f 205//5 183//5 187//5 206//5
f 207//6 208//6 190//6 184//6
f 215//5 193//5 194//5 216//5
f 217//6 218//6 196//6 195//6
f 216//5 194//5 197//5 219//5
f 218//6 220//6 198//6 196//6
f 223//1 224//1 202//1 201//1
f 223//5 201//5 205//5 225//5
f 225//5 205//5 206//5 226//5
f 227//6 228//6 208//6 207//6
f 226//5 206//5 209//5 229//5
f 228//6 230//6 212//6 208//6
f 235//1 236//1 214//1 213//1
f 235//5 213//5 215//5 237//5
f 237//5 215//5 216//5 238//5
f 239//6 240//6 218//6 217//6
f 238//5 216//5 219//5 241//5
f 240//6 242//6 220//6 218//6
f 243//2 221//2 222//2 244//2
f 241//5 219//5 221//5 243//5
f 245//1 246//1 224//1 223//1
f 245//5 223//5 225//5 247//5
f 247//5 225//5 226//5 248//5
f 249//6 250//6 228//6 227//6
f 248//5 226//5 229//5 251//5
f 250//6 252//6 230//6 228//6
f 253//2 231//2 234//2 254//2
f 251//5 229//5 231//5 253//5
f 255//1 256//1 236//1 235//1
f 255//5 235//5 237//5 257//5
f 257//5 237//5 238//5 258//5
f 259//6 260//6 240//6 239//6
f 258//5 238//5 241//5 261//5
f 260//6 262//6 242//6 240//6
f 263//2 243//2 244//2 264//2
f 261//5 241//5 243//5 263//5
f 267//5 247//5 248//5 268//5
f 269//6 270//6 250//6 249//6
f 268//5 248//5 251//5 271//5
f 270//6 272//6 252//6 250//6
f 277//5 257//5 258//5 278//5
f 279//6 280//6 260//6 259//6
f 278//5 258//5 261//5 281//5
f 280//6 282//6 262//6 260//6
f 285//1 286//1 266//1 265//1
f 285//5 265//5 267//5 287//5
f 287//5 267//5 268//5 288//5
f 289//6 290//6 270//6 269//6
f 288//5 268//5 271//5 291//5
f 290//6 292//6 272//6 270//6
f 293//2 273//2 274//2 294//2
f 291//5 271//5 273//5 293//5
f 101//1 295//1 296//1 102//1
f 104//2 103//2 297//2 298//2
f 102//4 296//4 297//4 103//4
f 105//1 299//1 300//1 106//1
f 108//2 107//2 301//2 302//2
f 106//4 300//4 301//4 107//4
f 303//1 304//1 276//1 275//1
f 303//5 275//5 277//5 305//5
f 305//5 277//5 278//5 306//5
f 307//6 308//6 280//6 279//6
f 306//5 278//5 281//5 309//5
f 308//6 310//6 282//6 280//6
f 311//2 283//2 284//2 312//2
f 309//5 281//5 283//5 311//5
f 118//1 313//1 286//1 285//1
f 118//5 285//5 287//5 120//5
f 120//5 287//5 288//5 122//5
f 314//6 315//6 290//6 289//6
f 122//5 288//5 291//5 124//5
f 315//6 316//6 292//6 290//6
f 126//2 293//2 294//2 317//2
f 124//5 291//5 293//5 126//5
f 109//1 318//1 295//1 101//1
f 110//2 104//2 298//2 319//2
f 111//1 320//1 299//1 105//1
f 112//2 108//2 302//2 321//2
f 138//1 322//1 304//1 303//1
f 138//5 303//5 305//5 140//5
f 140//5 305//5 306//5 142//5
f 323//6 324//6 308//6 307//6
f 142//5 306//5 309//5 144//5
f 324//6 325//6 310//6 308//6
f 146//2 311//2 312//2 326//2
f 144//5 309//5 311//5 146//5
f 172//1 365//1 359//1 160//1
f 175//2 165//2 361//2 366//2
f 192//1 374//1 365//1 172//1
f 195//2 175//2 366//2 375//2
f 198//1 376//1 367//1 178//1
f 200//2 182//2 369//2 377//2
f 214//1 384//1 374//1 192//1
f 217//2 195//2 375//2 385//2
f 220//1 386//1 376//1 198//1
f 222//2 200//2 377//2 387//2
f 224//1 388//1 378//1 202//1
f 227//2 207//2 380//2 389//2
f 236//1 393//1 384//1 214//1
f 239//2 217//2 385//2 394//2
f 242//1 395//1 386//1 220//1
f 244//2 222//2 387//2 396//2
f 246//1 397//1 388//1 224//1
f 249//2 227//2 389//2 398//2
f 252//1 399//1 390//1 230//1
f 254//2 234//2 392//2 400//2
f 256//1 401//1 393//1 236//1
f 259//2 239//2 394//2 402//2
f 262//1 403//1 395//1 242//1
f 264//2 244//2 396//2 404//2
f 266//1 405//1 397//1 246//1
f 269//2 249//2 398//2 406//2
f 272//1 407//1 399//1 252//1
f 274//2 254//2 400//2 408//2
f 276//1 409//1 401//1 256//1
f 279//2 259//2 402//2 410//2
f 282//1 411//1 403//1 262//1
f 284//2 264//2 404//2 412//2
f 286//1 413//1 405//1 266//1
f 289//2 269//2 406//2 414//2
f 292//1 415//1 407//1 272//1
f 294//2 274//2 408//2 416//2
f 295//1 417//1 418//1 296//1
f 298//2 297//2 419//2 420//2
f 296//4 418//4 419//4 297//4
f 299//1 421//1 422//1 300//1
f 302//2 301//2 423//2 424//2
f 300//4 422//4 423//4 301//4
f 304//1 425//1 409//1 276//1
f 307//2 279//2 410//2 426//2
f 310//1 427//1 411//1 282//1
f 312//2 284//2 412//2 428//2
f 313//1 429//1 413//1 286//1
f 314//2 289//2 414//2 430//2
f 316//1 431//1 415//1 292//1
f 317//2 294//2 416//2 432//2
f 318//1 433//1 417//1 295//1
f 319//2 298//2 420//2 434//2
f 320//1 435//1 421//1 299//1
f 321//2 302//2 424//2 436//2
f 322//1 437//1 425//1 304//1
f 323//2 307//2 426//2 438//2
f 325//1 439//1 427//1 310//1
f 326//2 312//2 428//2 440//2
f 365//1 481//1 475//1 359//1
f 366//2 361//2 477//2 482//2
f 374//1 490//1 481//1 365//1
f 375//2 366//2 482//2 491//2
f 376//1 492//1 483//1 367//1
f 377//2 369//2 485//2 493//2
f 388//1 504//1 494//1 378//1
f 389//2 380//2 496//2 505//2
f 393//1 509//1 500//1 384//1
f 394//2 385//2 501//2 510//2
f 395//1 511//1 502//1 386//1
f 396//2 387//2 503//2 512//2
f 397//1 513//1 504//1 388//1
f 398//2 389//2 505//2 514//2
f 399//1 515//1 506//1 390//1
f 400//2 392//2 508//2 516//2
f 401//1 517//1 509//1 393//1
f 402//2 394//2 510//2 518//2
f 403//1 519//1 511//1 395//1
f 404//2 396//2 512//2 520//2
f 413//1 529//1 521//1 405//1
f 414//2 406//2 522//2 530//2
f 415//1 531//1 523//1 407//1
f 416//2 408//2 524//2 532//2
f 417//1 533//1 534//1 418//1
f 420//2 419//2 535//2 536//2
f 418//4 534//4 535//4 419//4
f 421//1 537//1 538//1 422//1
f 424//2 423//2 539//2 540//2
f 422//4 538//4 539//4 423//4
f 425//1 541//1 525//1 409//1
f 426//2 410//2 526//2 542//2
f 427//1 543//1 527//1 411//1
f 428//2 412//2 528//2 544//2
f 429//1 545//1 529//1 413//1
f 430//2 414//2 530//2 546//2
f 431//1 547//1 531//1 415//1
f 432//2 416//2 532//2 548//2
f 433//1 549//1 533//1 417//1
f 434//2 420//2 536//2 550//2
f 435//1 551//1 537//1 421//1
f 436//2 424//2 540//2 552//2
f 437//1 553//1 541//1 425//1
f 438//2 426//2 542//2 554//2
f 439//1 555//1 543//1 427//1
f 440//2 428//2 544//2 556//2
f 481//1 597//1 591//1 475//1
f 482//2 477//2 593//2 598//2
f 490//1 606//1 597//1 481//1
f 491//2 482//2 598//2 607//2
f 492//1 608//1 599//1 483//1
f 493//2 485//2 601//2 609//2
f 500//1 616//1 606//1 490//1
f 501//2 491//2 607//2 617//2
f 502//1 618//1 608//1 492//1
f 503//2 493//2 609//2 619//2
f 504//1 620//1 610//1 494//1
f 505//2 496//2 612//2 621//2
f 509//1 625//1 616//1 500//1
f 510//2 501//2 617//2 626//2
f 511//1 627//1 618//1 502//1
f 512//2 503//2 619//2 628//2
f 513//1 629//1 620//1 504//1
f 514//2 505//2 621//2 630//2
f 515//1 631//1 622//1 506//1
f 516//2 508//2 624//2 632//2
f 517//1 633//1 625//1 509//1
f 518//2 510//2 626//2 634//2
f 519//1 635//1 627//1 511//1
f 520//2 512//2 628//2 636//2
f 521//1 637//1 629//1 513//1
f 522//2 514//2 630//2 638//2
f 523//1 639//1 631//1 515//1
f 524//2 516//2 632//2 640//2
f 525//1 641//1 633//1 517//1
f 526//2 518//2 634//2 642//2
f 527//1 643//1 635//1 519//1
f 528//2 520//2 636//2 644//2
f 529//1 645//1 637//1 521//1
f 530//2 522//2 638//2 646//2
f 531//1 647//1 639//1 523//1
f 532//2 524//2 640//2 648//2
f 533//1 649//1 650//1 534//1
f 536//2 535//2 651//2 652//2
f 534//4 650//4 651//4 535//4
f 537//1 653//1 654//1 538//1
f 540//2 539//2 655//2 656//2
f 538//4 654//4 655//4 539//4
f 541//1 657//1 641//1 525//1
f 542//2 526//2 642//2 658//2
f 543//1 659//1 643//1 527//1
f 544//2 528//2 644//2 660//2
f 545//1 661//1 645//1 529//1
f 546//2 530//2 646//2 662//2
f 547//1 663//1 647//1 531//1
f 548//2 532//2 648//2 664//2
f 549//1 665//1 649//1 533//1
f 550//2 536//2 652//2 666//2
f 551//1 667//1 653//1 537//1
f 552//2 540//2 656//2 668//2
f 553//1 669//1 657//1 541//1
f 554//2 542//2 658//2 670//2
f 555//1 671//1 659//1 543//1
f 556//2 544//2 660//2 672//2
f 597//1 713//1 707//1 591//1
f 598//2 593//2 709//2 714//2
f 606//1 722//1 713//1 597//1
f 607//2 598//2 714//2 723//2
f 608//1 724//1 715//1 599//1
f 609//2 601//2 717//2 725//2
f 620//1 736//1 726//1 610//1
f 621//2 612//2 728//2 737//2
f 625//1 741//1 732//1 616//1
f 626//2 617//2 733//2 742//2
f 627//1 743//1 734//1 618//1
f 628//2 619//2 735//2 744//2
f 629//1 745//1 736//1 620//1
f 630//2 621//2 737//2 746//2
f 631//1 747//1 738//1 622//1
f 632//2 624//2 740//2 748//2
f 633//1 749//1 741//1 625//1
f 634//2 626//2 742//2 750//2
f 635//1 751//1 743//1 627//1
f 636//2 628//2 744//2 752//2
f 645//1 761//1 753//1 637//1
f 646//2 638//2 754//2 762//2
f 647//1 763//1 755//1 639//1
f 648//2 640//2 756//2 764//2
f 649//1 765//1 766//1 650//1
f 652//2 651//2 767//2 768//2
f 650//4 766//4 767//4 651//4
f 653//1 769//1 770//1 654//1
f 656//2 655//2 771//2 772//2
f 654//4 770//4 771//4 655//4
f 657//1 773//1 757//1 641//1
f 658//2 642//2 758//2 774//2
f 659//1 775//1 759//1 643//1
f 660//2 644//2 760//2 776//2
f 661//1 777//1 761//1 645//1
f 662//2 646//2 762//2 778//2
f 663//1 779//1 763//1 647//1
f 664//2 648//2 764//2 780//2
f 665//1 781//1 765//1 649//1
f 666//2 652//2 768//2 782//2
f 667//1 783//1 769//1 653//1
f 668//2 656//2 772//2 784//2
f 669//1 785//1 773//1 657//1
f 670//2 658//2 774//2 786//2
f 671//1 787//1 775//1 659//1
f 672//2 660//2 776//2 788//2
f 709//5 703//5 706//5 710//5
f 825//6 826//6 822//6 819//6
f 713//1 829//1 823//1 707//1
f 829//6 830//6 825//6 823//6
f 714//5 709//5 710//5 831//5
f 830//6 832//6 826//6 825//6
f 831//5 710//5 712//5 715//5
f 832//6 833//6 828//6 826//6
f 722//1 840//1 829//1 713//1
f 840//6 841//6 830//6 829//6
f 723//5 714//5 831//5 842//5
f 841//6 843//6 832//6 830//6
f 842//5 831//5 715//5 724//5
f 843//6 844//6 833//6 832//6
f 725//2 717//2 835//2 845//2
f 844//6 845//6 835//6 833//6
f 728//5 718//5 721//5 729//5
f 848//6 849//6 839//6 836//6
f 732//1 852//1 840//1 722//1
f 852//6 853//6 841//6 840//6
f 733//5 723//5 842//5 854//5
f 853//6 855//6 843//6 841//6
f 854//5 842//5 724//5 734//5
f 855//6 856//6 844//6 843//6
f 735//2 725//2 845//2 857//2
f 856//6 857//6 845//6 844//6
f 736//1 858//1 846//1 726//1
f 858//6 859//6 848//6 846//6
f 737//5 728//5 729//5 860//5
f 859//6 861//6 849//6 848//6
f 860//5 729//5 731//5 738//5
f 861//6 862//6 851//6 849//6
f 741//1 865//1 852//1 732//1
f 865//6 866//6 853//6 852//6
f 742//5 733//5 854//5 867//5
f 866//6 868//6 855//6 853//6
f 867//5 854//5 734//5 743//5
f 868//6 869//6 856//6 855//6
f 744//2 735//2 857//2 870//2
f 869//6 870//6 857//6 856//6
f 745//1 871//1 858//1 736//1
f 871//6 872//6 859//6 858//6
f 746//5 737//5 860//5 873//5
f 872//6 874//6 861//6 859//6
f 873//5 860//5 738//5 747//5
f 874//6 875//6 862//6 861//6
f 748//2 740//2 864//2 876//2
f 875//6 876//6 864//6 862//6
f 749//1 877//1 865//1 741//1
f 877//6 878//6 866//6 865//6
f 750//5 742//5 867//5 879//5
f 878//6 880//6 868//6 866//6
f 879//5 867//5 743//5 751//5
f 880//6 881//6 869//6 868//6
f 752//2 744//2 870//2 882//2
f 881//6 882//6 870//6 869//6
f 753//1 883//1 871//1 745//1
f 883//6 884//6 872//6 871//6
f 754//5 746//5 873//5 885//5
f 884//6 886//6 874//6 872//6
f 885//5 873//5 747//5 755//5
f 886//6 887//6 875//6 874//6
f 756//2 748//2 876//2 888//2
f 887//6 888//6 876//6 875//6
f 757//1 889//1 877//1 749//1
f 889//6 890//6 878//6 877//6
f 758//5 750//5 879//5 891//5
f 890//6 892//6 880//6 878//6
f 891//5 879//5 751//5 759//5
f 892//6 893//6 881//6 880//6
f 760//2 752//2 882//2 894//2
f 893//6 894//6 882//6 881//6
f 761//1 895//1 883//1 753//1
f 895//6 896//6 884//6 883//6
f 762//5 754//5 885//5 897//5
f 896//6 898//6 886//6 884//6
f 897//5 885//5 755//5 763//5
f 898//6 899//6 887//6 886//6
f 764//2 756//2 888//2 900//2
f 899//6 900//6 888//6 887//6
f 765//1 901//1 902//1 766//1
f 768//2 767//2 903//2 904//2
f 766//4 902//4 903//4 767//4
f 769//1 905//1 906//1 770//1
f 772//2 771//2 907//2 908//2
f 770//4 906//4 907//4 771//4
f 773//1 909//1 889//1 757//1
f 909//6 910//6 890//6 889//6
f 774//5 758//5 891//5 911//5
f 910//6 912//6 892//6 890//6
f 911//5 891//5 759//5 775//5
f 912//6 913//6 893//6 892//6
f 776//2 760//2 894//2 914//2
f 913//6 914//6 894//6 893//6
f 777//1 915//1 895//1 761//1
f 915//6 916//6 896//6 895//6
f 778//5 762//5 897//5 796//5
f 916//6 917//6 898//6 896//6
f 796//5 897//5 763//5 779//5
f 917//6 918//6 899//6 898//6
f 780//2 764//2 900//2 919//2
f 918//6 919//6 900//6 899//6
f 781//1 920//1 901//1 765//1
f 782//2 768//2 904//2 921//2
f 783//1 922//1 905//1 769//1
f 784//2 772//2 908//2 923//2
f 785//1 924//1 909//1 773//1
f 924//6 925//6 910//6 909//6
f 786//5 774//5 911//5 812//5
f 925//6 926//6 912//6 910//6
f 812//5 911//5 775//5 787//5
f 926//6 927//6 913//6 912//6
f 788//2 776//2 914//2 928//2
f 927//6 928//6 914//6 913//6
f 901//1 957//1 958//1 902//1
f 904//2 903//2 959//2 960//2
f 902//4 958//4 959//4 903//4
f 905//1 961//1 962//1 906//1
f 908//2 907//2 963//2 964//2
f 906//4 962//4 963//4 907//4
f 920//1 965//1 957//1 901//1
f 921//2 904//2 960//2 966//2
f 922//1 967//1 961//1 905//1
f 923//2 908//2 964//2 968//2
f 957//1 1043//1 1044//1 958//1
f 960//2 959//2 1045//2 1046//2
f 958//4 1044//4 1045//4 959//4
f 961//1 1047//1 1048//1 962//1
f 964//2 963//2 1049//2 1050//2
f 962//4 1048//4 1049//4 963//4
f 965//1 1051//1 1043//1 957//1
f 966//2 960//2 1046//2 1052//2
f 967//1 1053//1 1047//1 961//1
f 968//2 964//2 1050//2 1054//2
f 1043//1 1111//1 1112//1 1044//1
f 1046//2 1045//2 1113//2 1114//2
f 1044//4 1112//4 1113//4 1045//4
f 1047//1 1115//1 1116//1 1048//1
f 1050//2 1049//2 1117//2 1118//2
f 1048//4 1116//4 1117//4 1049//4
f 1051//1 1119//1 1111//1 1043//1
f 1052//2 1046//2 1114//2 1120//2
f 1053//1 1121//1 1115//1 1047//1
f 1054//2 1050//2 1118//2 1122//2
f 1111//1 1161//1 1162//1 1112//1
f 1114//2 1113//2 1163//2 1164//2
f 1112//4 1162//4 1163//4 1113//4
f 1115//1 1165//1 1166//1 1116//1
f 1118//2 1117//2 1167//2 1168//2
f 1116//4 1166//4 1167//4 1117//4
f 1119//1 1169//1 1161//1 1111//1
f 1120//2 1114//2 1164//2 1170//2
f 1121//1 1171//1 1165//1 1115//1
f 1122//2 1118//2 1168//2 1172//2
f 1223//5 1211//5 1215//5 1224//5
f 1225//6 1226//6 1218//6 1212//6
f 1231//1 1232//1 1220//1 1219//1
f 1231//5 1219//5 1223//5 1233//5
f 1233//5 1223//5 1224//5 1234//5
f 1235//6 1236//6 1226//6 1225//6
f 1234//5 1224//5 1227//5 1237//5
f 1236//6 1238//6 1230//6 1226//6
f 1245//5 1233//5 1234//5 1246//5
f 1247//6 1248//6 1236//6 1235//6
f 1246//5 1234//5 1237//5 1249//5
f 1248//6 1250//6 1238//6 1236//6
f 1261//1 1262//1 1244//1 1243//1
f 1261//5 1243//5 1245//5 1263//5
f 1263//5 1245//5 1246//5 1264//5
f 1265//6 1266//6 1248//6 1247//6
f 1264//5 1246//5 1249//5 1267//5
f 1266//6 1268//6 1250//6 1248//6
f 1269//2 1251//2 1252//2 1270//2
f 1267//5 1249//5 1251//5 1269//5
f 1275//5 1253//5 1257//5 1276//5
f 1277//6 1278//6 1260//6 1254//6
f 1283//1 1284//1 1262//1 1261//1
f 1283//5 1261//5 1263//5 1285//5
f 1285//5 1263//5 1264//5 1286//5
f 1287//6 1288//6 1266//6 1265//6
f 1286//5 1264//5 1267//5 1289//5
f 1288//6 1290//6 1268//6 1266//6
f 1291//2 1269//2 1270//2 1292//2
f 1289//5 1267//5 1269//5 1291//5
f 1293//1 1294//1 1272//1 1271//1
f 1293//5 1271//5 1275//5 1295//5
f 1295//5 1275//5 1276//5 1296//5
f 1297//6 1298//6 1278//6 1277//6
f 1296//5 1276//5 1279//5 1299//5
f 1298//6 1300//6 1282//6 1278//6
f 1307//5 1285//5 1286//5 1308//5
f 1309//6 1310//6 1288//6 1287//6
f 1308//5 1286//5 1289//5 1311//5
f 1310//6 1312//6 1290//6 1288//6
f 1317//5 1295//5 1296//5 1318//5
f 1319//6 1320//6 1298//6 1297//6
f 1318//5 1296//5 1299//5 1321//5
f 1320//6 1322//6 1300//6 1298//6
f 1325//1 1326//1 1306//1 1305//1
f 1325//5 1305//5 1307//5 1327//5
f 1327//5 1307//5 1308//5 1328//5
f 1329//6 1330//6 1310//6 1309//6
f 1328//5 1308//5 1311//5 1331//5
f 1330//6 1332//6 1312//6 1310//6
f 1333//2 1313//2 1314//2 1334//2
f 1331//5 1311//5 1313//5 1333//5
f 1161//1 1335//1 1336//1 1162//1
f 1164//2 1163//2 1337//2 1338//2
f 1162//4 1336//4 1337//4 1163//4
f 1165//1 1339//1 1340//1 1166//1
f 1168//2 1167//2 1341//2 1342//2
f 1166//4 1340//4 1341//4 1167//4
f 1343//1 1344//1 1316//1 1315//1
f 1343//5 1315//5 1317//5 1345//5
f 1345//5 1317//5 1318//5 1346//5
f 1347//6 1348//6 1320//6 1319//6
f 1346//5 1318//5 1321//5 1349//5
f 1348//6 1350//6 1322//6 1320//6
f 1351//2 1323//2 1324//2 1352//2
f 1349//5 1321//5 1323//5 1351//5
f 1178//1 1353//1 1326//1 1325//1
f 1178//5 1325//5 1327//5 1180//5
f 1180//5 1327//5 1328//5 1182//5
f 1354//6 1355//6 1330//6 1329//6
f 1182//5 1328//5 1331//5 1184//5
f 1355//6 1356//6 1332//6 1330//6
f 1186//2 1333//2 1334//2 1357//2
f 1184//5 1331//5 1333//5 1186//5
f 1169//1 1358//1 1335//1 1161//1
f 1170//2 1164//2 1338//2 1359//2
f 1171//1 1360//1 1339//1 1165//1
f 1172//2 1168//2 1342//2 1361//2
f 1198//1 1362//1 1344//1 1343//1
f 1198//5 1343//5 1345//5 1200//5
f 1200//5 1345//5 1346//5 1202//5
f 1363//6 1364//6 1348//6 1347//6
f 1202//5 1346//5 1349//5 1204//5
f 1364//6 1365//6 1350//6 1348//6
f 1206//2 1351//2 1352//2 1366//2
f 1204//5 1349//5 1351//5 1206//5
f 1232//1 1405//1 1399//1 1220//1
f 1235//2 1225//2 1401//2 1406//2
f 1244//1 1410//1 1405//1 1232//1
f 1247//2 1235//2 1406//2 1411//2
f 1250//1 1412//1 1407//1 1238//1
f 1252//2 1242//2 1409//2 1413//2
f 1262//1 1418//1 1410//1 1244//1
f 1265//2 1247//2 1411//2 1419//2
f 1268//1 1420//1 1412//1 1250//1
f 1270//2 1252//2 1413//2 1421//2
f 1284//1 1428//1 1418//1 1262//1
f 1287//2 1265//2 1419//2 1429//2
f 1290//1 1430//1 1420//1 1268//1
f 1292//2 1270//2 1421//2 1431//2
f 1294//1 1432//1 1422//1 1272//1
f 1297//2 1277//2 1424//2 1433//2
f 1306//1 1437//1 1428//1 1284//1
f 1309//2 1287//2 1429//2 1438//2
f 1312//1 1439//1 1430//1 1290//1
f 1314//2 1292//2 1431//2 1440//2
f 1316//1 1441//1 1432//1 1294//1
f 1319//2 1297//2 1433//2 1442//2
f 1322//1 1443//1 1434//1 1300//1
f 1324//2 1304//2 1436//2 1444//2
f 1326//1 1445//1 1437//1 1306//1
f 1329//2 1309//2 1438//2 1446//2
f 1332//1 1447//1 1439//1 1312//1
f 1334//2 1314//2 1440//2 1448//2
f 1335//1 1449//1 1450//1 1336//1
f 1338//2 1337//2 1451//2 1452//2
f 1336//4 1450//4 1451//4 1337//4
f 1339//1 1453//1 1454//1 1340//1
f 1342//2 1341//2 1455//2 1456//2
f 1340//4 1454//4 1455//4 1341//4
f 1344//1 1457//1 1441//1 1316//1
f 1347//2 1319//2 1442//2 1458//2
f 1350//1 1459//1 1443//1 1322//1
f 1352//2 1324//2 1444//2 1460//2
f 1353//1 1461//1 1445//1 1326//1
f 1354//2 1329//2 1446//2 1462//2
f 1356//1 1463//1 1447//1 1332//1
f 1357//2 1334//2 1448//2 1464//2
f 1358//1 1465//1 1449//1 1335//1
f 1359//2 1338//2 1452//2 1466//2
f 1360//1 1467//1 1453//1 1339//1
f 1361//2 1342//2 1456//2 1468//2
f 1362//1 1469//1 1457//1 1344//1
f 1363//2 1347//2 1458//2 1470//2
f 1365//1 1471//1 1459//1 1350//1
f 1366//2 1352//2 1460//2 1472//2
f 1405//1 1513//1 1507//1 1399//1
f 1406//2 1401//2 1509//2 1514//2
f 1418//1 1526//1 1518//1 1410//1
f 1419//2 1411//2 1519//2 1527//2
f 1420//1 1528//1 1520//1 1412//1
f 1421//2 1413//2 1521//2 1529//2
f 1428//1 1536//1 1526//1 1418//1
f 1429//2 1419//2 1527//2 1537//2
f 1430//1 1538//1 1528//1 1420//1
f 1431//2 1421//2 1529//2 1539//2
f 1432//1 1540//1 1530//1 1422//1
f 1433//2 1424//2 1532//2 1541//2
f 1445//1 1553//1 1545//1 1437//1
f 1446//2 1438//2 1546//2 1554//2
f 1447//1 1555//1 1547//1 1439//1
f 1448//2 1440//2 1548//2 1556//2
f 1449//1 1557//1 1558//1 1450//1
f 1452//2 1451//2 1559//2 1560//2
f 1450//4 1558//4 1559//4 1451//4
f 1453//1 1561//1 1562//1 1454//1
f 1456//2 1455//2 1563//2 1564//2
f 1454//4 1562//4 1563//4 1455//4
f 1457//1 1565//1 1549//1 1441//1
f 1458//2 1442//2 1550//2 1566//2
f 1459//1 1567//1 1551//1 1443//1
f 1460//2 1444//2 1552//2 1568//2
f 1461//1 1569//1 1553//1 1445//1
f 1462//2 1446//2 1554//2 1570//2
f 1463//1 1571//1 1555//1 1447//1
f 1464//2 1448//2 1556//2 1572//2
f 1465//1 1573//1 1557//1 1449//1
f 1466//2 1452//2 1560//2 1574//2
f 1467//1 1575//1 1561//1 1453//1
f 1468//2 1456//2 1564//2 1576//2
f 1469//1 1577//1 1565//1 1457//1
f 1470//2 1458//2 1566//2 1578//2
f 1471//1 1579//1 1567//1 1459//1
f 1472//2 1460//2 1568//2 1580//2
f 1513//1 1621//1 1615//1 1507//1
f 1514//2 1509//2 1617//2 1622//2
f 1518//1 1626//1 1621//1 1513//1
f 1519//2 1514//2 1622//2 1627//2
f 1520//1 1628//1 1623//1 1515//1
f 1521//2 1517//2 1625//2 1629//2
f 1526//1 1634//1 1626//1 1518//1
f 1527//2 1519//2 1627//2 1635//2
f 1528//1 1636//1 1628//1 1520//1
f 1529//2 1521//2 1629//2 1637//2
f 1536//1 1644//1 1634//1 1526//1
f 1537//2 1527//2 1635//2 1645//2
f 1538//1 1646//1 1636//1 1528//1
f 1539//2 1529//2 1637//2 1647//2
f 1540//1 1648//1 1638//1 1530//1
f 1541//2 1532//2 1640//2 1649//2
f 1545//1 1653//1 1644//1 1536//1
f 1546//2 1537//2 1645//2 1654//2
f 1547//1 1655//1 1646//1 1538//1
f 1548//2 1539//2 1647//2 1656//2
f 1549//1 1657//1 1648//1 1540//1
f 1550//2 1541//2 1649//2 1658//2
f 1551//1 1659//1 1650//1 1542//1
f 1552//2 1544//2 1652//2 1660//2
f 1553//1 1661//1 1653//1 1545//1
f 1554//2 1546//2 1654//2 1662//2
f 1555//1 1663//1 1655//1 1547//1
f 1556//2 1548//2 1656//2 1664//2
f 1557//1 1665//1 1666//1 1558//1
f 1560//2 1559//2 1667//2 1668//2
f 1558//4 1666//4 1667//4 1559//4
f 1561//1 1669//1 1670//1 1562//1
f 1564//2 1563//2 1671//2 1672//2
f 1562//4 1670//4 1671//4 1563//4
f 1565//1 1673//1 1657//1 1549//1
f 1566//2 1550//2 1658//2 1674//2
f 1567//1 1675//1 1659//1 1551//1
f 1568//2 1552//2 1660//2 1676//2
f 1569//1 1677//1 1661//1 1553//1
f 1570//2 1554//2 1662//2 1678//2
f 1571//1 1679//1 1663//1 1555//1
f 1572//2 1556//2 1664//2 1680//2
f 1573//1 1681//1 1665//1 1557//1
f 1574//2 1560//2 1668//2 1682//2
f 1575//1 1683//1 1669//1 1561//1
f 1576//2 1564//2 1672//2 1684//2
f 1577//1 1685//1 1673//1 1565//1
f 1578//2 1566//2 1674//2 1686//2
f 1579//1 1687//1 1675//1 1567//1
f 1580//2 1568//2 1676//2 1688//2
f 1621//1 1729//1 1723//1 1615//1
f 1622//2 1617//2 1725//2 1730//2
f 1634//1 1742//1 1734//1 1626//1
f 1635//2 1627//2 1735//2 1743//2
f 1636//1 1744//1 1736//1 1628//1
f 1637//2 1629//2 1737//2 1745//2
f 1644//1 1752//1 1742//1 1634//1
f 1645//2 1635//2 1743//2 1753//2
f 1646//1 1754//1 1744//1 1636//1
f 1647//2 1637//2 1745//2 1755//2
f 1648//1 1756//1 1746//1 1638//1
f 1649//2 1640//2 1748//2 1757//2
f 1661//1 1769//1 1761//1 1653//1
f 1662//2 1654//2 1762//2 1770//2
f 1663//1 1771//1 1763//1 1655//1
f 1664//2 1656//2 1764//2 1772//2
f 1665//1 1773//1 1774//1 1666//1
f 1668//2 1667//2 1775//2 1776//2
f 1666//4 1774//4 1775//4 1667//4
f 1669//1 1777//1 1778//1 1670//1
f 1672//2 1671//2 1779//2 1780//2
f 1670//4 1778//4 1779//4 1671//4
f 1673//1 1781//1 1765//1 1657//1
f 1674//2 1658//2 1766//2 1782//2
f 1675//1 1783//1 1767//1 1659//1
f 1676//2 1660//2 1768//2 1784//2
f 1677//1 1785//1 1769//1 1661//1
f 1678//2 1662//2 1770//2 1786//2
f 1679//1 1787//1 1771//1 1663//1
f 1680//2 1664//2 1772//2 1788//2
f 1681//1 1789//1 1773//1 1665//1
f 1682//2 1668//2 1776//2 1790//2
f 1683//1 1791//1 1777//1 1669//1
f 1684//2 1672//2 1780//2 1792//2
f 1685//1 1793//1 1781//1 1673//1
f 1686//2 1674//2 1782//2 1794//2
f 1687//1 1795//1 1783//1 1675//1
f 1688//2 1676//2 1784//2 1796//2
f 1725//5 1719//5 1722//5 1726//5
f 1833//6 1834//6 1830//6 1827//6
f 1729//1 1837//1 1831//1 1723//1
f 1837//6 1838//6 1833//6 1831//6
f 1730//5 1725//5 1726//5 1839//5
f 1838//6 1840//6 1834//6 1833//6
f 1839//5 1726//5 1728//5 1731//5
f 1840//6 1841//6 1836//6 1834//6
f 1734//1 1844//1 1837//1 1729//1
f 1844//6 1845//6 1838//6 1837//6
f 1735//5 1730//5 1839//5 1846//5
f 1845//6 1847//6 1840//6 1838//6
f 1846//5 1839//5 1731//5 1736//5
f 1847//6 1848//6 1841//6 1840//6
f 1737//2 1733//2 1843//2 1849//2
f 1848//6 1849//6 1843//6 1841//6
f 1742//1 1854//1 1844//1 1734//1
f 1854//6 1855//6 1845//6 1844//6
f 1743//5 1735//5 1846//5 1856//5
f 1855//6 1857//6 1847//6 1845//6
f 1856//5 1846//5 1736//5 1744//5
f 1857//6 1858//6 1848//6 1847//6
f 1745//2 1737//2 1849//2 1859//2
f 1858//6 1859//6 1849//6 1848//6
f 1748//5 1738//5 1741//5 1749//5
f 1862//6 1863//6 1853//6 1850//6
f 1752//1 1866//1 1854//1 1742//1
f 1866//6 1867//6 1855//6 1854//6
f 1753//5 1743//5 1856//5 1868//5
f 1867//6 1869//6 1857//6 1855//6
f 1868//5 1856//5 1744//5 1754//5
f 1869//6 1870//6 1858//6 1857//6
f 1755//2 1745//2 1859//2 1871//2
f 1870//6 1871//6 1859//6 1858//6
f 1756//1 1872//1 1860//1 1746//1
f 1872//6 1873//6 1862//6 1860//6
f 1757//5 1748//5 1749//5 1874//5
f 1873//6 1875//6 1863//6 1862//6
f 1874//5 1749//5 1751//5 1758//5
f 1875//6 1876//6 1865//6 1863//6
f 1761//1 1879//1 1866//1 1752//1
f 1879//6 1880//6 1867//6 1866//6
f 1762//5 1753//5 1868//5 1881//5
f 1880//6 1882//6 1869//6 1867//6
f 1881//5 1868//5 1754//5 1763//5
f 1882//6 1883//6 1870//6 1869//6
f 1764//2 1755//2 1871//2 1884//2
f 1883//6 1884//6 1871//6 1870//6
f 1765//1 1885//1 1872//1 1756//1
f 1885//6 1886//6 1873//6 1872//6
f 1766//5 1757//5 1874//5 1887//5
f 1886//6 1888//6 1875//6 1873//6
f 1887//5 1874//5 1758//5 1767//5
f 1888//6 1889//6 1876//6 1875//6
f 1768//2 1760//2 1878//2 1890//2
f 1889//6 1890//6 1878//6 1876//6
f 1769//1 1891//1 1879//1 1761//1
f 1891//6 1892//6 1880//6 1879//6
f 1770//5 1762//5 1881//5 1893//5
f 1892//6 1894//6 1882//6 1880//6
f 1893//5 1881//5 1763//5 1771//5
f 1894//6 1895//6 1883//6 1882//6
f 1772//2 1764//2 1884//2 1896//2
f 1895//6 1896//6 1884//6 1883//6
f 1773//1 1897//1 1898//1 1774//1
f 1776//2 1775//2 1899//2 1900//2
f 1774//4 1898//4 1899//4 1775//4
f 1777//1 1901//1 1902//1 1778//1
f 1780//2 1779//2 1903//2 1904//2
f 1778//4 1902//4 1903//4 1779//4
f 1781//1 1905//1 1885//1 1765//1
f 1905//6 1906//6 1886//6 1885//6
f 1782//5 1766//5 1887//5 1907//5
f 1906//6 1908//6 1888//6 1886//6
f 1907//5 1887//5 1767//5 1783//5
f 1908//6 1909//6 1889//6 1888//6
f 1784//2 1768//2 1890//2 1910//2
f 1909//6 1910//6 1890//6 1889//6
f 1785//1 1911//1 1891//1 1769//1
f 1911//6 1912//6 1892//6 1891//6
f 1786//5 1770//5 1893//5 1804//5
f 1912//6 1913//6 1894//6 1892//6
f 1804//5 1893//5 1771//5 1787//5
f 1913//6 1914//6 1895//6 1894//6
f 1788//2 1772//2 1896//2 1915//2
f 1914//6 1915//6 1896//6 1895//6
f 1789//1 1916//1 1897//1 1773//1
f 1790//2 1776//2 1900//2 1917//2
f 1791//1 1918//1 1901//1 1777//1
f 1792//2 1780//2 1904//2 1919//2
f 1793//1 1920//1 1905//1 1781//1
f 1920//6 1921//6 1906//6 1905//6
f 1794//5 1782//5 1907//5 1820//5
f 1921//6 1922//6 1908//6 1906//6
f 1820//5 1907//5 1783//5 1795//5
f 1922//6 1923//6 1909//6 1908//6
f 1796//2 1784//2 1910//2 1924//2
f 1923//6 1924//6 1910//6 1909//6
f 1897//1 1953//1 1954//1 1898//1
f 1900//2 1899//2 1955//2 1956//2
f 1898//4 1954//4 1955//4 1899//4
f 1901//1 1957//1 1958//1 1902//1
f 1904//2 1903//2 1959//2 1960//2
f 1902//4 1958//4 1959//4 1903//4
f 1916//1 1961//1 1953//1 1897//1
f 1917//2 1900//2 1956//2 1962//2
f 1918//1 1963//1 1957//1 1901//1
f 1919//2 1904//2 1960//2 1964//2
f 1953//1 2003//1 2004//1 1954//1
f 1956//2 1955//2 2005//2 2006//2
f 1954//4 2004//4 2005//4 1955//4
f 2003//6 2006//6 2005//6 2004//6
f 1957//1 2007//1 2008//1 1958//1
f 1960//2 1959//2 2009//2 2010//2
f 1958//4 2008//4 2009//4 1959//4
f 2007//6 2010//6 2009//6 2008//6
f 1961//1 2011//1 2003//1 1953//1
f 1962//2 1956//2 2006//2 2012//2
f 2011//6 2012//6 2006//6 2003//6
f 1963//1 2013//1 2007//1 1957//1
f 1964//2 1960//2 2010//2 2014//2
f 2013//6 2014//6 2010//6 2007//6
g glyph_43
f 1007//1 1008//1 1009//1 1010//1
f 1007//3 1011//3 1012//3 1008//3
f 1010//4 1009//4 1013//4 1014//4
f 1007//5 1010//5 1014//5 1011//5
f 1011//3 1015//3 1016//3 1012//3
f 1014//4 1013//4 1017//4 1018//4
f 1011//5 1014//5 1018//5 1015//5
f 1015//3 1019//3 1020//3 1016//3
f 1018//4 1017//4 1021//4 1022//4
f 1015//5 1018//5 1022//5 1019//5
f 1019//3 1023//3 1024//3 1020//3
f 1022//4 1021//4 1025//4 1026//4
f 1019//5 1022//5 1026//5 1023//5
f 1023//3 1027//3 1028//3 1024//3
f 1026//4 1025//4 1029//4 1030//4
f 1023//5 1026//5 1030//5 1027//5
f 1027//3 1031//3 1032//3 1028//3
f 1030//4 1029//4 1033//4 1034//4
f 1027//5 1030//5 1034//5 1031//5
f 1031//3 1035//3 1036//3 1032//3
f 1034//4 1033//4 1037//4 1038//4
f 1031//5 1034//5 1038//5 1035//5
f 1039//2 1040//2 1041//2 1042//2
f 1035//3 1039//3 1042//3 1036//3
f 1038//4 1037//4 1041//4 1040//4
f 1035//5 1038//5 1040//5 1039//5
f 1008//1 1093//1 1094//1 1009//1
f 1008//3 1012//3 1095//3 1093//3
f 1009//4 1094//4 1096//4 1013//4
f 1093//6 1095//6 1096//6 1094//6
f 1012//3 1016//3 1097//3 1095//3
f 1013//4 1096//4 1098//4 1017//4
f 1095//6 1097//6 1098//6 1096//6
f 1016//3 1020//3 1099//3 1097//3
f 1017//4 1098//4 1100//4 1021//4
f 1097//6 1099//6 1100//6 1098//6
f 1020//3 1024//3 1101//3 1099//3
f 1021//4 1100//4 1102//4 1025//4
f 1099//6 1101//6 1102//6 1100//6
f 1024//3 1028//3 1103//3 1101//3
f 1025//4 1102//4 1104//4 1029//4
f 1101//6 1103//6 1104//6 1102//6
f 1028//3 1032//3 1105//3 1103//3
f 1029//4 1104//4 1106//4 1033//4
f 1103//6 1105//6 1106//6 1104//6
f 1032//3 1036//3 1107//3 1105//3
f 1033//4 1106//4 1108//4 1037//4
f 1105//6 1107//6 1108//6 1106//6
f 1042//2 1041//2 1109//2 1110//2
f 1036//3 1042//3 1110//3 1107//3
f 1037//4 1108//4 1109//4 1041//4
f 1107//6 1110//6 1109//6 1108//6
g glyph_58
f 25//1 26//1 27//1 28//1
f 25//3 29//3 30//3 26//3
f 28//4 27//4 31//4 32//4
f 25//5 28//5 32//5 29//5
f 29//3 33//3 34//3 30//3
f 32//4 31//4 35//4 36//4
f 29//5 32//5 36//5 33//5
f 33//3 37//3 38//3 34//3
f 36//4 35//4 39//4 40//4
f 33//5 36//5 40//5 37//5
f 37//3 41//3 42//3 38//3
f 40//4 39//4 43//4 44//4
f 37//5 40//5 44//5 41//5
f 41//3 45//3 46//3 42//3
f 44//4 43//4 47//4 48//4
f 41//5 44//5 48//5 45//5
f 45//3 49//3 50//3 46//3
f 48//4 47//4 51//4 52//4
f 45//5 48//5 52//5 49//5
f 49//3 53//3 54//3 50//3
f 52//4 51//4 18//4 17//4
f 49//5 52//5 17//5 53//5
f 53//3 55//3 56//3 54//3
f 53//5 17//5 19//5 55//5
f 69//3 71//3 72//3 70//3
f 69//5 21//5 23//5 71//5
f 71//3 73//3 74//3 72//3
f 23//4 24//4 75//4 76//4
f 71//5 23//5 76//5 73//5
f 73//3 77//3 78//3 74//3
f 76//4 75//4 79//4 80//4
f 73//5 76//5 80//5 77//5
f 77//3 81//3 82//3 78//3
f 80//4 79//4 83//4 84//4
f 77//5 80//5 84//5 81//5
f 81//3 85//3 86//3 82//3
f 84//4 83//4 87//4 88//4
f 81//5 84//5 88//5 85//5
f 85//3 89//3 90//3 86//3
f 88//4 87//4 91//4 92//4
f 85//5 88//5 92//5 89//5
f 89//3 93//3 94//3 90//3
f 92//4 91//4 95//4 96//4
f 89//5 92//5 96//5 93//5
f 97//2 98//2 99//2 100//2
f 93//3 97//3 100//3 94//3
f 96//4 95//4 99//4 98//4
f 93//5 96//5 98//5 97//5
f 26//1 113//1 114//1 27//1
f 26//3 30//3 115//3 113//3
f 27//4 114//4 116//4 31//4
f 30//3 34//3 117//3 115//3
f 31//4 116//4 118//4 35//4
f 34//3 38//3 119//3 117//3
f 35//4 118//4 120//4 39//4
f 38//3 42//3 121//3 119//3
f 39//4 120//4 122//4 43//4
f 42//3 46//3 123//3 121//3
f 43//4 122//4 124//4 47//4
f 46//3 50//3 125//3 123//3
f 47//4 124//4 126//4 51//4
f 50//3 54//3 127//3 125//3
f 51//4 126//4 109//4 18//4
f 54//3 56//3 128//3 127//3
f 70//3 72//3 136//3 135//3
f 72//3 74//3 137//3 136//3
f 24//4 112//4 138//4 75//4
f 74//3 78//3 139//3 137//3
f 75//4 138//4 140//4 79//4
f 78//3 82//3 141//3 139//3
f 79//4 140//4 142//4 83//4
f 82//3 86//3 143//3 141//3
f 83//4 142//4 144//4 87//4
f 86//3 90//3 145//3 143//3
f 87//4 144//4 146//4 91//4
f 90//3 94//3 147//3 145//3
f 91//4 146//4 148//4 95//4
f 100//2 99//2 149//2 150//2
f 94//3 100//3 150//3 147//3
f 95//4 148//4 149//4 99//4
f 113//1 327//1 328//1 114//1
f 113//3 115//3 329//3 327//3
f 114//4 328//4 330//4 116//4
f 115//3 117//3 331//3 329//3
f 116//4 330//4 313//4 118//4
f 117//3 119//3 332//3 331//3
f 119//3 121//3 333//3 332//3
f 121//3 123//3 334//3 333//3
f 123//3 125//3 335//3 334//3
f 125//3 127//3 336//3 335//3
f 126//4 317//4 318//4 109//4
f 127//3 128//3 337//3 336//3
f 135//3 136//3 345//3 344//3
f 136//3 137//3 346//3 345//3
f 112//4 321//4 322//4 138//4
f 137//3 139//3 347//3 346//3
f 139//3 141//3 348//3 347//3
f 141//3 143//3 349//3 348//3
f 143//3 145//3 350//3 349//3
f 145//3 147//3 351//3 350//3
f 146//4 326//4 352//4 148//4
f 150//2 149//2 353//2 354//2
f 147//3 150//3 354//3 351//3
f 148//4 352//4 353//4 149//4
f 327//1 441//1 442//1 328//1
f 327//3 329//3 443//3 441//3
f 328//4 442//4 444//4 330//4
f 329//3 331//3 445//3 443//3
f 330//4 444//4 429//4 313//4
f 331//3 332//3 446//3 445//3
f 332//3 333//3 447//3 446//3
f 314//4 430//4 448//4 315//4
f 333//3 334//3 449//3 447//3
f 315//4 448//4 431//4 316//4
f 334//3 335//3 450//3 449//3
f 335//3 336//3 451//3 450//3
f 317//4 432//4 433//4 318//4
f 336//3 337//3 452//3 451//3
f 344//3 345//3 460//3 459//3
f 345//3 346//3 461//3 460//3
f 321//4 436//4 437//4 322//4
f 346//3 347//3 462//3 461//3
f 347//3 348//3 463//3 462//3
f 323//4 438//4 464//4 324//4
f 348//3 349//3 465//3 463//3
f 324//4 464//4 439//4 325//4
f 349//3 350//3 466//3 465//3
f 350//3 351//3 467//3 466//3
f 326//4 440//4 468//4 352//4
f 354//2 353//2 469//2 470//2
f 351//3 354//3 470//3 467//3
f 352//4 468//4 469//4 353//4
f 441//1 557//1 558//1 442//1
f 441//3 443//3 559//3 557//3
f 442//4 558//4 560//4 444//4
f 443//3 445//3 561//3 559//3
f 444//4 560//4 545//4 429//4
f 445//3 446//3 562//3 561//3
f 446//3 447//3 563//3 562//3
f 430//4 546//4 564//4 448//4
f 447//3 449//3 565//3 563//3
f 448//4 564//4 547//4 431//4
f 449//3 450//3 566//3 565//3
f 450//3 451//3 567//3 566//3
f 432//4 548//4 549//4 433//4
f 451//3 452//3 568//3 567//3
f 459//3 460//3 576//3 575//3
f 460//3 461//3 577//3 576//3
f 436//4 552//4 553//4 437//4
f 461//3 462//3 578//3 577//3
f 462//3 463//3 579//3 578//3
f 438//4 554//4 580//4 464//4
f 463//3 465//3 581//3 579//3
f 464//4 580//4 555//4 439//4
f 465//3 466//3 582//3 581//3
f 466//3 467//3 583//3 582//3
f 440//4 556//4 584//4 468//4
f 470//2 469//2 585//2 586//2
f 467//3 470//3 586//3 583//3
f 468//4 584//4 585//4 469//4
f 557//1 673//1 674//1 558//1
f 557//3 559//3 675//3 673//3
f 558//4 674//4 676//4 560//4
f 559//3 561//3 677//3 675//3
f 560//4 676//4 661//4 545//4
f 561//3 562//3 678//3 677//3
f 562//3 563//3 679//3 678//3
f 546//4 662//4 680//4 564//4
f 563//3 565//3 681//3 679//3
f 564//4 680//4 663//4 547//4
f 565//3 566//3 682//3 681//3
f 566//3 567//3 683//3 682//3
f 548//4 664//4 665//4 549//4
f 567//3 568//3 684//3 683//3
f 575//3 576//3 692//3 691//3
f 576//3 577//3 693//3 692//3
f 552//4 668//4 669//4 553//4
f 577//3 578//3 694//3 693//3
f 578//3 579//3 695//3 694//3
f 554//4 670//4 696//4 580//4
f 579//3 581//3 697//3 695//3
f 580//4 696//4 671//4 555//4
f 581//3 582//3 698//3 697//3
f 582//3 583//3 699//3 698//3
f 556//4 672//4 700//4 584//4
f 586//2 585//2 701//2 702//2
f 583//3 586//3 702//3 699//3
f 584//4 700//4 701//4 585//4
f 673//1 789//1 790//1 674//1
f 673//3 675//3 791//3 789//3
f 674//4 790//4 792//4 676//4
f 675//3 677//3 793//3 791//3
f 676//4 792//4 777//4 661//4
f 677//3 678//3 794//3 793//3
f 678//3 679//3 795//3 794//3
f 662//4 778//4 796//4 680//4
f 679//3 681//3 797//3 795//3
f 680//4 796//4 779//4 663//4
f 681//3 682//3 798//3 797//3
f 682//3 683//3 799//3 798//3
f 664//4 780//4 781//4 665//4
f 683//3 684//3 800//3 799//3
f 691//3 692//3 808//3 807//3
f 692//3 693//3 809//3 808//3
f 668//4 784//4 785//4 669//4
f 693//3 694//3 810//3 809//3
f 694//3 695//3 811//3 810//3
f 670//4 786//4 812//4 696//4
f 695//3 697//3 813//3 811//3
f 696//4 812//4 787//4 671//4
f 697//3 698//3 814//3 813//3
f 698//3 699//3 815//3 814//3
f 672//4 788//4 816//4 700//4
f 702//2 701//2 817//2 818//2
f 699//3 702//3 818//3 815//3
f 700//4 816//4 817//4 701//4
f 789//1 929//1 930//1 790//1
f 789//3 791//3 931//3 929//3
f 790//4 930//4 932//4 792//4
f 791//3 793//3 933//3 931//3
f 792//4 932//4 915//4 777//4
f 793//3 794//3 934//3 933//3
f 794//3 795//3 935//3 934//3
f 795//3 797//3 936//3 935//3
f 797//3 798//3 937//3 936//3
f 798//3 799//3 938//3 937//3
f 780//4 919//4 920//4 781//4
f 799//3 800//3 939//3 938//3
f 807//3 808//3 947//3 946//3
f 808//3 809//3 948//3 947//3
f 784//4 923//4 924//4 785//4
f 809//3 810//3 949//3 948//3
f 810//3 811//3 950//3 949//3
f 811//3 813//3 951//3 950//3
f 813//3 814//3 952//3 951//3
f 814//3 815//3 953//3 952//3
f 788//4 928//4 954//4 816//4
f 818//2 817//2 955//2 956//2
f 815//3 818//3 956//3 953//3
f 816//4 954//4 955//4 817//4
f 929//1 969//1 970//1 930//1
f 929//3 931//3 971//3 969//3
f 930//4 970//4 972//4 932//4
f 931//3 933//3 973//3 971//3
f 932//4 972//4 974//4 915//4
f 933//3 934//3 975//3 973//3
f 915//4 974//4 976//4 916//4
f 934//3 935//3 977//3 975//3
f 916//4 976//4 978//4 917//4
f 935//3 936//3 979//3 977//3
f 917//4 978//4 980//4 918//4
f 936//3 937//3 981//3 979//3
f 918//4 980//4 982//4 919//4
f 937//3 938//3 983//3 981//3
f 919//4 982//4 965//4 920//4
f 938//3 939//3 984//3 983//3
f 946//3 947//3 992//3 991//3
f 947//3 948//3 993//3 992//3
f 923//4 968//4 994//4 924//4
f 948//3 949//3 995//3 993//3
f 924//4 994//4 996//4 925//4
f 949//3 950//3 997//3 995//3
f 925//4 996//4 998//4 926//4
f 950//3 951//3 999//3 997//3
f 926//4 998//4 1000//4 927//4
f 951//3 952//3 1001//3 999//3
f 927//4 1000//4 1002//4 928//4
f 952//3 953//3 1003//3 1001//3
f 928//4 1002//4 1004//4 954//4
f 956//2 955//2 1005//2 1006//2
f 953//3 956//3 1006//3 1003//3
f 954//4 1004//4 1005//4 955//4
f 969//1 1055//1 1056//1 970//1
f 969//3 971//3 1057//3 1055//3
f 970//4 1056//4 1058//4 972//4
f 971//3 973//3 1059//3 1057//3
f 972//4 1058//4 1060//4 974//4
f 973//3 975//3 1061//3 1059//3
f 974//4 1060//4 1062//4 976//4
f 975//3 977//3 1063//3 1061//3
f 976//4 1062//4 1064//4 978//4
f 977//3 979//3 1065//3 1063//3
f 978//4 1064//4 1066//4 980//4
f 979//3 981//3 1067//3 1065//3
f 980//4 1066//4 1068//4 982//4
f 981//3 983//3 1069//3 1067//3
f 982//4 1068//4 1051//4 965//4
f 983//3 984//3 1070//3 1069//3
f 991//3 992//3 1078//3 1077//3
f 992//3 993//3 1079//3 1078//3
f 968//4 1054//4 1080//4 994//4
f 993//3 995//3 1081//3 1079//3
f 994//4 1080//4 1082//4 996//4
f 995//3 997//3 1083//3 1081//3
f 996//4 1082//4 1084//4 998//4
f 997//3 999//3 1085//3 1083//3
f 998//4 1084//4 1086//4 1000//4
f 999//3 1001//3 1087//3 1085//3
f 1000//4 1086//4 1088//4 1002//4
f 1001//3 1003//3 1089//3 1087//3
f 1002//4 1088//4 1090//4 1004//4
f 1006//2 1005//2 1091//2 1092//2
f 1003//3 1006//3 1092//3 1089//3
f 1004//4 1090//4 1091//4 1005//4
f 1055//1 1123//1 1124//1 1056//1
f 1055//3 1057//3 1125//3 1123//3
f 1056//4 1124//4 1126//4 1058//4
f 1057//3 1059//3 1127//3 1125//3
f 1058//4 1126//4 1128//4 1060//4
f 1059//3 1061//3 1129//3 1127//3
f 1060//4 1128//4 1130//4 1062//4
f 1061//3 1063//3 1131//3 1129//3
f 1062//4 1130//4 1132//4 1064//4
f 1063//3 1065//3 1133//3 1131//3
f 1064//4 1132//4 1134//4 1066//4
f 1065//3 1067//3 1135//3 1133//3
f 1066//4 1134//4 1136//4 1068//4
f 1067//3 1069//3 1137//3 1135//3
f 1068//4 1136//4 1119//4 1051//4
f 1069//3 1070//3 1138//3 1137//3
f 1077//3 1078//3 1146//3 1145//3
f 1078//3 1079//3 1147//3 1146//3
f 1054//4 1122//4 1148//4 1080//4
f 1079//3 1081//3 1149//3 1147//3
f 1080//4 1148//4 1150//4 1082//4
f 1081//3 1083//3 1151//3 1149//3
f 1082//4 1150//4 1152//4 1084//4
f 1083//3 1085//3 1153//3 1151//3
f 1084//4 1152//4 1154//4 1086//4
f 1085//3 1087//3 1155//3 1153//3
f 1086//4 1154//4 1156//4 1088//4
f 1087//3 1089//3 1157//3 1155//3
f 1088//4 1156//4 1158//4 1090//4
f 1092//2 1091//2 1159//2 1160//2
f 1089//3 1092//3 1160//3 1157//3
f 1090//4 1158//4 1159//4 1091//4
f 1123//1 1173//1 1174//1 1124//1
f 1123//3 1125//3 1175//3 1173//3
f 1124//4 1174//4 1176//4 1126//4
f 1125//3 1127//3 1177//3 1175//3
f 1126//4 1176//4 1178//4 1128//4
f 1127//3 1129//3 1179//3 1177//3
f 1128//4 1178//4 1180//4 1130//4
f 1129//3 1131//3 1181//3 1179//3
f 1130//4 1180//4 1182//4 1132//4
f 1131//3 1133//3 1183//3 1181//3
f 1132//4 1182//4 1184//4 1134//4
f 1133//3 1135//3 1185//3 1183//3
f 1134//4 1184//4 1186//4 1136//4
f 1135//3 1137//3 1187//3 1185//3
f 1136//4 1186//4 1169//4 1119//4
f 1137//3 1138//3 1188//3 1187//3
f 1145//3 1146//3 1196//3 1195//3
f 1146//3 1147//3 1197//3 1196//3
f 1122//4 1172//4 1198//4 1148//4
f 1147//3 1149//3 1199//3 1197//3
f 1148//4 1198//4 1200//4 1150//4
f 1149//3 1151//3 1201//3 1199//3
f 1150//4 1200//4 1202//4 1152//4
f 1151//3 1153//3 1203//3 1201//3
f 1152//4 1202//4 1204//4 1154//4
f 1153//3 1155//3 1205//3 1203//3
f 1154//4 1204//4 1206//4 1156//4
f 1155//3 1157//3 1207//3 1205//3
f 1156//4 1206//4 1208//4 1158//4
f 1160//2 1159//2 1209//2 1210//2
f 1157//3 1160//3 1210//3 1207//3
f 1158//4 1208//4 1209//4 1159//4
f 1173//1 1367//1 1368//1 1174//1
f 1173//3 1175//3 1369//3 1367//3
f 1174//4 1368//4 1370//4 1176//4
f 1175//3 1177//3 1371//3 1369//3
f 1176//4 1370//4 1353//4 1178//4
f 1177//3 1179//3 1372//3 1371//3
f 1179//3 1181//3 1373//3 1372//3
f 1181//3 1183//3 1374//3 1373//3
f 1183//3 1185//3 1375//3 1374//3
f 1185//3 1187//3 1376//3 1375//3
f 1186//4 1357//4 1358//4 1169//4
f 1187//3 1188//3 1377//3 1376//3
f 1195//3 1196//3 1385//3 1384//3
f 1196//3 1197//3 1386//3 1385//3
f 1172//4 1361//4 1362//4 1198//4
f 1197//3 1199//3 1387//3 1386//3
f 1199//3 1201//3 1388//3 1387//3
f 1201//3 1203//3 1389//3 1388//3
f 1203//3 1205//3 1390//3 1389//3
f 1205//3 1207//3 1391//3 1390//3
f 1206//4 1366//4 1392//4 1208//4
f 1210//2 1209//2 1393//2 1394//2
f 1207//3 1210//3 1394//3 1391//3
f 1208//4 1392//4 1393//4 1209//4
f 1367//1 1473//1 1474//1 1368//1
f 1367//3 1369//3 1475//3 1473//3
f 1368//4 1474//4 1476//4 1370//4
f 1369//3 1371//3 1477//3 1475//3
f 1370//4 1476//4 1461//4 1353//4
f 1371//3 1372//3 1478//3 1477//3
f 1372//3 1373//3 1479//3 1478//3
f 1354//4 1462//4 1480//4 1355//4
f 1373//3 1374//3 1481//3 1479//3
f 1355//4 1480//4 1463//4 1356//4
f 1374//3 1375//3 1482//3 1481//3
f 1375//3 1376//3 1483//3 1482//3
f 1357//4 1464//4 1465//4 1358//4
f 1376//3 1377//3 1484//3 1483//3
f 1384//3 1385//3 1492//3 1491//3
f 1385//3 1386//3 1493//3 1492//3
f 1361//4 1468//4 1469//4 1362//4
f 1386//3 1387//3 1494//3 1493//3
f 1387//3 1388//3 1495//3 1494//3
f 1363//4 1470//4 1496//4 1364//4
f 1388//3 1389//3 1497//3 1495//3
f 1364//4 1496//4 1471//4 1365//4
f 1389//3 1390//3 1498//3 1497//3
f 1390//3 1391//3 1499//3 1498//3
f 1366//4 1472//4 1500//4 1392//4
f 1394//2 1393//2 1501//2 1502//2
f 1391//3 1394//3 1502//3 1499//3
f 1392//4 1500//4 1501//4 1393//4
f 1473//1 1581//1 1582//1 1474//1
f 1473//3 1475//3 1583//3 1581//3
f 1474//4 1582//4 1584//4 1476//4
f 1475//3 1477//3 1585//3 1583//3
f 1476//4 1584//4 1569//4 1461//4
f 1477//3 1478//3 1586//3 1585//3
f 1478//3 1479//3 1587//3 1586//3
f 1462//4 1570//4 1588//4 1480//4
f 1479//3 1481//3 1589//3 1587//3
f 1480//4 1588//4 1571//4 1463//4
f 1481//3 1482//3 1590//3 1589//3
f 1482//3 1483//3 1591//3 1590//3
f 1464//4 1572//4 1573//4 1465//4
f 1483//3 1484//3 1592//3 1591//3
f 1491//3 1492//3 1600//3 1599//3
f 1492//3 1493//3 1601//3 1600//3
f 1468//4 1576//4 1577//4 1469//4
f 1493//3 1494//3 1602//3 1601//3
f 1494//3 1495//3 1603//3 1602//3
f 1470//4 1578//4 1604//4 1496//4
f 1495//3 1497//3 1605//3 1603//3
f 1496//4 1604//4 1579//4 1471//4
f 1497//3 1498//3 1606//3 1605//3
f 1498//3 1499//3 1607//3 1606//3
f 1472//4 1580//4 1608//4 1500//4
f 1502//2 1501//2 1609//2 1610//2
f 1499//3 1502//3 1610//3 1607//3
f 1500//4 1608//4 1609//4 1501//4
f 1581//1 1689//1 1690//1 1582//1
f 1581//3 1583//3 1691//3 1689//3
f 1582//4 1690//4 1692//4 1584//4
f 1583//3 1585//3 1693//3 1691//3
f 1584//4 1692//4 1677//4 1569//4
f 1585//3 1586//3 1694//3 1693//3
f 1586//3 1587//3 1695//3 1694//3
f 1570//4 1678//4 1696//4 1588//4
f 1587//3 1589//3 1697//3 1695//3
f 1588//4 1696//4 1679//4 1571//4
f 1589//3 1590//3 1698//3 1697//3
f 1590//3 1591//3 1699//3 1698//3
f 1572//4 1680//4 1681//4 1573//4
f 1591//3 1592//3 1700//3 1699//3
f 1599//3 1600//3 1708//3 1707//3
f 1600//3 1601//3 1709//3 1708//3
f 1576//4 1684//4 1685//4 1577//4
f 1601//3 1602//3 1710//3 1709//3
f 1602//3 1603//3 1711//3 1710//3
f 1578//4 1686//4 1712//4 1604//4
f 1603//3 1605//3 1713//3 1711//3
f 1604//4 1712//4 1687//4 1579//4
f 1605//3 1606//3 1714//3 1713//3
f 1606//3 1607//3 1715//3 1714//3
f 1580//4 1688//4 1716//4 1608//4
f 1610//2 1609//2 1717//2 1718//2
f 1607//3 1610//3 1718//3 1715//3
f 1608//4 1716//4 1717//4 1609//4
f 1689//1 1797//1 1798//1 1690//1
f 1689//3 1691//3 1799//3 1797//3
f 1690//4 1798//4 1800//4 1692//4
f 1691//3 1693//3 1801//3 1799//3
f 1692//4 1800//4 1785//4 1677//4
f 1693//3 1694//3 1802//3 1801//3
f 1694//3 1695//3 1803//3 1802//3
f 1678//4 1786//4 1804//4 1696//4
f 1695//3 1697//3 1805//3 1803//3
f 1696//4 1804//4 1787//4 1679//4
f 1697//3 1698//3 1806//3 1805//3
f 1698//3 1699//3 1807//3 1806//3
f 1680//4 1788//4 1789//4 1681//4
f 1699//3 1700//3 1808//3 1807//3
f 1707//3 1708//3 1816//3 1815//3
f 1708//3 1709//3 1817//3 1816//3
f 1684//4 1792//4 1793//4 1685//4
f 1709//3 1710//3 1818//3 1817//3
f 1710//3 1711//3 1819//3 1818//3
f 1686//4 1794//4 1820//4 1712//4
f 1711//3 1713//3 1821//3 1819//3
f 1712//4 1820//4 1795//4 1687//4
f 1713//3 1714//3 1822//3 1821//3
f 1714//3 1715//3 1823//3 1822//3
f 1688//4 1796//4 1824//4 1716//4
f 1718//2 1717//2 1825//2 1826//2
f 1715//3 1718//3 1826//3 1823//3
f 1716//4 1824//4 1825//4 1717//4
f 1797//1 1925//1 1926//1 1798//1
f 1797//3 1799//3 1927//3 1925//3
f 1798//4 1926//4 1928//4 1800//4
f 1799//3 1801//3 1929//3 1927//3
f 1800//4 1928//4 1911//4 1785//4
f 1801//3 1802//3 1930//3 1929//3
f 1802//3 1803//3 1931//3 1930//3
f 1803//3 1805//3 1932//3 1931//3
f 1805//3 1806//3 1933//3 1932//3
f 1806//3 1807//3 1934//3 1933//3
f 1788//4 1915//4 1916//4 1789//4
f 1807//3 1808//3 1935//3 1934//3
f 1815//3 1816//3 1943//3 1942//3
f 1816//3 1817//3 1944//3 1943//3
f 1792//4 1919//4 1920//4 1793//4
f 1817//3 1818//3 1945//3 1944//3
f 1818//3 1819//3 1946//3 1945//3
f 1819//3 1821//3 1947//3 1946//3
f 1821//3 1822//3 1948//3 1947//3
f 1822//3 1823//3 1949//3 1948//3
f 1796//4 1924//4 1950//4 1824//4
f 1826//2 1825//2 1951//2 1952//2
f 1823//3 1826//3 1952//3 1949//3
f 1824//4 1950//4 1951//4 1825//4
f 1925//1 1965//1 1966//1 1926//1
f 1925//3 1927//3 1967//3 1965//3
f 1926//4 1966//4 1968//4 1928//4
f 1927//3 1929//3 1969//3 1967//3
f 1928//4 1968//4 1970//4 1911//4
f 1929//3 1930//3 1971//3 1969//3
f 1911//4 1970//4 1972//4 1912//4
f 1930//3 1931//3 1973//3 1971//3
f 1912//4 1972//4 1974//4 1913//4
f 1931//3 1932//3 1975//3 1973//3
f 1913//4 1974//4 1976//4 1914//4
f 1932//3 1933//3 1977//3 1975//3
f 1914//4 1976//4 1978//4 1915//4
f 1933//3 1934//3 1979//3 1977//3
f 1915//4 1978//4 1961//4 1916//4
f 1934//3 1935//3 1980//3 1979//3
f 1942//3 1943//3 1988//3 1987//3
f 1943//3 1944//3 1989//3 1988//3
f 1919//4 1964//4 1990//4 1920//4
f 1944//3 1945//3 1991//3 1989//3
f 1920//4 1990//4 1992//4 1921//4
f 1945//3 1946//3 1993//3 1991//3
f 1921//4 1992//4 1994//4 1922//4
f 1946//3 1947//3 1995//3 1993//3
f 1922//4 1994//4 1996//4 1923//4
f 1947//3 1948//3 1997//3 1995//3
f 1923//4 1996//4 1998//4 1924//4
f 1948//3 1949//3 1999//3 1997//3
f 1924//4 1998//4 2000//4 1950//4
f 1952//2 1951//2 2001//2 2002//2
f 1949//3 1952//3 2002//3 1999//3
f 1950//4 2000//4 2001//4 1951//4
f 1965//1 2015//1 2016//1 1966//1
f 1965//3 1967//3 2017//3 2015//3
f 1966//4 2016//4 2018//4 1968//4
f 2015//6 2017//6 2018//6 2016//6
f 1967//3 1969//3 2019//3 2017//3
f 1968//4 2018//4 2020//4 1970//4
f 2017//6 2019//6 2020//6 2018//6
f 1969//3 1971//3 2021//3 2019//3
f 1970//4 2020//4 2022//4 1972//4
f 2019//6 2021//6 2022//6 2020//6
f 1971//3 1973//3 2023//3 2021//3
f 1972//4 2022//4 2024//4 1974//4
f 2021//6 2023//6 2024//6 2022//6
f 1973//3 1975//3 2025//3 2023//3
f 1974//4 2024//4 2026//4 1976//4
f 2023//6 2025//6 2026//6 2024//6
f 1975//3 1977//3 2027//3 2025//3
f 1976//4 2026//4 2028//4 1978//4
f 2025//6 2027//6 2028//6 2026//6
f 1977//3 1979//3 2029//3 2027//3
f 1978//4 2028//4 2011//4 1961//4
f 2027//6 2029//6 2011//6 2028//6
f 1979//3 1980//3 2030//3 2029//3
f 2029//6 2030//6 2012//6 2011//6
f 1987//3 1988//3 2038//3 2037//3
f 2037//6 2038//6 2014//6 2013//6
f 1988//3 1989//3 2039//3 2038//3
f 1964//4 2014//4 2040//4 1990//4
f 2038//6 2039//6 2040//6 2014//6
f 1989//3 1991//3 2041//3 2039//3
f 1990//4 2040//4 2042//4 1992//4
f 2039//6 2041//6 2042//6 2040//6
f 1991//3 1993//3 2043//3 2041//3
f 1992//4 2042//4 2044//4 1994//4
f 2041//6 2043//6 2044//6 2042//6
f 1993//3 1995//3 2045//3 2043//3
f 1994//4 2044//4 2046//4 1996//4
f 2043//6 2045//6 2046//6 2044//6
f 1995//3 1997//3 2047//3 2045//3
f 1996//4 2046//4 2048//4 1998//4
f 2045//6 2047//6 2048//6 2046//6
f 1997//3 1999//3 2049//3 2047//3
f 1998//4 2048//4 2050//4 2000//4
f 2047//6 2049//6 2050//6 2048//6
f 2002//2 2001//2 2051//2 2052//2
f 1999//3 2002//3 2052//3 2049//3
f 2000//4 2050//4 2051//4 2001//4
f 2049//6 2052//6 2051//6 2050//6
g glyph_61
f 55//3 57//3 58//3 56//3
f 19//4 20//4 59//4 60//4
f 55//5 19//5 60//5 57//5
f 57//3 61//3 62//3 58//3
f 60//4 59//4 63//4 64//4
f 57//5 60//5 64//5 61//5
f 61//3 65//3 66//3 62//3
f 64//4 63//4 67//4 68//4
f 61//5 64//5 68//5 65//5
f 65//3 69//3 70//3 66//3
f 68//4 67//4 22//4 21//4
f 65//5 68//5 21//5 69//5
f 56//3 58//3 129//3 128//3
f 20//4 110//4 130//4 59//4
f 58//3 62//3 131//3 129//3
f 59//4 130//4 132//4 63//4
f 62//3 66//3 133//3 131//3
f 63//4 132//4 134//4 67//4
f 66//3 70//3 135//3 133//3
f 67//4 134//4 111//4 22//4
f 128//3 129//3 338//3 337//3
f 110//4 319//4 339//4 130//4
f 129//3 131//3 340//3 338//3
f 130//4 339//4 341//4 132//4
f 131//3 133//3 342//3 340//3
f 132//4 341//4 343//4 134//4
f 133//3 135//3 344//3 342//3
f 134//4 343//4 320//4 111//4
f 337//3 338//3 453//3 452//3
f 319//4 434//4 454//4 339//4
f 338//3 340//3 455//3 453//3
f 339//4 454//4 456//4 341//4
f 340//3 342//3 457//3 455//3
f 341//4 456//4 458//4 343//4
f 342//3 344//3 459//3 457//3
f 343//4 458//4 435//4 320//4
f 452//3 453//3 569//3 568//3
f 434//4 550//4 570//4 454//4
f 453//3 455//3 571//3 569//3
f 454//4 570//4 572//4 456//4
f 455//3 457//3 573//3 571//3
f 456//4 572//4 574//4 458//4
f 457//3 459//3 575//3 573//3
f 458//4 574//4 551//4 435//4
f 568//3 569//3 685//3 684//3
f 550//4 666//4 686//4 570//4
f 569//3 571//3 687//3 685//3
f 570//4 686//4 688//4 572//4
f 571//3 573//3 689//3 687//3
f 572//4 688//4 690//4 574//4
f 573//3 575//3 691//3 689//3
f 574//4 690//4 667//4 551//4
f 684//3 685//3 801//3 800//3
f 666//4 782//4 802//4 686//4
f 685//3 687//3 803//3 801//3
f 686//4 802//4 804//4 688//4
f 687//3 689//3 805//3 803//3
f 688//4 804//4 806//4 690//4
f 689//3 691//3 807//3 805//3
f 690//4 806//4 783//4 667//4
f 800//3 801//3 940//3 939//3
f 782//4 921//4 941//4 802//4
f 801//3 803//3 942//3 940//3
f 802//4 941//4 943//4 804//4
f 803//3 805//3 944//3 942//3
f 804//4 943//4 945//4 806//4
f 805//3 807//3 946//3 944//3
f 806//4 945//4 922//4 783//4
f 939//3 940//3 985//3 984//3
f 921//4 966//4 986//4 941//4
f 940//3 942//3 987//3 985//3
f 941//4 986//4 988//4 943//4
f 942//3 944//3 989//3 987//3
f 943//4 988//4 990//4 945//4
f 944//3 946//3 991//3 989//3
f 945//4 990//4 967//4 922//4
f 984//3 985//3 1071//3 1070//3
f 966//4 1052//4 1072//4 986//4
f 985//3 987//3 1073//3 1071//3
f 986//4 1072//4 1074//4 988//4
f 987//3 989//3 1075//3 1073//3
f 988//4 1074//4 1076//4 990//4
f 989//3 991//3 1077//3 1075//3
f 990//4 1076//4 1053//4 967//4
f 1070//3 1071//3 1139//3 1138//3
f 1052//4 1120//4 1140//4 1072//4
f 1071//3 1073//3 1141//3 1139//3
f 1072//4 1140//4 1142//4 1074//4
f 1073//3 1075//3 1143//3 1141//3
f 1074//4 1142//4 1144//4 1076//4
f 1075//3 1077//3 1145//3 1143//3
f 1076//4 1144//4 1121//4 1053//4
f 1138//3 1139//3 1189//3 1188//3
f 1120//4 1170//4 1190//4 1140//4
f 1139//3 1141//3 1191//3 1189//3
f 1140//4 1190//4 1192//4 1142//4
f 1141//3 1143//3 1193//3 1191//3
f 1142//4 1192//4 1194//4 1144//4
f 1143//3 1145//3 1195//3 1193//3
f 1144//4 1194//4 1171//4 1121//4
f 1188//3 1189//3 1378//3 1377//3
f 1170//4 1359//4 1379//4 1190//4
f 1189//3 1191//3 1380//3 1378//3
f 1190//4 1379//4 1381//4 1192//4
f 1191//3 1193//3 1382//3 1380//3
f 1192//4 1381//4 1383//4 1194//4
f 1193//3 1195//3 1384//3 1382//3
f 1194//4 1383//4 1360//4 1171//4
f 1377//3 1378//3 1485//3 1484//3
f 1359//4 1466//4 1486//4 1379//4
f 1378//3 1380//3 1487//3 1485//3
f 1379//4 1486//4 1488//4 1381//4
f 1380//3 1382//3 1489//3 1487//3
f 1381//4 1488//4 1490//4 1383//4
f 1382//3 1384//3 1491//3 1489//3
f 1383//4 1490//4 1467//4 1360//4
f 1484//3 1485//3 1593//3 1592//3
f 1466//4 1574//4 1594//4 1486//4
f 1485//3 1487//3 1595//3 1593//3
f 1486//4 1594//4 1596//4 1488//4
f 1487//3 1489//3 1597//3 1595//3
f 1488//4 1596//4 1598//4 1490//4
f 1489//3 1491//3 1599//3 1597//3
f 1490//4 1598//4 1575//4 1467//4
f 1592//3 1593//3 1701//3 1700//3
f 1574//4 1682//4 1702//4 1594//4
f 1593//3 1595//3 1703//3 1701//3
f 1594//4 1702//4 1704//4 1596//4
f 1595//3 1597//3 1705//3 1703//3
f 1596//4 1704//4 1706//4 1598//4
f 1597//3 1599//3 1707//3 1705//3
f 1598//4 1706//4 1683//4 1575//4
f 1700//3 1701//3 1809//3 1808//3
f 1682//4 1790//4 1810//4 1702//4
f 1701//3 1703//3 1811//3 1809//3
f 1702//4 1810//4 1812//4 1704//4
f 1703//3 1705//3 1813//3 1811//3
f 1704//4 1812//4 1814//4 1706//4
f 1705//3 1707//3 1815//3 1813//3
f 1706//4 1814//4 1791//4 1683//4
f 1808//3 1809//3 1936//3 1935//3
f 1790//4 1917//4 1937//4 1810//4
f 1809//3 1811//3 1938//3 1936//3
f 1810//4 1937//4 1939//4 1812//4
f 1811//3 1813//3 1940//3 1938//3
f 1812//4 1939//4 1941//4 1814//4
f 1813//3 1815//3 1942//3 1940//3
f 1814//4 1941//4 1918//4 1791//4
f 1935//3 1936//3 1981//3 1980//3
f 1917//4 1962//4 1982//4 1937//4
f 1936//3 1938//3 1983//3 1981//3
f 1937//4 1982//4 1984//4 1939//4
f 1938//3 1940//3 1985//3 1983//3
f 1939//4 1984//4 1986//4 1941//4
f 1940//3 1942//3 1987//3 1985//3
f 1941//4 1986//4 1963//4 1918//4
f 1980//3 1981//3 2031//3 2030//3
f 1962//4 2012//4 2032//4 1982//4
f 2030//6 2031//6 2032//6 2012//6
f 1981//3 1983//3 2033//3 2031//3
f 1982//4 2032//4 2034//4 1984//4
f 2031//6 2033//6 2034//6 2032//6
f 1983//3 1985//3 2035//3 2033//3
f 1984//4 2034//4 2036//4 1986//4
f 2033//6 2035//6 2036//6 2034//6
f 1985//3 1987//3 2037//3 2035//3
f 1986//4 2036//4 2013//4 1963//4
f 2035//6 2037//6 2013//6 2036//6
g glyph_64
f 151//1 152//1 153//1 154//1
f 155//2 156//2 157//2 158//2
f 154//4 153//4 157//4 156//4
f 151//5 154//5 156//5 155//5
f 159//1 160//1 161//1 162//1
f 162//4 161//4 152//4 151//4
f 159//5 162//5 151//5 163//5
f 167//2 168//2 169//2 170//2
f 155//4 158//4 169//4 168//4
f 164//5 155//5 168//5 167//5
f 179//2 180//2 181//2 182//2
f 167//4 170//4 181//4 180//4
f 177//5 167//5 180//5 179//5
f 183//1 184//1 185//1 186//1
f 187//2 188//2 189//2 190//2
f 186//4 185//4 189//4 188//4
f 183//5 186//5 188//5 187//5
f 201//1 202//1 203//1 204//1
f 204//4 203//4 184//4 183//4
f 201//5 204//5 183//5 205//5
f 209//2 210//2 211//2 212//2
f 187//4 190//4 211//4 210//4
f 206//5 187//5 210//5 209//5
f 231//2 232//2 233//2 234//2
f 209//4 212//4 233//4 232//4
f 229//5 209//5 232//5 231//5
f 152//1 355//1 356//1 153//1
f 158//2 157//2 357//2 358//2
f 152//3 158//3 358//3 355//3
f 153//4 356//4 357//4 157//4
f 160//1 359//1 360//1 161//1
f 165//2 152//2 355//2 361//2
f 161//4 360//4 355//4 152//4
f 166//1 362//1 358//1 158//1
f 170//2 169//2 363//2 364//2
f 166//3 170//3 364//3 362//3
f 158//4 358//4 363//4 169//4
f 178//1 367//1 364//1 170//1
f 182//2 181//2 368//2 369//2
f 170//4 364//4 368//4 181//4
f 184//1 370//1 371//1 185//1
f 190//2 189//2 372//2 373//2
f 184//3 190//3 373//3 370//3
f 185//4 371//4 372//4 189//4
f 202//1 378//1 379//1 203//1
f 207//2 184//2 370//2 380//2
f 203//4 379//4 370//4 184//4
f 208//1 381//1 373//1 190//1
f 212//2 211//2 382//2 383//2
f 208//3 212//3 383//3 381//3
f 190//4 373//4 382//4 211//4
f 230//1 390//1 383//1 212//1
f 234//2 233//2 391//2 392//2
f 212//4 383//4 391//4 233//4
f 355//1 471//1 472//1 356//1
f 358//2 357//2 473//2 474//2
f 355//3 358//3 474//3 471//3
f 356//4 472//4 473//4 357//4
f 359//1 475//1 476//1 360//1
f 361//2 355//2 471//2 477//2
f 360//4 476//4 471//4 355//4
f 362//1 478//1 474//1 358//1
f 364//2 363//2 479//2 480//2
f 362//3 364//3 480//3 478//3
f 358//4 474//4 479//4 363//4
f 367//1 483//1 480//1 364//1
f 369//2 368//2 484//2 485//2
f 364//4 480//4 484//4 368//4
f 370//1 486//1 487//1 371//1
f 373//2 372//2 488//2 489//2
f 370//3 373//3 489//3 486//3
f 371//4 487//4 488//4 372//4
f 378//1 494//1 495//1 379//1
f 380//2 370//2 486//2 496//2
f 379//4 495//4 486//4 370//4
f 381//1 497//1 489//1 373//1
f 383//2 382//2 498//2 499//2
f 381//3 383//3 499//3 497//3
f 373//4 489//4 498//4 382//4
f 390//1 506//1 499//1 383//1
f 392//2 391//2 507//2 508//2
f 383//4 499//4 507//4 391//4
f 471//1 587//1 588//1 472//1
f 474//2 473//2 589//2 590//2
f 471//3 474//3 590//3 587//3
f 472//4 588//4 589//4 473//4
f 475//1 591//1 592//1 476//1
f 477//2 471//2 587//2 593//2
f 476//4 592//4 587//4 471//4
f 478//1 594//1 590//1 474//1
f 480//2 479//2 595//2 596//2
f 478//3 480//3 596//3 594//3
f 474//4 590//4 595//4 479//4
f 483//1 599//1 596//1 480//1
f 485//2 484//2 600//2 601//2
f 480//4 596//4 600//4 484//4
f 486//1 602//1 603//1 487//1
f 489//2 488//2 604//2 605//2
f 486//3 489//3 605//3 602//3
f 487//4 603//4 604//4 488//4
f 494//1 610//1 611//1 495//1
f 496//2 486//2 602//2 612//2
f 495//4 611//4 602//4 486//4
f 497//1 613//1 605//1 489//1
f 499//2 498//2 614//2 615//2
f 497//3 499//3 615//3 613//3
f 489//4 605//4 614//4 498//4
f 506//1 622//1 615//1 499//1
f 508//2 507//2 623//2 624//2
f 499//4 615//4 623//4 507//4
f 587//1 703//1 704//1 588//1
f 590//2 589//2 705//2 706//2
f 587//3 590//3 706//3 703//3
f 588//4 704//4 705//4 589//4
f 591//1 707//1 708//1 592//1
f 593//2 587//2 703//2 709//2
f 592//4 708//4 703//4 587//4
f 594//1 710//1 706//1 590//1
f 596//2 595//2 711//2 712//2
f 594//3 596//3 712//3 710//3
f 590//4 706//4 711//4 595//4
f 599//1 715//1 712//1 596//1
f 601//2 600//2 716//2 717//2
f 596//4 712//4 716//4 600//4
f 602//1 718//1 719//1 603//1
f 605//2 604//2 720//2 721//2
f 602//3 605//3 721//3 718//3
f 603//4 719//4 720//4 604//4
f 610//1 726//1 727//1 611//1
f 612//2 602//2 718//2 728//2
f 611//4 727//4 718//4 602//4
f 613//1 729//1 721//1 605//1
f 615//2 614//2 730//2 731//2
f 613//3 615//3 731//3 729//3
f 605//4 721//4 730//4 614//4
f 622//1 738//1 731//1 615//1
f 624//2 623//2 739//2 740//2
f 615//4 731//4 739//4 623//4
f 703//1 819//1 820//1 704//1
f 706//2 705//2 821//2 822//2
f 704//4 820//4 821//4 705//4
f 819//6 822//6 821//6 820//6
f 707//1 823//1 824//1 708//1
f 708//4 824//4 819//4 703//4
f 823//6 825//6 819//6 824//6
f 712//2 711//2 827//2 828//2
f 706//4 822//4 827//4 711//4
f 826//6 828//6 827//6 822//6
f 717//2 716//2 834//2 835//2
f 712//4 828//4 834//4 716//4
f 833//6 835//6 834//6 828//6
f 718//1 836//1 837//1 719//1
f 721//2 720//2 838//2 839//2
f 719//4 837//4 838//4 720//4
f 836//6 839//6 838//6 837//6
f 726//1 846//1 847//1 727//1
f 727//4 847//4 836//4 718//4
f 846//6 848//6 836//6 847//6
f 731//2 730//2 850//2 851//2
f 721//4 839//4 850//4 730//4
f 849//6 851//6 850//6 839//6
f 740//2 739//2 863//2 864//2
f 731//4 851//4 863//4 739//4
f 862//6 864//6 863//6 851//6
f 1211//1 1212//1 1213//1 1214//1
f 1215//2 1216//2 1217//2 1218//2
f 1214//4 1213//4 1217//4 1216//4
f 1211//5 1214//5 1216//5 1215//5
f 1219//1 1220//1 1221//1 1222//1
f 1222//4 1221//4 1212//4 1211//4
f 1219//5 1222//5 1211//5 1223//5
f 1227//2 1228//2 1229//2 1230//2
f 1215//4 1218//4 1229//4 1228//4
f 1224//5 1215//5 1228//5 1227//5
f 1239//2 1240//2 1241//2 1242//2
f 1227//4 1230//4 1241//4 1240//4
f 1237//5 1227//5 1240//5 1239//5
f 1253//1 1254//1 1255//1 1256//1
f 1257//2 1258//2 1259//2 1260//2
f 1256//4 1255//4 1259//4 1258//4
f 1253//5 1256//5 1258//5 1257//5
f 1271//1 1272//1 1273//1 1274//1
f 1274//4 1273//4 1254//4 1253//4
f 1271//5 1274//5 1253//5 1275//5
f 1279//2 1280//2 1281//2 1282//2
f 1257//4 1260//4 1281//4 1280//4
f 1276//5 1257//5 1280//5 1279//5
f 1301//2 1302//2 1303//2 1304//2
f 1279//4 1282//4 1303//4 1302//4
f 1299//5 1279//5 1302//5 1301//5
f 1212//1 1395//1 1396//1 1213//1
f 1218//2 1217//2 1397//2 1398//2
f 1212//3 1218//3 1398//3 1395//3
f 1213//4 1396//4 1397//4 1217//4
f 1220//1 1399//1 1400//1 1221//1
f 1225//2 1212//2 1395//2 1401//2
f 1221//4 1400//4 1395//4 1212//4
f 1226//1 1402//1 1398//1 1218//1
f 1230//2 1229//2 1403//2 1404//2
f 1226//3 1230//3 1404//3 1402//3
f 1218//4 1398//4 1403//4 1229//4
f 1238//1 1407//1 1404//1 1230//1
f 1242//2 1241//2 1408//2 1409//2
f 1230//4 1404//4 1408//4 1241//4
f 1254//1 1414//1 1415//1 1255//1
f 1260//2 1259//2 1416//2 1417//2
f 1254//3 1260//3 1417//3 1414//3
f 1255//4 1415//4 1416//4 1259//4
f 1272//1 1422//1 1423//1 1273//1
f 1277//2 1254//2 1414//2 1424//2
f 1273//4 1423//4 1414//4 1254//4
f 1278//1 1425//1 1417//1 1260//1
f 1282//2 1281//2 1426//2 1427//2
f 1278//3 1282//3 1427//3 1425//3
f 1260//4 1417//4 1426//4 1281//4
f 1300//1 1434//1 1427//1 1282//1
f 1304//2 1303//2 1435//2 1436//2
f 1282//4 1427//4 1435//4 1303//4
f 1395//1 1503//1 1504//1 1396//1
f 1398//2 1397//2 1505//2 1506//2
f 1395//3 1398//3 1506//3 1503//3
f 1396//4 1504//4 1505//4 1397//4
f 1399//1 1507//1 1508//1 1400//1
f 1401//2 1395//2 1503//2 1509//2
f 1400//4 1508//4 1503//4 1395//4
f 1402//1 1510//1 1506//1 1398//1
f 1404//2 1403//2 1511//2 1512//2
f 1402//3 1404//3 1512//3 1510//3
f 1398//4 1506//4 1511//4 1403//4
f 1407//1 1515//1 1512//1 1404//1
f 1409//2 1408//2 1516//2 1517//2
f 1404//4 1512//4 1516//4 1408//4
f 1414//1 1522//1 1523//1 1415//1
f 1417//2 1416//2 1524//2 1525//2
f 1414//3 1417//3 1525//3 1522//3
f 1415//4 1523//4 1524//4 1416//4
f 1422//1 1530//1 1531//1 1423//1
f 1424//2 1414//2 1522//2 1532//2
f 1423//4 1531//4 1522//4 1414//4
f 1425//1 1533//1 1525//1 1417//1
f 1427//2 1426//2 1534//2 1535//2
f 1425//3 1427//3 1535//3 1533//3
f 1417//4 1525//4 1534//4 1426//4
f 1434//1 1542//1 1535//1 1427//1
f 1436//2 1435//2 1543//2 1544//2
f 1427//4 1535//4 1543//4 1435//4
f 1503//1 1611//1 1612//1 1504//1
f 1506//2 1505//2 1613//2 1614//2
f 1503//3 1506//3 1614//3 1611//3
f 1504//4 1612//4 1613//4 1505//4
f 1507//1 1615//1 1616//1 1508//1
f 1509//2 1503//2 1611//2 1617//2
f 1508//4 1616//4 1611//4 1503//4
f 1510//1 1618//1 1614//1 1506//1
f 1512//2 1511//2 1619//2 1620//2
f 1510//3 1512//3 1620//3 1618//3
f 1506//4 1614//4 1619//4 1511//4
f 1515//1 1623//1 1620//1 1512//1
f 1517//2 1516//2 1624//2 1625//2
f 1512//4 1620//4 1624//4 1516//4
f 1522//1 1630//1 1631//1 1523//1
f 1525//2 1524//2 1632//2 1633//2
f 1522//3 1525//3 1633//3 1630//3
f 1523//4 1631//4 1632//4 1524//4
f 1530//1 1638//1 1639//1 1531//1
f 1532//2 1522//2 1630//2 1640//2
f 1531//4 1639//4 1630//4 1522//4
f 1533//1 1641//1 1633//1 1525//1
f 1535//2 1534//2 1642//2 1643//2
f 1533//3 1535//3 1643//3 1641//3
f 1525//4 1633//4 1642//4 1534//4
f 1542//1 1650//1 1643//1 1535//1
f 1544//2 1543//2 1651//2 1652//2
f 1535//4 1643//4 1651//4 1543//4
f 1611//1 1719//1 1720//1 1612//1
f 1614//2 1613//2 1721//2 1722//2
f 1611//3 1614//3 1722//3 1719//3
f 1612//4 1720//4 1721//4 1613//4
f 1615//1 1723//1 1724//1 1616//1
f 1617//2 1611//2 1719//2 1725//2
f 1616//4 1724//4 1719//4 1611//4
f 1618//1 1726//1 1722//1 1614//1
f 1620//2 1619//2 1727//2 1728//2
f 1618//3 1620//3 1728//3 1726//3
f 1614//4 1722//4 1727//4 1619//4
f 1623//1 1731//1 1728//1 1620//1
f 1625//2 1624//2 1732//2 1733//2
f 1620//4 1728//4 1732//4 1624//4
f 1630//1 1738//1 1739//1 1631//1
f 1633//2 1632//2 1740//2 1741//2
f 1630//3 1633//3 1741//3 1738//3
f 1631//4 1739//4 1740//4 1632//4
f 1638//1 1746//1 1747//1 1639//1
f 1640//2 1630//2 1738//2 1748//2
f 1639//4 1747//4 1738//4 1630//4
f 1641//1 1749//1 1741//1 1633//1
f 1643//2 1642//2 1750//2 1751//2
f 1641//3 1643//3 1751//3 1749//3
f 1633//4 1741//4 1750//4 1642//4
f 1650//1 1758//1 1751//1 1643//1
f 1652//2 1651//2 1759//2 1760//2
f 1643//4 1751//4 1759//4 1651//4
f 1719//1 1827//1 1828//1 1720//1
f 1722//2 1721//2 1829//2 1830//2
f 1720//4 1828//4 1829//4 1721//4
f 1827//6 1830//6 1829//6 1828//6
f 1723//1 1831//1 1832//1 1724//1
f 1724//4 1832//4 1827//4 1719//4
f 1831//6 1833//6 1827//6 1832//6
f 1728//2 1727//2 1835//2 1836//2
f 1722//4 1830//4 1835//4 1727//4
f 1834//6 1836//6 1835//6 1830//6
f 1733//2 1732//2 1842//2 1843//2
f 1728//4 1836//4 1842//4 1732//4
f 1841//6 1843//6 1842//6 1836//6
f 1738//1 1850//1 1851//1 1739//1
f 1741//2 1740//2 1852//2 1853//2
f 1739//4 1851//4 1852//4 1740//4
f 1850//6 1853//6 1852//6 1851//6
f 1746//1 1860//1 1861//1 1747//1
f 1747//4 1861//4 1850//4 1738//4
f 1860//6 1862//6 1850//6 1861//6
f 1751//2 1750//2 1864//2 1865//2
f 1741//4 1853//4 1864//4 1750//4
f 1863//6 1865//6 1864//6 1853//6
f 1760//2 1759//2 1877//2 1878//2
f 1751//4 1865//4 1877//4 1759//4
f 1876//6 1878//6 1877//6 1865//6
g glyph_111
f 213//1 214//1 192//1 191//1
f 213//5 191//5 193//5 215//5
f 221//2 199//2 200//2 222//2
f 219//5 197//5 199//5 221//5
f 265//1 266//1 246//1 245//1
f 265//5 245//5 247//5 267//5
f 273//2 253//2 254//2 274//2
f 271//5 251//5 253//5 273//5
f 275//1 276//1 256//1 255//1
f 275//5 255//5 257//5 277//5
f 283//2 263//2 264//2 284//2
f 281//5 261//5 263//5 283//5
f 384//1 500//1 490//1 374//1
f 385//2 375//2 491//2 501//2
f 386//1 502//1 492//1 376//1
f 387//2 377//2 493//2 503//2
f 405//1 521//1 513//1 397//1
f 406//2 398//2 514//2 522//2
f 407//1 523//1 515//1 399//1
f 408//2 400//2 516//2 524//2
f 409//1 525//1 517//1 401//1
f 410//2 402//2 518//2 526//2
f 411//1 527//1 519//1 403//1
f 412//2 404//2 520//2 528//2
f 616//1 732//1 722//1 606//1
f 617//2 607//2 723//2 733//2
f 618//1 734//1 724//1 608//1
f 619//2 609//2 725//2 735//2
f 637//1 753//1 745//1 629//1
f 638//2 630//2 746//2 754//2
f 639//1 755//1 747//1 631//1
f 640//2 632//2 748//2 756//2
f 641//1 757//1 749//1 633//1
f 642//2 634//2 750//2 758//2
f 643//1 759//1 751//1 635//1
f 644//2 636//2 752//2 760//2
f 1243//1 1244//1 1232//1 1231//1
f 1243//5 1231//5 1233//5 1245//5
f 1251//2 1239//2 1242//2 1252//2
f 1249//5 1237//5 1239//5 1251//5
f 1305//1 1306//1 1284//1 1283//1
f 1305//5 1283//5 1285//5 1307//5
f 1313//2 1291//2 1292//2 1314//2
f 1311//5 1289//5 1291//5 1313//5
f 1315//1 1316//1 1294//1 1293//1
f 1315//5 1293//5 1295//5 1317//5
f 1323//2 1301//2 1304//2 1324//2
f 1321//5 1299//5 1301//5 1323//5
f 1410//1 1518//1 1513//1 1405//1
f 1411//2 1406//2 1514//2 1519//2
f 1412//1 1520//1 1515//1 1407//1
f 1413//2 1409//2 1517//2 1521//2
f 1437//1 1545//1 1536//1 1428//1
f 1438//2 1429//2 1537//2 1546//2
f 1439//1 1547//1 1538//1 1430//1
f 1440//2 1431//2 1539//2 1548//2
f 1441//1 1549//1 1540//1 1432//1
f 1442//2 1433//2 1541//2 1550//2
f 1443//1 1551//1 1542//1 1434//1
f 1444//2 1436//2 1544//2 1552//2
f 1626//1 1734//1 1729//1 1621//1
f 1627//2 1622//2 1730//2 1735//2
f 1628//1 1736//1 1731//1 1623//1
f 1629//2 1625//2 1733//2 1737//2
f 1653//1 1761//1 1752//1 1644//1
f 1654//2 1645//2 1753//2 1762//2
f 1655//1 1763//1 1754//1 1646//1
f 1656//2 1647//2 1755//2 1764//2
f 1657//1 1765//1 1756//1 1648//1
f 1658//2 1649//2 1757//2 1766//2
f 1659//1 1767//1 1758//1 1650//1
f 1660//2 1652//2 1760//2 1768//2
