# Rook occupied-cell surface mesh
# Crystal garden
# One cell is one unit. Y points up; Z follows the 3md slice index.
o sculpture
v -3 -10 -9
v -3 -10 -8
v -3 -9 -8
v -3 -9 -9
v -2 -10 -9
v -2 -10 -8
v -2 -9 -8
v -2 -9 -9
v -1 -10 -9
v -1 -10 -8
v -1 -9 -8
v -1 -9 -9
v 0 -10 -9
v 0 -10 -8
v 0 -9 -8
v 0 -9 -9
v 1 -10 -9
v 1 -10 -8
v 1 -9 -8
v 1 -9 -9
v 2 -10 -9
v 2 -10 -8
v 2 -9 -8
v 2 -9 -9
v 3 -10 -9
v 3 -9 -9
v 3 -9 -8
v 3 -10 -8
v -6 0 -8
v -6 0 -7
v -6 1 -7
v -6 1 -8
v -5 0 -8
v -5 1 -8
v -5 1 -7
v -5 0 -7
v -6 -1 -8
v -6 -1 -7
v -5 -1 -8
v -5 -1 -7
v -6 -2 -8
v -6 -2 -7
v -5 -2 -8
v -5 -2 -7
v -6 -3 -8
v -6 -3 -7
v -5 -3 -8
v -5 -3 -7
v -6 -4 -8
v -6 -4 -7
v -5 -4 -8
v -5 -4 -7
v -6 -5 -8
v -6 -5 -7
v -5 -5 -8
v -5 -5 -7
v -6 -6 -8
v -6 -6 -7
v -5 -6 -8
v -5 -6 -7
v -6 -7 -8
v -6 -7 -7
v -5 -7 -8
v -5 -7 -7
v -6 -8 -8
v -6 -8 -7
v -5 -8 -8
v -5 -8 -7
v -5 -10 -8
v -5 -10 -7
v -5 -9 -7
v -5 -9 -8
v -4 -10 -8
v -4 -10 -7
v -4 -9 -7
v -4 -9 -8
v -3 -10 -7
v -3 -9 -7
v -2 -10 -7
v -2 -9 -7
v -1 -10 -7
v -1 -9 -7
v 0 -10 -7
v 0 -9 -7
v 1 -10 -7
v 1 -9 -7
v 2 -10 -7
v 2 -9 -7
v 3 -10 -7
v 3 -9 -7
v 4 -10 -8
v 4 -10 -7
v 4 -9 -7
v 4 -9 -8
v 5 -10 -8
v 5 -9 -8
v 5 -9 -7
v 5 -10 -7
v -6 2 -7
v -6 2 -6
v -6 3 -6
v -6 3 -7
v -5 2 -7
v -5 3 -7
v -5 3 -6
v -5 2 -6
v -6 1 -6
v -5 1 -6
v -7 0 -7
v -7 0 -6
v -7 1 -6
v -7 1 -7
v -4 0 -7
v -4 1 -7
v -4 1 -6
v -4 0 -6
v -7 -1 -7
v -7 -1 -6
v -4 -1 -7
v -4 -1 -6
v -7 -2 -7
v -7 -2 -6
v -4 -2 -7
v -4 -2 -6
v -7 -3 -7
v -7 -3 -6
v -4 -3 -7
v -4 -3 -6
v -7 -4 -7
v -7 -4 -6
v -4 -4 -7
v -4 -4 -6
v -7 -5 -7
v -7 -5 -6
v -4 -5 -7
v -4 -5 -6
v -7 -6 -7
v -7 -6 -6
v -4 -6 -7
v -4 -6 -6
v -7 -7 -7
v -7 -7 -6
v -4 -7 -7
v -4 -7 -6
v -7 -8 -7
v -7 -8 -6
v -6 -8 -6
v -4 -8 -7
v -4 -8 -6
v -5 -8 -6
v -6 -9 -7
v -6 -9 -6
v -5 -9 -6
v -6 -10 -7
v -6 -10 -6
v -5 -10 -6
v -4 -10 -6
v -4 -9 -6
v -3 -10 -6
v -3 -9 -6
v -2 -10 -6
v -2 -9 -6
v -1 -10 -6
v -1 -9 -6
v 0 -10 -6
v 0 -9 -6
v 1 -10 -6
v 1 -9 -6
v 2 -10 -6
v 2 -9 -6
v 3 -10 -6
v 3 -9 -6
v 4 -10 -6
v 4 -9 -6
v 5 -10 -6
v 5 -9 -6
v 6 -10 -7
v 6 -9 -7
v 6 -9 -6
v 6 -10 -6
v -6 4 -6
v -6 4 -5
v -6 5 -5
v -6 5 -6
v -5 4 -6
v -5 5 -6
v -5 5 -5
v -5 4 -5
v -6 3 -5
v -5 3 -5
v -7 2 -6
v -7 2 -5
v -7 3 -5
v -7 3 -6
v -4 2 -6
v -4 3 -6
v -4 3 -5
v -4 2 -5
v -7 1 -5
v -4 1 -5
v -8 0 -6
v -8 0 -5
v -8 1 -5
v -8 1 -6
v -3 0 -6
v -3 1 -6
v -3 1 -5
v -3 0 -5
v -8 -1 -6
v -8 -1 -5
v -3 -1 -6
v -3 -1 -5
v -8 -2 -6
v -8 -2 -5
v -3 -2 -6
v -3 -2 -5
v -8 -3 -6
v -8 -3 -5
v -3 -3 -6
v -3 -3 -5
v -8 -4 -6
v -8 -4 -5
v -3 -4 -6
v -3 -4 -5
v -8 -5 -6
v -8 -5 -5
v -3 -5 -6
v -3 -5 -5
v -8 -6 -6
v -8 -6 -5
v -3 -6 -6
v -3 -6 -5
v -8 -7 -6
v -8 -7 -5
v -3 -7 -6
v -3 -7 -5
v -8 -8 -6
v -8 -8 -5
v -7 -8 -5
v -3 -8 -6
v -3 -8 -5
v -4 -8 -5
v -7 -9 -6
v -7 -9 -5
v -4 -9 -5
v -7 -10 -6
v -7 -10 -5
v -6 -10 -5
v -5 -10 -5
v -4 -10 -5
v -3 -10 -5
v -3 -9 -5
v -2 -10 -5
v -2 -9 -5
v -1 -10 -5
v -1 -9 -5
v 0 -10 -5
v 0 -9 -5
v 1 -10 -5
v 1 -9 -5
v 2 -10 -5
v 2 -9 -5
v 3 -10 -5
v 3 -9 -5
v 4 -10 -5
v 4 -9 -5
v 5 -10 -5
v 5 -9 -5
v 6 -10 -5
v 6 -9 -5
v 7 -10 -6
v 7 -9 -6
v 7 -9 -5
v 7 -10 -5
v -7 4 -5
v -7 4 -4
v -7 5 -4
v -7 5 -5
v -6 5 -4
v -6 4 -4
v -5 5 -4
v -4 4 -5
v -4 5 -5
v -4 5 -4
v -4 4 -4
v -5 4 -4
v 5 4 -5
v 5 4 -4
v 5 5 -4
v 5 5 -5
v 6 4 -5
v 6 5 -5
v 6 5 -4
v 6 4 -4
v -7 3 -4
v -6 3 -4
v -4 3 -4
v -5 3 -4
v 5 3 -5
v 5 3 -4
v 6 3 -5
v 6 3 -4
v -8 2 -5
v -8 2 -4
v -8 3 -4
v -8 3 -5
v -7 2 -4
v -3 2 -5
v -3 3 -5
v -3 3 -4
v -3 2 -4
v -4 2 -4
v 5 2 -5
v 5 2 -4
v 6 2 -5
v 6 2 -4
v -8 1 -4
v -7 1 -4
v -3 1 -4
v -4 1 -4
v 5 1 -5
v 5 1 -4
v 6 1 -5
v 6 1 -4
v -9 0 -5
v -9 0 -4
v -9 1 -4
v -9 1 -5
v -8 0 -4
v -2 0 -5
v -2 1 -5
v -2 1 -4
v -2 0 -4
v -3 0 -4
v 5 0 -5
v 5 0 -4
v 6 0 -5
v 6 0 -4
v -9 -1 -5
v -9 -1 -4
v -8 -1 -4
v -2 -1 -5
v -2 -1 -4
v -3 -1 -4
v 5 -1 -5
v 5 -1 -4
v 6 -1 -5
v 6 -1 -4
v -9 -2 -5
v -9 -2 -4
v -8 -2 -4
v -2 -2 -5
v -2 -2 -4
v -3 -2 -4
v 5 -2 -5
v 5 -2 -4
v 6 -2 -5
v 6 -2 -4
v -9 -3 -5
v -9 -3 -4
v -8 -3 -4
v -2 -3 -5
v -2 -3 -4
v -3 -3 -4
v 5 -3 -5
v 5 -3 -4
v 6 -3 -5
v 6 -3 -4
v -9 -4 -5
v -9 -4 -4
v -8 -4 -4
v -2 -4 -5
v -2 -4 -4
v -3 -4 -4
v 5 -4 -5
v 5 -4 -4
v 6 -4 -5
v 6 -4 -4
v -9 -5 -5
v -9 -5 -4
v -8 -5 -4
v -2 -5 -5
v -2 -5 -4
v -3 -5 -4
v 5 -5 -5
v 5 -5 -4
v 6 -5 -5
v 6 -5 -4
v -9 -6 -5
v -9 -6 -4
v -8 -6 -4
v -2 -6 -5
v -2 -6 -4
v -3 -6 -4
v 5 -6 -5
v 5 -6 -4
v 6 -6 -5
v 6 -6 -4
v -9 -7 -5
v -9 -7 -4
v -8 -7 -4
v -2 -7 -5
v -2 -7 -4
v -3 -7 -4
v 5 -7 -5
v 5 -7 -4
v 6 -7 -5
v 6 -7 -4
v -9 -8 -5
v -9 -8 -4
v -8 -8 -4
v -2 -8 -5
v -2 -8 -4
v -3 -8 -4
v 5 -8 -5
v 5 -8 -4
v 6 -8 -5
v 6 -8 -4
v -8 -9 -5
v -8 -9 -4
v -7 -9 -4
v -7 -8 -4
v -3 -9 -4
v -4 -9 -4
v -4 -8 -4
v -8 -10 -5
v -8 -10 -4
v -7 -10 -4
v -6 -10 -4
v -5 -10 -4
v -4 -10 -4
v -3 -10 -4
v -2 -10 -4
v -2 -9 -4
v -1 -10 -4
v -1 -9 -4
v 0 -10 -4
v 0 -9 -4
v 1 -10 -4
v 1 -9 -4
v 2 -10 -4
v 2 -9 -4
v 3 -10 -4
v 3 -9 -4
v 4 -10 -4
v 4 -9 -4
v 5 -10 -4
v 5 -9 -4
v 6 -10 -4
v 6 -9 -4
v 7 -10 -4
v 7 -9 -4
v 8 -10 -5
v 8 -9 -5
v 8 -9 -4
v 8 -10 -4
v 5 6 -4
v 5 6 -3
v 5 7 -3
v 5 7 -4
v 6 6 -4
v 6 7 -4
v 6 7 -3
v 6 6 -3
v 5 5 -3
v 6 5 -3
v -6 4 -3
v -6 5 -3
v -5 5 -3
v -5 4 -3
v 4 4 -4
v 4 4 -3
v 4 5 -3
v 4 5 -4
v 7 4 -4
v 7 5 -4
v 7 5 -3
v 7 4 -3
v -6 3 -3
v -5 3 -3
v 4 3 -4
v 4 3 -3
v 7 3 -4
v 7 3 -3
v -7 2 -3
v -7 3 -3
v -6 2 -3
v -4 3 -3
v -4 2 -3
v -5 2 -3
v 4 2 -4
v 4 2 -3
v 7 2 -4
v 7 2 -3
v -7 1 -3
v -6 1 -3
v -4 1 -3
v -5 1 -3
v 4 1 -4
v 4 1 -3
v 7 1 -4
v 7 1 -3
v -8 0 -3
v -8 1 -3
v -7 0 -3
v -3 1 -3
v -3 0 -3
v -4 0 -3
v 4 0 -4
v 4 0 -3
v 7 0 -4
v 7 0 -3
v -8 -1 -3
v -7 -1 -3
v -3 -1 -3
v -4 -1 -3
v 4 -1 -4
v 4 -1 -3
v 7 -1 -4
v 7 -1 -3
v -8 -2 -3
v -7 -2 -3
v -3 -2 -3
v -4 -2 -3
v 4 -2 -4
v 4 -2 -3
v 7 -2 -4
v 7 -2 -3
v -8 -3 -3
v -7 -3 -3
v -3 -3 -3
v -4 -3 -3
v 4 -3 -4
v 4 -3 -3
v 7 -3 -4
v 7 -3 -3
v -8 -4 -3
v -7 -4 -3
v -3 -4 -3
v -4 -4 -3
v 4 -4 -4
v 4 -4 -3
v 7 -4 -4
v 7 -4 -3
v -8 -5 -3
v -7 -5 -3
v -3 -5 -3
v -4 -5 -3
v 4 -5 -4
v 4 -5 -3
v 7 -5 -4
v 7 -5 -3
v -8 -6 -3
v -7 -6 -3
v -3 -6 -3
v -4 -6 -3
v 4 -6 -4
v 4 -6 -3
v 7 -6 -4
v 7 -6 -3
v -8 -7 -3
v -7 -7 -3
v -3 -7 -3
v -4 -7 -3
v 4 -7 -4
v 4 -7 -3
v 7 -7 -4
v 7 -7 -3
v -8 -8 -3
v -7 -8 -3
v -3 -8 -3
v -4 -8 -3
v 4 -8 -4
v 4 -8 -3
v 5 -8 -3
v 7 -8 -4
v 7 -8 -3
v 6 -8 -3
v -7 -9 -3
v -6 -9 -3
v -6 -8 -3
v -4 -9 -3
v -5 -9 -3
v -5 -8 -3
v 5 -9 -3
v 6 -9 -3
v -8 -10 -3
v -8 -9 -3
v -7 -10 -3
v -6 -10 -3
v -5 -10 -3
v -4 -10 -3
v -3 -10 -3
v -3 -9 -3
v -2 -10 -3
v -2 -9 -3
v -1 -10 -3
v -1 -9 -3
v 0 -10 -3
v 0 -9 -3
v 1 -10 -3
v 1 -9 -3
v 2 -10 -3
v 2 -9 -3
v 3 -10 -3
v 3 -9 -3
v 4 -10 -3
v 4 -9 -3
v 5 -10 -3
v 6 -10 -3
v 7 -10 -3
v 7 -9 -3
v 8 -9 -3
v 8 -10 -3
v 5 8 -3
v 5 8 -2
v 5 9 -2
v 5 9 -3
v 6 8 -3
v 6 9 -3
v 6 9 -2
v 6 8 -2
v 5 7 -2
v 6 7 -2
v 4 6 -3
v 4 6 -2
v 4 7 -2
v 4 7 -3
v 7 6 -3
v 7 7 -3
v 7 7 -2
v 7 6 -2
v 4 5 -2
v 7 5 -2
v 3 4 -3
v 3 4 -2
v 3 5 -2
v 3 5 -3
v 8 4 -3
v 8 5 -3
v 8 5 -2
v 8 4 -2
v 3 3 -3
v 3 3 -2
v 8 3 -3
v 8 3 -2
v -6 2 -2
v -6 3 -2
v -5 3 -2
v -5 2 -2
v 3 2 -3
v 3 2 -2
v 8 2 -3
v 8 2 -2
v -6 1 -2
v -5 1 -2
v 3 1 -3
v 3 1 -2
v 8 1 -3
v 8 1 -2
v -7 0 -2
v -7 1 -2
v -6 0 -2
v -4 1 -2
v -4 0 -2
v -5 0 -2
v 3 0 -3
v 3 0 -2
v 8 0 -3
v 8 0 -2
v -7 -1 -2
v -6 -1 -2
v -4 -1 -2
v -5 -1 -2
v 3 -1 -3
v 3 -1 -2
v 8 -1 -3
v 8 -1 -2
v -7 -2 -2
v -6 -2 -2
v -4 -2 -2
v -5 -2 -2
v 3 -2 -3
v 3 -2 -2
v 8 -2 -3
v 8 -2 -2
v -7 -3 -2
v -6 -3 -2
v -4 -3 -2
v -5 -3 -2
v 3 -3 -3
v 3 -3 -2
v 8 -3 -3
v 8 -3 -2
v -7 -4 -2
v -6 -4 -2
v -4 -4 -2
v -5 -4 -2
v 3 -4 -3
v 3 -4 -2
v 8 -4 -3
v 8 -4 -2
v -7 -5 -2
v -6 -5 -2
v -4 -5 -2
v -5 -5 -2
v 3 -5 -3
v 3 -5 -2
v 8 -5 -3
v 8 -5 -2
v -7 -6 -2
v -6 -6 -2
v -4 -6 -2
v -5 -6 -2
v 3 -6 -3
v 3 -6 -2
v 8 -6 -3
v 8 -6 -2
v -7 -7 -2
v -6 -7 -2
v -4 -7 -2
v -5 -7 -2
v 3 -7 -3
v 3 -7 -2
v 8 -7 -3
v 8 -7 -2
v -7 -8 -2
v -6 -8 -2
v -4 -8 -2
v -5 -8 -2
v 3 -8 -3
v 3 -8 -2
v 4 -8 -2
v 8 -8 -3
v 8 -8 -2
v 7 -8 -2
v -6 -9 -2
v -5 -9 -2
v 4 -9 -2
v 7 -9 -2
v -9 -10 -3
v -9 -10 -2
v -9 -9 -2
v -9 -9 -3
v -8 -10 -2
v -8 -9 -2
v -7 -10 -2
v -7 -9 -2
v -6 -10 -2
v -5 -10 -2
v -4 -10 -2
v -4 -9 -2
v -3 -10 -2
v -3 -9 -2
v -2 -10 -2
v -2 -9 -2
v -1 -10 -2
v -1 -9 -2
v 0 -10 -2
v 0 -9 -2
v 1 -10 -2
v 1 -9 -2
v 2 -10 -2
v 2 -9 -2
v 3 -10 -2
v 3 -9 -2
v 4 -10 -2
v 5 -10 -2
v 6 -10 -2
v 7 -10 -2
v 8 -10 -2
v 8 -9 -2
v 9 -10 -3
v 9 -9 -3
v 9 -9 -2
v 9 -10 -2
v 4 8 -2
v 4 8 -1
v 4 9 -1
v 4 9 -2
v 5 9 -1
v 5 8 -1
v 6 9 -1
v 7 8 -2
v 7 9 -2
v 7 9 -1
v 7 8 -1
v 6 8 -1
v 4 7 -1
v 5 7 -1
v 7 7 -1
v 6 7 -1
v 3 6 -2
v 3 6 -1
v 3 7 -1
v 3 7 -2
v 4 6 -1
v 8 6 -2
v 8 7 -2
v 8 7 -1
v 8 6 -1
v 7 6 -1
v 3 5 -1
v 4 5 -1
v 8 5 -1
v 7 5 -1
v 2 4 -2
v 2 4 -1
v 2 5 -1
v 2 5 -2
v 3 4 -1
v 9 4 -2
v 9 5 -2
v 9 5 -1
v 9 4 -1
v 8 4 -1
v 2 3 -2
v 2 3 -1
v 3 3 -1
v 9 3 -2
v 9 3 -1
v 8 3 -1
v 2 2 -2
v 2 2 -1
v 3 2 -1
v 9 2 -2
v 9 2 -1
v 8 2 -1
v 2 1 -2
v 2 1 -1
v 3 1 -1
v 9 1 -2
v 9 1 -1
v 8 1 -1
v -6 0 -1
v -6 1 -1
v -5 1 -1
v -5 0 -1
v 2 0 -2
v 2 0 -1
v 3 0 -1
v 9 0 -2
v 9 0 -1
v 8 0 -1
v -6 -1 -1
v -5 -1 -1
v 2 -1 -2
v 2 -1 -1
v 3 -1 -1
v 9 -1 -2
v 9 -1 -1
v 8 -1 -1
v -6 -2 -1
v -5 -2 -1
v 2 -2 -2
v 2 -2 -1
v 3 -2 -1
v 9 -2 -2
v 9 -2 -1
v 8 -2 -1
v -6 -3 -1
v -5 -3 -1
v 2 -3 -2
v 2 -3 -1
v 3 -3 -1
v 9 -3 -2
v 9 -3 -1
v 8 -3 -1
v -6 -4 -1
v -5 -4 -1
v 2 -4 -2
v 2 -4 -1
v 3 -4 -1
v 9 -4 -2
v 9 -4 -1
v 8 -4 -1
v -6 -5 -1
v -5 -5 -1
v 2 -5 -2
v 2 -5 -1
v 3 -5 -1
v 9 -5 -2
v 9 -5 -1
v 8 -5 -1
v -6 -6 -1
v -5 -6 -1
v 2 -6 -2
v 2 -6 -1
v 3 -6 -1
v 9 -6 -2
v 9 -6 -1
v 8 -6 -1
v -6 -7 -1
v -5 -7 -1
v 2 -7 -2
v 2 -7 -1
v 3 -7 -1
v 9 -7 -2
v 9 -7 -1
v 8 -7 -1
v -6 -8 -1
v -5 -8 -1
v 2 -8 -2
v 2 -8 -1
v 3 -8 -1
v 9 -8 -2
v 9 -8 -1
v 8 -8 -1
v 3 -9 -1
v 4 -9 -1
v 4 -8 -1
v 8 -9 -1
v 7 -9 -1
v 7 -8 -1
v -9 -10 -1
v -9 -9 -1
v -8 -10 -1
v -8 -9 -1
v -7 -10 -1
v -7 -9 -1
v -6 -10 -1
v -6 -9 -1
v -5 -10 -1
v -5 -9 -1
v -4 -10 -1
v -4 -9 -1
v -3 -10 -1
v -3 -9 -1
v -2 -10 -1
v -2 -9 -1
v -1 -10 -1
v -1 -9 -1
v 0 -10 -1
v 0 -9 -1
v 1 -10 -1
v 1 -9 -1
v 2 -10 -1
v 2 -9 -1
v 3 -10 -1
v 4 -10 -1
v 5 -10 -1
v 6 -10 -1
v 7 -10 -1
v 8 -10 -1
v 9 -9 -1
v 9 -10 -1
v 5 8 0
v 5 9 0
v 6 9 0
v 6 8 0
v 5 7 0
v 6 7 0
v 4 6 0
v 4 7 0
v 5 6 0
v 7 7 0
v 7 6 0
v 6 6 0
v 4 5 0
v 5 5 0
v 7 5 0
v 6 5 0
v 3 4 0
v 3 5 0
v 4 4 0
v 8 5 0
v 8 4 0
v 7 4 0
v 3 3 0
v 4 3 0
v 8 3 0
v 7 3 0
v 3 2 0
v 4 2 0
v 8 2 0
v 7 2 0
v 3 1 0
v 4 1 0
v 8 1 0
v 7 1 0
v 3 0 0
v 4 0 0
v 8 0 0
v 7 0 0
v 3 -1 0
v 4 -1 0
v 8 -1 0
v 7 -1 0
v 3 -2 0
v 4 -2 0
v 8 -2 0
v 7 -2 0
v 3 -3 0
v 4 -3 0
v 8 -3 0
v 7 -3 0
v 3 -4 0
v 4 -4 0
v 8 -4 0
v 7 -4 0
v 3 -5 0
v 4 -5 0
v 8 -5 0
v 7 -5 0
v 3 -6 0
v 4 -6 0
v 8 -6 0
v 7 -6 0
v 3 -7 0
v 4 -7 0
v 8 -7 0
v 7 -7 0
v 3 -8 0
v 4 -8 0
v 8 -8 0
v 7 -8 0
v 4 -9 0
v 5 -9 0
v 5 -8 0
v 7 -9 0
v 6 -9 0
v 6 -8 0
v -9 -10 0
v -9 -9 0
v -8 -10 0
v -8 -9 0
v -7 -10 0
v -7 -9 0
v -6 -10 0
v -6 -9 0
v -5 -10 0
v -5 -9 0
v -4 -10 0
v -4 -9 0
v -3 -10 0
v -3 -9 0
v -2 -10 0
v -2 -9 0
v -1 -10 0
v -1 -9 0
v 0 -10 0
v 0 -9 0
v 1 -10 0
v 1 -9 0
v 2 -10 0
v 2 -9 0
v 3 -10 0
v 3 -9 0
v 4 -10 0
v 5 -10 0
v 6 -10 0
v 7 -10 0
v 8 -10 0
v 8 -9 0
v 9 -9 0
v 9 -10 0
v 5 6 1
v 5 7 1
v 6 7 1
v 6 6 1
v 5 5 1
v 6 5 1
v 4 4 1
v 4 5 1
v 5 4 1
v 7 5 1
v 7 4 1
v 6 4 1
v 4 3 1
v 5 3 1
v 7 3 1
v 6 3 1
v 4 2 1
v 5 2 1
v 7 2 1
v 6 2 1
v 4 1 1
v 5 1 1
v 7 1 1
v 6 1 1
v 4 0 1
v 5 0 1
v 7 0 1
v 6 0 1
v 4 -1 1
v 5 -1 1
v 7 -1 1
v 6 -1 1
v 4 -2 1
v 5 -2 1
v 7 -2 1
v 6 -2 1
v 4 -3 1
v 5 -3 1
v 7 -3 1
v 6 -3 1
v 4 -4 1
v 5 -4 1
v 7 -4 1
v 6 -4 1
v 4 -5 1
v 5 -5 1
v 7 -5 1
v 6 -5 1
v 4 -6 1
v 5 -6 1
v 7 -6 1
v 6 -6 1
v 4 -7 1
v 5 -7 1
v 7 -7 1
v 6 -7 1
v 4 -8 1
v 5 -8 1
v 7 -8 1
v 6 -8 1
v 5 -9 1
v 6 -9 1
v -9 -10 1
v -9 -9 1
v -8 -10 1
v -8 -9 1
v -7 -10 1
v -7 -9 1
v -6 -10 1
v -6 -9 1
v -5 -10 1
v -5 -9 1
v -4 -10 1
v -4 -9 1
v -3 -10 1
v -3 -9 1
v -2 -10 1
v -2 -9 1
v -1 -10 1
v -1 -9 1
v 0 -10 1
v 0 -9 1
v 1 -10 1
v 1 -9 1
v 2 -10 1
v 2 -9 1
v 3 -10 1
v 3 -9 1
v 4 -10 1
v 4 -9 1
v 5 -10 1
v 6 -10 1
v 7 -10 1
v 7 -9 1
v 8 -10 1
v 8 -9 1
v 9 -9 1
v 9 -10 1
v 5 4 2
v 5 5 2
v 6 5 2
v 6 4 2
v 5 3 2
v 6 3 2
v 5 2 2
v 6 2 2
v 5 1 2
v 6 1 2
v 5 0 2
v 6 0 2
v 5 -1 2
v 6 -1 2
v 5 -2 2
v 6 -2 2
v 5 -3 2
v 6 -3 2
v 5 -4 2
v 6 -4 2
v 5 -5 2
v 6 -5 2
v 5 -6 2
v 6 -6 2
v 5 -7 2
v 6 -7 2
v 5 -8 2
v 6 -8 2
v -9 -10 2
v -9 -9 2
v -8 -10 2
v -8 -9 2
v -7 -10 2
v -7 -9 2
v -6 -10 2
v -6 -9 2
v -5 -10 2
v -5 -9 2
v -4 -10 2
v -4 -9 2
v -3 -10 2
v -3 -9 2
v -2 -10 2
v -2 -9 2
v -1 -10 2
v -1 -9 2
v 0 -10 2
v 0 -9 2
v 1 -10 2
v 1 -9 2
v 2 -10 2
v 2 -9 2
v 3 -10 2
v 3 -9 2
v 4 -10 2
v 4 -9 2
v 5 -10 2
v 5 -9 2
v 6 -10 2
v 6 -9 2
v 7 -10 2
v 7 -9 2
v 8 -10 2
v 8 -9 2
v 9 -9 2
v 9 -10 2
v -6 -5 2
v -6 -5 3
v -6 -4 3
v -6 -4 2
v -5 -5 2
v -5 -4 2
v -5 -4 3
v -5 -5 3
v -6 -6 2
v -6 -6 3
v -5 -6 2
v -5 -6 3
v -6 -7 2
v -6 -7 3
v -5 -7 2
v -5 -7 3
v -6 -8 2
v -6 -8 3
v -5 -8 2
v -5 -8 3
v -9 -10 3
v -9 -9 3
v -8 -10 3
v -8 -9 3
v -7 -10 3
v -7 -9 3
v -6 -10 3
v -6 -9 3
v -5 -10 3
v -5 -9 3
v -4 -10 3
v -4 -9 3
v -3 -10 3
v -3 -9 3
v -2 -10 3
v -2 -9 3
v -1 -10 3
v -1 -9 3
v 0 -10 3
v 0 -9 3
v 1 -10 3
v 1 -9 3
v 2 -10 3
v 2 -9 3
v 3 -10 3
v 3 -9 3
v 4 -10 3
v 4 -9 3
v 5 -10 3
v 5 -9 3
v 6 -10 3
v 6 -9 3
v 7 -10 3
v 7 -9 3
v 8 -10 3
v 8 -9 3
v 9 -9 3
v 9 -10 3
v -6 -3 3
v -6 -3 4
v -6 -2 4
v -6 -2 3
v -5 -3 3
v -5 -2 3
v -5 -2 4
v -5 -3 4
v -6 -4 4
v -5 -4 4
v -7 -5 3
v -7 -5 4
v -7 -4 4
v -7 -4 3
v -4 -5 3
v -4 -4 3
v -4 -4 4
v -4 -5 4
v -7 -6 3
v -7 -6 4
v -4 -6 3
v -4 -6 4
v -7 -7 3
v -7 -7 4
v -4 -7 3
v -4 -7 4
v -7 -8 3
v -7 -8 4
v -6 -8 4
v -4 -8 3
v -4 -8 4
v -5 -8 4
v -6 -9 4
v -5 -9 4
v -8 -10 4
v -8 -9 4
v -7 -10 4
v -7 -9 4
v -6 -10 4
v -5 -10 4
v -4 -10 4
v -4 -9 4
v -3 -10 4
v -3 -9 4
v -2 -10 4
v -2 -9 4
v -1 -10 4
v -1 -9 4
v 0 -10 4
v 0 -9 4
v 1 -10 4
v 1 -9 4
v 2 -10 4
v 2 -9 4
v 3 -10 4
v 3 -9 4
v 4 -10 4
v 4 -9 4
v 5 -10 4
v 5 -9 4
v 6 -10 4
v 6 -9 4
v 7 -10 4
v 7 -9 4
v 8 -9 4
v 8 -10 4
v -6 -1 4
v -6 -1 5
v -6 0 5
v -6 0 4
v -5 -1 4
v -5 0 4
v -5 0 5
v -5 -1 5
v -6 -2 5
v -5 -2 5
v -7 -3 4
v -7 -3 5
v -7 -2 5
v -7 -2 4
v -4 -3 4
v -4 -2 4
v -4 -2 5
v -4 -3 5
v -7 -4 5
v -4 -4 5
v 5 -4 4
v 5 -4 5
v 5 -3 5
v 5 -3 4
v 6 -4 4
v 6 -3 4
v 6 -3 5
v 6 -4 5
v -8 -5 4
v -8 -5 5
v -8 -4 5
v -8 -4 4
v -3 -5 4
v -3 -4 4
v -3 -4 5
v -3 -5 5
v 5 -5 4
v 5 -5 5
v 6 -5 4
v 6 -5 5
v -8 -6 4
v -8 -6 5
v -3 -6 4
v -3 -6 5
v 5 -6 4
v 5 -6 5
v 6 -6 4
v 6 -6 5
v -8 -7 4
v -8 -7 5
v -3 -7 4
v -3 -7 5
v 5 -7 4
v 5 -7 5
v 6 -7 4
v 6 -7 5
v -8 -8 4
v -8 -8 5
v -7 -8 5
v -3 -8 4
v -3 -8 5
v -4 -8 5
v 5 -8 4
v 5 -8 5
v 6 -8 4
v 6 -8 5
v -7 -9 5
v -4 -9 5
v 5 -9 5
v 6 -9 5
v -8 -10 5
v -8 -9 5
v -7 -10 5
v -6 -10 5
v -5 -10 5
v -4 -10 5
v -3 -10 5
v -3 -9 5
v -2 -10 5
v -2 -9 5
v -1 -10 5
v -1 -9 5
v 0 -10 5
v 0 -9 5
v 1 -10 5
v 1 -9 5
v 2 -10 5
v 2 -9 5
v 3 -10 5
v 3 -9 5
v 4 -10 5
v 4 -9 5
v 5 -10 5
v 6 -10 5
v 7 -10 5
v 7 -9 5
v 8 -9 5
v 8 -10 5
v -7 -1 5
v -7 -1 6
v -7 0 6
v -7 0 5
v -6 0 6
v -6 -1 6
v -5 0 6
v -4 -1 5
v -4 0 5
v -4 0 6
v -4 -1 6
v -5 -1 6
v -7 -2 6
v -6 -2 6
v -4 -2 6
v -5 -2 6
v 5 -2 5
v 5 -2 6
v 5 -1 6
v 5 -1 5
v 6 -2 5
v 6 -1 5
v 6 -1 6
v 6 -2 6
v -8 -3 5
v -8 -3 6
v -8 -2 6
v -8 -2 5
v -7 -3 6
v -3 -3 5
v -3 -2 5
v -3 -2 6
v -3 -3 6
v -4 -3 6
v 5 -3 6
v 6 -3 6
v -8 -4 6
v -7 -4 6
v -3 -4 6
v -4 -4 6
v 4 -4 5
v 4 -4 6
v 4 -3 6
v 4 -3 5
v 7 -4 5
v 7 -3 5
v 7 -3 6
v 7 -4 6
v -9 -5 5
v -9 -5 6
v -9 -4 6
v -9 -4 5
v -8 -5 6
v -2 -5 5
v -2 -4 5
v -2 -4 6
v -2 -5 6
v -3 -5 6
v 4 -5 5
v 4 -5 6
v 7 -5 5
v 7 -5 6
v -9 -6 5
v -9 -6 6
v -8 -6 6
v -2 -6 5
v -2 -6 6
v -3 -6 6
v 4 -6 5
v 4 -6 6
v 7 -6 5
v 7 -6 6
v -9 -7 5
v -9 -7 6
v -8 -7 6
v -2 -7 5
v -2 -7 6
v -3 -7 6
v 4 -7 5
v 4 -7 6
v 7 -7 5
v 7 -7 6
v -9 -8 5
v -9 -8 6
v -8 -8 6
v -2 -8 5
v -2 -8 6
v -3 -8 6
v 4 -8 5
v 4 -8 6
v 7 -8 5
v 7 -8 6
v -8 -9 6
v -7 -9 6
v -7 -8 6
v -3 -9 6
v -4 -9 6
v -4 -8 6
v 4 -9 6
v 7 -9 6
v -7 -10 6
v -6 -10 6
v -6 -9 6
v -5 -10 6
v -4 -10 6
v -3 -10 6
v -2 -10 6
v -2 -9 6
v -1 -10 6
v -1 -9 6
v 0 -10 6
v 0 -9 6
v 1 -10 6
v 1 -9 6
v 2 -10 6
v 2 -9 6
v 3 -10 6
v 3 -9 6
v 4 -10 6
v 5 -10 6
v 6 -10 6
v 7 -10 6
v 6 -9 6
v -6 -1 7
v -6 0 7
v -5 0 7
v -5 -1 7
v -6 -2 7
v -5 -2 7
v 4 -2 6
v 4 -2 7
v 4 -1 7
v 4 -1 6
v 5 -1 7
v 5 -2 7
v 6 -1 7
v 7 -2 6
v 7 -1 6
v 7 -1 7
v 7 -2 7
v 6 -2 7
v -7 -3 7
v -7 -2 7
v -6 -3 7
v -4 -2 7
v -4 -3 7
v -5 -3 7
v 4 -3 7
v 5 -3 7
v 7 -3 7
v 6 -3 7
v -7 -4 7
v -6 -4 7
v -4 -4 7
v -5 -4 7
v 3 -4 6
v 3 -4 7
v 3 -3 7
v 3 -3 6
v 4 -4 7
v 8 -4 6
v 8 -3 6
v 8 -3 7
v 8 -4 7
v 7 -4 7
v -8 -5 7
v -8 -4 7
v -7 -5 7
v -3 -4 7
v -3 -5 7
v -4 -5 7
v 3 -5 6
v 3 -5 7
v 4 -5 7
v 8 -5 6
v 8 -5 7
v 7 -5 7
v -8 -6 7
v -7 -6 7
v -3 -6 7
v -4 -6 7
v 3 -6 6
v 3 -6 7
v 4 -6 7
v 8 -6 6
v 8 -6 7
v 7 -6 7
v -8 -7 7
v -7 -7 7
v -3 -7 7
v -4 -7 7
v 3 -7 6
v 3 -7 7
v 4 -7 7
v 8 -7 6
v 8 -7 7
v 7 -7 7
v -8 -8 7
v -7 -8 7
v -3 -8 7
v -4 -8 7
v 3 -8 6
v 3 -8 7
v 4 -8 7
v 8 -8 6
v 8 -8 7
v 7 -8 7
v -7 -9 7
v -6 -9 7
v -6 -8 7
v -4 -9 7
v -5 -9 7
v -5 -8 7
v 3 -9 7
v 4 -9 7
v 7 -9 7
v 6 -9 7
v 8 -9 6
v 8 -9 7
v -6 -10 7
v -5 -10 7
v -4 -10 7
v -3 -10 7
v -3 -9 7
v -2 -10 7
v -2 -9 7
v -1 -10 7
v -1 -9 7
v 0 -10 7
v 0 -9 7
v 1 -10 7
v 1 -9 7
v 2 -10 7
v 2 -9 7
v 3 -10 7
v 4 -10 7
v 5 -10 7
v 6 -10 7
v 5 -9 7
v 5 -2 8
v 5 -1 8
v 6 -1 8
v 6 -2 8
v -6 -3 8
v -6 -2 8
v -5 -2 8
v -5 -3 8
v 5 -3 8
v 6 -3 8
v -6 -4 8
v -5 -4 8
v 4 -4 8
v 4 -3 8
v 5 -4 8
v 7 -3 8
v 7 -4 8
v 6 -4 8
v -7 -5 8
v -7 -4 8
v -6 -5 8
v -4 -4 8
v -4 -5 8
v -5 -5 8
v 4 -5 8
v 5 -5 8
v 7 -5 8
v 6 -5 8
v -7 -6 8
v -6 -6 8
v -4 -6 8
v -5 -6 8
v 4 -6 8
v 5 -6 8
v 7 -6 8
v 6 -6 8
v -7 -7 8
v -6 -7 8
v -4 -7 8
v -5 -7 8
v 4 -7 8
v 5 -7 8
v 7 -7 8
v 6 -7 8
v -7 -8 8
v -6 -8 8
v -4 -8 8
v -5 -8 8
v 4 -8 8
v 5 -8 8
v 7 -8 8
v 6 -8 8
v -6 -9 8
v -5 -9 8
v 4 -9 8
v 5 -9 8
v 6 -9 8
v 7 -9 8
v -5 -10 8
v -4 -10 8
v -4 -9 8
v -3 -10 8
v -3 -9 8
v -2 -10 8
v -2 -9 8
v -1 -10 8
v -1 -9 8
v 0 -10 8
v 0 -9 8
v 1 -10 8
v 1 -9 8
v 2 -10 8
v 2 -9 8
v 3 -10 8
v 3 -9 8
v 4 -10 8
v 5 -10 8
v 5 -4 9
v 5 -3 9
v 6 -3 9
v 6 -4 9
v -6 -5 9
v -6 -4 9
v -5 -4 9
v -5 -5 9
v 5 -5 9
v 6 -5 9
v -6 -6 9
v -5 -6 9
v 5 -6 9
v 6 -6 9
v -6 -7 9
v -5 -7 9
v 5 -7 9
v 6 -7 9
v -6 -8 9
v -5 -8 9
v 5 -8 9
v 6 -8 9
v 5 -9 9
v 6 -9 9
v -3 -10 9
v -3 -9 9
v -2 -10 9
v -2 -9 9
v -1 -10 9
v -1 -9 9
v 0 -10 9
v 0 -9 9
v 1 -10 9
v 1 -9 9
v 2 -10 9
v 2 -9 9
v 3 -9 9
v 3 -10 9
vn -1 0 0
vn 1 0 0
vn 0 -1 0
vn 0 1 0
vn 0 0 -1
vn 0 0 1
s off
g glyph_42
f 99//1 100//1 101//1 102//1
f 103//2 104//2 105//2 106//2
f 102//4 101//4 105//4 104//4
f 99//5 102//5 104//5 103//5
f 31//1 107//1 100//1 99//1
f 35//2 103//2 106//2 108//2
f 31//5 99//5 103//5 35//5
f 181//1 182//1 183//1 184//1
f 185//2 186//2 187//2 188//2
f 184//4 183//4 187//4 186//4
f 181//5 184//5 186//5 185//5
f 101//1 189//1 182//1 181//1
f 105//2 185//2 188//2 190//2
f 101//5 181//5 185//5 105//5
f 191//1 192//1 193//1 194//1
f 194//4 193//4 189//4 101//4
f 191//5 194//5 101//5 100//5
f 195//2 196//2 197//2 198//2
f 105//4 190//4 197//4 196//4
f 106//5 105//5 196//5 195//5
f 111//1 199//1 192//1 191//1
f 111//5 191//5 100//5 107//5
f 115//2 195//2 198//2 200//2
f 108//5 106//5 195//5 115//5
f 275//1 276//1 277//1 278//1
f 278//4 277//4 279//4 183//4
f 275//5 278//5 183//5 182//5
f 276//6 280//6 279//6 277//6
f 183//4 279//4 281//4 187//4
f 282//2 283//2 284//2 285//2
f 187//4 281//4 284//4 283//4
f 188//5 187//5 283//5 282//5
f 286//6 285//6 284//6 281//6
f 193//1 295//1 276//1 275//1
f 193//5 275//5 182//5 189//5
f 295//6 296//6 280//6 276//6
f 197//2 282//2 285//2 297//2
f 190//5 188//5 282//5 197//5
f 298//6 297//6 285//6 286//6
f 303//1 304//1 305//1 306//1
f 306//4 305//4 295//4 193//4
f 303//5 306//5 193//5 192//5
f 304//6 307//6 295//6 305//6
f 308//2 309//2 310//2 311//2
f 197//4 297//4 310//4 309//4
f 198//5 197//5 309//5 308//5
f 312//6 311//6 310//6 297//6
f 203//1 317//1 304//1 303//1
f 203//5 303//5 192//5 199//5
f 317//6 318//6 307//6 304//6
f 207//2 308//2 311//2 319//2
f 200//5 198//5 308//5 207//5
f 320//6 319//6 311//6 312//6
f 457//1 458//1 459//1 460//1
f 461//2 462//2 463//2 464//2
f 460//4 459//4 463//4 462//4
f 457//5 460//5 462//5 461//5
f 289//1 465//1 458//1 457//1
f 293//2 461//2 464//2 466//2
f 289//5 457//5 461//5 293//5
f 280//1 467//1 468//1 279//1
f 286//2 281//2 469//2 470//2
f 279//4 468//4 469//4 281//4
f 467//6 470//6 469//6 468//6
f 296//1 479//1 467//1 280//1
f 298//2 286//2 470//2 480//2
f 479//6 480//6 470//6 467//6
f 307//1 485//1 486//1 295//1
f 295//4 486//4 479//4 296//4
f 485//6 487//6 479//6 486//6
f 312//2 297//2 488//2 489//2
f 298//4 480//4 488//4 297//4
f 490//6 489//6 488//6 480//6
f 318//1 495//1 485//1 307//1
f 495//6 496//6 487//6 485//6
f 320//2 312//2 489//2 497//2
f 498//6 497//6 489//6 490//6
f 615//1 616//1 617//1 618//1
f 619//2 620//2 621//2 622//2
f 618//4 617//4 621//4 620//4
f 615//5 618//5 620//5 619//5
f 459//1 623//1 616//1 615//1
f 463//2 619//2 622//2 624//2
f 459//5 615//5 619//5 463//5
f 625//1 626//1 627//1 628//1
f 628//4 627//4 623//4 459//4
f 625//5 628//5 459//5 458//5
f 629//2 630//2 631//2 632//2
f 463//4 624//4 631//4 630//4
f 464//5 463//5 630//5 629//5
f 473//1 633//1 626//1 625//1
f 473//5 625//5 458//5 465//5
f 477//2 629//2 632//2 634//2
f 466//5 464//5 629//5 477//5
f 487//1 647//1 648//1 479//1
f 490//2 480//2 649//2 650//2
f 479//4 648//4 649//4 480//4
f 647//6 650//6 649//6 648//6
f 496//1 655//1 647//1 487//1
f 498//2 490//2 650//2 656//2
f 655//6 656//6 650//6 647//6
f 777//1 778//1 779//1 780//1
f 780//4 779//4 781//4 617//4
f 777//5 780//5 617//5 616//5
f 778//6 782//6 781//6 779//6
f 617//4 781//4 783//4 621//4
f 784//2 785//2 786//2 787//2
f 621//4 783//4 786//4 785//4
f 622//5 621//5 785//5 784//5
f 788//6 787//6 786//6 783//6
f 627//1 789//1 778//1 777//1
f 627//5 777//5 616//5 623//5
f 789//6 790//6 782//6 778//6
f 631//2 784//2 787//2 791//2
f 624//5 622//5 784//5 631//5
f 792//6 791//6 787//6 788//6
f 793//1 794//1 795//1 796//1
f 796//4 795//4 789//4 627//4
f 793//5 796//5 627//5 626//5
f 794//6 797//6 789//6 795//6
f 798//2 799//2 800//2 801//2
f 631//4 791//4 800//4 799//4
f 632//5 631//5 799//5 798//5
f 802//6 801//6 800//6 791//6
f 637//1 803//1 794//1 793//1
f 637//5 793//5 626//5 633//5
f 803//6 804//6 797//6 794//6
f 641//2 798//2 801//2 805//2
f 634//5 632//5 798//5 641//5
f 806//6 805//6 801//6 802//6
f 782//1 947//1 948//1 781//1
f 788//2 783//2 949//2 950//2
f 781//4 948//4 949//4 783//4
f 947//6 950//6 949//6 948//6
f 790//1 951//1 947//1 782//1
f 792//2 788//2 950//2 952//2
f 951//6 952//6 950//6 947//6
f 797//1 953//1 954//1 789//1
f 789//4 954//4 951//4 790//4
f 953//6 955//6 951//6 954//6
f 802//2 791//2 956//2 957//2
f 792//4 952//4 956//4 791//4
f 958//6 957//6 956//6 952//6
f 804//1 959//1 953//1 797//1
f 959//6 960//6 955//6 953//6
f 806//2 802//2 957//2 961//2
f 962//6 961//6 957//6 958//6
f 955//1 1057//1 1058//1 951//1
f 958//2 952//2 1059//2 1060//2
f 951//4 1058//4 1059//4 952//4
f 1057//6 1060//6 1059//6 1058//6
f 960//1 1061//1 1057//1 955//1
f 962//2 958//2 1060//2 1062//2
f 1061//6 1062//6 1060//6 1057//6
f 1279//1 1280//1 1281//1 1282//1
f 1283//2 1284//2 1285//2 1286//2
f 1282//4 1281//4 1285//4 1284//4
f 1279//5 1282//5 1284//5 1283//5
f 1223//1 1287//1 1280//1 1279//1
f 1227//2 1283//2 1286//2 1288//2
f 1223//5 1279//5 1283//5 1227//5
f 1345//1 1346//1 1347//1 1348//1
f 1349//2 1350//2 1351//2 1352//2
f 1348//4 1347//4 1351//4 1350//4
f 1345//5 1348//5 1350//5 1349//5
f 1281//1 1353//1 1346//1 1345//1
f 1285//2 1349//2 1352//2 1354//2
f 1281//5 1345//5 1349//5 1285//5
f 1355//1 1356//1 1357//1 1358//1
f 1358//4 1357//4 1353//4 1281//4
f 1355//5 1358//5 1281//5 1280//5
f 1359//2 1360//2 1361//2 1362//2
f 1285//4 1354//4 1361//4 1360//4
f 1286//5 1285//5 1360//5 1359//5
f 1291//1 1363//1 1356//1 1355//1
f 1291//5 1355//5 1280//5 1287//5
f 1295//2 1359//2 1362//2 1364//2
f 1288//5 1286//5 1359//5 1295//5
f 1365//1 1366//1 1367//1 1368//1
f 1369//2 1370//2 1371//2 1372//2
f 1368//4 1367//4 1371//4 1370//4
f 1365//5 1368//5 1370//5 1369//5
f 1381//1 1382//1 1366//1 1365//1
f 1383//2 1369//2 1372//2 1384//2
f 1381//5 1365//5 1369//5 1383//5
f 1443//1 1444//1 1445//1 1446//1
f 1446//4 1445//4 1447//4 1347//4
f 1443//5 1446//5 1347//5 1346//5
f 1444//6 1448//6 1447//6 1445//6
f 1347//4 1447//4 1449//4 1351//4
f 1450//2 1451//2 1452//2 1453//2
f 1351//4 1449//4 1452//4 1451//4
f 1352//5 1351//5 1451//5 1450//5
f 1454//6 1453//6 1452//6 1449//6
f 1357//1 1455//1 1444//1 1443//1
f 1357//5 1443//5 1346//5 1353//5
f 1455//6 1456//6 1448//6 1444//6
f 1361//2 1450//2 1453//2 1457//2
f 1354//5 1352//5 1450//5 1361//5
f 1458//6 1457//6 1453//6 1454//6
f 1459//1 1460//1 1461//1 1462//1
f 1463//2 1464//2 1465//2 1466//2
f 1462//4 1461//4 1465//4 1464//4
f 1459//5 1462//5 1464//5 1463//5
f 1467//1 1468//1 1469//1 1470//1
f 1470//4 1469//4 1455//4 1357//4
f 1467//5 1470//5 1357//5 1356//5
f 1468//6 1471//6 1455//6 1469//6
f 1472//2 1473//2 1474//2 1475//2
f 1361//4 1457//4 1474//4 1473//4
f 1362//5 1361//5 1473//5 1472//5
f 1476//6 1475//6 1474//6 1457//6
f 1367//1 1477//1 1460//1 1459//1
f 1371//2 1463//2 1466//2 1478//2
f 1367//5 1459//5 1463//5 1371//5
f 1375//1 1479//1 1468//1 1467//1
f 1375//5 1467//5 1356//5 1363//5
f 1479//6 1480//6 1471//6 1468//6
f 1379//2 1472//2 1475//2 1481//2
f 1364//5 1362//5 1472//5 1379//5
f 1482//6 1481//6 1475//6 1476//6
f 1483//1 1484//1 1485//1 1486//1
f 1486//4 1485//4 1477//4 1367//4
f 1483//5 1486//5 1367//5 1366//5
f 1487//2 1488//2 1489//2 1490//2
f 1371//4 1478//4 1489//4 1488//4
f 1372//5 1371//5 1488//5 1487//5
f 1501//1 1502//1 1484//1 1483//1
f 1501//5 1483//5 1366//5 1382//5
f 1503//2 1487//2 1490//2 1504//2
f 1384//5 1372//5 1487//5 1503//5
f 1448//1 1566//1 1567//1 1447//1
f 1454//2 1449//2 1568//2 1569//2
f 1447//4 1567//4 1568//4 1449//4
f 1566//6 1569//6 1568//6 1567//6
f 1456//1 1570//1 1566//1 1448//1
f 1458//2 1454//2 1569//2 1571//2
f 1570//6 1571//6 1569//6 1566//6
f 1572//1 1573//1 1574//1 1575//1
f 1575//4 1574//4 1576//4 1461//4
f 1572//5 1575//5 1461//5 1460//5
f 1573//6 1577//6 1576//6 1574//6
f 1461//4 1576//4 1578//4 1465//4
f 1579//2 1580//2 1581//2 1582//2
f 1465//4 1578//4 1581//4 1580//4
f 1466//5 1465//5 1580//5 1579//5
f 1583//6 1582//6 1581//6 1578//6
f 1471//1 1584//1 1585//1 1455//1
f 1455//4 1585//4 1570//4 1456//4
f 1584//6 1586//6 1570//6 1585//6
f 1476//2 1457//2 1587//2 1588//2
f 1458//4 1571//4 1587//4 1457//4
f 1589//6 1588//6 1587//6 1571//6
f 1485//1 1590//1 1573//1 1572//1
f 1485//5 1572//5 1460//5 1477//5
f 1590//6 1591//6 1577//6 1573//6
f 1489//2 1579//2 1582//2 1592//2
f 1478//5 1466//5 1579//5 1489//5
f 1593//6 1592//6 1582//6 1583//6
f 1480//1 1594//1 1584//1 1471//1
f 1594//6 1595//6 1586//6 1584//6
f 1482//2 1476//2 1588//2 1596//2
f 1597//6 1596//6 1588//6 1589//6
f 1598//1 1599//1 1600//1 1601//1
f 1601//4 1600//4 1590//4 1485//4
f 1598//5 1601//5 1485//5 1484//5
f 1599//6 1602//6 1590//6 1600//6
f 1603//2 1604//2 1605//2 1606//2
f 1489//4 1592//4 1605//4 1604//4
f 1490//5 1489//5 1604//5 1603//5
f 1607//6 1606//6 1605//6 1592//6
f 1614//1 1615//1 1599//1 1598//1
f 1614//5 1598//5 1484//5 1502//5
f 1615//6 1616//6 1602//6 1599//6
f 1617//2 1603//2 1606//2 1618//2
f 1504//5 1490//5 1603//5 1617//5
f 1619//6 1618//6 1606//6 1607//6
f 1577//1 1682//1 1683//1 1576//1
f 1583//2 1578//2 1684//2 1685//2
f 1576//4 1683//4 1684//4 1578//4
f 1682//6 1685//6 1684//6 1683//6
f 1586//1 1686//1 1687//1 1570//1
f 1589//2 1571//2 1688//2 1689//2
f 1570//4 1687//4 1688//4 1571//4
f 1686//6 1689//6 1688//6 1687//6
f 1591//1 1690//1 1682//1 1577//1
f 1593//2 1583//2 1685//2 1691//2
f 1690//6 1691//6 1685//6 1682//6
f 1595//1 1692//1 1686//1 1586//1
f 1597//2 1589//2 1689//2 1693//2
f 1692//6 1693//6 1689//6 1686//6
f 1602//1 1694//1 1695//1 1590//1
f 1590//4 1695//4 1690//4 1591//4
f 1694//6 1696//6 1690//6 1695//6
f 1607//2 1592//2 1697//2 1698//2
f 1593//4 1691//4 1697//4 1592//4
f 1699//6 1698//6 1697//6 1691//6
f 1616//1 1706//1 1694//1 1602//1
f 1706//6 1707//6 1696//6 1694//6
f 1619//2 1607//2 1698//2 1708//2
f 1709//6 1708//6 1698//6 1699//6
f 1696//1 1759//1 1760//1 1690//1
f 1699//2 1691//2 1761//2 1762//2
f 1690//4 1760//4 1761//4 1691//4
f 1759//6 1762//6 1761//6 1760//6
f 1707//1 1767//1 1759//1 1696//1
f 1709//2 1699//2 1762//2 1768//2
f 1767//6 1768//6 1762//6 1759//6
g glyph_43
f 29//1 30//1 31//1 32//1
f 33//2 34//2 35//2 36//2
f 32//4 31//4 35//4 34//4
f 29//5 32//5 34//5 33//5
f 37//1 38//1 30//1 29//1
f 39//2 33//2 36//2 40//2
f 37//5 29//5 33//5 39//5
f 41//1 42//1 38//1 37//1
f 43//2 39//2 40//2 44//2
f 41//5 37//5 39//5 43//5
f 45//1 46//1 42//1 41//1
f 47//2 43//2 44//2 48//2
f 45//5 41//5 43//5 47//5
f 49//1 50//1 46//1 45//1
f 51//2 47//2 48//2 52//2
f 49//5 45//5 47//5 51//5
f 53//1 54//1 50//1 49//1
f 55//2 51//2 52//2 56//2
f 53//5 49//5 51//5 55//5
f 57//1 58//1 54//1 53//1
f 59//2 55//2 56//2 60//2
f 57//5 53//5 55//5 59//5
f 61//1 62//1 58//1 57//1
f 63//2 59//2 60//2 64//2
f 61//5 57//5 59//5 63//5
f 65//1 66//1 62//1 61//1
f 67//2 63//2 64//2 68//2
f 65//3 67//3 68//3 66//3
f 65//5 61//5 63//5 67//5
f 113//2 114//2 115//2 116//2
f 35//4 108//4 115//4 114//4
f 36//5 35//5 114//5 113//5
f 119//2 113//2 116//2 120//2
f 40//5 36//5 113//5 119//5
f 123//2 119//2 120//2 124//2
f 44//5 40//5 119//5 123//5
f 127//2 123//2 124//2 128//2
f 48//5 44//5 123//5 127//5
f 131//2 127//2 128//2 132//2
f 52//5 48//5 127//5 131//5
f 135//2 131//2 132//2 136//2
f 56//5 52//5 131//5 135//5
f 139//2 135//2 136//2 140//2
f 60//5 56//5 135//5 139//5
f 143//2 139//2 140//2 144//2
f 64//5 60//5 139//5 143//5
f 148//2 143//2 144//2 149//2
f 68//3 148//3 149//3 150//3
f 68//5 64//5 143//5 148//5
f 151//1 152//1 147//1 66//1
f 71//2 68//2 150//2 153//2
f 151//5 66//5 68//5 71//5
f 205//2 206//2 207//2 208//2
f 115//4 200//4 207//4 206//4
f 116//5 115//5 206//5 205//5
f 211//2 205//2 208//2 212//2
f 120//5 116//5 205//5 211//5
f 215//2 211//2 212//2 216//2
f 124//5 120//5 211//5 215//5
f 219//2 215//2 216//2 220//2
f 128//5 124//5 215//5 219//5
f 223//2 219//2 220//2 224//2
f 132//5 128//5 219//5 223//5
f 227//2 223//2 224//2 228//2
f 136//5 132//5 223//5 227//5
f 231//2 227//2 228//2 232//2
f 140//5 136//5 227//5 231//5
f 235//2 231//2 232//2 236//2
f 144//5 140//5 231//5 235//5
f 240//2 235//2 236//2 241//2
f 149//3 240//3 241//3 242//3
f 149//5 144//5 235//5 240//5
f 158//2 149//2 242//2 245//2
f 153//5 150//5 149//5 158//5
f 287//1 288//1 289//1 290//1
f 291//2 292//2 293//2 294//2
f 290//4 289//4 293//4 292//4
f 287//5 290//5 292//5 291//5
f 299//1 300//1 288//1 287//1
f 301//2 291//2 294//2 302//2
f 299//5 287//5 291//5 301//5
f 313//1 314//1 300//1 299//1
f 315//2 301//2 302//2 316//2
f 313//5 299//5 301//5 315//5
f 321//1 322//1 314//1 313//1
f 323//2 315//2 316//2 324//2
f 321//5 313//5 315//5 323//5
f 330//2 331//2 332//2 333//2
f 207//4 319//4 332//4 331//4
f 208//5 207//5 331//5 330//5
f 334//6 333//6 332//6 319//6
f 335//1 336//1 322//1 321//1
f 337//2 323//2 324//2 338//2
f 335//5 321//5 323//5 337//5
f 342//2 330//2 333//2 343//2
f 212//5 208//5 330//5 342//5
f 344//6 343//6 333//6 334//6
f 345//1 346//1 336//1 335//1
f 347//2 337//2 338//2 348//2
f 345//5 335//5 337//5 347//5
f 352//2 342//2 343//2 353//2
f 216//5 212//5 342//5 352//5
f 354//6 353//6 343//6 344//6
f 355//1 356//1 346//1 345//1
f 357//2 347//2 348//2 358//2
f 355//5 345//5 347//5 357//5
f 362//2 352//2 353//2 363//2
f 220//5 216//5 352//5 362//5
f 364//6 363//6 353//6 354//6
f 365//1 366//1 356//1 355//1
f 367//2 357//2 358//2 368//2
f 365//5 355//5 357//5 367//5
f 372//2 362//2 363//2 373//2
f 224//5 220//5 362//5 372//5
f 374//6 373//6 363//6 364//6
f 375//1 376//1 366//1 365//1
f 377//2 367//2 368//2 378//2
f 375//5 365//5 367//5 377//5
f 382//2 372//2 373//2 383//2
f 228//5 224//5 372//5 382//5
f 384//6 383//6 373//6 374//6
f 385//1 386//1 376//1 375//1
f 387//2 377//2 378//2 388//2
f 385//5 375//5 377//5 387//5
f 392//2 382//2 383//2 393//2
f 232//5 228//5 382//5 392//5
f 394//6 393//6 383//6 384//6
f 395//1 396//1 386//1 385//1
f 397//2 387//2 388//2 398//2
f 395//5 385//5 387//5 397//5
f 402//2 392//2 393//2 403//2
f 236//5 232//5 392//5 402//5
f 404//6 403//6 393//6 394//6
f 405//1 406//1 396//1 395//1
f 407//2 397//2 398//2 408//2
f 405//5 395//5 397//5 407//5
f 412//2 402//2 403//2 413//2
f 241//3 412//3 413//3 414//3
f 241//5 236//5 402//5 412//5
f 414//6 413//6 403//6 404//6
f 415//1 416//1 406//1 405//1
f 417//2 407//2 408//2 418//2
f 415//3 417//3 418//3 416//3
f 415//5 405//5 407//5 417//5
f 252//2 241//2 414//2 423//2
f 245//5 242//5 241//5 252//5
f 424//6 423//6 414//6 425//6
f 475//2 476//2 477//2 478//2
f 293//4 466//4 477//4 476//4
f 294//5 293//5 476//5 475//5
f 483//2 475//2 478//2 484//2
f 302//5 294//5 475//5 483//5
f 493//2 483//2 484//2 494//2
f 316//5 302//5 483//5 493//5
f 501//2 493//2 494//2 502//2
f 324//5 316//5 493//5 501//5
f 334//2 319//2 506//2 507//2
f 320//4 497//4 506//4 319//4
f 508//6 507//6 506//6 497//6
f 511//2 501//2 502//2 512//2
f 338//5 324//5 501//5 511//5
f 344//2 334//2 507//2 515//2
f 516//6 515//6 507//6 508//6
f 519//2 511//2 512//2 520//2
f 348//5 338//5 511//5 519//5
f 354//2 344//2 515//2 523//2
f 524//6 523//6 515//6 516//6
f 527//2 519//2 520//2 528//2
f 358//5 348//5 519//5 527//5
f 364//2 354//2 523//2 531//2
f 532//6 531//6 523//6 524//6
f 535//2 527//2 528//2 536//2
f 368//5 358//5 527//5 535//5
f 374//2 364//2 531//2 539//2
f 540//6 539//6 531//6 532//6
f 543//2 535//2 536//2 544//2
f 378//5 368//5 535//5 543//5
f 384//2 374//2 539//2 547//2
f 548//6 547//6 539//6 540//6
f 551//2 543//2 544//2 552//2
f 388//5 378//5 543//5 551//5
f 394//2 384//2 547//2 555//2
f 556//6 555//6 547//6 548//6
f 559//2 551//2 552//2 560//2
f 398//5 388//5 551//5 559//5
f 404//2 394//2 555//2 563//2
f 564//6 563//6 555//6 556//6
f 567//2 559//2 560//2 568//2
f 408//5 398//5 559//5 567//5
f 414//2 404//2 563//2 571//2
f 425//3 414//3 571//3 572//3
f 572//6 571//6 563//6 564//6
f 576//2 567//2 568//2 577//2
f 418//3 576//3 577//3 578//3
f 418//5 408//5 567//5 576//5
f 424//2 425//2 572//2 582//2
f 583//6 582//6 572//6 584//6
f 448//1 585//1 575//1 416//1
f 450//2 418//2 578//2 586//2
f 448//5 416//5 418//5 450//5
f 639//2 640//2 641//2 642//2
f 477//4 634//4 641//4 640//4
f 478//5 477//5 640//5 639//5
f 645//2 639//2 642//2 646//2
f 484//5 478//5 639//5 645//5
f 653//2 645//2 646//2 654//2
f 494//5 484//5 645//5 653//5
f 659//2 653//2 654//2 660//2
f 502//5 494//5 653//5 659//5
f 508//2 497//2 664//2 665//2
f 498//4 656//4 664//4 497//4
f 666//6 665//6 664//6 656//6
f 669//2 659//2 660//2 670//2
f 512//5 502//5 659//5 669//5
f 516//2 508//2 665//2 673//2
f 674//6 673//6 665//6 666//6
f 677//2 669//2 670//2 678//2
f 520//5 512//5 669//5 677//5
f 524//2 516//2 673//2 681//2
f 682//6 681//6 673//6 674//6
f 685//2 677//2 678//2 686//2
f 528//5 520//5 677//5 685//5
f 532//2 524//2 681//2 689//2
f 690//6 689//6 681//6 682//6
f 693//2 685//2 686//2 694//2
f 536//5 528//5 685//5 693//5
f 540//2 532//2 689//2 697//2
f 698//6 697//6 689//6 690//6
f 701//2 693//2 694//2 702//2
f 544//5 536//5 693//5 701//5
f 548//2 540//2 697//2 705//2
f 706//6 705//6 697//6 698//6
f 709//2 701//2 702//2 710//2
f 552//5 544//5 701//5 709//5
f 556//2 548//2 705//2 713//2
f 714//6 713//6 705//6 706//6
f 717//2 709//2 710//2 718//2
f 560//5 552//5 709//5 717//5
f 564//2 556//2 713//2 721//2
f 722//6 721//6 713//6 714//6
f 725//2 717//2 718//2 726//2
f 568//5 560//5 717//5 725//5
f 572//2 564//2 721//2 729//2
f 584//3 572//3 729//3 730//3
f 730//6 729//6 721//6 722//6
f 734//2 725//2 726//2 735//2
f 577//3 734//3 735//3 736//3
f 577//5 568//5 725//5 734//5
f 580//1 737//1 728//1 581//1
f 583//2 584//2 730//2 738//2
f 737//6 738//6 730//6 728//6
f 612//2 577//2 736//2 740//2
f 586//5 578//5 577//5 612//5
f 812//2 813//2 814//2 815//2
f 641//4 805//4 814//4 813//4
f 642//5 641//5 813//5 812//5
f 816//6 815//6 814//6 805//6
f 820//2 812//2 815//2 821//2
f 646//5 642//5 812//5 820//5
f 822//6 821//6 815//6 816//6
f 826//2 820//2 821//2 827//2
f 654//5 646//5 820//5 826//5
f 828//6 827//6 821//6 822//6
f 832//2 826//2 827//2 833//2
f 660//5 654//5 826//5 832//5
f 834//6 833//6 827//6 828//6
f 663//1 835//1 836//1 655//1
f 666//2 656//2 837//2 838//2
f 655//4 836//4 837//4 656//4
f 835//6 838//6 837//6 836//6
f 842//2 832//2 833//2 843//2
f 670//5 660//5 832//5 842//5
f 844//6 843//6 833//6 834//6
f 672//1 845//1 835//1 663//1
f 674//2 666//2 838//2 846//2
f 845//6 846//6 838//6 835//6
f 850//2 842//2 843//2 851//2
f 678//5 670//5 842//5 850//5
f 852//6 851//6 843//6 844//6
f 680//1 853//1 845//1 672//1
f 682//2 674//2 846//2 854//2
f 853//6 854//6 846//6 845//6
f 858//2 850//2 851//2 859//2
f 686//5 678//5 850//5 858//5
f 860//6 859//6 851//6 852//6
f 688//1 861//1 853//1 680//1
f 690//2 682//2 854//2 862//2
f 861//6 862//6 854//6 853//6
f 866//2 858//2 859//2 867//2
f 694//5 686//5 858//5 866//5
f 868//6 867//6 859//6 860//6
f 696//1 869//1 861//1 688//1
f 698//2 690//2 862//2 870//2
f 869//6 870//6 862//6 861//6
f 874//2 866//2 867//2 875//2
f 702//5 694//5 866//5 874//5
f 876//6 875//6 867//6 868//6
f 704//1 877//1 869//1 696//1
f 706//2 698//2 870//2 878//2
f 877//6 878//6 870//6 869//6
f 882//2 874//2 875//2 883//2
f 710//5 702//5 874//5 882//5
f 884//6 883//6 875//6 876//6
f 712//1 885//1 877//1 704//1
f 714//2 706//2 878//2 886//2
f 885//6 886//6 878//6 877//6
f 890//2 882//2 883//2 891//2
f 718//5 710//5 882//5 890//5
f 892//6 891//6 883//6 884//6
f 720//1 893//1 885//1 712//1
f 722//2 714//2 886//2 894//2
f 893//6 894//6 886//6 885//6
f 898//2 890//2 891//2 899//2
f 726//5 718//5 890//5 898//5
f 900//6 899//6 891//6 892//6
f 728//1 901//1 893//1 720//1
f 730//2 722//2 894//2 902//2
f 728//3 730//3 902//3 901//3
f 901//6 902//6 894//6 893//6
f 906//2 898//2 899//2 907//2
f 735//3 906//3 907//3 908//3
f 735//5 726//5 898//5 906//5
f 908//6 907//6 899//6 900//6
f 772//2 735//2 908//2 912//2
f 740//5 736//5 735//5 772//5
f 913//6 912//6 908//6 914//6
f 816//2 805//2 966//2 967//2
f 806//4 961//4 966//4 805//4
f 968//6 967//6 966//6 961//6
f 822//2 816//2 967//2 971//2
f 972//6 971//6 967//6 968//6
f 828//2 822//2 971//2 975//2
f 976//6 975//6 971//6 972//6
f 834//2 828//2 975//2 979//2
f 980//6 979//6 975//6 976//6
f 844//2 834//2 979//2 983//2
f 984//6 983//6 979//6 980//6
f 852//2 844//2 983//2 987//2
f 988//6 987//6 983//6 984//6
f 860//2 852//2 987//2 991//2
f 992//6 991//6 987//6 988//6
f 868//2 860//2 991//2 995//2
f 996//6 995//6 991//6 992//6
f 876//2 868//2 995//2 999//2
f 1000//6 999//6 995//6 996//6
f 884//2 876//2 999//2 1003//2
f 1004//6 1003//6 999//6 1000//6
f 892//2 884//2 1003//2 1007//2
f 1008//6 1007//6 1003//6 1004//6
f 900//2 892//2 1007//2 1011//2
f 1012//6 1011//6 1007//6 1008//6
f 908//2 900//2 1011//2 1015//2
f 914//3 908//3 1015//3 1016//3
f 1016//6 1015//6 1011//6 1012//6
f 913//2 914//2 1016//2 1020//2
f 1021//6 1020//6 1016//6 1022//6
f 968//2 961//2 1066//2 1067//2
f 962//4 1062//4 1066//4 961//4
f 1068//6 1067//6 1066//6 1062//6
f 972//2 968//2 1067//2 1071//2
f 1072//6 1071//6 1067//6 1068//6
f 976//2 972//2 1071//2 1075//2
f 1076//6 1075//6 1071//6 1072//6
f 980//2 976//2 1075//2 1079//2
f 1080//6 1079//6 1075//6 1076//6
f 984//2 980//2 1079//2 1083//2
f 1084//6 1083//6 1079//6 1080//6
f 988//2 984//2 1083//2 1087//2
f 1088//6 1087//6 1083//6 1084//6
f 992//2 988//2 1087//2 1091//2
f 1092//6 1091//6 1087//6 1088//6
f 996//2 992//2 1091//2 1095//2
f 1096//6 1095//6 1091//6 1092//6
f 1000//2 996//2 1095//2 1099//2
f 1100//6 1099//6 1095//6 1096//6
f 1004//2 1000//2 1099//2 1103//2
f 1104//6 1103//6 1099//6 1100//6
f 1008//2 1004//2 1103//2 1107//2
f 1108//6 1107//6 1103//6 1104//6
f 1012//2 1008//2 1107//2 1111//2
f 1112//6 1111//6 1107//6 1108//6
f 1016//2 1012//2 1111//2 1115//2
f 1022//3 1016//3 1115//3 1116//3
f 1116//6 1115//6 1111//6 1112//6
f 1018//1 1117//1 1114//1 1019//1
f 1021//2 1022//2 1116//2 1118//2
f 1117//6 1118//6 1116//6 1114//6
f 1065//1 1155//1 1156//1 1061//1
f 1068//2 1062//2 1157//2 1158//2
f 1061//4 1156//4 1157//4 1062//4
f 1155//6 1158//6 1157//6 1156//6
f 1070//1 1159//1 1155//1 1065//1
f 1072//2 1068//2 1158//2 1160//2
f 1159//6 1160//6 1158//6 1155//6
f 1074//1 1161//1 1159//1 1070//1
f 1076//2 1072//2 1160//2 1162//2
f 1161//6 1162//6 1160//6 1159//6
f 1078//1 1163//1 1161//1 1074//1
f 1080//2 1076//2 1162//2 1164//2
f 1163//6 1164//6 1162//6 1161//6
f 1082//1 1165//1 1163//1 1078//1
f 1084//2 1080//2 1164//2 1166//2
f 1165//6 1166//6 1164//6 1163//6
f 1086//1 1167//1 1165//1 1082//1
f 1088//2 1084//2 1166//2 1168//2
f 1167//6 1168//6 1166//6 1165//6
f 1090//1 1169//1 1167//1 1086//1
f 1092//2 1088//2 1168//2 1170//2
f 1169//6 1170//6 1168//6 1167//6
f 1094//1 1171//1 1169//1 1090//1
f 1096//2 1092//2 1170//2 1172//2
f 1171//6 1172//6 1170//6 1169//6
f 1098//1 1173//1 1171//1 1094//1
f 1100//2 1096//2 1172//2 1174//2
f 1173//6 1174//6 1172//6 1171//6
f 1102//1 1175//1 1173//1 1098//1
f 1104//2 1100//2 1174//2 1176//2
f 1175//6 1176//6 1174//6 1173//6
f 1106//1 1177//1 1175//1 1102//1
f 1108//2 1104//2 1176//2 1178//2
f 1177//6 1178//6 1176//6 1175//6
f 1110//1 1179//1 1177//1 1106//1
f 1112//2 1108//2 1178//2 1180//2
f 1179//6 1180//6 1178//6 1177//6
f 1114//1 1181//1 1179//1 1110//1
f 1116//2 1112//2 1180//2 1182//2
f 1114//3 1116//3 1182//3 1181//3
f 1181//6 1182//6 1180//6 1179//6
f 1221//1 1222//1 1223//1 1224//1
f 1225//2 1226//2 1227//2 1228//2
f 1224//4 1223//4 1227//4 1226//4
f 1221//5 1224//5 1226//5 1225//5
f 1229//1 1230//1 1222//1 1221//1
f 1231//2 1225//2 1228//2 1232//2
f 1229//5 1221//5 1225//5 1231//5
f 1233//1 1234//1 1230//1 1229//1
f 1235//2 1231//2 1232//2 1236//2
f 1233//5 1229//5 1231//5 1235//5
f 1237//1 1238//1 1234//1 1233//1
f 1239//2 1235//2 1236//2 1240//2
f 1237//3 1239//3 1240//3 1238//3
f 1237//5 1233//5 1235//5 1239//5
f 1293//2 1294//2 1295//2 1296//2
f 1227//4 1288//4 1295//4 1294//4
f 1228//5 1227//5 1294//5 1293//5
f 1299//2 1293//2 1296//2 1300//2
f 1232//5 1228//5 1293//5 1299//5
f 1303//2 1299//2 1300//2 1304//2
f 1236//5 1232//5 1299//5 1303//5
f 1308//2 1303//2 1304//2 1309//2
f 1240//3 1308//3 1309//3 1310//3
f 1240//5 1236//5 1303//5 1308//5
f 1248//1 1311//1 1307//1 1238//1
f 1250//2 1240//2 1310//2 1312//2
f 1248//5 1238//5 1240//5 1250//5
f 1377//2 1378//2 1379//2 1380//2
f 1295//4 1364//4 1379//4 1378//4
f 1296//5 1295//5 1378//5 1377//5
f 1387//2 1377//2 1380//2 1388//2
f 1300//5 1296//5 1377//5 1387//5
f 1389//1 1390//1 1382//1 1381//1
f 1391//2 1383//2 1384//2 1392//2
f 1389//5 1381//5 1383//5 1391//5
f 1395//2 1387//2 1388//2 1396//2
f 1304//5 1300//5 1387//5 1395//5
f 1397//1 1398//1 1390//1 1389//1
f 1399//2 1391//2 1392//2 1400//2
f 1397//5 1389//5 1391//5 1399//5
f 1404//2 1395//2 1396//2 1405//2
f 1309//3 1404//3 1405//3 1406//3
f 1309//5 1304//5 1395//5 1404//5
f 1407//1 1408//1 1398//1 1397//1
f 1409//2 1399//2 1400//2 1410//2
f 1407//5 1397//5 1399//5 1409//5
f 1320//2 1309//2 1406//2 1412//2
f 1312//5 1310//5 1309//5 1320//5
f 1338//1 1413//1 1408//1 1407//1
f 1340//2 1409//2 1410//2 1414//2
f 1338//5 1407//5 1409//5 1340//5
f 1496//2 1497//2 1498//2 1499//2
f 1379//4 1481//4 1498//4 1497//4
f 1380//5 1379//5 1497//5 1496//5
f 1500//6 1499//6 1498//6 1481//6
f 1508//2 1496//2 1499//2 1509//2
f 1388//5 1380//5 1496//5 1508//5
f 1510//6 1509//6 1499//6 1500//6
f 1513//2 1503//2 1504//2 1514//2
f 1392//5 1384//5 1503//5 1513//5
f 1518//2 1508//2 1509//2 1519//2
f 1396//5 1388//5 1508//5 1518//5
f 1520//6 1519//6 1509//6 1510//6
f 1523//2 1513//2 1514//2 1524//2
f 1400//5 1392//5 1513//5 1523//5
f 1528//2 1518//2 1519//2 1529//2
f 1405//3 1528//3 1529//3 1530//3
f 1405//5 1396//5 1518//5 1528//5
f 1530//6 1529//6 1519//6 1520//6
f 1533//2 1523//2 1524//2 1534//2
f 1410//5 1400//5 1523//5 1533//5
f 1422//2 1405//2 1530//2 1538//2
f 1412//5 1406//5 1405//5 1422//5
f 1539//6 1538//6 1530//6 1540//6
f 1440//2 1533//2 1534//2 1542//2
f 1414//5 1410//5 1533//5 1440//5
f 1500//2 1481//2 1611//2 1612//2
f 1482//4 1596//4 1611//4 1481//4
f 1613//6 1612//6 1611//6 1596//6
f 1510//2 1500//2 1612//2 1622//2
f 1623//6 1622//6 1612//6 1613//6
f 1627//2 1617//2 1618//2 1628//2
f 1514//5 1504//5 1617//5 1627//5
f 1629//6 1628//6 1618//6 1619//6
f 1520//2 1510//2 1622//2 1632//2
f 1633//6 1632//6 1622//6 1623//6
f 1637//2 1627//2 1628//2 1638//2
f 1524//5 1514//5 1627//5 1637//5
f 1639//6 1638//6 1628//6 1629//6
f 1530//2 1520//2 1632//2 1642//2
f 1540//3 1530//3 1642//3 1643//3
f 1643//6 1642//6 1632//6 1633//6
f 1647//2 1637//2 1638//2 1648//2
f 1534//5 1524//5 1637//5 1647//5
f 1649//6 1648//6 1638//6 1639//6
f 1539//2 1540//2 1643//2 1653//2
f 1654//6 1653//6 1643//6 1655//6
f 1565//3 1542//3 1658//3 1659//3
f 1660//2 1647//2 1648//2 1661//2
f 1542//3 1660//3 1661//3 1658//3
f 1542//5 1534//5 1647//5 1660//5
f 1658//6 1661//6 1648//6 1649//6
f 1613//2 1596//2 1703//2 1704//2
f 1597//4 1693//4 1703//4 1596//4
f 1705//6 1704//6 1703//6 1693//6
f 1623//2 1613//2 1704//2 1712//2
f 1713//6 1712//6 1704//6 1705//6
f 1629//2 1619//2 1708//2 1716//2
f 1717//6 1716//6 1708//6 1709//6
f 1633//2 1623//2 1712//2 1720//2
f 1721//6 1720//6 1712//6 1713//6
f 1639//2 1629//2 1716//2 1724//2
f 1725//6 1724//6 1716//6 1717//6
f 1643//2 1633//2 1720//2 1728//2
f 1655//3 1643//3 1728//3 1729//3
f 1729//6 1728//6 1720//6 1721//6
f 1649//2 1639//2 1724//2 1732//2
f 1733//6 1732//6 1724//6 1725//6
f 1651//1 1734//1 1727//1 1652//1
f 1654//2 1655//2 1729//2 1735//2
f 1651//3 1654//3 1735//3 1734//3
f 1734//6 1735//6 1729//6 1727//6
f 1681//3 1659//3 1738//3 1737//3
f 1658//2 1649//2 1732//2 1739//2
f 1659//3 1658//3 1739//3 1738//3
f 1738//6 1739//6 1732//6 1733//6
f 1702//1 1763//1 1764//1 1692//1
f 1705//2 1693//2 1765//2 1766//2
f 1692//4 1764//4 1765//4 1693//4
f 1763//6 1766//6 1765//6 1764//6
f 1711//1 1769//1 1763//1 1702//1
f 1713//2 1705//2 1766//2 1770//2
f 1769//6 1770//6 1766//6 1763//6
f 1715//1 1771//1 1767//1 1707//1
f 1717//2 1709//2 1768//2 1772//2
f 1771//6 1772//6 1768//6 1767//6
f 1719//1 1773//1 1769//1 1711//1
f 1721//2 1713//2 1770//2 1774//2
f 1773//6 1774//6 1770//6 1769//6
f 1723//1 1775//1 1771//1 1715//1
f 1725//2 1717//2 1772//2 1776//2
f 1775//6 1776//6 1772//6 1771//6
f 1727//1 1777//1 1773//1 1719//1
f 1729//2 1721//2 1774//2 1778//2
f 1727//3 1729//3 1778//3 1777//3
f 1777//6 1778//6 1774//6 1773//6
f 1731//1 1779//1 1775//1 1723//1
f 1733//2 1725//2 1776//2 1780//2
f 1779//6 1780//6 1776//6 1775//6
f 1737//1 1781//1 1779//1 1731//1
f 1738//2 1733//2 1780//2 1782//2
f 1737//3 1738//3 1782//3 1781//3
f 1781//6 1782//6 1780//6 1779//6
g glyph_58
f 1//1 2//1 3//1 4//1
f 1//3 5//3 6//3 2//3
f 4//4 3//4 7//4 8//4
f 1//5 4//5 8//5 5//5
f 5//3 9//3 10//3 6//3
f 8//4 7//4 11//4 12//4
f 5//5 8//5 12//5 9//5
f 9//3 13//3 14//3 10//3
f 12//4 11//4 15//4 16//4
f 9//5 12//5 16//5 13//5
f 13//3 17//3 18//3 14//3
f 16//4 15//4 19//4 20//4
f 13//5 16//5 20//5 17//5
f 17//3 21//3 22//3 18//3
f 20//4 19//4 23//4 24//4
f 17//5 20//5 24//5 21//5
f 25//2 26//2 27//2 28//2
f 21//3 25//3 28//3 22//3
f 24//4 23//4 27//4 26//4
f 21//5 24//5 26//5 25//5
f 69//1 70//1 71//1 72//1
f 69//3 73//3 74//3 70//3
f 72//4 71//4 75//4 76//4
f 69//5 72//5 76//5 73//5
f 73//3 2//3 77//3 74//3
f 76//4 75//4 78//4 3//4
f 73//5 76//5 3//5 2//5
f 2//3 6//3 79//3 77//3
f 3//4 78//4 80//4 7//4
f 6//3 10//3 81//3 79//3
f 7//4 80//4 82//4 11//4
f 10//3 14//3 83//3 81//3
f 11//4 82//4 84//4 15//4
f 14//3 18//3 85//3 83//3
f 15//4 84//4 86//4 19//4
f 18//3 22//3 87//3 85//3
f 19//4 86//4 88//4 23//4
f 22//3 28//3 89//3 87//3
f 23//4 88//4 90//4 27//4
f 28//3 91//3 92//3 89//3
f 27//4 90//4 93//4 94//4
f 28//5 27//5 94//5 91//5
f 95//2 96//2 97//2 98//2
f 91//3 95//3 98//3 92//3
f 94//4 93//4 97//4 96//4
f 91//5 94//5 96//5 95//5
f 154//1 155//1 152//1 151//1
f 154//3 70//3 156//3 155//3
f 154//5 151//5 71//5 70//5
f 70//3 74//3 157//3 156//3
f 71//4 153//4 158//4 75//4
f 74//3 77//3 159//3 157//3
f 75//4 158//4 160//4 78//4
f 77//3 79//3 161//3 159//3
f 78//4 160//4 162//4 80//4
f 79//3 81//3 163//3 161//3
f 80//4 162//4 164//4 82//4
f 81//3 83//3 165//3 163//3
f 82//4 164//4 166//4 84//4
f 83//3 85//3 167//3 165//3
f 84//4 166//4 168//4 86//4
f 85//3 87//3 169//3 167//3
f 86//4 168//4 170//4 88//4
f 87//3 89//3 171//3 169//3
f 88//4 170//4 172//4 90//4
f 89//3 92//3 173//3 171//3
f 90//4 172//4 174//4 93//4
f 92//3 98//3 175//3 173//3
f 93//4 174//4 176//4 97//4
f 177//2 178//2 179//2 180//2
f 98//3 177//3 180//3 175//3
f 97//4 176//4 179//4 178//4
f 98//5 97//5 178//5 177//5
f 246//1 247//1 244//1 243//1
f 246//3 155//3 248//3 247//3
f 246//5 243//5 152//5 155//5
f 155//3 156//3 249//3 248//3
f 156//3 157//3 250//3 249//3
f 157//3 159//3 251//3 250//3
f 158//4 245//4 252//4 160//4
f 159//3 161//3 253//3 251//3
f 160//4 252//4 254//4 162//4
f 161//3 163//3 255//3 253//3
f 162//4 254//4 256//4 164//4
f 163//3 165//3 257//3 255//3
f 164//4 256//4 258//4 166//4
f 165//3 167//3 259//3 257//3
f 166//4 258//4 260//4 168//4
f 167//3 169//3 261//3 259//3
f 168//4 260//4 262//4 170//4
f 169//3 171//3 263//3 261//3
f 170//4 262//4 264//4 172//4
f 171//3 173//3 265//3 263//3
f 172//4 264//4 266//4 174//4
f 173//3 175//3 267//3 265//3
f 174//4 266//4 268//4 176//4
f 175//3 180//3 269//3 267//3
f 176//4 268//4 270//4 179//4
f 271//2 272//2 273//2 274//2
f 180//3 271//3 274//3 269//3
f 179//4 270//4 273//4 272//4
f 180//5 179//5 272//5 271//5
f 426//1 427//1 420//1 419//1
f 426//3 247//3 428//3 427//3
f 426//5 419//5 244//5 247//5
f 247//3 248//3 429//3 428//3
f 248//3 249//3 430//3 429//3
f 249//3 250//3 431//3 430//3
f 250//3 251//3 432//3 431//3
f 251//3 253//3 433//3 432//3
f 252//4 423//4 434//4 254//4
f 253//3 255//3 435//3 433//3
f 254//4 434//4 436//4 256//4
f 255//3 257//3 437//3 435//3
f 256//4 436//4 438//4 258//4
f 257//3 259//3 439//3 437//3
f 258//4 438//4 440//4 260//4
f 259//3 261//3 441//3 439//3
f 260//4 440//4 442//4 262//4
f 261//3 263//3 443//3 441//3
f 262//4 442//4 444//4 264//4
f 263//3 265//3 445//3 443//3
f 264//4 444//4 446//4 266//4
f 265//3 267//3 447//3 445//3
f 266//4 446//4 448//4 268//4
f 267//3 269//3 449//3 447//3
f 268//4 448//4 450//4 270//4
f 269//3 274//3 451//3 449//3
f 270//4 450//4 452//4 273//4
f 453//2 454//2 455//2 456//2
f 274//3 453//3 456//3 451//3
f 273//4 452//4 455//4 454//4
f 274//5 273//5 454//5 453//5
f 427//1 587//1 588//1 420//1
f 427//3 428//3 589//3 587//3
f 420//4 588//4 579//4 421//4
f 428//3 429//3 590//3 589//3
f 429//3 430//3 591//3 590//3
f 430//3 431//3 592//3 591//3
f 431//3 432//3 593//3 592//3
f 424//4 582//4 594//4 423//4
f 432//3 433//3 595//3 593//3
f 423//4 594//4 596//4 434//4
f 433//3 435//3 597//3 595//3
f 434//4 596//4 598//4 436//4
f 435//3 437//3 599//3 597//3
f 436//4 598//4 600//4 438//4
f 437//3 439//3 601//3 599//3
f 438//4 600//4 602//4 440//4
f 439//3 441//3 603//3 601//3
f 440//4 602//4 604//4 442//4
f 441//3 443//3 605//3 603//3
f 442//4 604//4 606//4 444//4
f 443//3 445//3 607//3 605//3
f 444//4 606//4 608//4 446//4
f 445//3 447//3 609//3 607//3
f 446//4 608//4 585//4 448//4
f 447//3 449//3 610//3 609//3
f 449//3 451//3 611//3 610//3
f 450//4 586//4 612//4 452//4
f 456//2 455//2 613//2 614//2
f 451//3 456//3 614//3 611//3
f 452//4 612//4 613//4 455//4
f 741//1 742//1 743//1 744//1
f 741//3 587//3 745//3 742//3
f 744//4 743//4 746//4 588//4
f 741//5 744//5 588//5 587//5
f 587//3 589//3 747//3 745//3
f 588//4 746//4 748//4 579//4
f 589//3 590//3 749//3 747//3
f 579//4 748//4 737//4 580//4
f 590//3 591//3 750//3 749//3
f 591//3 592//3 751//3 750//3
f 583//4 738//4 752//4 582//4
f 592//3 593//3 753//3 751//3
f 582//4 752//4 754//4 594//4
f 593//3 595//3 755//3 753//3
f 594//4 754//4 756//4 596//4
f 595//3 597//3 757//3 755//3
f 596//4 756//4 758//4 598//4
f 597//3 599//3 759//3 757//3
f 598//4 758//4 760//4 600//4
f 599//3 601//3 761//3 759//3
f 600//4 760//4 762//4 602//4
f 601//3 603//3 763//3 761//3
f 602//4 762//4 764//4 604//4
f 603//3 605//3 765//3 763//3
f 604//4 764//4 766//4 606//4
f 605//3 607//3 767//3 765//3
f 606//4 766//4 739//4 608//4
f 607//3 609//3 768//3 767//3
f 609//3 610//3 769//3 768//3
f 610//3 611//3 770//3 769//3
f 611//3 614//3 771//3 770//3
f 612//4 740//4 772//4 613//4
f 773//2 774//2 775//2 776//2
f 614//3 773//3 776//3 771//3
f 613//4 772//4 775//4 774//4
f 614//5 613//5 774//5 773//5
f 742//1 915//1 916//1 743//1
f 742//3 745//3 917//3 915//3
f 743//4 916//4 918//4 746//4
f 745//3 747//3 919//3 917//3
f 746//4 918//4 920//4 748//4
f 747//3 749//3 921//3 919//3
f 748//4 920//4 922//4 737//4
f 749//3 750//3 923//3 921//3
f 737//4 922//4 924//4 738//4
f 750//3 751//3 925//3 923//3
f 738//4 924//4 926//4 752//4
f 751//3 753//3 927//3 925//3
f 752//4 926//4 928//4 754//4
f 753//3 755//3 929//3 927//3
f 754//4 928//4 930//4 756//4
f 755//3 757//3 931//3 929//3
f 756//4 930//4 932//4 758//4
f 757//3 759//3 933//3 931//3
f 758//4 932//4 934//4 760//4
f 759//3 761//3 935//3 933//3
f 760//4 934//4 936//4 762//4
f 761//3 763//3 937//3 935//3
f 762//4 936//4 938//4 764//4
f 763//3 765//3 939//3 937//3
f 764//4 938//4 909//4 766//4
f 765//3 767//3 940//3 939//3
f 767//3 768//3 941//3 940//3
f 768//3 769//3 942//3 941//3
f 769//3 770//3 943//3 942//3
f 770//3 771//3 944//3 943//3
f 776//2 775//2 945//2 946//2
f 771//3 776//3 946//3 944//3
f 772//4 912//4 945//4 775//4
f 915//1 1023//1 1024//1 916//1
f 915//3 917//3 1025//3 1023//3
f 916//4 1024//4 1026//4 918//4
f 917//3 919//3 1027//3 1025//3
f 918//4 1026//4 1028//4 920//4
f 919//3 921//3 1029//3 1027//3
f 920//4 1028//4 1030//4 922//4
f 921//3 923//3 1031//3 1029//3
f 922//4 1030//4 1032//4 924//4
f 923//3 925//3 1033//3 1031//3
f 924//4 1032//4 1034//4 926//4
f 925//3 927//3 1035//3 1033//3
f 926//4 1034//4 1036//4 928//4
f 927//3 929//3 1037//3 1035//3
f 928//4 1036//4 1038//4 930//4
f 929//3 931//3 1039//3 1037//3
f 930//4 1038//4 1040//4 932//4
f 931//3 933//3 1041//3 1039//3
f 932//4 1040//4 1042//4 934//4
f 933//3 935//3 1043//3 1041//3
f 934//4 1042//4 1044//4 936//4
f 935//3 937//3 1045//3 1043//3
f 936//4 1044//4 1046//4 938//4
f 937//3 939//3 1047//3 1045//3
f 938//4 1046//4 1048//4 909//4
f 939//3 940//3 1049//3 1047//3
f 909//4 1048//4 1017//4 910//4
f 940//3 941//3 1050//3 1049//3
f 941//3 942//3 1051//3 1050//3
f 942//3 943//3 1052//3 1051//3
f 943//3 944//3 1053//3 1052//3
f 913//4 1020//4 1054//4 912//4
f 946//2 945//2 1055//2 1056//2
f 944//3 946//3 1056//3 1053//3
f 912//4 1054//4 1055//4 945//4
f 1023//1 1119//1 1120//1 1024//1
f 1023//3 1025//3 1121//3 1119//3
f 1024//4 1120//4 1122//4 1026//4
f 1025//3 1027//3 1123//3 1121//3
f 1026//4 1122//4 1124//4 1028//4
f 1027//3 1029//3 1125//3 1123//3
f 1028//4 1124//4 1126//4 1030//4
f 1029//3 1031//3 1127//3 1125//3
f 1030//4 1126//4 1128//4 1032//4
f 1031//3 1033//3 1129//3 1127//3
f 1032//4 1128//4 1130//4 1034//4
f 1033//3 1035//3 1131//3 1129//3
f 1034//4 1130//4 1132//4 1036//4
f 1035//3 1037//3 1133//3 1131//3
f 1036//4 1132//4 1134//4 1038//4
f 1037//3 1039//3 1135//3 1133//3
f 1038//4 1134//4 1136//4 1040//4
f 1039//3 1041//3 1137//3 1135//3
f 1040//4 1136//4 1138//4 1042//4
f 1041//3 1043//3 1139//3 1137//3
f 1042//4 1138//4 1140//4 1044//4
f 1043//3 1045//3 1141//3 1139//3
f 1044//4 1140//4 1142//4 1046//4
f 1045//3 1047//3 1143//3 1141//3
f 1046//4 1142//4 1144//4 1048//4
f 1047//3 1049//3 1145//3 1143//3
f 1048//4 1144//4 1146//4 1017//4
f 1049//3 1050//3 1147//3 1145//3
f 1017//4 1146//4 1117//4 1018//4
f 1050//3 1051//3 1148//3 1147//3
f 1051//3 1052//3 1149//3 1148//3
f 1021//4 1118//4 1150//4 1020//4
f 1052//3 1053//3 1151//3 1149//3
f 1020//4 1150//4 1152//4 1054//4
f 1056//2 1055//2 1153//2 1154//2
f 1053//3 1056//3 1154//3 1151//3
f 1054//4 1152//4 1153//4 1055//4
f 1119//1 1183//1 1184//1 1120//1
f 1119//3 1121//3 1185//3 1183//3
f 1120//4 1184//4 1186//4 1122//4
f 1121//3 1123//3 1187//3 1185//3
f 1122//4 1186//4 1188//4 1124//4
f 1123//3 1125//3 1189//3 1187//3
f 1124//4 1188//4 1190//4 1126//4
f 1125//3 1127//3 1191//3 1189//3
f 1126//4 1190//4 1192//4 1128//4
f 1127//3 1129//3 1193//3 1191//3
f 1128//4 1192//4 1194//4 1130//4
f 1129//3 1131//3 1195//3 1193//3
f 1130//4 1194//4 1196//4 1132//4
f 1131//3 1133//3 1197//3 1195//3
f 1132//4 1196//4 1198//4 1134//4
f 1133//3 1135//3 1199//3 1197//3
f 1134//4 1198//4 1200//4 1136//4
f 1135//3 1137//3 1201//3 1199//3
f 1136//4 1200//4 1202//4 1138//4
f 1137//3 1139//3 1203//3 1201//3
f 1138//4 1202//4 1204//4 1140//4
f 1139//3 1141//3 1205//3 1203//3
f 1140//4 1204//4 1206//4 1142//4
f 1141//3 1143//3 1207//3 1205//3
f 1142//4 1206//4 1208//4 1144//4
f 1143//3 1145//3 1209//3 1207//3
f 1144//4 1208//4 1210//4 1146//4
f 1145//3 1147//3 1211//3 1209//3
f 1146//4 1210//4 1212//4 1117//4
f 1147//3 1148//3 1213//3 1211//3
f 1117//4 1212//4 1214//4 1118//4
f 1148//3 1149//3 1215//3 1213//3
f 1118//4 1214//4 1216//4 1150//4
f 1149//3 1151//3 1217//3 1215//3
f 1150//4 1216//4 1218//4 1152//4
f 1154//2 1153//2 1219//2 1220//2
f 1151//3 1154//3 1220//3 1217//3
f 1152//4 1218//4 1219//4 1153//4
f 1183//1 1241//1 1242//1 1184//1
f 1183//3 1185//3 1243//3 1241//3
f 1184//4 1242//4 1244//4 1186//4
f 1241//6 1243//6 1244//6 1242//6
f 1185//3 1187//3 1245//3 1243//3
f 1186//4 1244//4 1246//4 1188//4
f 1187//3 1189//3 1247//3 1245//3
f 1188//4 1246//4 1248//4 1190//4
f 1189//3 1191//3 1249//3 1247//3
f 1190//4 1248//4 1250//4 1192//4
f 1191//3 1193//3 1251//3 1249//3
f 1192//4 1250//4 1252//4 1194//4
f 1193//3 1195//3 1253//3 1251//3
f 1194//4 1252//4 1254//4 1196//4
f 1195//3 1197//3 1255//3 1253//3
f 1196//4 1254//4 1256//4 1198//4
f 1197//3 1199//3 1257//3 1255//3
f 1198//4 1256//4 1258//4 1200//4
f 1199//3 1201//3 1259//3 1257//3
f 1200//4 1258//4 1260//4 1202//4
f 1201//3 1203//3 1261//3 1259//3
f 1202//4 1260//4 1262//4 1204//4
f 1203//3 1205//3 1263//3 1261//3
f 1204//4 1262//4 1264//4 1206//4
f 1205//3 1207//3 1265//3 1263//3
f 1206//4 1264//4 1266//4 1208//4
f 1207//3 1209//3 1267//3 1265//3
f 1208//4 1266//4 1268//4 1210//4
f 1209//3 1211//3 1269//3 1267//3
f 1210//4 1268//4 1270//4 1212//4
f 1211//3 1213//3 1271//3 1269//3
f 1212//4 1270//4 1272//4 1214//4
f 1213//3 1215//3 1273//3 1271//3
f 1214//4 1272//4 1274//4 1216//4
f 1215//3 1217//3 1275//3 1273//3
f 1216//4 1274//4 1276//4 1218//4
f 1220//2 1219//2 1277//2 1278//2
f 1217//3 1220//3 1278//3 1275//3
f 1218//4 1276//4 1277//4 1219//4
f 1275//6 1278//6 1277//6 1276//6
f 1243//1 1313//1 1314//1 1244//1
f 1243//3 1245//3 1315//3 1313//3
f 1244//4 1314//4 1316//4 1246//4
f 1245//3 1247//3 1317//3 1315//3
f 1246//4 1316//4 1311//4 1248//4
f 1247//3 1249//3 1318//3 1317//3
f 1249//3 1251//3 1319//3 1318//3
f 1250//4 1312//4 1320//4 1252//4
f 1251//3 1253//3 1321//3 1319//3
f 1252//4 1320//4 1322//4 1254//4
f 1253//3 1255//3 1323//3 1321//3
f 1254//4 1322//4 1324//4 1256//4
f 1255//3 1257//3 1325//3 1323//3
f 1256//4 1324//4 1326//4 1258//4
f 1257//3 1259//3 1327//3 1325//3
f 1258//4 1326//4 1328//4 1260//4
f 1259//3 1261//3 1329//3 1327//3
f 1260//4 1328//4 1330//4 1262//4
f 1261//3 1263//3 1331//3 1329//3
f 1262//4 1330//4 1332//4 1264//4
f 1263//3 1265//3 1333//3 1331//3
f 1264//4 1332//4 1334//4 1266//4
f 1265//3 1267//3 1335//3 1333//3
f 1266//4 1334//4 1336//4 1268//4
f 1267//3 1269//3 1337//3 1335//3
f 1268//4 1336//4 1338//4 1270//4
f 1269//3 1271//3 1339//3 1337//3
f 1270//4 1338//4 1340//4 1272//4
f 1271//3 1273//3 1341//3 1339//3
f 1272//4 1340//4 1342//4 1274//4
f 1275//2 1276//2 1343//2 1344//2
f 1273//3 1275//3 1344//3 1341//3
f 1274//4 1342//4 1343//4 1276//4
f 1313//1 1415//1 1416//1 1314//1
f 1313//3 1315//3 1417//3 1415//3
f 1314//4 1416//4 1411//4 1316//4
f 1415//6 1417//6 1411//6 1416//6
f 1315//3 1317//3 1418//3 1417//3
f 1317//3 1318//3 1419//3 1418//3
f 1318//3 1319//3 1420//3 1419//3
f 1319//3 1321//3 1421//3 1420//3
f 1320//4 1412//4 1422//4 1322//4
f 1321//3 1323//3 1423//3 1421//3
f 1322//4 1422//4 1424//4 1324//4
f 1323//3 1325//3 1425//3 1423//3
f 1324//4 1424//4 1426//4 1326//4
f 1325//3 1327//3 1427//3 1425//3
f 1326//4 1426//4 1428//4 1328//4
f 1327//3 1329//3 1429//3 1427//3
f 1328//4 1428//4 1430//4 1330//4
f 1329//3 1331//3 1431//3 1429//3
f 1330//4 1430//4 1432//4 1332//4
f 1331//3 1333//3 1433//3 1431//3
f 1332//4 1432//4 1434//4 1334//4
f 1333//3 1335//3 1435//3 1433//3
f 1334//4 1434//4 1436//4 1336//4
f 1335//3 1337//3 1437//3 1435//3
f 1336//4 1436//4 1413//4 1338//4
f 1337//3 1339//3 1438//3 1437//3
f 1339//3 1341//3 1439//3 1438//3
f 1340//4 1414//4 1440//4 1342//4
f 1344//2 1343//2 1441//2 1442//2
f 1341//3 1344//3 1442//3 1439//3
f 1342//4 1440//4 1441//4 1343//4
f 1439//6 1442//6 1441//6 1440//6
f 1417//1 1543//1 1536//1 1411//1
f 1417//3 1418//3 1544//3 1543//3
f 1543//6 1544//6 1545//6 1536//6
f 1418//3 1419//3 1546//3 1544//3
f 1419//3 1420//3 1547//3 1546//3
f 1420//3 1421//3 1548//3 1547//3
f 1421//3 1423//3 1549//3 1548//3
f 1422//4 1538//4 1550//4 1424//4
f 1423//3 1425//3 1551//3 1549//3
f 1424//4 1550//4 1552//4 1426//4
f 1425//3 1427//3 1553//3 1551//3
f 1426//4 1552//4 1554//4 1428//4
f 1427//3 1429//3 1555//3 1553//3
f 1428//4 1554//4 1556//4 1430//4
f 1429//3 1431//3 1557//3 1555//3
f 1430//4 1556//4 1558//4 1432//4
f 1431//3 1433//3 1559//3 1557//3
f 1432//4 1558//4 1560//4 1434//4
f 1433//3 1435//3 1561//3 1559//3
f 1434//4 1560//4 1541//4 1436//4
f 1435//3 1437//3 1562//3 1561//3
f 1437//3 1438//3 1563//3 1562//3
f 1439//2 1440//2 1542//2 1564//2
f 1438//3 1439//3 1564//3 1563//3
f 1563//6 1564//6 1542//6 1565//6
f 1544//1 1662//1 1651//1 1545//1
f 1544//3 1546//3 1663//3 1662//3
f 1662//6 1663//6 1654//6 1651//6
f 1546//3 1547//3 1664//3 1663//3
f 1547//3 1548//3 1665//3 1664//3
f 1539//4 1653//4 1666//4 1538//4
f 1548//3 1549//3 1667//3 1665//3
f 1538//4 1666//4 1668//4 1550//4
f 1549//3 1551//3 1669//3 1667//3
f 1550//4 1668//4 1670//4 1552//4
f 1551//3 1553//3 1671//3 1669//3
f 1552//4 1670//4 1672//4 1554//4
f 1553//3 1555//3 1673//3 1671//3
f 1554//4 1672//4 1674//4 1556//4
f 1555//3 1557//3 1675//3 1673//3
f 1556//4 1674//4 1676//4 1558//4
f 1557//3 1559//3 1677//3 1675//3
f 1558//4 1676//4 1656//4 1560//4
f 1559//3 1561//3 1678//3 1677//3
f 1561//3 1562//3 1679//3 1678//3
f 1563//2 1565//2 1659//2 1680//2
f 1562//3 1563//3 1680//3 1679//3
f 1679//6 1680//6 1659//6 1681//6
f 1663//1 1740//1 1735//1 1654//1
f 1663//3 1664//3 1741//3 1740//3
f 1654//4 1735//4 1742//4 1653//4
f 1740//6 1741//6 1742//6 1735//6
f 1664//3 1665//3 1743//3 1741//3
f 1653//4 1742//4 1744//4 1666//4
f 1741//6 1743//6 1744//6 1742//6
f 1665//3 1667//3 1745//3 1743//3
f 1666//4 1744//4 1746//4 1668//4
f 1667//3 1669//3 1747//3 1745//3
f 1668//4 1746//4 1748//4 1670//4
f 1669//3 1671//3 1749//3 1747//3
f 1670//4 1748//4 1750//4 1672//4
f 1671//3 1673//3 1751//3 1749//3
f 1672//4 1750//4 1752//4 1674//4
f 1673//3 1675//3 1753//3 1751//3
f 1674//4 1752//4 1754//4 1676//4
f 1675//3 1677//3 1755//3 1753//3
f 1676//4 1754//4 1756//4 1656//4
f 1677//3 1678//3 1757//3 1755//3
f 1656//4 1756//4 1736//4 1657//4
f 1755//6 1757//6 1736//6 1756//6
f 1679//2 1681//2 1737//2 1758//2
f 1678//3 1679//3 1758//3 1757//3
f 1757//6 1758//6 1737//6 1736//6
f 1743//1 1783//1 1784//1 1744//1
f 1743//3 1745//3 1785//3 1783//3
f 1744//4 1784//4 1786//4 1746//4
f 1783//6 1785//6 1786//6 1784//6
f 1745//3 1747//3 1787//3 1785//3
f 1746//4 1786//4 1788//4 1748//4
f 1785//6 1787//6 1788//6 1786//6
f 1747//3 1749//3 1789//3 1787//3
f 1748//4 1788//4 1790//4 1750//4
f 1787//6 1789//6 1790//6 1788//6
f 1749//3 1751//3 1791//3 1789//3
f 1750//4 1790//4 1792//4 1752//4
f 1789//6 1791//6 1792//6 1790//6
f 1751//3 1753//3 1793//3 1791//3
f 1752//4 1792//4 1794//4 1754//4
f 1791//6 1793//6 1794//6 1792//6
f 1755//2 1756//2 1795//2 1796//2
f 1753//3 1755//3 1796//3 1793//3
f 1754//4 1794//4 1795//4 1756//4
f 1793//6 1796//6 1795//6 1794//6
g glyph_64
f 109//1 110//1 111//1 112//1
f 112//4 111//4 107//4 31//4
f 109//5 112//5 31//5 30//5
f 117//1 118//1 110//1 109//1
f 117//5 109//5 30//5 38//5
f 121//1 122//1 118//1 117//1
f 121//5 117//5 38//5 42//5
f 125//1 126//1 122//1 121//1
f 125//5 121//5 42//5 46//5
f 129//1 130//1 126//1 125//1
f 129//5 125//5 46//5 50//5
f 133//1 134//1 130//1 129//1
f 133//5 129//5 50//5 54//5
f 137//1 138//1 134//1 133//1
f 137//5 133//5 54//5 58//5
f 141//1 142//1 138//1 137//1
f 141//5 137//5 58//5 62//5
f 145//1 146//1 142//1 141//1
f 145//3 66//3 147//3 146//3
f 145//5 141//5 62//5 66//5
f 201//1 202//1 203//1 204//1
f 204//4 203//4 199//4 111//4
f 201//5 204//5 111//5 110//5
f 209//1 210//1 202//1 201//1
f 209//5 201//5 110//5 118//5
f 213//1 214//1 210//1 209//1
f 213//5 209//5 118//5 122//5
f 217//1 218//1 214//1 213//1
f 217//5 213//5 122//5 126//5
f 221//1 222//1 218//1 217//1
f 221//5 217//5 126//5 130//5
f 225//1 226//1 222//1 221//1
f 225//5 221//5 130//5 134//5
f 229//1 230//1 226//1 225//1
f 229//5 225//5 134//5 138//5
f 233//1 234//1 230//1 229//1
f 233//5 229//5 138//5 142//5
f 237//1 238//1 234//1 233//1
f 237//3 146//3 239//3 238//3
f 237//5 233//5 142//5 146//5
f 243//1 244//1 239//1 146//1
f 243//5 146//5 147//5 152//5
f 325//1 326//1 327//1 328//1
f 328//4 327//4 317//4 203//4
f 325//5 328//5 203//5 202//5
f 326//6 329//6 317//6 327//6
f 339//1 340//1 326//1 325//1
f 339//5 325//5 202//5 210//5
f 340//6 341//6 329//6 326//6
f 349//1 350//1 340//1 339//1
f 349//5 339//5 210//5 214//5
f 350//6 351//6 341//6 340//6
f 359//1 360//1 350//1 349//1
f 359//5 349//5 214//5 218//5
f 360//6 361//6 351//6 350//6
f 369//1 370//1 360//1 359//1
f 369//5 359//5 218//5 222//5
f 370//6 371//6 361//6 360//6
f 379//1 380//1 370//1 369//1
f 379//5 369//5 222//5 226//5
f 380//6 381//6 371//6 370//6
f 389//1 390//1 380//1 379//1
f 389//5 379//5 226//5 230//5
f 390//6 391//6 381//6 380//6
f 399//1 400//1 390//1 389//1
f 399//5 389//5 230//5 234//5
f 400//6 401//6 391//6 390//6
f 409//1 410//1 400//1 399//1
f 409//3 238//3 411//3 410//3
f 409//5 399//5 234//5 238//5
f 410//6 411//6 401//6 400//6
f 419//1 420//1 411//1 238//1
f 419//5 238//5 239//5 244//5
f 420//6 421//6 422//6 411//6
f 471//1 472//1 473//1 474//1
f 474//4 473//4 465//4 289//4
f 471//5 474//5 289//5 288//5
f 481//1 482//1 472//1 471//1
f 481//5 471//5 288//5 300//5
f 491//1 492//1 482//1 481//1
f 491//5 481//5 300//5 314//5
f 499//1 500//1 492//1 491//1
f 499//5 491//5 314//5 322//5
f 329//1 503//1 504//1 317//1
f 317//4 504//4 495//4 318//4
f 503//6 505//6 495//6 504//6
f 509//1 510//1 500//1 499//1
f 509//5 499//5 322//5 336//5
f 341//1 513//1 503//1 329//1
f 513//6 514//6 505//6 503//6
f 517//1 518//1 510//1 509//1
f 517//5 509//5 336//5 346//5
f 351//1 521//1 513//1 341//1
f 521//6 522//6 514//6 513//6
f 525//1 526//1 518//1 517//1
f 525//5 517//5 346//5 356//5
f 361//1 529//1 521//1 351//1
f 529//6 530//6 522//6 521//6
f 533//1 534//1 526//1 525//1
f 533//5 525//5 356//5 366//5
f 371//1 537//1 529//1 361//1
f 537//6 538//6 530//6 529//6
f 541//1 542//1 534//1 533//1
f 541//5 533//5 366//5 376//5
f 381//1 545//1 537//1 371//1
f 545//6 546//6 538//6 537//6
f 549//1 550//1 542//1 541//1
f 549//5 541//5 376//5 386//5
f 391//1 553//1 545//1 381//1
f 553//6 554//6 546//6 545//6
f 557//1 558//1 550//1 549//1
f 557//5 549//5 386//5 396//5
f 401//1 561//1 553//1 391//1
f 561//6 562//6 554//6 553//6
f 565//1 566//1 558//1 557//1
f 565//5 557//5 396//5 406//5
f 411//1 569//1 561//1 401//1
f 411//3 422//3 570//3 569//3
f 569//6 570//6 562//6 561//6
f 573//1 574//1 566//1 565//1
f 573//3 416//3 575//3 574//3
f 573//5 565//5 406//5 416//5
f 421//1 579//1 570//1 422//1
f 579//6 580//6 581//6 570//6
f 635//1 636//1 637//1 638//1
f 638//4 637//4 633//4 473//4
f 635//5 638//5 473//5 472//5
f 643//1 644//1 636//1 635//1
f 643//5 635//5 472//5 482//5
f 651//1 652//1 644//1 643//1
f 651//5 643//5 482//5 492//5
f 657//1 658//1 652//1 651//1
f 657//5 651//5 492//5 500//5
f 505//1 661//1 662//1 495//1
f 495//4 662//4 655//4 496//4
f 661//6 663//6 655//6 662//6
f 667//1 668//1 658//1 657//1
f 667//5 657//5 500//5 510//5
f 514//1 671//1 661//1 505//1
f 671//6 672//6 663//6 661//6
f 675//1 676//1 668//1 667//1
f 675//5 667//5 510//5 518//5
f 522//1 679//1 671//1 514//1
f 679//6 680//6 672//6 671//6
f 683//1 684//1 676//1 675//1
f 683//5 675//5 518//5 526//5
f 530//1 687//1 679//1 522//1
f 687//6 688//6 680//6 679//6
f 691//1 692//1 684//1 683//1
f 691//5 683//5 526//5 534//5
f 538//1 695//1 687//1 530//1
f 695//6 696//6 688//6 687//6
f 699//1 700//1 692//1 691//1
f 699//5 691//5 534//5 542//5
f 546//1 703//1 695//1 538//1
f 703//6 704//6 696//6 695//6
f 707//1 708//1 700//1 699//1
f 707//5 699//5 542//5 550//5
f 554//1 711//1 703//1 546//1
f 711//6 712//6 704//6 703//6
f 715//1 716//1 708//1 707//1
f 715//5 707//5 550//5 558//5
f 562//1 719//1 711//1 554//1
f 719//6 720//6 712//6 711//6
f 723//1 724//1 716//1 715//1
f 723//5 715//5 558//5 566//5
f 570//1 727//1 719//1 562//1
f 570//3 581//3 728//3 727//3
f 727//6 728//6 720//6 719//6
f 731//1 732//1 724//1 723//1
f 731//3 574//3 733//3 732//3
f 731//5 723//5 566//5 574//5
f 608//1 739//1 733//1 574//1
f 608//5 574//5 575//5 585//5
f 807//1 808//1 809//1 810//1
f 810//4 809//4 803//4 637//4
f 807//5 810//5 637//5 636//5
f 808//6 811//6 803//6 809//6
f 817//1 818//1 808//1 807//1
f 817//5 807//5 636//5 644//5
f 818//6 819//6 811//6 808//6
f 823//1 824//1 818//1 817//1
f 823//5 817//5 644//5 652//5
f 824//6 825//6 819//6 818//6
f 829//1 830//1 824//1 823//1
f 829//5 823//5 652//5 658//5
f 830//6 831//6 825//6 824//6
f 839//1 840//1 830//1 829//1
f 839//5 829//5 658//5 668//5
f 840//6 841//6 831//6 830//6
f 847//1 848//1 840//1 839//1
f 847//5 839//5 668//5 676//5
f 848//6 849//6 841//6 840//6
f 855//1 856//1 848//1 847//1
f 855//5 847//5 676//5 684//5
f 856//6 857//6 849//6 848//6
f 863//1 864//1 856//1 855//1
f 863//5 855//5 684//5 692//5
f 864//6 865//6 857//6 856//6
f 871//1 872//1 864//1 863//1
f 871//5 863//5 692//5 700//5
f 872//6 873//6 865//6 864//6
f 879//1 880//1 872//1 871//1
f 879//5 871//5 700//5 708//5
f 880//6 881//6 873//6 872//6
f 887//1 888//1 880//1 879//1
f 887//5 879//5 708//5 716//5
f 888//6 889//6 881//6 880//6
f 895//1 896//1 888//1 887//1
f 895//5 887//5 716//5 724//5
f 896//6 897//6 889//6 888//6
f 903//1 904//1 896//1 895//1
f 903//3 732//3 905//3 904//3
f 903//5 895//5 724//5 732//5
f 904//6 905//6 897//6 896//6
f 766//1 909//1 905//1 732//1
f 766//5 732//5 733//5 739//5
f 909//6 910//6 911//6 905//6
f 811//1 963//1 964//1 803//1
f 803//4 964//4 959//4 804//4
f 963//6 965//6 959//6 964//6
f 819//1 969//1 963//1 811//1
f 969//6 970//6 965//6 963//6
f 825//1 973//1 969//1 819//1
f 973//6 974//6 970//6 969//6
f 831//1 977//1 973//1 825//1
f 977//6 978//6 974//6 973//6
f 841//1 981//1 977//1 831//1
f 981//6 982//6 978//6 977//6
f 849//1 985//1 981//1 841//1
f 985//6 986//6 982//6 981//6
f 857//1 989//1 985//1 849//1
f 989//6 990//6 986//6 985//6
f 865//1 993//1 989//1 857//1
f 993//6 994//6 990//6 989//6
f 873//1 997//1 993//1 865//1
f 997//6 998//6 994//6 993//6
f 881//1 1001//1 997//1 873//1
f 1001//6 1002//6 998//6 997//6
f 889//1 1005//1 1001//1 881//1
f 1005//6 1006//6 1002//6 1001//6
f 897//1 1009//1 1005//1 889//1
f 1009//6 1010//6 1006//6 1005//6
f 905//1 1013//1 1009//1 897//1
f 905//3 911//3 1014//3 1013//3
f 1013//6 1014//6 1010//6 1009//6
f 910//1 1017//1 1014//1 911//1
f 1017//6 1018//6 1019//6 1014//6
f 965//1 1063//1 1064//1 959//1
f 959//4 1064//4 1061//4 960//4
f 1063//6 1065//6 1061//6 1064//6
f 970//1 1069//1 1063//1 965//1
f 1069//6 1070//6 1065//6 1063//6
f 974//1 1073//1 1069//1 970//1
f 1073//6 1074//6 1070//6 1069//6
f 978//1 1077//1 1073//1 974//1
f 1077//6 1078//6 1074//6 1073//6
f 982//1 1081//1 1077//1 978//1
f 1081//6 1082//6 1078//6 1077//6
f 986//1 1085//1 1081//1 982//1
f 1085//6 1086//6 1082//6 1081//6
f 990//1 1089//1 1085//1 986//1
f 1089//6 1090//6 1086//6 1085//6
f 994//1 1093//1 1089//1 990//1
f 1093//6 1094//6 1090//6 1089//6
f 998//1 1097//1 1093//1 994//1
f 1097//6 1098//6 1094//6 1093//6
f 1002//1 1101//1 1097//1 998//1
f 1101//6 1102//6 1098//6 1097//6
f 1006//1 1105//1 1101//1 1002//1
f 1105//6 1106//6 1102//6 1101//6
f 1010//1 1109//1 1105//1 1006//1
f 1109//6 1110//6 1106//6 1105//6
f 1014//1 1113//1 1109//1 1010//1
f 1014//3 1019//3 1114//3 1113//3
f 1113//6 1114//6 1110//6 1109//6
f 1289//1 1290//1 1291//1 1292//1
f 1292//4 1291//4 1287//4 1223//4
f 1289//5 1292//5 1223//5 1222//5
f 1297//1 1298//1 1290//1 1289//1
f 1297//5 1289//5 1222//5 1230//5
f 1301//1 1302//1 1298//1 1297//1
f 1301//5 1297//5 1230//5 1234//5
f 1305//1 1306//1 1302//1 1301//1
f 1305//3 1238//3 1307//3 1306//3
f 1305//5 1301//5 1234//5 1238//5
f 1373//1 1374//1 1375//1 1376//1
f 1376//4 1375//4 1363//4 1291//4
f 1373//5 1376//5 1291//5 1290//5
f 1385//1 1386//1 1374//1 1373//1
f 1385//5 1373//5 1290//5 1298//5
f 1393//1 1394//1 1386//1 1385//1
f 1393//5 1385//5 1298//5 1302//5
f 1401//1 1402//1 1394//1 1393//1
f 1401//3 1306//3 1403//3 1402//3
f 1401//5 1393//5 1302//5 1306//5
f 1316//1 1411//1 1403//1 1306//1
f 1316//5 1306//5 1307//5 1311//5
f 1491//1 1492//1 1493//1 1494//1
f 1494//4 1493//4 1479//4 1375//4
f 1491//5 1494//5 1375//5 1374//5
f 1492//6 1495//6 1479//6 1493//6
f 1505//1 1506//1 1492//1 1491//1
f 1505//5 1491//5 1374//5 1386//5
f 1506//6 1507//6 1495//6 1492//6
f 1511//1 1512//1 1502//1 1501//1
f 1511//5 1501//5 1382//5 1390//5
f 1515//1 1516//1 1506//1 1505//1
f 1515//5 1505//5 1386//5 1394//5
f 1516//6 1517//6 1507//6 1506//6
f 1521//1 1522//1 1512//1 1511//1
f 1521//5 1511//5 1390//5 1398//5
f 1525//1 1526//1 1516//1 1515//1
f 1525//3 1402//3 1527//3 1526//3
f 1525//5 1515//5 1394//5 1402//5
f 1526//6 1527//6 1517//6 1516//6
f 1531//1 1532//1 1522//1 1521//1
f 1531//5 1521//5 1398//5 1408//5
f 1416//1 1535//1 1527//1 1402//1
f 1416//3 1411//3 1536//3 1535//3
f 1416//5 1402//5 1403//5 1411//5
f 1535//6 1536//6 1537//6 1527//6
f 1436//1 1541//1 1532//1 1531//1
f 1436//5 1531//5 1408//5 1413//5
f 1495//1 1608//1 1609//1 1479//1
f 1479//4 1609//4 1594//4 1480//4
f 1608//6 1610//6 1594//6 1609//6
f 1507//1 1620//1 1608//1 1495//1
f 1620//6 1621//6 1610//6 1608//6
f 1624//1 1625//1 1615//1 1614//1
f 1624//5 1614//5 1502//5 1512//5
f 1625//6 1626//6 1616//6 1615//6
f 1517//1 1630//1 1620//1 1507//1
f 1630//6 1631//6 1621//6 1620//6
f 1634//1 1635//1 1625//1 1624//1
f 1634//5 1624//5 1512//5 1522//5
f 1635//6 1636//6 1626//6 1625//6
f 1527//1 1640//1 1630//1 1517//1
f 1527//3 1537//3 1641//3 1640//3
f 1640//6 1641//6 1631//6 1630//6
f 1644//1 1645//1 1635//1 1634//1
f 1644//5 1634//5 1522//5 1532//5
f 1645//6 1646//6 1636//6 1635//6
f 1536//1 1650//1 1641//1 1537//1
f 1536//3 1545//3 1651//3 1650//3
f 1650//6 1651//6 1652//6 1641//6
f 1560//1 1656//1 1645//1 1644//1
f 1560//5 1644//5 1532//5 1541//5
f 1656//6 1657//6 1646//6 1645//6
f 1610//1 1700//1 1701//1 1594//1
f 1594//4 1701//4 1692//4 1595//4
f 1700//6 1702//6 1692//6 1701//6
f 1621//1 1710//1 1700//1 1610//1
f 1710//6 1711//6 1702//6 1700//6
f 1626//1 1714//1 1706//1 1616//1
f 1714//6 1715//6 1707//6 1706//6
f 1631//1 1718//1 1710//1 1621//1
f 1718//6 1719//6 1711//6 1710//6
f 1636//1 1722//1 1714//1 1626//1
f 1722//6 1723//6 1715//6 1714//6
f 1641//1 1726//1 1718//1 1631//1
f 1641//3 1652//3 1727//3 1726//3
f 1726//6 1727//6 1719//6 1718//6
f 1646//1 1730//1 1722//1 1636//1
f 1730//6 1731//6 1723//6 1722//6
f 1657//1 1736//1 1730//1 1646//1
f 1736//6 1737//6 1731//6 1730//6
