# Rook occupied-cell surface mesh
# Little rocket
# One cell is one unit. Y points up; Z follows the 3md slice index.
o sculpture
v -1 -6 -7
v -1 -6 -6
v -1 -5 -6
v -1 -5 -7
v 0 -6 -7
v 0 -6 -6
v 0 -5 -6
v 0 -5 -7
v 1 -6 -7
v 1 -5 -7
v 1 -5 -6
v 1 -6 -6
v -1 -5 -5
v -1 -4 -5
v -1 -4 -6
v 0 -4 -5
v 0 -4 -6
v 1 -4 -6
v 1 -4 -5
v 1 -5 -5
v -1 -6 -5
v 0 -6 -5
v 1 -6 -5
v -1 -4 -4
v -1 -3 -4
v -1 -3 -5
v 0 -3 -4
v 0 -3 -5
v 1 -3 -5
v 1 -3 -4
v 1 -4 -4
v -1 -5 -4
v 1 -5 -4
v -1 -6 -4
v 0 -6 -4
v 1 -6 -4
v -1 4 -4
v -1 4 -3
v -1 5 -3
v -1 5 -4
v 0 5 -3
v 0 5 -4
v 0 4 -4
v 1 4 -4
v 1 5 -4
v 1 5 -3
v 1 4 -3
v -2 3 -4
v -2 3 -3
v -2 4 -3
v -2 4 -4
v -1 3 -4
v 0 3 -4
v -1 3 -3
v 0 3 -3
v 0 4 -3
v 1 3 -4
v 1 3 -3
v 2 3 -4
v 2 4 -4
v 2 4 -3
v 2 3 -3
v -2 2 -4
v -2 2 -3
v -1 2 -4
v 0 2 -4
v -1 2 -3
v 0 2 -3
v 1 2 -4
v 1 2 -3
v 2 2 -4
v 2 2 -3
v -2 1 -4
v -2 1 -3
v -1 1 -4
v 0 1 -4
v -1 1 -3
v 0 1 -3
v 1 1 -4
v 1 1 -3
v 2 1 -4
v 2 1 -3
v -2 0 -4
v -2 0 -3
v -1 0 -4
v 0 0 -4
v -1 0 -3
v 0 0 -3
v 1 0 -4
v 1 0 -3
v 2 0 -4
v 2 0 -3
v -2 -1 -4
v -2 -1 -3
v -1 -1 -4
v 0 -1 -4
v -1 -1 -3
v 0 -1 -3
v 1 -1 -4
v 1 -1 -3
v 2 -1 -4
v 2 -1 -3
v -2 -2 -4
v -2 -2 -3
v -1 -2 -4
v 0 -2 -4
v 1 -2 -4
v 2 -2 -4
v 2 -2 -3
v -2 -3 -4
v -2 -3 -3
v 2 -3 -4
v 2 -3 -3
v -2 -4 -4
v -2 -4 -3
v 2 -4 -4
v 2 -4 -3
v -2 -5 -4
v -2 -5 -3
v -1 -5 -3
v 2 -5 -4
v 2 -5 -3
v 1 -5 -3
v -1 -6 -3
v 0 -6 -3
v 1 -6 -3
v -1 5 -2
v -1 6 -2
v -1 6 -3
v 0 6 -2
v 0 6 -3
v 1 6 -3
v 1 6 -2
v 1 5 -2
v -3 4 -3
v -3 4 -2
v -3 5 -2
v -3 5 -3
v -2 5 -2
v -2 5 -3
v -2 4 -2
v -1 4 -2
v 0 4 -2
v 0 5 -2
v 1 4 -2
v 2 5 -2
v 2 5 -3
v 2 4 -2
v 3 4 -3
v 3 5 -3
v 3 5 -2
v 3 4 -2
v -3 3 -3
v -3 3 -2
v -1 3 -2
v -2 3 -2
v 1 3 -2
v 2 3 -2
v 3 3 -3
v 3 3 -2
v -3 2 -3
v -3 2 -2
v -1 2 -2
v -2 2 -2
v 1 2 -2
v 2 2 -2
v 3 2 -3
v 3 2 -2
v -3 1 -3
v -3 1 -2
v -1 1 -2
v -2 1 -2
v 1 1 -2
v 2 1 -2
v 3 1 -3
v 3 1 -2
v -3 0 -3
v -3 0 -2
v -1 0 -2
v -2 0 -2
v 1 0 -2
v 2 0 -2
v 3 0 -3
v 3 0 -2
v -3 -1 -3
v -3 -1 -2
v -1 -1 -2
v -2 -1 -2
v 1 -1 -2
v 2 -1 -2
v 3 -1 -3
v 3 -1 -2
v -3 -2 -3
v -3 -2 -2
v -2 -2 -2
v -1 -2 -2
v 0 -1 -2
v 1 -2 -2
v 2 -2 -2
v 3 -2 -3
v 3 -2 -2
v -3 -3 -3
v -3 -3 -2
v -2 -3 -2
v -1 -3 -2
v 1 -3 -2
v 2 -3 -2
v 3 -3 -3
v 3 -3 -2
v -3 -4 -3
v -3 -4 -2
v -2 -4 -2
v -1 -4 -2
v 1 -4 -2
v 2 -4 -2
v 3 -4 -3
v 3 -4 -2
v -3 -5 -3
v -3 -5 -2
v -2 -5 -2
v -1 -5 -2
v 2 -5 -2
v 1 -5 -2
v 3 -5 -3
v 3 -5 -2
v -1 -6 -2
v 0 -6 -2
v 1 -6 -2
v -1 6 -1
v -1 7 -1
v -1 7 -2
v 0 7 -1
v 0 7 -2
v 1 7 -2
v 1 7 -1
v 1 6 -1
v -2 5 -1
v -2 6 -1
v -2 6 -2
v -1 5 -1
v 0 5 -1
v 0 6 -1
v 1 5 -1
v 2 6 -2
v 2 6 -1
v 2 5 -1
v -3 4 -1
v -3 5 -1
v -2 4 -1
v 2 4 -1
v 3 5 -1
v 3 4 -1
v -4 3 -2
v -4 3 -1
v -4 4 -1
v -4 4 -2
v -2 3 -1
v -3 3 -1
v 2 3 -1
v 3 3 -1
v 4 3 -2
v 4 4 -2
v 4 4 -1
v 4 3 -1
v -4 2 -2
v -4 2 -1
v -2 2 -1
v -3 2 -1
v 2 2 -1
v 3 2 -1
v 4 2 -2
v 4 2 -1
v -4 1 -2
v -4 1 -1
v -2 1 -1
v -3 1 -1
v 2 1 -1
v 3 1 -1
v 4 1 -2
v 4 1 -1
v -4 0 -2
v -4 0 -1
v -2 0 -1
v -3 0 -1
v 2 0 -1
v 3 0 -1
v 4 0 -2
v 4 0 -1
v -4 -1 -2
v -4 -1 -1
v -2 -1 -1
v -3 -1 -1
v 2 -1 -1
v 3 -1 -1
v 4 -1 -2
v 4 -1 -1
v -4 -2 -2
v -4 -2 -1
v -2 -2 -1
v -1 -2 -1
v -1 -1 -1
v 0 -1 -1
v 1 -1 -1
v 1 -2 -1
v 2 -2 -1
v 4 -2 -2
v 4 -2 -1
v -4 -3 -2
v -4 -3 -1
v -2 -3 -1
v -1 -3 -1
v 1 -3 -1
v 2 -3 -1
v 4 -3 -2
v 4 -3 -1
v -4 -4 -2
v -4 -4 -1
v -2 -4 -1
v -1 -4 -1
v 1 -4 -1
v 2 -4 -1
v 4 -4 -2
v 4 -4 -1
v -4 -5 -2
v -4 -5 -1
v -3 -5 -1
v -2 -5 -1
v -1 -5 -1
v 1 -5 -1
v 2 -5 -1
v 3 -5 -1
v 4 -5 -2
v 4 -5 -1
v -1 -6 -1
v 1 -6 -1
v -2 -7 -2
v -2 -7 -1
v -2 -6 -1
v -2 -6 -2
v -1 -7 -2
v -1 -7 -1
v 0 -7 -2
v 1 -7 -2
v 2 -7 -2
v 2 -6 -2
v 2 -6 -1
v 2 -7 -1
v 1 -7 -1
v -1 -8 -2
v -1 -8 -1
v 0 -8 -2
v 0 -8 -1
v 1 -8 -2
v 1 -8 -1
v -1 7 0
v -1 8 0
v -1 8 -1
v 0 8 0
v 0 8 -1
v 1 8 -1
v 1 8 0
v 1 7 0
v -2 6 0
v -2 7 0
v -2 7 -1
v 0 6 0
v -1 6 0
v 1 6 0
v 2 7 -1
v 2 7 0
v 2 6 0
v -3 5 0
v -3 6 0
v -3 6 -1
v -1 5 0
v -2 5 0
v 1 5 0
v 2 5 0
v 3 6 -1
v 3 6 0
v 3 5 0
v -4 4 0
v -4 5 0
v -4 5 -1
v -2 4 0
v -3 4 0
v 2 4 0
v 3 4 0
v 4 5 -1
v 4 5 0
v 4 4 0
v -4 3 0
v -3 3 0
v 3 3 0
v 4 3 0
v -4 2 0
v -3 2 0
v 3 2 0
v 4 2 0
v -4 1 0
v -3 1 0
v 3 1 0
v 4 1 0
v -4 0 0
v -3 0 0
v 3 0 0
v 4 0 0
v -4 -1 0
v -3 -1 0
v 3 -1 0
v 4 -1 0
v -4 -2 0
v -2 -1 0
v -1 -1 0
v 0 -1 0
v 1 -1 0
v 2 -1 0
v 4 -2 0
v -4 -3 0
v 4 -3 0
v -5 -4 -1
v -5 -4 0
v -5 -3 0
v -5 -3 -1
v 5 -4 -1
v 5 -3 -1
v 5 -3 0
v 5 -4 0
v -6 -5 -1
v -6 -5 0
v -6 -4 0
v -6 -4 -1
v -5 -5 -1
v 5 -5 -1
v 6 -5 -1
v 6 -4 -1
v 6 -4 0
v 6 -5 0
v -7 -6 -1
v -7 -6 0
v -7 -5 0
v -7 -5 -1
v -6 -6 -1
v -6 -6 0
v -5 -6 -1
v -5 -6 0
v -4 -6 -1
v -4 -6 0
v -3 -6 -1
v -3 -6 0
v -2 -6 0
v 3 -6 -1
v 3 -6 0
v 2 -6 0
v 4 -6 -1
v 4 -6 0
v 5 -6 -1
v 5 -6 0
v 6 -6 -1
v 6 -6 0
v 7 -6 -1
v 7 -5 -1
v 7 -5 0
v 7 -6 0
v -2 -7 0
v 2 -7 0
v -2 -8 -1
v -2 -8 0
v -1 -8 0
v 2 -8 -1
v 2 -8 0
v 1 -8 0
v -1 -9 -1
v -1 -9 0
v 0 -9 -1
v 0 -9 0
v 1 -9 -1
v 1 -9 0
v -1 7 1
v -1 8 1
v 0 8 1
v 0 7 1
v 1 8 1
v 1 7 1
v -2 6 1
v -2 7 1
v -1 6 1
v 0 6 1
v 1 6 1
v 2 7 1
v 2 6 1
v -3 5 1
v -3 6 1
v -2 5 1
v -1 5 1
v 1 5 1
v 2 5 1
v 3 6 1
v 3 5 1
v -4 4 1
v -4 5 1
v -3 4 1
v -2 4 1
v 2 4 1
v 3 4 1
v 4 5 1
v 4 4 1
v -4 3 1
v -3 3 1
v 3 3 1
v 4 3 1
v -4 2 1
v -3 2 1
v 3 2 1
v 4 2 1
v -4 1 1
v -3 1 1
v 3 1 1
v 4 1 1
v -4 0 1
v -3 0 1
v 3 0 1
v 4 0 1
v -4 -1 1
v -3 -1 1
v 3 -1 1
v 4 -1 1
v -4 -2 1
v -2 -1 1
v -1 -1 1
v -2 -2 1
v -1 -2 1
v 0 -1 1
v 1 -1 1
v 2 -1 1
v 1 -2 1
v 2 -2 1
v 4 -2 1
v -4 -3 1
v -2 -3 1
v -1 -3 1
v 1 -3 1
v 2 -3 1
v 4 -3 1
v -5 -4 1
v -5 -3 1
v -4 -4 1
v -2 -4 1
v -1 -4 1
v 1 -4 1
v 2 -4 1
v 5 -3 1
v 5 -4 1
v 4 -4 1
v -6 -5 1
v -6 -4 1
v -5 -5 1
v -4 -5 1
v -2 -5 1
v -1 -5 1
v 1 -5 1
v 2 -5 1
v 4 -5 1
v 5 -5 1
v 6 -4 1
v 6 -5 1
v -7 -6 1
v -7 -5 1
v -6 -6 1
v -5 -6 1
v -4 -6 1
v -3 -6 1
v -3 -5 1
v -2 -6 1
v -1 -6 1
v 1 -6 1
v 2 -6 1
v 3 -6 1
v 3 -5 1
v 4 -6 1
v 5 -6 1
v 6 -6 1
v 7 -5 1
v 7 -6 1
v -2 -7 1
v 2 -7 1
v -2 -8 1
v -1 -8 1
v -1 -7 1
v 2 -8 1
v 1 -8 1
v 1 -7 1
v -1 -9 1
v 0 -9 1
v 0 -8 1
v 1 -9 1
v -1 6 2
v -1 7 2
v 0 7 2
v 0 6 2
v 1 7 2
v 1 6 2
v -2 5 2
v -2 6 2
v -1 5 2
v 0 5 1
v 0 5 2
v 1 5 2
v 2 6 2
v 2 5 2
v -3 4 2
v -3 5 2
v -2 4 2
v 2 4 2
v 3 5 2
v 3 4 2
v -4 3 2
v -4 4 2
v -3 3 2
v -2 3 1
v -2 3 2
v 2 3 1
v 2 3 2
v 4 4 2
v 4 3 2
v 3 3 2
v -4 2 2
v -3 2 2
v -2 2 1
v -2 2 2
v 2 2 1
v 2 2 2
v 4 2 2
v 3 2 2
v -4 1 2
v -3 1 2
v -2 1 1
v -2 1 2
v 2 1 1
v 2 1 2
v 4 1 2
v 3 1 2
v -4 0 2
v -3 0 2
v -2 0 1
v -2 0 2
v 2 0 1
v 2 0 2
v 4 0 2
v 3 0 2
v -4 -1 2
v -3 -1 2
v -2 -1 2
v 2 -1 2
v 4 -1 2
v 3 -1 2
v -4 -2 2
v -3 -2 2
v -2 -2 2
v -1 -2 2
v -1 -1 2
v 0 -1 2
v 1 -1 2
v 1 -2 2
v 2 -2 2
v 4 -2 2
v 3 -2 2
v -4 -3 2
v -3 -3 2
v -2 -3 2
v -1 -3 2
v 1 -3 2
v 2 -3 2
v 4 -3 2
v 3 -3 2
v -4 -4 2
v -3 -4 2
v -2 -4 2
v -1 -4 2
v 1 -4 2
v 2 -4 2
v 4 -4 2
v 3 -4 2
v -4 -5 2
v -3 -5 2
v -2 -5 2
v -1 -5 2
v 1 -5 2
v 2 -5 2
v 3 -5 2
v 4 -5 2
v -1 -6 2
v 1 -6 2
v -2 -7 2
v -2 -6 2
v -1 -7 2
v 0 -7 2
v 0 -6 2
v 1 -7 2
v 2 -6 2
v 2 -7 2
v -1 -8 2
v 0 -8 2
v 1 -8 2
v -1 5 3
v -1 6 3
v 0 6 3
v 0 5 3
v 1 6 3
v 1 5 3
v -3 4 3
v -3 5 3
v -2 5 3
v -2 4 3
v -1 4 2
v -1 4 3
v 0 4 2
v 0 4 3
v 1 4 2
v 1 4 3
v 2 5 3
v 2 4 3
v 3 5 3
v 3 4 3
v -3 3 3
v -2 3 3
v -1 3 2
v -1 3 3
v 1 3 2
v 1 3 3
v 3 3 3
v 2 3 3
v -3 2 3
v -2 2 3
v -1 2 2
v -1 2 3
v 1 2 2
v 1 2 3
v 3 2 3
v 2 2 3
v -3 1 3
v -2 1 3
v -1 1 2
v -1 1 3
v 1 1 2
v 1 1 3
v 3 1 3
v 2 1 3
v -3 0 3
v -2 0 3
v -1 0 2
v -1 0 3
v 1 0 2
v 1 0 3
v 3 0 3
v 2 0 3
v -3 -1 3
v -2 -1 3
v -1 -1 3
v 1 -1 3
v 3 -1 3
v 2 -1 3
v -3 -2 3
v -2 -2 3
v 0 -1 3
v 3 -2 3
v 2 -2 3
v -3 -3 3
v -2 -3 3
v 3 -3 3
v 2 -3 3
v -3 -4 3
v -2 -4 3
v 3 -4 3
v 2 -4 3
v -3 -5 3
v -2 -5 3
v -1 -5 3
v 2 -5 3
v 1 -5 3
v 3 -5 3
v -1 -6 3
v 0 -6 3
v 1 -6 3
v -1 4 4
v -1 5 4
v 0 5 4
v 0 4 4
v 1 5 4
v 1 4 4
v -2 3 4
v -2 4 4
v -1 3 4
v 0 3 3
v 0 3 4
v 1 3 4
v 2 4 4
v 2 3 4
v -2 2 4
v -1 2 4
v 0 2 3
v 0 2 4
v 1 2 4
v 2 2 4
v -2 1 4
v -1 1 4
v 0 1 3
v 0 1 4
v 1 1 4
v 2 1 4
v -2 0 4
v -1 0 4
v 0 0 3
v 0 0 4
v 1 0 4
v 2 0 4
v -2 -1 4
v -1 -1 4
v 0 -1 4
v 1 -1 4
v 2 -1 4
v -2 -2 4
v -1 -2 4
v 0 -2 4
v 1 -2 4
v 2 -2 4
v -2 -3 4
v -1 -3 4
v 0 -3 4
v 1 -3 4
v 2 -3 4
v -2 -4 4
v -1 -4 4
v 2 -4 4
v 1 -4 4
v -2 -5 4
v -1 -5 4
v 2 -5 4
v 1 -5 4
v -1 -6 4
v 0 -6 4
v 1 -6 4
v -1 -4 5
v -1 -3 5
v 0 -3 5
v 0 -4 5
v 1 -3 5
v 1 -4 5
v -1 -5 5
v 1 -5 5
v -1 -6 5
v 0 -6 5
v 1 -6 5
v -1 -5 6
v -1 -4 6
v 0 -4 6
v 0 -5 6
v 1 -4 6
v 1 -5 6
v -1 -6 6
v 0 -6 6
v 1 -6 6
v -1 -6 7
v -1 -5 7
v 0 -6 7
v 0 -5 7
v 1 -5 7
v 1 -6 7
vn -1 0 0
vn 1 0 0
vn 0 -1 0
vn 0 1 0
vn 0 0 -1
vn 0 0 1
s off
g glyph_35
f 48//1 49//1 50//1 51//1
f 51//4 50//4 38//4 37//4
f 48//5 51//5 37//5 52//5
f 52//5 37//5 43//5 53//5
f 54//6 55//6 56//6 38//6
f 53//5 43//5 44//5 57//5
f 55//6 58//6 47//6 56//6
f 59//2 60//2 61//2 62//2
f 44//4 47//4 61//4 60//4
f 57//5 44//5 60//5 59//5
f 63//1 64//1 49//1 48//1
f 63//5 48//5 52//5 65//5
f 65//5 52//5 53//5 66//5
f 67//6 68//6 55//6 54//6
f 66//5 53//5 57//5 69//5
f 68//6 70//6 58//6 55//6
f 71//2 59//2 62//2 72//2
f 69//5 57//5 59//5 71//5
f 73//1 74//1 64//1 63//1
f 73//5 63//5 65//5 75//5
f 75//5 65//5 66//5 76//5
f 77//6 78//6 68//6 67//6
f 76//5 66//5 69//5 79//5
f 78//6 80//6 70//6 68//6
f 81//2 71//2 72//2 82//2
f 79//5 69//5 71//5 81//5
f 83//1 84//1 74//1 73//1
f 83//5 73//5 75//5 85//5
f 85//5 75//5 76//5 86//5
f 87//6 88//6 78//6 77//6
f 86//5 76//5 79//5 89//5
f 88//6 90//6 80//6 78//6
f 91//2 81//2 82//2 92//2
f 89//5 79//5 81//5 91//5
f 93//1 94//1 84//1 83//1
f 93//5 83//5 85//5 95//5
f 95//5 85//5 86//5 96//5
f 97//6 98//6 88//6 87//6
f 96//5 86//5 89//5 99//5
f 98//6 100//6 90//6 88//6
f 101//2 91//2 92//2 102//2
f 99//5 89//5 91//5 101//5
f 103//1 104//1 94//1 93//1
f 103//5 93//5 95//5 105//5
f 105//5 95//5 96//5 106//5
f 106//5 96//5 99//5 107//5
f 108//2 101//2 102//2 109//2
f 107//5 99//5 101//5 108//5
f 110//1 111//1 104//1 103//1
f 110//5 103//5 105//5 25//5
f 25//5 105//5 106//5 27//5
f 27//5 106//5 107//5 30//5
f 112//2 108//2 109//2 113//2
f 30//5 107//5 108//5 112//5
f 114//1 115//1 111//1 110//1
f 114//5 110//5 25//5 24//5
f 116//2 112//2 113//2 117//2
f 31//5 30//5 112//5 116//5
f 118//1 119//1 115//1 114//1
f 118//3 32//3 120//3 119//3
f 118//5 114//5 24//5 32//5
f 121//2 116//2 117//2 122//2
f 33//3 121//3 122//3 123//3
f 33//5 31//5 116//5 121//5
f 153//1 154//1 136//1 135//1
f 153//5 135//5 50//5 49//5
f 54//2 38//2 142//2 155//2
f 156//6 155//6 142//6 141//6
f 58//1 157//1 145//1 47//1
f 157//6 158//6 148//6 145//6
f 159//2 149//2 152//2 160//2
f 62//5 61//5 149//5 159//5
f 161//1 162//1 154//1 153//1
f 161//5 153//5 49//5 64//5
f 67//2 54//2 155//2 163//2
f 164//6 163//6 155//6 156//6
f 70//1 165//1 157//1 58//1
f 165//6 166//6 158//6 157//6
f 167//2 159//2 160//2 168//2
f 72//5 62//5 159//5 167//5
f 169//1 170//1 162//1 161//1
f 169//5 161//5 64//5 74//5
f 77//2 67//2 163//2 171//2
f 172//6 171//6 163//6 164//6
f 80//1 173//1 165//1 70//1
f 173//6 174//6 166//6 165//6
f 175//2 167//2 168//2 176//2
f 82//5 72//5 167//5 175//5
f 177//1 178//1 170//1 169//1
f 177//5 169//5 74//5 84//5
f 87//2 77//2 171//2 179//2
f 180//6 179//6 171//6 172//6
f 90//1 181//1 173//1 80//1
f 181//6 182//6 174//6 173//6
f 183//2 175//2 176//2 184//2
f 92//5 82//5 175//5 183//5
f 185//1 186//1 178//1 177//1
f 185//5 177//5 84//5 94//5
f 97//2 87//2 179//2 187//2
f 188//6 187//6 179//6 180//6
f 100//1 189//1 181//1 90//1
f 189//6 190//6 182//6 181//6
f 191//2 183//2 184//2 192//2
f 102//5 92//5 183//5 191//5
f 193//1 194//1 186//1 185//1
f 193//5 185//5 94//5 104//5
f 195//6 196//6 187//6 188//6
f 198//6 199//6 190//6 189//6
f 200//2 191//2 192//2 201//2
f 109//5 102//5 191//5 200//5
f 202//1 203//1 194//1 193//1
f 202//5 193//5 104//5 111//5
f 204//6 205//6 196//6 195//6
f 206//6 207//6 199//6 198//6
f 208//2 200//2 201//2 209//2
f 113//5 109//5 200//5 208//5
f 210//1 211//1 203//1 202//1
f 210//5 202//5 111//5 115//5
f 212//6 213//6 205//6 204//6
f 214//6 215//6 207//6 206//6
f 216//2 208//2 209//2 217//2
f 117//5 113//5 208//5 216//5
f 218//1 219//1 211//1 210//1
f 218//3 119//3 220//3 219//3
f 218//5 210//5 115//5 119//5
f 119//3 120//3 221//3 220//3
f 220//6 221//6 213//6 212//6
f 123//3 122//3 222//3 223//3
f 223//6 222//6 215//6 214//6
f 224//2 216//2 217//2 225//2
f 122//3 224//3 225//3 222//3
f 122//5 117//5 216//5 224//5
f 253//1 254//1 255//1 256//1
f 256//4 255//4 247//4 136//4
f 253//5 256//5 136//5 154//5
f 156//2 141//2 249//2 257//2
f 258//6 257//6 249//6 247//6
f 158//1 259//1 250//1 148//1
f 259//6 260//6 252//6 250//6
f 261//2 262//2 263//2 264//2
f 152//4 252//4 263//4 262//4
f 160//5 152//5 262//5 261//5
f 265//1 266//1 254//1 253//1
f 265//5 253//5 154//5 162//5
f 164//2 156//2 257//2 267//2
f 268//6 267//6 257//6 258//6
f 166//1 269//1 259//1 158//1
f 269//6 270//6 260//6 259//6
f 271//2 261//2 264//2 272//2
f 168//5 160//5 261//5 271//5
f 273//1 274//1 266//1 265//1
f 273//5 265//5 162//5 170//5
f 172//2 164//2 267//2 275//2
f 276//6 275//6 267//6 268//6
f 174//1 277//1 269//1 166//1
f 277//6 278//6 270//6 269//6
f 279//2 271//2 272//2 280//2
f 176//5 168//5 271//5 279//5
f 281//1 282//1 274//1 273//1
f 281//5 273//5 170//5 178//5
f 180//2 172//2 275//2 283//2
f 284//6 283//6 275//6 276//6
f 182//1 285//1 277//1 174//1
f 285//6 286//6 278//6 277//6
f 287//2 279//2 280//2 288//2
f 184//5 176//5 279//5 287//5
f 289//1 290//1 282//1 281//1
f 289//5 281//5 178//5 186//5
f 188//2 180//2 283//2 291//2
f 292//6 291//6 283//6 284//6
f 190//1 293//1 285//1 182//1
f 293//6 294//6 286//6 285//6
f 295//2 287//2 288//2 296//2
f 192//5 184//5 287//5 295//5
f 297//1 298//1 290//1 289//1
f 297//5 289//5 186//5 194//5
f 195//2 188//2 291//2 299//2
f 199//1 305//1 293//1 190//1
f 306//2 295//2 296//2 307//2
f 201//5 192//5 295//5 306//5
f 308//1 309//1 298//1 297//1
f 308//5 297//5 194//5 203//5
f 204//2 195//2 299//2 310//2
f 207//1 313//1 305//1 199//1
f 314//2 306//2 307//2 315//2
f 209//5 201//5 306//5 314//5
f 316//1 317//1 309//1 308//1
f 316//5 308//5 203//5 211//5
f 212//2 204//2 310//2 318//2
f 215//1 321//1 313//1 207//1
f 322//2 314//2 315//2 323//2
f 217//5 209//5 314//5 322//5
f 324//1 325//1 317//1 316//1
f 324//3 219//3 326//3 325//3
f 324//5 316//5 211//5 219//5
f 220//2 212//2 318//2 327//2
f 219//3 220//3 327//3 326//3
f 222//1 330//1 321//1 215//1
f 222//3 225//3 331//3 330//3
f 332//2 322//2 323//2 333//2
f 225//3 332//3 333//3 331//3
f 225//5 217//5 322//5 332//5
f 254//1 392//1 382//1 255//1
f 258//2 247//2 386//2 393//2
f 260//1 394//1 388//1 252//1
f 264//2 263//2 391//2 395//2
f 266//1 396//1 392//1 254//1
f 268//2 258//2 393//2 397//2
f 270//1 398//1 394//1 260//1
f 272//2 264//2 395//2 399//2
f 274//1 400//1 396//1 266//1
f 276//2 268//2 397//2 401//2
f 278//1 402//1 398//1 270//1
f 280//2 272//2 399//2 403//2
f 282//1 404//1 400//1 274//1
f 284//2 276//2 401//2 405//2
f 286//1 406//1 402//1 278//1
f 288//2 280//2 403//2 407//2
f 290//1 408//1 404//1 282//1
f 292//2 284//2 405//2 409//2
f 294//1 410//1 406//1 286//1
f 296//2 288//2 407//2 411//2
f 298//1 412//1 408//1 290//1
f 307//2 296//2 411//2 418//2
f 309//1 419//1 412//1 298//1
f 315//2 307//2 418//2 420//2
f 392//1 508//1 500//1 382//1
f 393//2 386//2 502//2 509//2
f 394//1 510//1 505//1 388//1
f 395//2 391//2 507//2 511//2
f 396//1 512//1 508//1 392//1
f 397//2 393//2 509//2 513//2
f 398//1 514//1 510//1 394//1
f 399//2 395//2 511//2 515//2
f 400//1 516//1 512//1 396//1
f 401//2 397//2 513//2 517//2
f 402//1 518//1 514//1 398//1
f 403//2 399//2 515//2 519//2
f 404//1 520//1 516//1 400//1
f 405//2 401//2 517//2 521//2
f 406//1 522//1 518//1 402//1
f 407//2 403//2 519//2 523//2
f 408//1 524//1 520//1 404//1
f 409//2 405//2 521//2 525//2
f 410//1 526//1 522//1 406//1
f 411//2 407//2 523//2 527//2
f 412//1 528//1 524//1 408//1
f 418//2 411//2 527//2 538//2
f 419//1 539//1 528//1 412//1
f 420//2 418//2 538//2 544//2
f 508//1 617//1 618//1 500//1
f 500//4 618//4 611//4 502//4
f 617//6 619//6 611//6 618//6
f 620//2 503//2 613//2 621//2
f 509//5 502//5 503//5 620//5
f 622//1 623//1 614//1 504//1
f 622//5 504//5 505//5 510//5
f 511//2 507//2 624//2 625//2
f 505//4 616//4 624//4 507//4
f 626//6 625//6 624//6 616//6
f 512//1 627//1 617//1 508//1
f 627//6 628//6 619//6 617//6
f 629//2 620//2 621//2 630//2
f 513//5 509//5 620//5 629//5
f 631//1 632//1 623//1 622//1
f 631//5 622//5 510//5 514//5
f 515//2 511//2 625//2 633//2
f 634//6 633//6 625//6 626//6
f 516//1 635//1 627//1 512//1
f 635//6 636//6 628//6 627//6
f 637//2 629//2 630//2 638//2
f 517//5 513//5 629//5 637//5
f 639//1 640//1 632//1 631//1
f 639//5 631//5 514//5 518//5
f 519//2 515//2 633//2 641//2
f 642//6 641//6 633//6 634//6
f 520//1 643//1 635//1 516//1
f 643//6 644//6 636//6 635//6
f 645//2 637//2 638//2 646//2
f 521//5 517//5 637//5 645//5
f 647//1 648//1 640//1 639//1
f 647//5 639//5 518//5 522//5
f 523//2 519//2 641//2 649//2
f 650//6 649//6 641//6 642//6
f 524//1 651//1 643//1 520//1
f 651//6 652//6 644//6 643//6
f 529//2 645//2 646//2 653//2
f 525//5 521//5 645//5 529//5
f 535//1 654//1 648//1 647//1
f 535//5 647//5 522//5 526//5
f 527//2 523//2 649//2 655//2
f 656//6 655//6 649//6 650//6
f 528//1 657//1 651//1 524//1
f 657//6 658//6 652//6 651//6
f 531//2 529//2 653//2 659//2
f 537//1 665//1 654//1 535//1
f 538//2 527//2 655//2 666//2
f 667//6 666//6 655//6 656//6
f 539//1 668//1 657//1 528//1
f 668//6 669//6 658//6 657//6
f 540//2 531//2 659//2 670//2
f 543//1 673//1 665//1 537//1
f 544//2 538//2 666//2 674//2
f 675//6 674//6 666//6 667//6
f 547//1 676//1 668//1 539//1
f 676//6 677//6 669//6 668//6
f 548//2 540//2 670//2 678//2
f 551//1 681//1 673//1 543//1
f 554//2 544//2 674//2 682//2
f 683//6 682//6 674//6 675//6
f 558//1 684//1 676//1 547//1
f 558//3 573//3 685//3 684//3
f 684//6 685//6 677//6 676//6
f 559//2 548//2 678//2 686//2
f 573//3 559//3 686//3 685//3
f 562//1 689//1 681//1 551//1
f 562//3 579//3 690//3 689//3
f 563//2 554//2 682//2 691//2
f 579//3 563//3 691//3 690//3
f 690//6 691//6 682//6 683//6
f 619//1 725//1 711//1 611//1
f 725//6 726//6 714//6 711//6
f 727//2 715//2 716//2 728//2
f 621//5 613//5 715//5 727//5
f 729//1 730//1 720//1 719//1
f 729//5 719//5 614//5 623//5
f 626//2 616//2 724//2 731//2
f 732//6 731//6 724//6 722//6
f 628//1 733//1 725//1 619//1
f 733//6 734//6 726//6 725//6
f 735//2 727//2 728//2 736//2
f 630//5 621//5 727//5 735//5
f 737//1 738//1 730//1 729//1
f 737//5 729//5 623//5 632//5
f 634//2 626//2 731//2 739//2
f 740//6 739//6 731//6 732//6
f 636//1 741//1 733//1 628//1
f 741//6 742//6 734//6 733//6
f 642//2 634//2 739//2 747//2
f 748//6 747//6 739//6 740//6
f 644//1 749//1 741//1 636//1
f 749//6 750//6 742//6 741//6
f 650//2 642//2 747//2 755//2
f 756//6 755//6 747//6 748//6
f 652//1 757//1 749//1 644//1
f 757//6 758//6 750//6 749//6
f 656//2 650//2 755//2 761//2
f 762//6 761//6 755//6 756//6
f 658//1 763//1 757//1 652//1
f 763//6 764//6 758//6 757//6
f 659//5 653//5 661//5 660//5
f 664//5 663//5 654//5 665//5
f 667//2 656//2 761//2 766//2
f 767//6 766//6 761//6 762//6
f 669//1 768//1 763//1 658//1
f 768//6 769//6 764//6 763//6
f 670//5 659//5 660//5 671//5
f 672//5 664//5 665//5 673//5
f 675//2 667//2 766//2 770//2
f 771//6 770//6 766//6 767//6
f 677//1 772//1 768//1 669//1
f 772//6 773//6 769//6 768//6
f 678//5 670//5 671//5 679//5
f 680//5 672//5 673//5 681//5
f 683//2 675//2 770//2 774//2
f 775//6 774//6 770//6 771//6
f 685//1 776//1 772//1 677//1
f 685//3 686//3 777//3 776//3
f 776//6 777//6 773//6 772//6
f 686//3 687//3 778//3 777//3
f 686//5 678//5 679//5 687//5
f 688//3 689//3 779//3 780//3
f 688//5 680//5 681//5 689//5
f 690//2 683//2 774//2 781//2
f 689//3 690//3 781//3 779//3
f 779//6 781//6 774//6 775//6
f 726//1 791//1 792//1 714//1
f 714//4 792//4 785//4 716//4
f 791//6 793//6 785//6 792//6
f 728//5 716//5 718//5 794//5
f 793//6 795//6 788//6 785//6
f 794//5 718//5 720//5 730//5
f 795//6 796//6 790//6 788//6
f 732//2 722//2 797//2 798//2
f 720//4 790//4 797//4 722//4
f 796//6 798//6 797//6 790//6
f 734//1 799//1 791//1 726//1
f 799//6 800//6 793//6 791//6
f 736//5 728//5 794//5 801//5
f 800//6 802//6 795//6 793//6
f 801//5 794//5 730//5 738//5
f 802//6 803//6 796//6 795//6
f 740//2 732//2 798//2 804//2
f 803//6 804//6 798//6 796//6
f 764//1 822//1 817//1 758//1
f 822//6 823//6 818//6 817//6
f 823//6 824//6 819//6 818//6
f 824//6 825//6 820//6 819//6
f 767//2 762//2 821//2 826//2
f 825//6 826//6 821//6 820//6
f 769//1 827//1 822//1 764//1
f 827//6 828//6 823//6 822//6
f 828//6 829//6 824//6 823//6
f 829//6 830//6 825//6 824//6
f 771//2 767//2 826//2 831//2
f 830//6 831//6 826//6 825//6
f 773//1 832//1 827//1 769//1
f 832//6 833//6 828//6 827//6
f 775//2 771//2 831//2 834//2
f 835//6 834//6 831//6 830//6
f 777//1 836//1 832//1 773//1
f 777//3 778//3 837//3 836//3
f 836//6 837//6 833//6 832//6
f 779//2 775//2 834//2 838//2
f 780//3 779//3 838//3 839//3
f 839//6 838//6 834//6 835//6
g glyph_42
f 336//1 337//1 338//1 339//1
f 336//3 340//3 341//3 337//3
f 339//4 338//4 334//4 226//4
f 336//5 339//5 226//5 340//5
f 340//5 226//5 227//5 342//5
f 342//5 227//5 228//5 343//5
f 344//2 345//2 346//2 347//2
f 343//3 344//3 347//3 348//3
f 228//4 335//4 346//4 345//4
f 343//5 228//5 345//5 344//5
f 349//1 350//1 341//1 340//1
f 349//3 351//3 352//3 350//3
f 349//5 340//5 342//5 351//5
f 353//2 343//2 348//2 354//2
f 351//3 353//3 354//3 352//3
f 351//5 342//5 343//5 353//5
f 337//1 465//1 451//1 338//1
f 347//2 346//2 454//2 466//2
f 467//1 468//1 465//1 337//1
f 467//3 350//3 469//3 468//3
f 467//5 337//5 341//5 350//5
f 470//2 347//2 466//2 471//2
f 354//3 470//3 471//3 472//3
f 354//5 348//5 347//5 470//5
f 473//1 474//1 469//1 350//1
f 473//3 475//3 476//3 474//3
f 473//5 350//5 352//5 475//5
f 477//2 354//2 472//2 478//2
f 475//3 477//3 478//3 476//3
f 475//5 352//5 354//5 477//5
f 465//1 585//1 574//1 451//1
f 466//2 454//2 577//2 586//2
f 468//1 587//1 585//1 465//1
f 468//3 469//3 588//3 587//3
f 587//6 588//6 589//6 585//6
f 471//2 466//2 586//2 590//2
f 472//3 471//3 590//3 591//3
f 591//6 590//6 586//6 592//6
f 474//1 593//1 588//1 469//1
f 474//3 476//3 594//3 593//3
f 593//6 594//6 595//6 588//6
f 478//2 472//2 591//2 596//2
f 476//3 478//3 596//3 594//3
f 594//6 596//6 591//6 595//6
f 585//1 694//1 695//1 574//1
f 585//3 589//3 696//3 694//3
f 574//4 695//4 692//4 575//4
f 694//6 696//6 692//6 695//6
f 696//6 697//6 698//6 692//6
f 697//6 699//6 693//6 698//6
f 586//2 577//2 700//2 701//2
f 592//3 586//3 701//3 699//3
f 576//4 693//4 700//4 577//4
f 699//6 701//6 700//6 693//6
f 588//1 702//1 696//1 589//1
f 588//3 595//3 703//3 702//3
f 702//6 703//6 697//6 696//6
f 591//2 592//2 699//2 704//2
f 595//3 591//3 704//3 703//3
f 703//6 704//6 699//6 697//6
g glyph_43
f 1//1 2//1 3//1 4//1
f 1//3 5//3 6//3 2//3
f 4//4 3//4 7//4 8//4
f 1//5 4//5 8//5 5//5
f 9//2 10//2 11//2 12//2
f 5//3 9//3 12//3 6//3
f 8//4 7//4 11//4 10//4
f 5//5 8//5 10//5 9//5
f 3//1 13//1 14//1 15//1
f 15//4 14//4 16//4 17//4
f 3//5 15//5 17//5 7//5
f 11//2 18//2 19//2 20//2
f 17//4 16//4 19//4 18//4
f 7//5 17//5 18//5 11//5
f 2//1 21//1 13//1 3//1
f 2//3 6//3 22//3 21//3
f 12//2 11//2 20//2 23//2
f 6//3 12//3 23//3 22//3
f 14//1 24//1 25//1 26//1
f 26//4 25//4 27//4 28//4
f 14//5 26//5 28//5 16//5
f 19//2 29//2 30//2 31//2
f 28//4 27//4 30//4 29//4
f 16//5 28//5 29//5 19//5
f 13//1 32//1 24//1 14//1
f 20//2 19//2 31//2 33//2
f 21//1 34//1 32//1 13//1
f 21//3 22//3 35//3 34//3
f 23//2 20//2 33//2 36//2
f 22//3 23//3 36//3 35//3
f 34//1 124//1 120//1 32//1
f 34//3 35//3 125//3 124//3
f 36//2 33//2 123//2 126//2
f 35//3 36//3 126//3 125//3
f 97//4 187//4 197//4 98//4
f 98//4 197//4 189//4 100//4
f 124//1 226//1 221//1 120//1
f 124//3 125//3 227//3 226//3
f 126//2 123//2 223//2 228//2
f 125//3 126//3 228//3 227//3
f 196//1 300//1 301//1 187//1
f 187//4 301//4 302//4 197//4
f 198//2 189//2 303//2 304//2
f 197//4 302//4 303//4 189//4
f 205//1 311//1 300//1 196//1
f 206//2 198//2 304//2 312//2
f 213//1 319//1 311//1 205//1
f 214//2 206//2 312//2 320//2
f 221//1 328//1 319//1 213//1
f 223//2 214//2 320//2 329//2
f 226//1 334//1 328//1 221//1
f 228//2 223//2 329//2 335//2
f 292//4 409//4 413//4 291//4
f 291//4 413//4 414//4 301//4
f 299//5 291//5 301//5 300//5
f 301//4 414//4 415//4 302//4
f 302//4 415//4 416//4 303//4
f 303//4 416//4 417//4 293//4
f 304//5 303//5 293//5 305//5
f 293//4 417//4 410//4 294//4
f 310//5 299//5 300//5 311//5
f 312//5 304//5 305//5 313//5
f 421//1 422//1 423//1 424//1
f 424//4 423//4 419//4 309//4
f 421//5 424//5 309//5 317//5
f 318//5 310//5 311//5 319//5
f 320//5 312//5 313//5 321//5
f 425//2 426//2 427//2 428//2
f 315//4 420//4 427//4 426//4
f 323//5 315//5 426//5 425//5
f 429//1 430//1 431//1 432//1
f 432//4 431//4 422//4 421//4
f 429//5 432//5 421//5 433//5
f 433//5 421//5 317//5 325//5
f 327//5 318//5 319//5 328//5
f 329//5 320//5 321//5 330//5
f 333//5 323//5 425//5 434//5
f 435//2 436//2 437//2 438//2
f 425//4 428//4 437//4 436//4
f 434//5 425//5 436//5 435//5
f 439//1 440//1 441//1 442//1
f 439//3 443//3 444//3 440//3
f 442//4 441//4 430//4 429//4
f 439//5 442//5 429//5 443//5
f 443//3 445//3 446//3 444//3
f 443//5 429//5 433//5 445//5
f 445//3 447//3 448//3 446//3
f 445//5 433//5 325//5 447//5
f 447//3 449//3 450//3 448//3
f 447//5 325//5 326//5 449//5
f 449//3 338//3 451//3 450//3
f 449//5 326//5 327//5 338//5
f 338//5 327//5 328//5 334//5
f 335//5 329//5 330//5 346//5
f 346//3 452//3 453//3 454//3
f 346//5 330//5 331//5 452//5
f 452//3 455//3 456//3 453//3
f 452//5 331//5 333//5 455//5
f 455//3 457//3 458//3 456//3
f 455//5 333//5 434//5 457//5
f 457//3 459//3 460//3 458//3
f 457//5 434//5 435//5 459//5
f 461//2 462//2 463//2 464//2
f 459//3 461//3 464//3 460//3
f 435//4 438//4 463//4 462//4
f 459//5 435//5 462//5 461//5
f 409//4 525//4 529//4 413//4
f 413//4 529//4 530//4 414//4
f 531//6 532//6 530//6 529//6
f 414//4 530//4 533//4 415//4
f 415//4 533//4 534//4 416//4
f 416//4 534//4 535//4 417//4
f 536//6 537//6 535//6 534//6
f 417//4 535//4 526//4 410//4
f 540//6 541//6 532//6 531//6
f 542//6 543//6 537//6 536//6
f 422//1 545//1 546//1 423//1
f 423//4 546//4 539//4 419//4
f 545//6 547//6 539//6 546//6
f 548//6 549//6 541//6 540//6
f 550//6 551//6 543//6 542//6
f 428//2 427//2 552//2 553//2
f 420//4 544//4 552//4 427//4
f 554//6 553//6 552//6 544//6
f 430//1 555//1 556//1 431//1
f 431//4 556//4 545//4 422//4
f 555//6 557//6 545//6 556//6
f 557//6 558//6 547//6 545//6
f 559//6 560//6 549//6 548//6
f 561//6 562//6 551//6 550//6
f 563//6 564//6 553//6 554//6
f 438//2 437//2 565//2 566//2
f 428//4 553//4 565//4 437//4
f 564//6 566//6 565//6 553//6
f 440//1 567//1 568//1 441//1
f 440//3 444//3 569//3 567//3
f 441//4 568//4 555//4 430//4
f 567//6 569//6 555//6 568//6
f 444//3 446//3 570//3 569//3
f 569//6 570//6 557//6 555//6
f 446//3 448//3 571//3 570//3
f 570//6 571//6 558//6 557//6
f 448//3 450//3 572//3 571//3
f 571//6 572//6 573//6 558//6
f 450//3 451//3 574//3 572//3
f 572//6 574//6 559//6 573//6
f 574//6 575//6 560//6 559//6
f 576//6 577//6 562//6 561//6
f 454//3 453//3 578//3 577//3
f 577//6 578//6 579//6 562//6
f 453//3 456//3 580//3 578//3
f 578//6 580//6 563//6 579//6
f 456//3 458//3 581//3 580//3
f 580//6 581//6 564//6 563//6
f 458//3 460//3 582//3 581//3
f 581//6 582//6 566//6 564//6
f 464//2 463//2 583//2 584//2
f 460//3 464//3 584//3 582//3
f 438//4 566//4 583//4 463//4
f 582//6 584//6 583//6 566//6
f 532//1 660//1 661//1 530//1
f 530//4 661//4 662//4 533//4
f 536//2 534//2 663//2 664//2
f 533//4 662//4 663//4 534//4
f 541//1 671//1 660//1 532//1
f 542//2 536//2 664//2 672//2
f 549//1 679//1 671//1 541//1
f 550//2 542//2 672//2 680//2
f 560//1 687//1 679//1 549//1
f 561//2 550//2 680//2 688//2
f 575//1 692//1 687//1 560//1
f 576//2 561//2 688//2 693//2
f 661//4 759//4 765//4 662//4
f 662//4 765//4 760//4 663//4
f 692//1 782//1 778//1 687//1
f 692//3 698//3 783//3 782//3
f 693//2 688//2 780//2 784//2
f 698//3 693//3 784//3 783//3
f 782//1 840//1 837//1 778//1
f 782//3 783//3 841//3 840//3
f 784//2 780//2 839//2 842//2
f 783//3 784//3 842//3 841//3
f 833//1 843//1 844//1 828//1
f 828//4 844//4 845//4 829//4
f 843//6 846//6 845//6 844//6
f 835//2 830//2 847//2 848//2
f 829//4 845//4 847//4 830//4
f 846//6 848//6 847//6 845//6
f 837//1 849//1 843//1 833//1
f 839//2 835//2 848//2 850//2
f 840//1 851//1 849//1 837//1
f 840//3 841//3 852//3 851//3
f 842//2 839//2 850//2 853//2
f 841//3 842//3 853//3 852//3
f 849//1 854//1 855//1 843//1
f 843//4 855//4 856//4 846//4
f 854//6 857//6 856//6 855//6
f 850//2 848//2 858//2 859//2
f 846//4 856//4 858//4 848//4
f 857//6 859//6 858//6 856//6
f 851//1 860//1 854//1 849//1
f 851//3 852//3 861//3 860//3
f 853//2 850//2 859//2 862//2
f 852//3 853//3 862//3 861//3
f 860//1 863//1 864//1 854//1
f 860//3 861//3 865//3 863//3
f 854//4 864//4 866//4 857//4
f 863//6 865//6 866//6 864//6
f 862//2 859//2 867//2 868//2
f 861//3 862//3 868//3 865//3
f 857//4 866//4 867//4 859//4
f 865//6 868//6 867//6 866//6
g glyph_64
f 37//1 38//1 39//1 40//1
f 40//4 39//4 41//4 42//4
f 37//5 40//5 42//5 43//5
f 44//2 45//2 46//2 47//2
f 42//4 41//4 46//4 45//4
f 43//5 42//5 45//5 44//5
f 39//1 127//1 128//1 129//1
f 129//4 128//4 130//4 131//4
f 39//5 129//5 131//5 41//5
f 46//2 132//2 133//2 134//2
f 131//4 130//4 133//4 132//4
f 41//5 131//5 132//5 46//5
f 135//1 136//1 137//1 138//1
f 138//4 137//4 139//4 140//4
f 135//5 138//5 140//5 50//5
f 140//4 139//4 127//4 39//4
f 50//5 140//5 39//5 38//5
f 141//6 142//6 127//6 139//6
f 38//3 56//3 143//3 142//3
f 142//6 143//6 144//6 127//6
f 56//3 47//3 145//3 143//3
f 143//6 145//6 134//6 144//6
f 46//4 134//4 146//4 147//4
f 47//5 46//5 147//5 61//5
f 145//6 148//6 146//6 134//6
f 149//2 150//2 151//2 152//2
f 147//4 146//4 151//4 150//4
f 61//5 147//5 150//5 149//5
f 128//1 229//1 230//1 231//1
f 231//4 230//4 232//4 233//4
f 128//5 231//5 233//5 130//5
f 133//2 234//2 235//2 236//2
f 233//4 232//4 235//4 234//4
f 130//5 233//5 234//5 133//5
f 139//1 237//1 238//1 239//1
f 139//3 127//3 240//3 237//3
f 239//4 238//4 229//4 128//4
f 139//5 239//5 128//5 127//5
f 127//3 144//3 241//3 240//3
f 240//6 241//6 242//6 229//6
f 144//3 134//3 243//3 241//3
f 241//6 243//6 236//6 242//6
f 146//2 244//2 245//2 246//2
f 134//3 146//3 246//3 243//3
f 133//4 236//4 245//4 244//4
f 134//5 133//5 244//5 146//5
f 136//1 247//1 248//1 137//1
f 141//2 139//2 237//2 249//2
f 137//4 248//4 237//4 139//4
f 148//1 250//1 246//1 146//1
f 152//2 151//2 251//2 252//2
f 146//4 246//4 251//4 151//4
f 230//1 355//1 356//1 357//1
f 357//4 356//4 358//4 359//4
f 230//5 357//5 359//5 232//5
f 235//2 360//2 361//2 362//2
f 359//4 358//4 361//4 360//4
f 232//5 359//5 360//5 235//5
f 238//1 363//1 364//1 365//1
f 365//4 364//4 355//4 230//4
f 238//5 365//5 230//5 229//5
f 229//3 242//3 366//3 367//3
f 242//3 236//3 368//3 366//3
f 245//2 369//2 370//2 371//2
f 235//4 362//4 370//4 369//4
f 236//5 235//5 369//5 245//5
f 248//1 372//1 373//1 374//1
f 374//4 373//4 363//4 238//4
f 248//5 374//5 238//5 237//5
f 240//2 229//2 367//2 375//2
f 237//3 240//3 375//3 376//3
f 243//1 377//1 368//1 236//1
f 243//3 246//3 378//3 377//3
f 251//2 379//2 380//2 381//2
f 245//4 371//4 380//4 379//4
f 246//5 245//5 379//5 251//5
f 255//1 382//1 383//1 384//1
f 384//4 383//4 372//4 248//4
f 255//5 384//5 248//5 247//5
f 249//2 237//2 376//2 385//2
f 247//3 249//3 385//3 386//3
f 250//1 387//1 378//1 246//1
f 250//3 252//3 388//3 387//3
f 263//2 389//2 390//2 391//2
f 251//4 381//4 390//4 389//4
f 252//5 251//5 389//5 263//5
f 355//1 479//1 480//1 356//1
f 356//4 480//4 481//4 358//4
f 479//6 482//6 481//6 480//6
f 362//2 361//2 483//2 484//2
f 358//4 481//4 483//4 361//4
f 482//6 484//6 483//6 481//6
f 363//1 485//1 486//1 364//1
f 364//4 486//4 479//4 355//4
f 485//6 487//6 479//6 486//6
f 367//3 366//3 488//3 487//3
f 366//3 368//3 489//3 488//3
f 371//2 370//2 490//2 491//2
f 362//4 484//4 490//4 370//4
f 489//6 491//6 490//6 484//6
f 372//1 492//1 493//1 373//1
f 373//4 493//4 485//4 363//4
f 492//6 494//6 485//6 493//6
f 375//2 367//2 487//2 495//2
f 376//3 375//3 495//3 494//3
f 377//1 496//1 489//1 368//1
f 377//3 378//3 497//3 496//3
f 381//2 380//2 498//2 499//2
f 371//4 491//4 498//4 380//4
f 497//6 499//6 498//6 491//6
f 382//1 500//1 501//1 383//1
f 383//4 501//4 492//4 372//4
f 500//6 502//6 492//6 501//6
f 385//2 376//2 494//2 503//2
f 386//3 385//3 503//3 502//3
f 387//1 504//1 497//1 378//1
f 387//3 388//3 505//3 504//3
f 391//2 390//2 506//2 507//2
f 381//4 499//4 506//4 390//4
f 505//6 507//6 506//6 499//6
f 487//1 597//1 598//1 479//1
f 479//4 598//4 599//4 482//4
f 597//6 600//6 599//6 598//6
f 489//2 484//2 601//2 602//2
f 482//4 599//4 601//4 484//4
f 600//6 602//6 601//6 599//6
f 494//1 603//1 604//1 485//1
f 494//3 495//3 605//3 603//3
f 485//4 604//4 597//4 487//4
f 603//6 605//6 597//6 604//6
f 495//3 606//3 607//3 605//3
f 495//5 487//5 488//5 606//5
f 606//3 496//3 608//3 607//3
f 606//5 488//5 489//5 496//5
f 497//2 491//2 609//2 610//2
f 496//3 497//3 610//3 608//3
f 489//4 602//4 609//4 491//4
f 608//6 610//6 609//6 602//6
f 502//1 611//1 612//1 492//1
f 503//2 494//2 603//2 613//2
f 492//4 612//4 603//4 494//4
f 504//1 614//1 610//1 497//1
f 505//2 499//2 615//2 616//2
f 497//4 610//4 615//4 499//4
f 605//1 705//1 706//1 597//1
f 597//4 706//4 707//4 600//4
f 705//6 708//6 707//6 706//6
f 608//2 602//2 709//2 710//2
f 600//4 707//4 709//4 602//4
f 708//6 710//6 709//6 707//6
f 611//1 711//1 712//1 612//1
f 612//4 712//4 713//4 603//4
f 711//6 714//6 713//6 712//6
f 603//4 713//4 705//4 605//4
f 613//5 603//5 605//5 715//5
f 714//6 716//6 705//6 713//6
f 715//3 717//3 718//3 716//3
f 715//5 605//5 607//5 717//5
f 717//3 719//3 720//3 718//3
f 717//5 607//5 608//5 719//5
f 608//4 710//4 721//4 610//4
f 719//5 608//5 610//5 614//5
f 720//6 722//6 721//6 710//6
f 616//2 615//2 723//2 724//2
f 610//4 721//4 723//4 615//4
f 722//6 724//6 723//6 721//6
f 716//1 785//1 786//1 705//1
f 705//4 786//4 787//4 708//4
f 785//6 788//6 787//6 786//6
f 720//2 710//2 789//2 790//2
f 708//4 787//4 789//4 710//4
f 788//6 790//6 789//6 787//6
g glyph_111
f 743//2 735//2 736//2 744//2
f 638//5 630//5 735//5 743//5
f 745//1 746//1 738//1 737//1
f 745//5 737//5 632//5 640//5
f 751//2 743//2 744//2 752//2
f 646//5 638//5 743//5 751//5
f 753//1 754//1 746//1 745//1
f 753//5 745//5 640//5 648//5
f 661//2 751//2 752//2 759//2
f 653//5 646//5 751//5 661//5
f 663//1 760//1 754//1 753//1
f 663//5 753//5 648//5 654//5
f 742//1 805//1 799//1 734//1
f 805//6 806//6 800//6 799//6
f 744//5 736//5 801//5 807//5
f 806//6 808//6 802//6 800//6
f 807//5 801//5 738//5 746//5
f 808//6 809//6 803//6 802//6
f 748//2 740//2 804//2 810//2
f 809//6 810//6 804//6 803//6
f 750//1 811//1 805//1 742//1
f 811//6 812//6 806//6 805//6
f 752//5 744//5 807//5 813//5
f 812//6 814//6 808//6 806//6
f 813//5 807//5 746//5 754//5
f 814//6 815//6 809//6 808//6
f 756//2 748//2 810//2 816//2
f 815//6 816//6 810//6 809//6
f 758//1 817//1 811//1 750//1
f 817//6 818//6 812//6 811//6
f 759//5 752//5 813//5 765//5
f 818//6 819//6 814//6 812//6
f 765//5 813//5 754//5 760//5
f 819//6 820//6 815//6 814//6
f 762//2 756//2 816//2 821//2
f 820//6 821//6 816//6 815//6
