# Rook occupied-cell surface mesh
# Moon gate
# One cell is one unit. Y points up; Z follows the 3md slice index.
o sculpture
v -9 -9 -5
v -9 -9 -4
v -9 -8 -4
v -9 -8 -5
v -8 -8 -4
v -8 -8 -5
v -8 -9 -5
v -7 -8 -4
v -7 -8 -5
v -7 -9 -5
v -6 -8 -4
v -6 -8 -5
v -6 -9 -5
v -5 -8 -4
v -5 -8 -5
v -5 -9 -5
v -4 -8 -4
v -4 -8 -5
v -4 -9 -5
v -3 -8 -4
v -3 -8 -5
v -3 -9 -5
v -2 -8 -4
v -2 -8 -5
v -2 -9 -5
v -1 -8 -4
v -1 -8 -5
v -1 -9 -5
v 0 -8 -4
v 0 -8 -5
v 0 -9 -5
v 1 -8 -4
v 1 -8 -5
v 1 -9 -5
v 2 -8 -4
v 2 -8 -5
v 2 -9 -5
v 3 -8 -4
v 3 -8 -5
v 3 -9 -5
v 4 -8 -4
v 4 -8 -5
v 4 -9 -5
v 5 -8 -4
v 5 -8 -5
v 5 -9 -5
v 6 -8 -4
v 6 -8 -5
v 6 -9 -5
v 7 -8 -4
v 7 -8 -5
v 7 -9 -5
v 8 -8 -4
v 8 -8 -5
v 8 -9 -5
v 9 -9 -5
v 9 -8 -5
v 9 -8 -4
v 9 -9 -4
v -9 -10 -5
v -9 -10 -4
v -8 -10 -5
v -8 -10 -4
v -7 -10 -5
v -7 -10 -4
v -6 -10 -5
v -6 -10 -4
v -5 -10 -5
v -5 -10 -4
v -4 -10 -5
v -4 -10 -4
v -3 -10 -5
v -3 -10 -4
v -2 -10 -5
v -2 -10 -4
v -1 -10 -5
v -1 -10 -4
v 0 -10 -5
v 0 -10 -4
v 1 -10 -5
v 1 -10 -4
v 2 -10 -5
v 2 -10 -4
v 3 -10 -5
v 3 -10 -4
v 4 -10 -5
v 4 -10 -4
v 5 -10 -5
v 5 -10 -4
v 6 -10 -5
v 6 -10 -4
v 7 -10 -5
v 7 -10 -4
v 8 -10 -5
v 8 -10 -4
v 9 -10 -5
v 9 -10 -4
v -4 2 -4
v -4 2 -3
v -4 3 -3
v -4 3 -4
v -3 3 -3
v -3 3 -4
v -3 2 -4
v -2 3 -3
v -2 3 -4
v -2 2 -4
v -1 3 -3
v -1 3 -4
v -1 2 -4
v 0 3 -3
v 0 3 -4
v 0 2 -4
v 1 3 -3
v 1 3 -4
v 1 2 -4
v 2 3 -3
v 2 3 -4
v 2 2 -4
v 3 3 -3
v 3 3 -4
v 3 2 -4
v 4 2 -4
v 4 3 -4
v 4 3 -3
v 4 2 -3
v -5 1 -4
v -5 1 -3
v -5 2 -3
v -5 2 -4
v -4 1 -4
v -3 1 -4
v -2 1 -4
v -1 1 -4
v -1 1 -3
v -2 1 -3
v 0 1 -4
v 0 1 -3
v 1 1 -4
v 1 1 -3
v 2 1 -4
v 2 1 -3
v 3 1 -4
v 4 1 -4
v 5 1 -4
v 5 2 -4
v 5 2 -3
v 5 1 -3
v -6 0 -4
v -6 0 -3
v -6 1 -3
v -6 1 -4
v -5 0 -4
v -4 0 -4
v -3 0 -4
v -2 0 -4
v -2 0 -3
v -3 0 -3
v 2 0 -4
v 2 0 -3
v 3 0 -4
v 3 0 -3
v 4 0 -4
v 5 0 -4
v 6 0 -4
v 6 1 -4
v 6 1 -3
v 6 0 -3
v -6 -1 -4
v -6 -1 -3
v -5 -1 -4
v -4 -1 -4
v -3 -1 -4
v -3 -1 -3
v -4 -1 -3
v 3 -1 -4
v 3 -1 -3
v 4 -1 -4
v 4 -1 -3
v 5 -1 -4
v 6 -1 -4
v 6 -1 -3
v -7 -2 -4
v -7 -2 -3
v -7 -1 -3
v -7 -1 -4
v -6 -2 -4
v -5 -2 -4
v -4 -2 -4
v -4 -2 -3
v 4 -2 -4
v 4 -2 -3
v 5 -2 -4
v 6 -2 -4
v 7 -2 -4
v 7 -1 -4
v 7 -1 -3
v 7 -2 -3
v -7 -3 -4
v -7 -3 -3
v -6 -3 -4
v -5 -3 -4
v -4 -3 -4
v -4 -3 -3
v -5 -3 -3
v 4 -3 -4
v 4 -3 -3
v 5 -3 -4
v 5 -3 -3
v 6 -3 -4
v 7 -3 -4
v 7 -3 -3
v -7 -4 -4
v -7 -4 -3
v -6 -4 -4
v -5 -4 -4
v -5 -4 -3
v 5 -4 -4
v 5 -4 -3
v 6 -4 -4
v 7 -4 -4
v 7 -4 -3
v -7 -5 -4
v -7 -5 -3
v -6 -5 -4
v -5 -5 -4
v -4 -5 -4
v -4 -4 -4
v -4 -4 -3
v -4 -5 -3
v 4 -5 -4
v 4 -5 -3
v 4 -4 -3
v 4 -4 -4
v 5 -5 -4
v 6 -5 -4
v 7 -5 -4
v 7 -5 -3
v -7 -6 -4
v -7 -6 -3
v -6 -6 -4
v -5 -6 -4
v -4 -6 -4
v -4 -6 -3
v 4 -6 -4
v 4 -6 -3
v 5 -6 -4
v 6 -6 -4
v 7 -6 -4
v 7 -6 -3
v -7 -7 -4
v -7 -7 -3
v -6 -7 -4
v -5 -7 -4
v -4 -7 -4
v -4 -7 -3
v 4 -7 -4
v 4 -7 -3
v 5 -7 -4
v 6 -7 -4
v 7 -7 -4
v 7 -7 -3
v -7 -8 -3
v -4 -8 -3
v 4 -8 -3
v 7 -8 -3
v -9 -9 -3
v -9 -8 -3
v -8 -8 -3
v -3 -8 -3
v -2 -8 -3
v -1 -8 -3
v 0 -8 -3
v 1 -8 -3
v 2 -8 -3
v 3 -8 -3
v 8 -8 -3
v 9 -8 -3
v 9 -9 -3
v -9 -10 -3
v -8 -10 -3
v -7 -10 -3
v -6 -10 -3
v -5 -10 -3
v -4 -10 -3
v -3 -10 -3
v -2 -10 -3
v -1 -10 -3
v 0 -10 -3
v 1 -10 -3
v 2 -10 -3
v 3 -10 -3
v 4 -10 -3
v 5 -10 -3
v 6 -10 -3
v 7 -10 -3
v 8 -10 -3
v 9 -10 -3
v -4 2 -2
v -4 3 -2
v -3 3 -2
v -2 3 -2
v -1 3 -2
v 0 3 -2
v 1 3 -2
v 2 3 -2
v 3 3 -2
v 4 3 -2
v 4 2 -2
v -5 1 -2
v -5 2 -2
v -1 1 -2
v -2 1 -2
v 0 1 -2
v 1 1 -2
v 2 1 -2
v 5 2 -2
v 5 1 -2
v -6 0 -2
v -6 1 -2
v -2 0 -2
v -3 0 -2
v 2 0 -2
v 3 0 -2
v 6 1 -2
v 6 0 -2
v -6 -1 -2
v -3 -1 -2
v -4 -1 -2
v 3 -1 -2
v 4 -1 -2
v 6 -1 -2
v -7 -2 -2
v -7 -1 -2
v -4 -2 -2
v 4 -2 -2
v 7 -1 -2
v 7 -2 -2
v -7 -3 -2
v -4 -3 -2
v -5 -3 -2
v 4 -3 -2
v 5 -3 -2
v 7 -3 -2
v -7 -4 -2
v -5 -4 -2
v 5 -4 -2
v 7 -4 -2
v -7 -5 -2
v -4 -4 -2
v -4 -5 -2
v 4 -5 -2
v 4 -4 -2
v 7 -5 -2
v -7 -6 -2
v -4 -6 -2
v 4 -6 -2
v 7 -6 -2
v -7 -7 -2
v -4 -7 -2
v 4 -7 -2
v 7 -7 -2
v -7 -8 -2
v -4 -8 -2
v 4 -8 -2
v 7 -8 -2
v -9 -9 -2
v -9 -8 -2
v -8 -8 -2
v -3 -8 -2
v -2 -8 -2
v -1 -8 -2
v 0 -8 -2
v 1 -8 -2
v 2 -8 -2
v 3 -8 -2
v 8 -8 -2
v 9 -8 -2
v 9 -9 -2
v -9 -10 -2
v -8 -10 -2
v -7 -10 -2
v -6 -10 -2
v -5 -10 -2
v -4 -10 -2
v -3 -10 -2
v -2 -10 -2
v -1 -10 -2
v 0 -10 -2
v 1 -10 -2
v 2 -10 -2
v 3 -10 -2
v 4 -10 -2
v 5 -10 -2
v 6 -10 -2
v 7 -10 -2
v 8 -10 -2
v 9 -10 -2
v -4 2 -1
v -4 3 -1
v -3 3 -1
v -2 3 -1
v -1 3 -1
v 0 3 -1
v 1 3 -1
v 2 3 -1
v 3 3 -1
v 4 3 -1
v 4 2 -1
v -5 1 -1
v -5 2 -1
v -1 1 -1
v -2 1 -1
v 0 1 -1
v 1 1 -1
v 2 1 -1
v 5 2 -1
v 5 1 -1
v -6 0 -1
v -6 1 -1
v -2 0 -1
v -3 0 -1
v 2 0 -1
v 3 0 -1
v 6 1 -1
v 6 0 -1
v -6 -1 -1
v -3 -1 -1
v -4 -1 -1
v 3 -1 -1
v 4 -1 -1
v 6 -1 -1
v -7 -2 -1
v -7 -1 -1
v -4 -2 -1
v 4 -2 -1
v 7 -1 -1
v 7 -2 -1
v -8 -3 -2
v -8 -3 -1
v -8 -2 -1
v -8 -2 -2
v -4 -3 -1
v -5 -3 -1
v 4 -3 -1
v 5 -3 -1
v 8 -3 -2
v 8 -2 -2
v 8 -2 -1
v 8 -3 -1
v -8 -4 -2
v -8 -4 -1
v -5 -4 -1
v 5 -4 -1
v 8 -4 -2
v 8 -4 -1
v -8 -5 -2
v -8 -5 -1
v -4 -4 -1
v -4 -5 -1
v 4 -5 -1
v 4 -4 -1
v 8 -5 -2
v 8 -5 -1
v -8 -6 -2
v -8 -6 -1
v -4 -6 -1
v 4 -6 -1
v 8 -6 -2
v 8 -6 -1
v -8 -7 -2
v -8 -7 -1
v -7 -7 -1
v -4 -7 -1
v 4 -7 -1
v 8 -7 -2
v 8 -7 -1
v 7 -7 -1
v -7 -8 -1
v -4 -8 -1
v 4 -8 -1
v 7 -8 -1
v -9 -9 -1
v -9 -8 -1
v -8 -8 -1
v -3 -8 -1
v -2 -8 -1
v -1 -8 -1
v 0 -8 -1
v 1 -8 -1
v 2 -8 -1
v 3 -8 -1
v 8 -8 -1
v 9 -8 -1
v 9 -9 -1
v -9 -10 -1
v -8 -10 -1
v -7 -10 -1
v -6 -10 -1
v -5 -10 -1
v -4 -10 -1
v -3 -10 -1
v -2 -10 -1
v -1 -10 -1
v 0 -10 -1
v 1 -10 -1
v 2 -10 -1
v 3 -10 -1
v 4 -10 -1
v 5 -10 -1
v 6 -10 -1
v 7 -10 -1
v 8 -10 -1
v 9 -10 -1
v -4 2 0
v -4 3 0
v -3 3 0
v -2 3 0
v -1 3 0
v 0 3 0
v 1 3 0
v 2 3 0
v 3 3 0
v 4 3 0
v 4 2 0
v -5 1 0
v -5 2 0
v -1 1 0
v -2 1 0
v 0 1 0
v 1 1 0
v 2 1 0
v 5 2 0
v 5 1 0
v -6 0 0
v -6 1 0
v -2 0 0
v -3 0 0
v 2 0 0
v 3 0 0
v 6 1 0
v 6 0 0
v -6 -1 0
v -3 -1 0
v -4 -1 0
v 3 -1 0
v 4 -1 0
v 6 -1 0
v -7 -2 0
v -7 -1 0
v -4 -2 0
v 4 -2 0
v 7 -1 0
v 7 -2 0
v -8 -3 0
v -8 -2 0
v -4 -3 0
v -5 -3 0
v 4 -3 0
v 5 -3 0
v 8 -2 0
v 8 -3 0
v -8 -4 0
v -5 -4 0
v 5 -4 0
v 8 -4 0
v -8 -5 0
v -4 -4 0
v -4 -5 0
v 4 -5 0
v 4 -4 0
v 8 -5 0
v -8 -6 0
v -4 -6 0
v 4 -6 0
v 8 -6 0
v -8 -7 0
v -7 -7 0
v -4 -7 0
v 4 -7 0
v 8 -7 0
v 7 -7 0
v -7 -8 0
v -4 -8 0
v 4 -8 0
v 7 -8 0
v -9 -9 0
v -9 -8 0
v -8 -8 0
v -3 -8 0
v -2 -8 0
v -1 -8 0
v 0 -8 0
v 1 -8 0
v 2 -8 0
v 3 -8 0
v 8 -8 0
v 9 -8 0
v 9 -9 0
v -9 -10 0
v -8 -10 0
v -7 -10 0
v -6 -10 0
v -5 -10 0
v -4 -10 0
v -3 -10 0
v -2 -10 0
v -1 -10 0
v 0 -10 0
v 1 -10 0
v 2 -10 0
v 3 -10 0
v 4 -10 0
v 5 -10 0
v 6 -10 0
v 7 -10 0
v 8 -10 0
v 9 -10 0
v -4 2 1
v -4 3 1
v -3 3 1
v -2 3 1
v -1 3 1
v 0 3 1
v 1 3 1
v 2 3 1
v 3 3 1
v 4 3 1
v 4 2 1
v -5 1 1
v -5 2 1
v -1 1 1
v -2 1 1
v 0 1 1
v 1 1 1
v 2 1 1
v 5 2 1
v 5 1 1
v -6 0 1
v -6 1 1
v -2 0 1
v -3 0 1
v 2 0 1
v 3 0 1
v 6 1 1
v 6 0 1
v -6 -1 1
v -3 -1 1
v -4 -1 1
v 3 -1 1
v 4 -1 1
v 6 -1 1
v -7 -2 1
v -7 -1 1
v -4 -2 1
v 4 -2 1
v 7 -1 1
v 7 -2 1
v -8 -3 1
v -8 -2 1
v -4 -3 1
v -5 -3 1
v 4 -3 1
v 5 -3 1
v 8 -2 1
v 8 -3 1
v -8 -4 1
v -5 -4 1
v 5 -4 1
v 8 -4 1
v -8 -5 1
v -4 -4 1
v -4 -5 1
v 4 -5 1
v 4 -4 1
v 8 -5 1
v -8 -6 1
v -4 -6 1
v 4 -6 1
v 8 -6 1
v -8 -7 1
v -7 -7 1
v -4 -7 1
v 4 -7 1
v 8 -7 1
v 7 -7 1
v -7 -8 1
v -4 -8 1
v 4 -8 1
v 7 -8 1
v -9 -9 1
v -9 -8 1
v -8 -8 1
v -3 -8 1
v -2 -8 1
v -1 -8 1
v 0 -8 1
v 1 -8 1
v 2 -8 1
v 3 -8 1
v 8 -8 1
v 9 -8 1
v 9 -9 1
v -9 -10 1
v -8 -10 1
v -7 -10 1
v -6 -10 1
v -5 -10 1
v -4 -10 1
v -3 -10 1
v -2 -10 1
v -1 -10 1
v 0 -10 1
v 1 -10 1
v 2 -10 1
v 3 -10 1
v 4 -10 1
v 5 -10 1
v 6 -10 1
v 7 -10 1
v 8 -10 1
v 9 -10 1
v -4 2 2
v -4 3 2
v -3 3 2
v -2 3 2
v -1 3 2
v 0 3 2
v 1 3 2
v 2 3 2
v 3 3 2
v 4 3 2
v 4 2 2
v -5 1 2
v -5 2 2
v -1 1 2
v -2 1 2
v 0 1 2
v 1 1 2
v 2 1 2
v 5 2 2
v 5 1 2
v -6 0 2
v -6 1 2
v -2 0 2
v -3 0 2
v 2 0 2
v 3 0 2
v 6 1 2
v 6 0 2
v -6 -1 2
v -3 -1 2
v -4 -1 2
v 3 -1 2
v 4 -1 2
v 6 -1 2
v -7 -2 2
v -7 -1 2
v -4 -2 2
v 4 -2 2
v 7 -1 2
v 7 -2 2
v -8 -3 2
v -8 -2 2
v -7 -3 2
v -4 -3 2
v -5 -3 2
v 4 -3 2
v 5 -3 2
v 8 -2 2
v 8 -3 2
v 7 -3 2
v -8 -4 2
v -7 -4 2
v -5 -4 2
v 5 -4 2
v 8 -4 2
v 7 -4 2
v -8 -5 2
v -7 -5 2
v -4 -4 2
v -4 -5 2
v 4 -5 2
v 4 -4 2
v 8 -5 2
v 7 -5 2
v -8 -6 2
v -7 -6 2
v -4 -6 2
v 4 -6 2
v 8 -6 2
v 7 -6 2
v -8 -7 2
v -7 -7 2
v -4 -7 2
v 4 -7 2
v 8 -7 2
v 7 -7 2
v -7 -8 2
v -4 -8 2
v 4 -8 2
v 7 -8 2
v -9 -9 2
v -9 -8 2
v -8 -8 2
v -3 -8 2
v -2 -8 2
v -1 -8 2
v 0 -8 2
v 1 -8 2
v 2 -8 2
v 3 -8 2
v 8 -8 2
v 9 -8 2
v 9 -9 2
v -9 -10 2
v -8 -10 2
v -7 -10 2
v -6 -10 2
v -5 -10 2
v -4 -10 2
v -3 -10 2
v -2 -10 2
v -1 -10 2
v 0 -10 2
v 1 -10 2
v 2 -10 2
v 3 -10 2
v 4 -10 2
v 5 -10 2
v 6 -10 2
v 7 -10 2
v 8 -10 2
v 9 -10 2
v -4 2 3
v -4 3 3
v -3 3 3
v -2 3 3
v -1 3 3
v 0 3 3
v 1 3 3
v 2 3 3
v 3 3 3
v 4 3 3
v 4 2 3
v -5 1 3
v -5 2 3
v -1 1 3
v -2 1 3
v 0 1 3
v 1 1 3
v 2 1 3
v 5 2 3
v 5 1 3
v -6 0 3
v -6 1 3
v -2 0 3
v -3 0 3
v 2 0 3
v 3 0 3
v 6 1 3
v 6 0 3
v -6 -1 3
v -3 -1 3
v -4 -1 3
v 3 -1 3
v 4 -1 3
v 6 -1 3
v -7 -2 3
v -7 -1 3
v -4 -2 3
v 4 -2 3
v 7 -1 3
v 7 -2 3
v -7 -3 3
v -4 -3 3
v -5 -3 3
v 4 -3 3
v 5 -3 3
v 7 -3 3
v -7 -4 3
v -5 -4 3
v 5 -4 3
v 7 -4 3
v -7 -5 3
v -4 -4 3
v -4 -5 3
v 4 -5 3
v 4 -4 3
v 7 -5 3
v -7 -6 3
v -4 -6 3
v 4 -6 3
v 7 -6 3
v -7 -7 3
v -4 -7 3
v 4 -7 3
v 7 -7 3
v -7 -8 3
v -4 -8 3
v 4 -8 3
v 7 -8 3
v -9 -9 3
v -9 -8 3
v -8 -8 3
v -3 -8 3
v -2 -8 3
v -1 -8 3
v 0 -8 3
v 1 -8 3
v 2 -8 3
v 3 -8 3
v 8 -8 3
v 9 -8 3
v 9 -9 3
v -9 -10 3
v -8 -10 3
v -7 -10 3
v -6 -10 3
v -5 -10 3
v -4 -10 3
v -3 -10 3
v -2 -10 3
v -1 -10 3
v 0 -10 3
v 1 -10 3
v 2 -10 3
v 3 -10 3
v 4 -10 3
v 5 -10 3
v 6 -10 3
v 7 -10 3
v 8 -10 3
v 9 -10 3
v -4 2 4
v -4 3 4
v -3 3 4
v -3 2 4
v -2 3 4
v -2 2 4
v -1 3 4
v -1 2 4
v 0 3 4
v 0 2 4
v 1 3 4
v 1 2 4
v 2 3 4
v 2 2 4
v 3 3 4
v 3 2 4
v 4 3 4
v 4 2 4
v -5 1 4
v -5 2 4
v -4 1 4
v -3 1 4
v -2 1 4
v -1 1 4
v 0 1 4
v 1 1 4
v 2 1 4
v 3 1 4
v 4 1 4
v 5 2 4
v 5 1 4
v -6 0 4
v -6 1 4
v -5 0 4
v -4 0 4
v -3 0 4
v -2 0 4
v 2 0 4
v 3 0 4
v 4 0 4
v 5 0 4
v 6 1 4
v 6 0 4
v -6 -1 4
v -5 -1 4
v -4 -1 4
v -3 -1 4
v 3 -1 4
v 4 -1 4
v 5 -1 4
v 6 -1 4
v -7 -2 4
v -7 -1 4
v -6 -2 4
v -5 -2 4
v -4 -2 4
v 4 -2 4
v 5 -2 4
v 6 -2 4
v 7 -1 4
v 7 -2 4
v -7 -3 4
v -6 -3 4
v -5 -3 4
v -4 -3 4
v 4 -3 4
v 5 -3 4
v 6 -3 4
v 7 -3 4
v -7 -4 4
v -6 -4 4
v -5 -4 4
v 5 -4 4
v 6 -4 4
v 7 -4 4
v -7 -5 4
v -6 -5 4
v -5 -5 4
v -4 -4 4
v -4 -5 4
v 4 -5 4
v 4 -4 4
v 5 -5 4
v 6 -5 4
v 7 -5 4
v -7 -6 4
v -6 -6 4
v -5 -6 4
v -4 -6 4
v 4 -6 4
v 5 -6 4
v 6 -6 4
v 7 -6 4
v -7 -7 4
v -6 -7 4
v -5 -7 4
v -4 -7 4
v 4 -7 4
v 5 -7 4
v 6 -7 4
v 7 -7 4
v -7 -8 4
v -6 -8 4
v -5 -8 4
v -4 -8 4
v 4 -8 4
v 5 -8 4
v 6 -8 4
v 7 -8 4
v -9 -9 4
v -9 -8 4
v -8 -8 4
v -3 -8 4
v -2 -8 4
v -1 -8 4
v 0 -8 4
v 1 -8 4
v 2 -8 4
v 3 -8 4
v 8 -8 4
v 9 -8 4
v 9 -9 4
v -9 -10 4
v -8 -10 4
v -7 -10 4
v -6 -10 4
v -5 -10 4
v -4 -10 4
v -3 -10 4
v -2 -10 4
v -1 -10 4
v 0 -10 4
v 1 -10 4
v 2 -10 4
v 3 -10 4
v 4 -10 4
v 5 -10 4
v 6 -10 4
v 7 -10 4
v 8 -10 4
v 9 -10 4
v -9 -9 5
v -9 -8 5
v -8 -8 5
v -8 -9 5
v -7 -8 5
v -7 -9 5
v -6 -8 5
v -6 -9 5
v -5 -8 5
v -5 -9 5
v -4 -8 5
v -4 -9 5
v -3 -8 5
v -3 -9 5
v -2 -8 5
v -2 -9 5
v -1 -8 5
v -1 -9 5
v 0 -8 5
v 0 -9 5
v 1 -8 5
v 1 -9 5
v 2 -8 5
v 2 -9 5
v 3 -8 5
v 3 -9 5
v 4 -8 5
v 4 -9 5
v 5 -8 5
v 5 -9 5
v 6 -8 5
v 6 -9 5
v 7 -8 5
v 7 -9 5
v 8 -8 5
v 8 -9 5
v 9 -8 5
v 9 -9 5
v -9 -10 5
v -8 -10 5
v -7 -10 5
v -6 -10 5
v -5 -10 5
v -4 -10 5
v -3 -10 5
v -2 -10 5
v -1 -10 5
v 0 -10 5
v 1 -10 5
v 2 -10 5
v 3 -10 5
v 4 -10 5
v 5 -10 5
v 6 -10 5
v 7 -10 5
v 8 -10 5
v 9 -10 5
vn -1 0 0
vn 1 0 0
vn 0 -1 0
vn 0 1 0
vn 0 0 -1
vn 0 0 1
s off
g glyph_35
f 98//1 99//1 100//1 101//1
f 101//4 100//4 102//4 103//4
f 98//5 101//5 103//5 104//5
f 103//4 102//4 105//4 106//4
f 104//5 103//5 106//5 107//5
f 106//4 105//4 108//4 109//4
f 107//5 106//5 109//5 110//5
f 109//4 108//4 111//4 112//4
f 110//5 109//5 112//5 113//5
f 112//4 111//4 114//4 115//4
f 113//5 112//5 115//5 116//5
f 115//4 114//4 117//4 118//4
f 116//5 115//5 118//5 119//5
f 118//4 117//4 120//4 121//4
f 119//5 118//5 121//5 122//5
f 123//2 124//2 125//2 126//2
f 121//4 120//4 125//4 124//4
f 122//5 121//5 124//5 123//5
f 127//1 128//1 129//1 130//1
f 130//4 129//4 99//4 98//4
f 127//5 130//5 98//5 131//5
f 131//5 98//5 104//5 132//5
f 132//5 104//5 107//5 133//5
f 133//3 134//3 135//3 136//3
f 133//5 107//5 110//5 134//5
f 134//3 137//3 138//3 135//3
f 134//5 110//5 113//5 137//5
f 137//3 139//3 140//3 138//3
f 137//5 113//5 116//5 139//5
f 139//3 141//3 142//3 140//3
f 139//5 116//5 119//5 141//5
f 141//5 119//5 122//5 143//5
f 143//5 122//5 123//5 144//5
f 145//2 146//2 147//2 148//2
f 123//4 126//4 147//4 146//4
f 144//5 123//5 146//5 145//5
f 149//1 150//1 151//1 152//1
f 152//4 151//4 128//4 127//4
f 149//5 152//5 127//5 153//5
f 153//5 127//5 131//5 154//5
f 154//5 131//5 132//5 155//5
f 156//2 133//2 136//2 157//2
f 155//3 156//3 157//3 158//3
f 155//5 132//5 133//5 156//5
f 159//1 160//1 142//1 141//1
f 159//3 161//3 162//3 160//3
f 159//5 141//5 143//5 161//5
f 161//5 143//5 144//5 163//5
f 163//5 144//5 145//5 164//5
f 165//2 166//2 167//2 168//2
f 145//4 148//4 167//4 166//4
f 164//5 145//5 166//5 165//5
f 169//1 170//1 150//1 149//1
f 169//5 149//5 153//5 171//5
f 171//5 153//5 154//5 172//5
f 173//2 155//2 158//2 174//2
f 172//3 173//3 174//3 175//3
f 172//5 154//5 155//5 173//5
f 176//1 177//1 162//1 161//1
f 176//3 178//3 179//3 177//3
f 176//5 161//5 163//5 178//5
f 178//5 163//5 164//5 180//5
f 181//2 165//2 168//2 182//2
f 180//5 164//5 165//5 181//5
f 183//1 184//1 185//1 186//1
f 186//4 185//4 170//4 169//4
f 183//5 186//5 169//5 187//5
f 187//5 169//5 171//5 188//5
f 189//2 172//2 175//2 190//2
f 188//5 171//5 172//5 189//5
f 191//1 192//1 179//1 178//1
f 191//5 178//5 180//5 193//5
f 193//5 180//5 181//5 194//5
f 195//2 196//2 197//2 198//2
f 181//4 182//4 197//4 196//4
f 194//5 181//5 196//5 195//5
f 199//1 200//1 184//1 183//1
f 199//5 183//5 187//5 201//5
f 201//5 187//5 188//5 202//5
f 203//2 189//2 190//2 204//2
f 202//3 203//3 204//3 205//3
f 202//5 188//5 189//5 203//5
f 206//1 207//1 192//1 191//1
f 206//3 208//3 209//3 207//3
f 206//5 191//5 193//5 208//5
f 208//5 193//5 194//5 210//5
f 211//2 195//2 198//2 212//2
f 210//5 194//5 195//5 211//5
f 213//1 214//1 200//1 199//1
f 213//5 199//5 201//5 215//5
f 216//2 202//2 205//2 217//2
f 215//5 201//5 202//5 216//5
f 218//1 219//1 209//1 208//1
f 218//5 208//5 210//5 220//5
f 221//2 211//2 212//2 222//2
f 220//5 210//5 211//5 221//5
f 223//1 224//1 214//1 213//1
f 223//5 213//5 215//5 225//5
f 225//5 215//5 216//5 226//5
f 227//2 228//2 229//2 230//2
f 216//4 217//4 229//4 228//4
f 226//5 216//5 228//5 227//5
f 231//1 232//1 233//1 234//1
f 234//4 233//4 219//4 218//4
f 231//5 234//5 218//5 235//5
f 235//5 218//5 220//5 236//5
f 237//2 221//2 222//2 238//2
f 236//5 220//5 221//5 237//5
f 239//1 240//1 224//1 223//1
f 239//5 223//5 225//5 241//5
f 241//5 225//5 226//5 242//5
f 243//2 227//2 230//2 244//2
f 242//5 226//5 227//5 243//5
f 245//1 246//1 232//1 231//1
f 245//5 231//5 235//5 247//5
f 247//5 235//5 236//5 248//5
f 249//2 237//2 238//2 250//2
f 248//5 236//5 237//5 249//5
f 251//1 252//1 240//1 239//1
f 251//5 239//5 241//5 253//5
f 253//5 241//5 242//5 254//5
f 255//2 243//2 244//2 256//2
f 254//5 242//5 243//5 255//5
f 257//1 258//1 246//1 245//1
f 257//5 245//5 247//5 259//5
f 259//5 247//5 248//5 260//5
f 261//2 249//2 250//2 262//2
f 260//5 248//5 249//5 261//5
f 8//1 263//1 252//1 251//1
f 8//5 251//5 253//5 11//5
f 11//5 253//5 254//5 14//5
f 17//2 255//2 256//2 264//2
f 14//5 254//5 255//5 17//5
f 41//1 265//1 258//1 257//1
f 41//5 257//5 259//5 44//5
f 44//5 259//5 260//5 47//5
f 50//2 261//2 262//2 266//2
f 47//5 260//5 261//5 50//5
f 99//1 299//1 300//1 100//1
f 100//4 300//4 301//4 102//4
f 102//4 301//4 302//4 105//4
f 105//4 302//4 303//4 108//4
f 108//4 303//4 304//4 111//4
f 111//4 304//4 305//4 114//4
f 114//4 305//4 306//4 117//4
f 117//4 306//4 307//4 120//4
f 126//2 125//2 308//2 309//2
f 120//4 307//4 308//4 125//4
f 128//1 310//1 311//1 129//1
f 129//4 311//4 299//4 99//4
f 136//3 135//3 312//3 313//3
f 135//3 138//3 314//3 312//3
f 138//3 140//3 315//3 314//3
f 140//3 142//3 316//3 315//3
f 148//2 147//2 317//2 318//2
f 126//4 309//4 317//4 147//4
f 150//1 319//1 320//1 151//1
f 151//4 320//4 310//4 128//4
f 157//2 136//2 313//2 321//2
f 158//3 157//3 321//3 322//3
f 160//1 323//1 316//1 142//1
f 160//3 162//3 324//3 323//3
f 168//2 167//2 325//2 326//2
f 148//4 318//4 325//4 167//4
f 170//1 327//1 319//1 150//1
f 174//2 158//2 322//2 328//2
f 175//3 174//3 328//3 329//3
f 177//1 330//1 324//1 162//1
f 177//3 179//3 331//3 330//3
f 182//2 168//2 326//2 332//2
f 184//1 333//1 334//1 185//1
f 185//4 334//4 327//4 170//4
f 190//2 175//2 329//2 335//2
f 192//1 336//1 331//1 179//1
f 198//2 197//2 337//2 338//2
f 182//4 332//4 337//4 197//4
f 200//1 339//1 333//1 184//1
f 204//2 190//2 335//2 340//2
f 205//3 204//3 340//3 341//3
f 207//1 342//1 336//1 192//1
f 207//3 209//3 343//3 342//3
f 212//2 198//2 338//2 344//2
f 214//1 345//1 339//1 200//1
f 217//2 205//2 341//2 346//2
f 219//1 347//1 343//1 209//1
f 222//2 212//2 344//2 348//2
f 224//1 349//1 345//1 214//1
f 230//2 229//2 350//2 351//2
f 217//4 346//4 350//4 229//4
f 232//1 352//1 353//1 233//1
f 233//4 353//4 347//4 219//4
f 238//2 222//2 348//2 354//2
f 240//1 355//1 349//1 224//1
f 244//2 230//2 351//2 356//2
f 246//1 357//1 352//1 232//1
f 250//2 238//2 354//2 358//2
f 252//1 359//1 355//1 240//1
f 256//2 244//2 356//2 360//2
f 258//1 361//1 357//1 246//1
f 262//2 250//2 358//2 362//2
f 263//1 363//1 359//1 252//1
f 264//2 256//2 360//2 364//2
f 265//1 365//1 361//1 258//1
f 266//2 262//2 362//2 366//2
f 299//1 399//1 400//1 300//1
f 300//4 400//4 401//4 301//4
f 301//4 401//4 402//4 302//4
f 302//4 402//4 403//4 303//4
f 303//4 403//4 404//4 304//4
f 304//4 404//4 405//4 305//4
f 305//4 405//4 406//4 306//4
f 306//4 406//4 407//4 307//4
f 309//2 308//2 408//2 409//2
f 307//4 407//4 408//4 308//4
f 310//1 410//1 411//1 311//1
f 311//4 411//4 399//4 299//4
f 313//3 312//3 412//3 413//3
f 312//3 314//3 414//3 412//3
f 314//3 315//3 415//3 414//3
f 315//3 316//3 416//3 415//3
f 318//2 317//2 417//2 418//2
f 309//4 409//4 417//4 317//4
f 319//1 419//1 420//1 320//1
f 320//4 420//4 410//4 310//4
f 321//2 313//2 413//2 421//2
f 322//3 321//3 421//3 422//3
f 323//1 423//1 416//1 316//1
f 323//3 324//3 424//3 423//3
f 326//2 325//2 425//2 426//2
f 318//4 418//4 425//4 325//4
f 327//1 427//1 419//1 319//1
f 328//2 322//2 422//2 428//2
f 329//3 328//3 428//3 429//3
f 330//1 430//1 424//1 324//1
f 330//3 331//3 431//3 430//3
f 332//2 326//2 426//2 432//2
f 333//1 433//1 434//1 334//1
f 334//4 434//4 427//4 327//4
f 335//2 329//2 429//2 435//2
f 336//1 436//1 431//1 331//1
f 338//2 337//2 437//2 438//2
f 332//4 432//4 437//4 337//4
f 340//2 335//2 435//2 443//2
f 341//3 340//3 443//3 444//3
f 342//1 445//1 436//1 336//1
f 342//3 343//3 446//3 445//3
f 346//2 341//2 444//2 453//2
f 347//1 454//1 446//1 343//1
f 351//2 350//2 459//2 460//2
f 346//4 453//4 459//4 350//4
f 352//1 461//1 462//1 353//1
f 353//4 462//4 454//4 347//4
f 356//2 351//2 460//2 467//2
f 357//1 468//1 461//1 352//1
f 360//2 356//2 467//2 474//2
f 361//1 475//1 468//1 357//1
f 363//1 479//1 473//1 359//1
f 364//2 360//2 474//2 480//2
f 365//1 481//1 475//1 361//1
f 366//2 362//2 478//2 482//2
f 399//1 515//1 516//1 400//1
f 400//4 516//4 517//4 401//4
f 401//4 517//4 518//4 402//4
f 402//4 518//4 519//4 403//4
f 403//4 519//4 520//4 404//4
f 404//4 520//4 521//4 405//4
f 405//4 521//4 522//4 406//4
f 406//4 522//4 523//4 407//4
f 409//2 408//2 524//2 525//2
f 407//4 523//4 524//4 408//4
f 410//1 526//1 527//1 411//1
f 411//4 527//4 515//4 399//4
f 413//3 412//3 528//3 529//3
f 412//3 414//3 530//3 528//3
f 414//3 415//3 531//3 530//3
f 415//3 416//3 532//3 531//3
f 418//2 417//2 533//2 534//2
f 409//4 525//4 533//4 417//4
f 419//1 535//1 536//1 420//1
f 420//4 536//4 526//4 410//4
f 421//2 413//2 529//2 537//2
f 422//3 421//3 537//3 538//3
f 423//1 539//1 532//1 416//1
f 423//3 424//3 540//3 539//3
f 426//2 425//2 541//2 542//2
f 418//4 534//4 541//4 425//4
f 427//1 543//1 535//1 419//1
f 428//2 422//2 538//2 544//2
f 429//3 428//3 544//3 545//3
f 430//1 546//1 540//1 424//1
f 430//3 431//3 547//3 546//3
f 432//2 426//2 542//2 548//2
f 433//1 549//1 550//1 434//1
f 434//4 550//4 543//4 427//4
f 435//2 429//2 545//2 551//2
f 436//1 552//1 547//1 431//1
f 438//2 437//2 553//2 554//2
f 432//4 548//4 553//4 437//4
f 443//2 435//2 551//2 557//2
f 444//3 443//3 557//3 558//3
f 445//1 559//1 552//1 436//1
f 445//3 446//3 560//3 559//3
f 453//2 444//2 558//2 564//2
f 454//1 565//1 560//1 446//1
f 460//2 459//2 568//2 569//2
f 453//4 564//4 568//4 459//4
f 461//1 570//1 571//1 462//1
f 462//4 571//4 565//4 454//4
f 467//2 460//2 569//2 574//2
f 468//1 575//1 570//1 461//1
f 474//2 467//2 574//2 579//2
f 475//1 580//1 575//1 468//1
f 479//1 583//1 578//1 473//1
f 480//2 474//2 579//2 584//2
f 481//1 585//1 580//1 475//1
f 482//2 478//2 582//2 586//2
f 515//1 619//1 620//1 516//1
f 516//4 620//4 621//4 517//4
f 517//4 621//4 622//4 518//4
f 518//4 622//4 623//4 519//4
f 519//4 623//4 624//4 520//4
f 520//4 624//4 625//4 521//4
f 521//4 625//4 626//4 522//4
f 522//4 626//4 627//4 523//4
f 525//2 524//2 628//2 629//2
f 523//4 627//4 628//4 524//4
f 526//1 630//1 631//1 527//1
f 527//4 631//4 619//4 515//4
f 529//3 528//3 632//3 633//3
f 528//3 530//3 634//3 632//3
f 530//3 531//3 635//3 634//3
f 531//3 532//3 636//3 635//3
f 534//2 533//2 637//2 638//2
f 525//4 629//4 637//4 533//4
f 535//1 639//1 640//1 536//1
f 536//4 640//4 630//4 526//4
f 537//2 529//2 633//2 641//2
f 538//3 537//3 641//3 642//3
f 539//1 643//1 636//1 532//1
f 539//3 540//3 644//3 643//3
f 542//2 541//2 645//2 646//2
f 534//4 638//4 645//4 541//4
f 543//1 647//1 639//1 535//1
f 544//2 538//2 642//2 648//2
f 545//3 544//3 648//3 649//3
f 546//1 650//1 644//1 540//1
f 546//3 547//3 651//3 650//3
f 548//2 542//2 646//2 652//2
f 549//1 653//1 654//1 550//1
f 550//4 654//4 647//4 543//4
f 551//2 545//2 649//2 655//2
f 552//1 656//1 651//1 547//1
f 554//2 553//2 657//2 658//2
f 548//4 652//4 657//4 553//4
f 557//2 551//2 655//2 661//2
f 558//3 557//3 661//3 662//3
f 559//1 663//1 656//1 552//1
f 559//3 560//3 664//3 663//3
f 564//2 558//2 662//2 668//2
f 565//1 669//1 664//1 560//1
f 569//2 568//2 672//2 673//2
f 564//4 668//4 672//4 568//4
f 570//1 674//1 675//1 571//1
f 571//4 675//4 669//4 565//4
f 574//2 569//2 673//2 678//2
f 575//1 679//1 674//1 570//1
f 579//2 574//2 678//2 683//2
f 580//1 684//1 679//1 575//1
f 583//1 687//1 682//1 578//1
f 584//2 579//2 683//2 688//2
f 585//1 689//1 684//1 580//1
f 586//2 582//2 686//2 690//2
f 619//1 723//1 724//1 620//1
f 620//4 724//4 725//4 621//4
f 621//4 725//4 726//4 622//4
f 622//4 726//4 727//4 623//4
f 623//4 727//4 728//4 624//4
f 624//4 728//4 729//4 625//4
f 625//4 729//4 730//4 626//4
f 626//4 730//4 731//4 627//4
f 629//2 628//2 732//2 733//2
f 627//4 731//4 732//4 628//4
f 630//1 734//1 735//1 631//1
f 631//4 735//4 723//4 619//4
f 633//3 632//3 736//3 737//3
f 632//3 634//3 738//3 736//3
f 634//3 635//3 739//3 738//3
f 635//3 636//3 740//3 739//3
f 638//2 637//2 741//2 742//2
f 629//4 733//4 741//4 637//4
f 639//1 743//1 744//1 640//1
f 640//4 744//4 734//4 630//4
f 641//2 633//2 737//2 745//2
f 642//3 641//3 745//3 746//3
f 643//1 747//1 740//1 636//1
f 643//3 644//3 748//3 747//3
f 646//2 645//2 749//2 750//2
f 638//4 742//4 749//4 645//4
f 647//1 751//1 743//1 639//1
f 648//2 642//2 746//2 752//2
f 649//3 648//3 752//3 753//3
f 650//1 754//1 748//1 644//1
f 650//3 651//3 755//3 754//3
f 652//2 646//2 750//2 756//2
f 653//1 757//1 758//1 654//1
f 654//4 758//4 751//4 647//4
f 655//2 649//2 753//2 759//2
f 656//1 760//1 755//1 651//1
f 658//2 657//2 761//2 762//2
f 652//4 756//4 761//4 657//4
f 661//2 655//2 759//2 766//2
f 662//3 661//3 766//3 767//3
f 663//1 768//1 760//1 656//1
f 663//3 664//3 769//3 768//3
f 668//2 662//2 767//2 775//2
f 669//1 776//1 769//1 664//1
f 673//2 672//2 781//2 782//2
f 668//4 775//4 781//4 672//4
f 674//1 783//1 784//1 675//1
f 675//4 784//4 776//4 669//4
f 678//2 673//2 782//2 789//2
f 679//1 790//1 783//1 674//1
f 683//2 678//2 789//2 795//2
f 684//1 796//1 790//1 679//1
f 687//1 799//1 794//1 682//1
f 688//2 683//2 795//2 800//2
f 689//1 801//1 796//1 684//1
f 690//2 686//2 798//2 802//2
f 723//1 835//1 836//1 724//1
f 724//4 836//4 837//4 725//4
f 725//4 837//4 838//4 726//4
f 726//4 838//4 839//4 727//4
f 727//4 839//4 840//4 728//4
f 728//4 840//4 841//4 729//4
f 729//4 841//4 842//4 730//4
f 730//4 842//4 843//4 731//4
f 733//2 732//2 844//2 845//2
f 731//4 843//4 844//4 732//4
f 734//1 846//1 847//1 735//1
f 735//4 847//4 835//4 723//4
f 737//3 736//3 848//3 849//3
f 736//3 738//3 850//3 848//3
f 738//3 739//3 851//3 850//3
f 739//3 740//3 852//3 851//3
f 742//2 741//2 853//2 854//2
f 733//4 845//4 853//4 741//4
f 743//1 855//1 856//1 744//1
f 744//4 856//4 846//4 734//4
f 745//2 737//2 849//2 857//2
f 746//3 745//3 857//3 858//3
f 747//1 859//1 852//1 740//1
f 747//3 748//3 860//3 859//3
f 750//2 749//2 861//2 862//2
f 742//4 854//4 861//4 749//4
f 751//1 863//1 855//1 743//1
f 752//2 746//2 858//2 864//2
f 753//3 752//3 864//3 865//3
f 754//1 866//1 860//1 748//1
f 754//3 755//3 867//3 866//3
f 756//2 750//2 862//2 868//2
f 757//1 869//1 870//1 758//1
f 758//4 870//4 863//4 751//4
f 759//2 753//2 865//2 871//2
f 760//1 872//1 867//1 755//1
f 762//2 761//2 873//2 874//2
f 756//4 868//4 873//4 761//4
f 765//1 875//1 869//1 757//1
f 766//2 759//2 871//2 876//2
f 767//3 766//3 876//3 877//3
f 768//1 878//1 872//1 760//1
f 768//3 769//3 879//3 878//3
f 772//2 762//2 874//2 880//2
f 774//1 881//1 875//1 765//1
f 775//2 767//2 877//2 882//2
f 776//1 883//1 879//1 769//1
f 778//2 772//2 880//2 884//2
f 780//1 885//1 881//1 774//1
f 782//2 781//2 886//2 887//2
f 775//4 882//4 886//4 781//4
f 783//1 888//1 889//1 784//1
f 784//4 889//4 883//4 776//4
f 786//2 778//2 884//2 890//2
f 788//1 891//1 885//1 780//1
f 789//2 782//2 887//2 892//2
f 790//1 893//1 888//1 783//1
f 792//2 786//2 890//2 894//2
f 794//1 895//1 891//1 788//1
f 795//2 789//2 892//2 896//2
f 796//1 897//1 893//1 790//1
f 798//2 792//2 894//2 898//2
f 799//1 899//1 895//1 794//1
f 800//2 795//2 896//2 900//2
f 801//1 901//1 897//1 796//1
f 802//2 798//2 898//2 902//2
f 835//1 935//1 936//1 836//1
f 836//4 936//4 937//4 837//4
f 935//6 938//6 937//6 936//6
f 837//4 937//4 939//4 838//4
f 938//6 940//6 939//6 937//6
f 838//4 939//4 941//4 839//4
f 940//6 942//6 941//6 939//6
f 839//4 941//4 943//4 840//4
f 942//6 944//6 943//6 941//6
f 840//4 943//4 945//4 841//4
f 944//6 946//6 945//6 943//6
f 841//4 945//4 947//4 842//4
f 946//6 948//6 947//6 945//6
f 842//4 947//4 949//4 843//4
f 948//6 950//6 949//6 947//6
f 845//2 844//2 951//2 952//2
f 843//4 949//4 951//4 844//4
f 950//6 952//6 951//6 949//6
f 846//1 953//1 954//1 847//1
f 847//4 954//4 935//4 835//4
f 953//6 955//6 935//6 954//6
f 955//6 956//6 938//6 935//6
f 956//6 957//6 940//6 938//6
f 849//3 848//3 958//3 957//3
f 957//6 958//6 942//6 940//6
f 848//3 850//3 959//3 958//3
f 958//6 959//6 944//6 942//6
f 850//3 851//3 960//3 959//3
f 959//6 960//6 946//6 944//6
f 851//3 852//3 961//3 960//3
f 960//6 961//6 948//6 946//6
f 961//6 962//6 950//6 948//6
f 962//6 963//6 952//6 950//6
f 854//2 853//2 964//2 965//2
f 845//4 952//4 964//4 853//4
f 963//6 965//6 964//6 952//6
f 855//1 966//1 967//1 856//1
f 856//4 967//4 953//4 846//4
f 966//6 968//6 953//6 967//6
f 968//6 969//6 955//6 953//6
f 969//6 970//6 956//6 955//6
f 857//2 849//2 957//2 971//2
f 858//3 857//3 971//3 970//3
f 970//6 971//6 957//6 956//6
f 859//1 972//1 961//1 852//1
f 859//3 860//3 973//3 972//3
f 972//6 973//6 962//6 961//6
f 973//6 974//6 963//6 962//6
f 974//6 975//6 965//6 963//6
f 862//2 861//2 976//2 977//2
f 854//4 965//4 976//4 861//4
f 975//6 977//6 976//6 965//6
f 863//1 978//1 966//1 855//1
f 978//6 979//6 968//6 966//6
f 979//6 980//6 969//6 968//6
f 864//2 858//2 970//2 981//2
f 865//3 864//3 981//3 980//3
f 980//6 981//6 970//6 969//6
f 866//1 982//1 973//1 860//1
f 866//3 867//3 983//3 982//3
f 982//6 983//6 974//6 973//6
f 983//6 984//6 975//6 974//6
f 868//2 862//2 977//2 985//2
f 984//6 985//6 977//6 975//6
f 869//1 986//1 987//1 870//1
f 870//4 987//4 978//4 863//4
f 986//6 988//6 978//6 987//6
f 988//6 989//6 979//6 978//6
f 871//2 865//2 980//2 990//2
f 989//6 990//6 980//6 979//6
f 872//1 991//1 983//1 867//1
f 991//6 992//6 984//6 983//6
f 992//6 993//6 985//6 984//6
f 874//2 873//2 994//2 995//2
f 868//4 985//4 994//4 873//4
f 993//6 995//6 994//6 985//6
f 875//1 996//1 986//1 869//1
f 996//6 997//6 988//6 986//6
f 997//6 998//6 989//6 988//6
f 876//2 871//2 990//2 999//2
f 877//3 876//3 999//3 998//3
f 998//6 999//6 990//6 989//6
f 878//1 1000//1 991//1 872//1
f 878//3 879//3 1001//3 1000//3
f 1000//6 1001//6 992//6 991//6
f 1001//6 1002//6 993//6 992//6
f 880//2 874//2 995//2 1003//2
f 1002//6 1003//6 995//6 993//6
f 881//1 1004//1 996//1 875//1
f 1004//6 1005//6 997//6 996//6
f 882//2 877//2 998//2 1006//2
f 1005//6 1006//6 998//6 997//6
f 883//1 1007//1 1001//1 879//1
f 1007//6 1008//6 1002//6 1001//6
f 884//2 880//2 1003//2 1009//2
f 1008//6 1009//6 1003//6 1002//6
f 885//1 1010//1 1004//1 881//1
f 1010//6 1011//6 1005//6 1004//6
f 1011//6 1012//6 1006//6 1005//6
f 887//2 886//2 1013//2 1014//2
f 882//4 1006//4 1013//4 886//4
f 1012//6 1014//6 1013//6 1006//6
f 888//1 1015//1 1016//1 889//1
f 889//4 1016//4 1007//4 883//4
f 1015//6 1017//6 1007//6 1016//6
f 1017//6 1018//6 1008//6 1007//6
f 890//2 884//2 1009//2 1019//2
f 1018//6 1019//6 1009//6 1008//6
f 891//1 1020//1 1010//1 885//1
f 1020//6 1021//6 1011//6 1010//6
f 1021//6 1022//6 1012//6 1011//6
f 892//2 887//2 1014//2 1023//2
f 1022//6 1023//6 1014//6 1012//6
f 893//1 1024//1 1015//1 888//1
f 1024//6 1025//6 1017//6 1015//6
f 1025//6 1026//6 1018//6 1017//6
f 894//2 890//2 1019//2 1027//2
f 1026//6 1027//6 1019//6 1018//6
f 895//1 1028//1 1020//1 891//1
f 1028//6 1029//6 1021//6 1020//6
f 1029//6 1030//6 1022//6 1021//6
f 896//2 892//2 1023//2 1031//2
f 1030//6 1031//6 1023//6 1022//6
f 897//1 1032//1 1024//1 893//1
f 1032//6 1033//6 1025//6 1024//6
f 1033//6 1034//6 1026//6 1025//6
f 898//2 894//2 1027//2 1035//2
f 1034//6 1035//6 1027//6 1026//6
f 899//1 1036//1 1028//1 895//1
f 1036//6 1037//6 1029//6 1028//6
f 1037//6 1038//6 1030//6 1029//6
f 900//2 896//2 1031//2 1039//2
f 1038//6 1039//6 1031//6 1030//6
f 901//1 1040//1 1032//1 897//1
f 1040//6 1041//6 1033//6 1032//6
f 1041//6 1042//6 1034//6 1033//6
f 902//2 898//2 1035//2 1043//2
f 1042//6 1043//6 1035//6 1034//6
g glyph_42
f 439//1 440//1 441//1 442//1
f 442//4 441//4 433//4 333//4
f 439//5 442//5 333//5 339//5
f 447//2 448//2 449//2 450//2
f 338//4 438//4 449//4 448//4
f 344//5 338//5 448//5 447//5
f 451//1 452//1 440//1 439//1
f 451//5 439//5 339//5 345//5
f 455//2 447//2 450//2 456//2
f 348//5 344//5 447//5 455//5
f 457//1 458//1 452//1 451//1
f 457//5 451//5 345//5 349//5
f 463//2 455//2 456//2 464//2
f 354//5 348//5 455//5 463//5
f 440//1 555//1 556//1 441//1
f 441//4 556//4 549//4 433//4
f 450//2 449//2 561//2 562//2
f 438//4 554//4 561//4 449//4
f 452//1 563//1 555//1 440//1
f 456//2 450//2 562//2 566//2
f 458//1 567//1 563//1 452//1
f 464//2 456//2 566//2 572//2
f 555//1 659//1 660//1 556//1
f 556//4 660//4 653//4 549//4
f 562//2 561//2 665//2 666//2
f 554//4 658//4 665//4 561//4
f 563//1 667//1 659//1 555//1
f 566//2 562//2 666//2 670//2
f 567//1 671//1 667//1 563//1
f 572//2 566//2 670//2 676//2
f 659//1 763//1 764//1 660//1
f 660//4 764//4 757//4 653//4
f 763//6 765//6 757//6 764//6
f 666//2 665//2 770//2 771//2
f 658//4 762//4 770//4 665//4
f 772//6 771//6 770//6 762//6
f 667//1 773//1 763//1 659//1
f 773//6 774//6 765//6 763//6
f 670//2 666//2 771//2 777//2
f 778//6 777//6 771//6 772//6
f 671//1 779//1 773//1 667//1
f 779//6 780//6 774//6 773//6
f 676//2 670//2 777//2 785//2
f 786//6 785//6 777//6 778//6
g glyph_43
f 465//1 466//1 458//1 457//1
f 465//5 457//5 349//5 355//5
f 469//2 463//2 464//2 470//2
f 358//5 354//5 463//5 469//5
f 471//1 472//1 466//1 465//1
f 471//3 359//3 473//3 472//3
f 471//5 465//5 355//5 359//5
f 476//2 469//2 470//2 477//2
f 362//3 476//3 477//3 478//3
f 362//5 358//5 469//5 476//5
f 466//1 573//1 567//1 458//1
f 470//2 464//2 572//2 576//2
f 472//1 577//1 573//1 466//1
f 472//3 473//3 578//3 577//3
f 477//2 470//2 576//2 581//2
f 478//3 477//3 581//3 582//3
f 573//1 677//1 671//1 567//1
f 576//2 572//2 676//2 680//2
f 577//1 681//1 677//1 573//1
f 577//3 578//3 682//3 681//3
f 581//2 576//2 680//2 685//2
f 582//3 581//3 685//3 686//3
f 677//1 787//1 779//1 671//1
f 787//6 788//6 780//6 779//6
f 680//2 676//2 785//2 791//2
f 792//6 791//6 785//6 786//6
f 681//1 793//1 787//1 677//1
f 681//3 682//3 794//3 793//3
f 793//6 794//6 788//6 787//6
f 685//2 680//2 791//2 797//2
f 686//3 685//3 797//3 798//3
f 798//6 797//6 791//6 792//6
g glyph_61
f 1//1 2//1 3//1 4//1
f 4//4 3//4 5//4 6//4
f 1//5 4//5 6//5 7//5
f 6//4 5//4 8//4 9//4
f 7//5 6//5 9//5 10//5
f 9//4 8//4 11//4 12//4
f 10//5 9//5 12//5 13//5
f 12//4 11//4 14//4 15//4
f 13//5 12//5 15//5 16//5
f 15//4 14//4 17//4 18//4
f 16//5 15//5 18//5 19//5
f 18//4 17//4 20//4 21//4
f 19//5 18//5 21//5 22//5
f 21//4 20//4 23//4 24//4
f 22//5 21//5 24//5 25//5
f 24//4 23//4 26//4 27//4
f 25//5 24//5 27//5 28//5
f 27//4 26//4 29//4 30//4
f 28//5 27//5 30//5 31//5
f 30//4 29//4 32//4 33//4
f 31//5 30//5 33//5 34//5
f 33//4 32//4 35//4 36//4
f 34//5 33//5 36//5 37//5
f 36//4 35//4 38//4 39//4
f 37//5 36//5 39//5 40//5
f 39//4 38//4 41//4 42//4
f 40//5 39//5 42//5 43//5
f 42//4 41//4 44//4 45//4
f 43//5 42//5 45//5 46//5
f 45//4 44//4 47//4 48//4
f 46//5 45//5 48//5 49//5
f 48//4 47//4 50//4 51//4
f 49//5 48//5 51//5 52//5
f 51//4 50//4 53//4 54//4
f 52//5 51//5 54//5 55//5
f 56//2 57//2 58//2 59//2
f 54//4 53//4 58//4 57//4
f 55//5 54//5 57//5 56//5
f 60//1 61//1 2//1 1//1
f 60//3 62//3 63//3 61//3
f 60//5 1//5 7//5 62//5
f 62//3 64//3 65//3 63//3
f 62//5 7//5 10//5 64//5
f 64//3 66//3 67//3 65//3
f 64//5 10//5 13//5 66//5
f 66//3 68//3 69//3 67//3
f 66//5 13//5 16//5 68//5
f 68//3 70//3 71//3 69//3
f 68//5 16//5 19//5 70//5
f 70//3 72//3 73//3 71//3
f 70//5 19//5 22//5 72//5
f 72//3 74//3 75//3 73//3
f 72//5 22//5 25//5 74//5
f 74//3 76//3 77//3 75//3
f 74//5 25//5 28//5 76//5
f 76//3 78//3 79//3 77//3
f 76//5 28//5 31//5 78//5
f 78//3 80//3 81//3 79//3
f 78//5 31//5 34//5 80//5
f 80//3 82//3 83//3 81//3
f 80//5 34//5 37//5 82//5
f 82//3 84//3 85//3 83//3
f 82//5 37//5 40//5 84//5
f 84//3 86//3 87//3 85//3
f 84//5 40//5 43//5 86//5
f 86//3 88//3 89//3 87//3
f 86//5 43//5 46//5 88//5
f 88//3 90//3 91//3 89//3
f 88//5 46//5 49//5 90//5
f 90//3 92//3 93//3 91//3
f 90//5 49//5 52//5 92//5
f 92//3 94//3 95//3 93//3
f 92//5 52//5 55//5 94//5
f 96//2 56//2 59//2 97//2
f 94//3 96//3 97//3 95//3
f 94//5 55//5 56//5 96//5
f 2//1 267//1 268//1 3//1
f 3//4 268//4 269//4 5//4
f 5//4 269//4 263//4 8//4
f 17//4 264//4 270//4 20//4
f 20//4 270//4 271//4 23//4
f 23//4 271//4 272//4 26//4
f 26//4 272//4 273//4 29//4
f 29//4 273//4 274//4 32//4
f 32//4 274//4 275//4 35//4
f 35//4 275//4 276//4 38//4
f 38//4 276//4 265//4 41//4
f 50//4 266//4 277//4 53//4
f 59//2 58//2 278//2 279//2
f 53//4 277//4 278//4 58//4
f 61//1 280//1 267//1 2//1
f 61//3 63//3 281//3 280//3
f 63//3 65//3 282//3 281//3
f 65//3 67//3 283//3 282//3
f 67//3 69//3 284//3 283//3
f 69//3 71//3 285//3 284//3
f 71//3 73//3 286//3 285//3
f 73//3 75//3 287//3 286//3
f 75//3 77//3 288//3 287//3
f 77//3 79//3 289//3 288//3
f 79//3 81//3 290//3 289//3
f 81//3 83//3 291//3 290//3
f 83//3 85//3 292//3 291//3
f 85//3 87//3 293//3 292//3
f 87//3 89//3 294//3 293//3
f 89//3 91//3 295//3 294//3
f 91//3 93//3 296//3 295//3
f 93//3 95//3 297//3 296//3
f 97//2 59//2 279//2 298//2
f 95//3 97//3 298//3 297//3
f 267//1 367//1 368//1 268//1
f 268//4 368//4 369//4 269//4
f 269//4 369//4 363//4 263//4
f 264//4 364//4 370//4 270//4
f 270//4 370//4 371//4 271//4
f 271//4 371//4 372//4 272//4
f 272//4 372//4 373//4 273//4
f 273//4 373//4 374//4 274//4
f 274//4 374//4 375//4 275//4
f 275//4 375//4 376//4 276//4
f 276//4 376//4 365//4 265//4
f 266//4 366//4 377//4 277//4
f 279//2 278//2 378//2 379//2
f 277//4 377//4 378//4 278//4
f 280//1 380//1 367//1 267//1
f 280//3 281//3 381//3 380//3
f 281//3 282//3 382//3 381//3
f 282//3 283//3 383//3 382//3
f 283//3 284//3 384//3 383//3
f 284//3 285//3 385//3 384//3
f 285//3 286//3 386//3 385//3
f 286//3 287//3 387//3 386//3
f 287//3 288//3 388//3 387//3
f 288//3 289//3 389//3 388//3
f 289//3 290//3 390//3 389//3
f 290//3 291//3 391//3 390//3
f 291//3 292//3 392//3 391//3
f 292//3 293//3 393//3 392//3
f 293//3 294//3 394//3 393//3
f 294//3 295//3 395//3 394//3
f 295//3 296//3 396//3 395//3
f 296//3 297//3 397//3 396//3
f 298//2 279//2 379//2 398//2
f 297//3 298//3 398//3 397//3
f 367//1 483//1 484//1 368//1
f 368//4 484//4 485//4 369//4
f 369//4 485//4 479//4 363//4
f 364//4 480//4 486//4 370//4
f 370//4 486//4 487//4 371//4
f 371//4 487//4 488//4 372//4
f 372//4 488//4 489//4 373//4
f 373//4 489//4 490//4 374//4
f 374//4 490//4 491//4 375//4
f 375//4 491//4 492//4 376//4
f 376//4 492//4 481//4 365//4
f 366//4 482//4 493//4 377//4
f 379//2 378//2 494//2 495//2
f 377//4 493//4 494//4 378//4
f 380//1 496//1 483//1 367//1
f 380//3 381//3 497//3 496//3
f 381//3 382//3 498//3 497//3
f 382//3 383//3 499//3 498//3
f 383//3 384//3 500//3 499//3
f 384//3 385//3 501//3 500//3
f 385//3 386//3 502//3 501//3
f 386//3 387//3 503//3 502//3
f 387//3 388//3 504//3 503//3
f 388//3 389//3 505//3 504//3
f 389//3 390//3 506//3 505//3
f 390//3 391//3 507//3 506//3
f 391//3 392//3 508//3 507//3
f 392//3 393//3 509//3 508//3
f 393//3 394//3 510//3 509//3
f 394//3 395//3 511//3 510//3
f 395//3 396//3 512//3 511//3
f 396//3 397//3 513//3 512//3
f 398//2 379//2 495//2 514//2
f 397//3 398//3 514//3 513//3
f 483//1 587//1 588//1 484//1
f 484//4 588//4 589//4 485//4
f 485//4 589//4 583//4 479//4
f 480//4 584//4 590//4 486//4
f 486//4 590//4 591//4 487//4
f 487//4 591//4 592//4 488//4
f 488//4 592//4 593//4 489//4
f 489//4 593//4 594//4 490//4
f 490//4 594//4 595//4 491//4
f 491//4 595//4 596//4 492//4
f 492//4 596//4 585//4 481//4
f 482//4 586//4 597//4 493//4
f 495//2 494//2 598//2 599//2
f 493//4 597//4 598//4 494//4
f 496//1 600//1 587//1 483//1
f 496//3 497//3 601//3 600//3
f 497//3 498//3 602//3 601//3
f 498//3 499//3 603//3 602//3
f 499//3 500//3 604//3 603//3
f 500//3 501//3 605//3 604//3
f 501//3 502//3 606//3 605//3
f 502//3 503//3 607//3 606//3
f 503//3 504//3 608//3 607//3
f 504//3 505//3 609//3 608//3
f 505//3 506//3 610//3 609//3
f 506//3 507//3 611//3 610//3
f 507//3 508//3 612//3 611//3
f 508//3 509//3 613//3 612//3
f 509//3 510//3 614//3 613//3
f 510//3 511//3 615//3 614//3
f 511//3 512//3 616//3 615//3
f 512//3 513//3 617//3 616//3
f 514//2 495//2 599//2 618//2
f 513//3 514//3 618//3 617//3
f 587//1 691//1 692//1 588//1
f 588//4 692//4 693//4 589//4
f 589//4 693//4 687//4 583//4
f 584//4 688//4 694//4 590//4
f 590//4 694//4 695//4 591//4
f 591//4 695//4 696//4 592//4
f 592//4 696//4 697//4 593//4
f 593//4 697//4 698//4 594//4
f 594//4 698//4 699//4 595//4
f 595//4 699//4 700//4 596//4
f 596//4 700//4 689//4 585//4
f 586//4 690//4 701//4 597//4
f 599//2 598//2 702//2 703//2
f 597//4 701//4 702//4 598//4
f 600//1 704//1 691//1 587//1
f 600//3 601//3 705//3 704//3
f 601//3 602//3 706//3 705//3
f 602//3 603//3 707//3 706//3
f 603//3 604//3 708//3 707//3
f 604//3 605//3 709//3 708//3
f 605//3 606//3 710//3 709//3
f 606//3 607//3 711//3 710//3
f 607//3 608//3 712//3 711//3
f 608//3 609//3 713//3 712//3
f 609//3 610//3 714//3 713//3
f 610//3 611//3 715//3 714//3
f 611//3 612//3 716//3 715//3
f 612//3 613//3 717//3 716//3
f 613//3 614//3 718//3 717//3
f 614//3 615//3 719//3 718//3
f 615//3 616//3 720//3 719//3
f 616//3 617//3 721//3 720//3
f 618//2 599//2 703//2 722//2
f 617//3 618//3 722//3 721//3
f 691//1 803//1 804//1 692//1
f 692//4 804//4 805//4 693//4
f 693//4 805//4 799//4 687//4
f 688//4 800//4 806//4 694//4
f 694//4 806//4 807//4 695//4
f 695//4 807//4 808//4 696//4
f 696//4 808//4 809//4 697//4
f 697//4 809//4 810//4 698//4
f 698//4 810//4 811//4 699//4
f 699//4 811//4 812//4 700//4
f 700//4 812//4 801//4 689//4
f 690//4 802//4 813//4 701//4
f 703//2 702//2 814//2 815//2
f 701//4 813//4 814//4 702//4
f 704//1 816//1 803//1 691//1
f 704//3 705//3 817//3 816//3
f 705//3 706//3 818//3 817//3
f 706//3 707//3 819//3 818//3
f 707//3 708//3 820//3 819//3
f 708//3 709//3 821//3 820//3
f 709//3 710//3 822//3 821//3
f 710//3 711//3 823//3 822//3
f 711//3 712//3 824//3 823//3
f 712//3 713//3 825//3 824//3
f 713//3 714//3 826//3 825//3
f 714//3 715//3 827//3 826//3
f 715//3 716//3 828//3 827//3
f 716//3 717//3 829//3 828//3
f 717//3 718//3 830//3 829//3
f 718//3 719//3 831//3 830//3
f 719//3 720//3 832//3 831//3
f 720//3 721//3 833//3 832//3
f 722//2 703//2 815//2 834//2
f 721//3 722//3 834//3 833//3
f 803//1 903//1 904//1 804//1
f 804//4 904//4 905//4 805//4
f 805//4 905//4 899//4 799//4
f 800//4 900//4 906//4 806//4
f 806//4 906//4 907//4 807//4
f 807//4 907//4 908//4 808//4
f 808//4 908//4 909//4 809//4
f 809//4 909//4 910//4 810//4
f 810//4 910//4 911//4 811//4
f 811//4 911//4 912//4 812//4
f 812//4 912//4 901//4 801//4
f 802//4 902//4 913//4 813//4
f 815//2 814//2 914//2 915//2
f 813//4 913//4 914//4 814//4
f 816//1 916//1 903//1 803//1
f 816//3 817//3 917//3 916//3
f 817//3 818//3 918//3 917//3
f 818//3 819//3 919//3 918//3
f 819//3 820//3 920//3 919//3
f 820//3 821//3 921//3 920//3
f 821//3 822//3 922//3 921//3
f 822//3 823//3 923//3 922//3
f 823//3 824//3 924//3 923//3
f 824//3 825//3 925//3 924//3
f 825//3 826//3 926//3 925//3
f 826//3 827//3 927//3 926//3
f 827//3 828//3 928//3 927//3
f 828//3 829//3 929//3 928//3
f 829//3 830//3 930//3 929//3
f 830//3 831//3 931//3 930//3
f 831//3 832//3 932//3 931//3
f 832//3 833//3 933//3 932//3
f 834//2 815//2 915//2 934//2
f 833//3 834//3 934//3 933//3
f 903//1 1044//1 1045//1 904//1
f 904//4 1045//4 1046//4 905//4
f 905//4 1046//4 1036//4 899//4
f 900//4 1039//4 1047//4 906//4
f 906//4 1047//4 1048//4 907//4
f 907//4 1048//4 1049//4 908//4
f 908//4 1049//4 1050//4 909//4
f 909//4 1050//4 1051//4 910//4
f 910//4 1051//4 1052//4 911//4
f 911//4 1052//4 1053//4 912//4
f 912//4 1053//4 1040//4 901//4
f 902//4 1043//4 1054//4 913//4
f 915//2 914//2 1055//2 1056//2
f 913//4 1054//4 1055//4 914//4
f 916//1 1057//1 1044//1 903//1
f 916//3 917//3 1058//3 1057//3
f 917//3 918//3 1059//3 1058//3
f 918//3 919//3 1060//3 1059//3
f 919//3 920//3 1061//3 1060//3
f 920//3 921//3 1062//3 1061//3
f 921//3 922//3 1063//3 1062//3
f 922//3 923//3 1064//3 1063//3
f 923//3 924//3 1065//3 1064//3
f 924//3 925//3 1066//3 1065//3
f 925//3 926//3 1067//3 1066//3
f 926//3 927//3 1068//3 1067//3
f 927//3 928//3 1069//3 1068//3
f 928//3 929//3 1070//3 1069//3
f 929//3 930//3 1071//3 1070//3
f 930//3 931//3 1072//3 1071//3
f 931//3 932//3 1073//3 1072//3
f 932//3 933//3 1074//3 1073//3
f 934//2 915//2 1056//2 1075//2
f 933//3 934//3 1075//3 1074//3
f 1044//1 1076//1 1077//1 1045//1
f 1045//4 1077//4 1078//4 1046//4
f 1076//6 1079//6 1078//6 1077//6
f 1046//4 1078//4 1080//4 1036//4
f 1079//6 1081//6 1080//6 1078//6
f 1036//4 1080//4 1082//4 1037//4
f 1081//6 1083//6 1082//6 1080//6
f 1037//4 1082//4 1084//4 1038//4
f 1083//6 1085//6 1084//6 1082//6
f 1038//4 1084//4 1086//4 1039//4
f 1085//6 1087//6 1086//6 1084//6
f 1039//4 1086//4 1088//4 1047//4
f 1087//6 1089//6 1088//6 1086//6
f 1047//4 1088//4 1090//4 1048//4
f 1089//6 1091//6 1090//6 1088//6
f 1048//4 1090//4 1092//4 1049//4
f 1091//6 1093//6 1092//6 1090//6
f 1049//4 1092//4 1094//4 1050//4
f 1093//6 1095//6 1094//6 1092//6
f 1050//4 1094//4 1096//4 1051//4
f 1095//6 1097//6 1096//6 1094//6
f 1051//4 1096//4 1098//4 1052//4
f 1097//6 1099//6 1098//6 1096//6
f 1052//4 1098//4 1100//4 1053//4
f 1099//6 1101//6 1100//6 1098//6
f 1053//4 1100//4 1102//4 1040//4
f 1101//6 1103//6 1102//6 1100//6
f 1040//4 1102//4 1104//4 1041//4
f 1103//6 1105//6 1104//6 1102//6
f 1041//4 1104//4 1106//4 1042//4
f 1105//6 1107//6 1106//6 1104//6
f 1042//4 1106//4 1108//4 1043//4
f 1107//6 1109//6 1108//6 1106//6
f 1043//4 1108//4 1110//4 1054//4
f 1109//6 1111//6 1110//6 1108//6
f 1056//2 1055//2 1112//2 1113//2
f 1054//4 1110//4 1112//4 1055//4
f 1111//6 1113//6 1112//6 1110//6
f 1057//1 1114//1 1076//1 1044//1
f 1057//3 1058//3 1115//3 1114//3
f 1114//6 1115//6 1079//6 1076//6
f 1058//3 1059//3 1116//3 1115//3
f 1115//6 1116//6 1081//6 1079//6
f 1059//3 1060//3 1117//3 1116//3
f 1116//6 1117//6 1083//6 1081//6
f 1060//3 1061//3 1118//3 1117//3
f 1117//6 1118//6 1085//6 1083//6
f 1061//3 1062//3 1119//3 1118//3
f 1118//6 1119//6 1087//6 1085//6
f 1062//3 1063//3 1120//3 1119//3
f 1119//6 1120//6 1089//6 1087//6
f 1063//3 1064//3 1121//3 1120//3
f 1120//6 1121//6 1091//6 1089//6
f 1064//3 1065//3 1122//3 1121//3
f 1121//6 1122//6 1093//6 1091//6
f 1065//3 1066//3 1123//3 1122//3
f 1122//6 1123//6 1095//6 1093//6
f 1066//3 1067//3 1124//3 1123//3
f 1123//6 1124//6 1097//6 1095//6
f 1067//3 1068//3 1125//3 1124//3
f 1124//6 1125//6 1099//6 1097//6
f 1068//3 1069//3 1126//3 1125//3
f 1125//6 1126//6 1101//6 1099//6
f 1069//3 1070//3 1127//3 1126//3
f 1126//6 1127//6 1103//6 1101//6
f 1070//3 1071//3 1128//3 1127//3
f 1127//6 1128//6 1105//6 1103//6
f 1071//3 1072//3 1129//3 1128//3
f 1128//6 1129//6 1107//6 1105//6
f 1072//3 1073//3 1130//3 1129//3
f 1129//6 1130//6 1109//6 1107//6
f 1073//3 1074//3 1131//3 1130//3
f 1130//6 1131//6 1111//6 1109//6
f 1075//2 1056//2 1113//2 1132//2
f 1074//3 1075//3 1132//3 1131//3
f 1131//6 1132//6 1113//6 1111//6
