# Rook occupied-cell surface mesh
# Orbital rings
# One cell is one unit. Y points up; Z follows the 3md slice index.
o sculpture
v -1 2 -9
v -1 2 -8
v -1 3 -8
v -1 3 -9
v 0 3 -8
v 0 3 -9
v 0 2 -9
v 1 2 -9
v 1 3 -9
v 1 3 -8
v 1 2 -8
v -1 1 -9
v -1 1 -8
v 0 1 -9
v 0 1 -8
v 0 2 -8
v 1 1 -9
v 1 1 -8
v -3 0 -9
v -3 0 -8
v -3 1 -8
v -3 1 -9
v -2 1 -8
v -2 1 -9
v -2 0 -9
v -1 0 -9
v -2 0 -8
v -1 0 -8
v 0 0 -9
v 0 0 -8
v 1 0 -9
v 1 0 -8
v 2 1 -8
v 2 1 -9
v 2 0 -9
v 2 0 -8
v 3 0 -9
v 3 1 -9
v 3 1 -8
v 3 0 -8
v -3 -1 -9
v -3 -1 -8
v -2 -1 -9
v -2 -1 -8
v -1 -1 -9
v -1 -1 -8
v 0 -1 -9
v 0 -1 -8
v 1 -1 -9
v 1 -1 -8
v 2 -1 -9
v 2 -1 -8
v 3 -1 -9
v 3 -1 -8
v -1 -2 -9
v -1 -2 -8
v 0 -2 -9
v 0 -2 -8
v 1 -2 -9
v 1 -2 -8
v -1 -3 -9
v -1 -3 -8
v 0 -3 -9
v 0 -3 -8
v 1 -3 -9
v 1 -3 -8
v -1 4 -8
v -1 4 -7
v -1 5 -7
v -1 5 -8
v 0 5 -7
v 0 5 -8
v 0 4 -8
v 1 4 -8
v 1 5 -8
v 1 5 -7
v 1 4 -7
v -1 3 -7
v 0 3 -7
v 0 4 -7
v 1 3 -7
v -1 2 -7
v 0 2 -7
v 1 2 -7
v -5 0 -8
v -5 0 -7
v -5 1 -7
v -5 1 -8
v -4 1 -7
v -4 1 -8
v -4 0 -8
v -3 1 -7
v -4 0 -7
v -3 0 -7
v -2 1 -7
v -2 0 -7
v 2 0 -7
v 2 1 -7
v 3 1 -7
v 3 0 -7
v 4 1 -7
v 4 1 -8
v 4 0 -8
v 4 0 -7
v 5 0 -8
v 5 1 -8
v 5 1 -7
v 5 0 -7
v -5 -1 -8
v -5 -1 -7
v -4 -1 -8
v -4 -1 -7
v -3 -1 -7
v -2 -1 -7
v 2 -1 -7
v 3 -1 -7
v 4 -1 -8
v 4 -1 -7
v 5 -1 -8
v 5 -1 -7
v -1 -3 -7
v -1 -2 -7
v 0 -2 -7
v 0 -3 -7
v 1 -2 -7
v 1 -3 -7
v -1 -4 -8
v -1 -4 -7
v 0 -4 -8
v 0 -4 -7
v 1 -4 -8
v 1 -4 -7
v -1 -5 -8
v -1 -5 -7
v 0 -5 -8
v 0 -5 -7
v 1 -5 -8
v 1 -5 -7
v -1 5 -6
v -1 6 -6
v -1 6 -7
v 0 6 -6
v 0 6 -7
v 0 5 -6
v 1 6 -7
v 1 6 -6
v 1 5 -6
v -1 4 -6
v 0 4 -6
v 1 4 -6
v -6 0 -7
v -6 0 -6
v -6 1 -6
v -6 1 -7
v -5 1 -6
v -5 0 -6
v -4 1 -6
v -4 0 -6
v 4 0 -6
v 4 1 -6
v 5 1 -6
v 5 0 -6
v 6 0 -7
v 6 1 -7
v 6 1 -6
v 6 0 -6
v -6 -1 -7
v -6 -1 -6
v -5 -1 -6
v -4 -1 -6
v 4 -1 -6
v 5 -1 -6
v 6 -1 -7
v 6 -1 -6
v -1 -5 -6
v -1 -4 -6
v 0 -4 -6
v 0 -5 -6
v 1 -4 -6
v 1 -5 -6
v -1 -6 -7
v -1 -6 -6
v 0 -6 -7
v 0 -6 -6
v 1 -6 -7
v 1 -6 -6
v -1 6 -5
v -1 7 -5
v -1 7 -6
v 0 6 -5
v 0 7 -5
v 0 7 -6
v 1 7 -6
v 1 7 -5
v 1 6 -5
v -7 0 -6
v -7 0 -5
v -7 1 -5
v -7 1 -6
v -6 1 -5
v -6 0 -5
v 6 0 -5
v 6 1 -5
v 7 0 -6
v 7 1 -6
v 7 1 -5
v 7 0 -5
v -7 -1 -6
v -7 -1 -5
v -6 -1 -5
v 6 -1 -5
v 7 -1 -6
v 7 -1 -5
v -1 -7 -6
v -1 -7 -5
v -1 -6 -5
v 0 -7 -6
v 0 -7 -5
v 0 -6 -5
v 1 -7 -6
v 1 -6 -5
v 1 -7 -5
v -1 7 -4
v -1 8 -4
v -1 8 -5
v 0 8 -4
v 0 8 -5
v 1 8 -5
v 1 8 -4
v 1 7 -4
v -1 6 -4
v 0 6 -4
v 0 7 -4
v 1 6 -4
v -8 0 -5
v -8 0 -4
v -8 1 -4
v -8 1 -5
v -7 1 -4
v -6 1 -4
v -6 0 -4
v -7 0 -4
v 6 0 -4
v 6 1 -4
v 7 1 -4
v 7 0 -4
v 8 0 -5
v 8 1 -5
v 8 1 -4
v 8 0 -4
v -8 -1 -5
v -8 -1 -4
v -7 -1 -4
v -6 -1 -4
v 6 -1 -4
v 7 -1 -4
v 8 -1 -5
v 8 -1 -4
v -1 -7 -4
v -1 -6 -4
v 0 -6 -4
v 0 -7 -4
v 1 -6 -4
v 1 -7 -4
v -1 -8 -5
v -1 -8 -4
v 0 -8 -5
v 0 -8 -4
v 1 -8 -5
v 1 -8 -4
v -1 7 -3
v -1 8 -3
v 0 7 -3
v 0 8 -3
v 1 8 -3
v 1 7 -3
v -8 0 -3
v -8 1 -3
v -7 1 -3
v -7 0 -3
v 7 0 -3
v 7 1 -3
v 8 1 -3
v 8 0 -3
v -8 -1 -3
v -7 -1 -3
v 7 -1 -3
v 8 -1 -3
v -1 -8 -3
v -1 -7 -3
v 0 -8 -3
v 0 -7 -3
v 1 -7 -3
v 1 -8 -3
v -1 8 -2
v -1 9 -2
v -1 9 -3
v 0 9 -2
v 0 9 -3
v 1 9 -3
v 1 9 -2
v 1 8 -2
v -1 7 -2
v 0 7 -2
v 0 8 -2
v 1 7 -2
v -9 0 -3
v -9 0 -2
v -9 1 -2
v -9 1 -3
v -8 1 -2
v -7 1 -2
v -7 0 -2
v -8 0 -2
v 7 0 -2
v 7 1 -2
v 8 1 -2
v 8 0 -2
v 9 0 -3
v 9 1 -3
v 9 1 -2
v 9 0 -2
v -9 -1 -3
v -9 -1 -2
v -8 -1 -2
v -7 -1 -2
v 7 -1 -2
v 8 -1 -2
v 9 -1 -3
v 9 -1 -2
v -1 -8 -2
v -1 -7 -2
v 0 -7 -2
v 0 -8 -2
v 1 -7 -2
v 1 -8 -2
v -1 -9 -3
v -1 -9 -2
v 0 -9 -3
v 0 -9 -2
v 1 -9 -3
v 1 -9 -2
v -1 8 -1
v -1 9 -1
v 0 8 -1
v 0 9 -1
v 1 9 -1
v 1 8 -1
v -9 0 -1
v -9 1 -1
v -8 1 -1
v -8 0 -1
v -1 0 -2
v -1 0 -1
v -1 1 -1
v -1 1 -2
v 0 1 -1
v 0 1 -2
v 0 0 -2
v 1 0 -2
v 1 1 -2
v 1 1 -1
v 1 0 -1
v 8 0 -1
v 8 1 -1
v 9 1 -1
v 9 0 -1
v -9 -1 -1
v -8 -1 -1
v -1 -1 -2
v -1 -1 -1
v 0 -1 -2
v 0 -1 -1
v 1 -1 -2
v 1 -1 -1
v 8 -1 -1
v 9 -1 -1
v -1 -9 -1
v -1 -8 -1
v 0 -9 -1
v 0 -8 -1
v 1 -8 -1
v 1 -9 -1
v -3 8 -1
v -3 8 0
v -3 9 0
v -3 9 -1
v -2 9 0
v -2 9 -1
v -2 8 -1
v -1 8 0
v -2 8 0
v -1 9 0
v 0 8 0
v 0 9 0
v 1 8 0
v 1 9 0
v 2 8 -1
v 2 8 0
v 2 9 0
v 2 9 -1
v 3 8 -1
v 3 9 -1
v 3 9 0
v 3 8 0
v -5 7 -1
v -5 7 0
v -5 8 0
v -5 8 -1
v -4 8 0
v -4 8 -1
v -4 7 -1
v -3 7 -1
v -3 7 0
v -4 7 0
v -2 7 -1
v -2 7 0
v 2 7 -1
v 2 7 0
v 3 7 -1
v 3 7 0
v 4 7 -1
v 4 7 0
v 4 8 0
v 4 8 -1
v 5 7 -1
v 5 8 -1
v 5 8 0
v 5 7 0
v -6 6 -1
v -6 6 0
v -6 7 0
v -6 7 -1
v -5 6 -1
v -5 6 0
v -4 6 -1
v -4 6 0
v 4 6 -1
v 4 6 0
v 5 6 -1
v 5 6 0
v 6 6 -1
v 6 7 -1
v 6 7 0
v 6 6 0
v -7 5 -1
v -7 5 0
v -7 6 0
v -7 6 -1
v -6 5 -1
v -6 5 0
v 6 5 -1
v 6 5 0
v 7 5 -1
v 7 6 -1
v 7 6 0
v 7 5 0
v -8 4 -1
v -8 4 0
v -8 5 0
v -8 5 -1
v -7 4 -1
v -6 4 -1
v -6 4 0
v -7 4 0
v 6 4 -1
v 6 4 0
v 7 4 -1
v 7 4 0
v 8 4 -1
v 8 5 -1
v 8 5 0
v 8 4 0
v -8 3 -1
v -8 3 0
v -7 3 -1
v -7 3 0
v 7 3 -1
v 7 3 0
v 8 3 -1
v 8 3 0
v -9 2 -1
v -9 2 0
v -9 3 0
v -9 3 -1
v -8 2 -1
v -7 2 -1
v -7 2 0
v -8 2 0
v 7 2 -1
v 7 2 0
v 8 2 -1
v 8 2 0
v 9 2 -1
v 9 3 -1
v 9 3 0
v 9 2 0
v -9 1 0
v -8 1 0
v -1 1 0
v -1 2 0
v -1 2 -1
v 0 2 0
v 0 2 -1
v 1 2 -1
v 1 2 0
v 1 1 0
v 8 1 0
v 9 1 0
v -9 0 0
v -8 0 0
v -2 0 -1
v -2 0 0
v -2 1 0
v -2 1 -1
v 2 0 -1
v 2 1 -1
v 2 1 0
v 2 0 0
v 8 0 0
v 9 0 0
v -9 -1 0
v -8 -1 0
v -2 -1 -1
v -2 -1 0
v -1 -1 0
v 2 -1 -1
v 2 -1 0
v 1 -1 0
v 8 -1 0
v 9 -1 0
v -9 -2 -1
v -9 -2 0
v -8 -2 -1
v -8 -2 0
v -1 -2 -1
v -1 -2 0
v 0 -2 -1
v 0 -2 0
v 1 -2 -1
v 1 -2 0
v 8 -2 -1
v 8 -2 0
v 9 -2 -1
v 9 -2 0
v -9 -3 -1
v -9 -3 0
v -8 -3 -1
v -8 -3 0
v -7 -3 -1
v -7 -2 -1
v -7 -2 0
v -7 -3 0
v 7 -3 -1
v 7 -3 0
v 7 -2 0
v 7 -2 -1
v 8 -3 -1
v 9 -3 -1
v 9 -3 0
v 8 -3 0
v -8 -4 -1
v -8 -4 0
v -7 -4 -1
v -7 -4 0
v 7 -4 -1
v 7 -4 0
v 8 -4 -1
v 8 -4 0
v -8 -5 -1
v -8 -5 0
v -7 -5 -1
v -7 -5 0
v -6 -5 -1
v -6 -4 -1
v -6 -4 0
v -6 -5 0
v 6 -5 -1
v 6 -5 0
v 6 -4 0
v 6 -4 -1
v 7 -5 -1
v 8 -5 -1
v 8 -5 0
v 7 -5 0
v -7 -6 -1
v -7 -6 0
v -6 -6 -1
v -6 -6 0
v 6 -6 -1
v 6 -6 0
v 7 -6 -1
v 7 -6 0
v -6 -7 -1
v -6 -7 0
v -5 -7 -1
v -5 -7 0
v -5 -6 0
v -5 -6 -1
v -4 -7 -1
v -4 -6 -1
v -4 -6 0
v -4 -7 0
v 4 -7 -1
v 4 -7 0
v 4 -6 0
v 4 -6 -1
v 5 -6 0
v 5 -6 -1
v 5 -7 -1
v 6 -7 -1
v 6 -7 0
v 5 -7 0
v -5 -8 -1
v -5 -8 0
v -4 -8 -1
v -4 -8 0
v -3 -8 -1
v -3 -8 0
v -3 -7 0
v -3 -7 -1
v -2 -8 -1
v -2 -7 -1
v -2 -7 0
v -2 -8 0
v 2 -8 -1
v 2 -8 0
v 2 -7 0
v 2 -7 -1
v 3 -7 0
v 3 -7 -1
v 3 -8 -1
v 4 -8 -1
v 4 -8 0
v 3 -8 0
v 5 -8 -1
v 5 -8 0
v -3 -9 -1
v -3 -9 0
v -2 -9 -1
v -2 -9 0
v -1 -9 0
v -1 -8 0
v 0 -9 0
v 0 -8 0
v 1 -9 0
v 1 -8 0
v 2 -9 -1
v 2 -9 0
v 3 -9 -1
v 3 -9 0
v -3 8 1
v -3 9 1
v -2 9 1
v -2 8 1
v -1 8 1
v -1 9 1
v 0 8 1
v 0 9 1
v 1 8 1
v 1 9 1
v 2 8 1
v 2 9 1
v 3 9 1
v 3 8 1
v -5 7 1
v -5 8 1
v -4 8 1
v -4 7 1
v -3 7 1
v -2 7 1
v 2 7 1
v 3 7 1
v 4 7 1
v 4 8 1
v 5 8 1
v 5 7 1
v -6 6 1
v -6 7 1
v -5 6 1
v -4 6 1
v 4 6 1
v 5 6 1
v 6 7 1
v 6 6 1
v -7 5 1
v -7 6 1
v -6 5 1
v 6 5 1
v 7 6 1
v 7 5 1
v -8 4 1
v -8 5 1
v -7 4 1
v -6 4 1
v 6 4 1
v 7 4 1
v 8 5 1
v 8 4 1
v -8 3 1
v -7 3 1
v 7 3 1
v 8 3 1
v -9 2 1
v -9 3 1
v -8 2 1
v -7 2 1
v 7 2 1
v 8 2 1
v 9 3 1
v 9 2 1
v -9 1 1
v -8 1 1
v -1 1 1
v -1 2 1
v 0 2 1
v 0 1 1
v 1 2 1
v 1 1 1
v 8 1 1
v 9 1 1
v -9 0 1
v -8 0 1
v -2 0 1
v -2 1 1
v -1 0 1
v 2 1 1
v 2 0 1
v 1 0 1
v 8 0 1
v 9 0 1
v -9 -1 1
v -8 -1 1
v -2 -1 1
v -1 -1 1
v 2 -1 1
v 1 -1 1
v 8 -1 1
v 9 -1 1
v -9 -2 1
v -8 -2 1
v -1 -2 1
v 0 -2 1
v 0 -1 1
v 1 -2 1
v 8 -2 1
v 9 -2 1
v -9 -3 1
v -8 -3 1
v -7 -2 1
v -7 -3 1
v 7 -3 1
v 7 -2 1
v 8 -3 1
v 9 -3 1
v -8 -4 1
v -7 -4 1
v 7 -4 1
v 8 -4 1
v -8 -5 1
v -7 -5 1
v -6 -4 1
v -6 -5 1
v 6 -5 1
v 6 -4 1
v 7 -5 1
v 8 -5 1
v -7 -6 1
v -6 -6 1
v 6 -6 1
v 7 -6 1
v -6 -7 1
v -5 -7 1
v -5 -6 1
v -4 -6 1
v -4 -7 1
v 4 -7 1
v 4 -6 1
v 5 -6 1
v 5 -7 1
v 6 -7 1
v -5 -8 1
v -4 -8 1
v -3 -8 1
v -3 -7 1
v -2 -7 1
v -2 -8 1
v 2 -8 1
v 2 -7 1
v 3 -7 1
v 3 -8 1
v 4 -8 1
v 5 -8 1
v -3 -9 1
v -2 -9 1
v -1 -9 1
v -1 -8 1
v 0 -9 1
v 0 -8 1
v 1 -9 1
v 1 -8 1
v 2 -9 1
v 3 -9 1
v -1 8 2
v -1 9 2
v 0 8 2
v 0 9 2
v 1 9 2
v 1 8 2
v -9 0 2
v -9 1 2
v -8 1 2
v -8 0 2
v -1 0 2
v -1 1 2
v 0 1 2
v 0 0 2
v 1 1 2
v 1 0 2
v 8 0 2
v 8 1 2
v 9 1 2
v 9 0 2
v -9 -1 2
v -8 -1 2
v -1 -1 2
v 0 -1 2
v 1 -1 2
v 8 -1 2
v 9 -1 2
v -1 -9 2
v -1 -8 2
v 0 -9 2
v 0 -8 2
v 1 -8 2
v 1 -9 2
v -1 8 3
v -1 9 3
v 0 9 3
v 0 8 3
v 1 9 3
v 1 8 3
v -1 7 2
v -1 7 3
v 0 7 2
v 0 7 3
v 1 7 2
v 1 7 3
v -9 0 3
v -9 1 3
v -8 1 3
v -8 0 3
v -7 0 2
v -7 1 2
v -7 1 3
v -7 0 3
v 7 0 2
v 7 0 3
v 7 1 3
v 7 1 2
v 8 1 3
v 9 1 3
v 9 0 3
v 8 0 3
v -9 -1 3
v -8 -1 3
v -7 -1 2
v -7 -1 3
v 7 -1 2
v 7 -1 3
v 8 -1 3
v 9 -1 3
v -1 -8 3
v -1 -7 3
v -1 -7 2
v 0 -7 3
v 0 -7 2
v 1 -7 2
v 1 -7 3
v 1 -8 3
v -1 -9 3
v 0 -9 3
v 0 -8 3
v 1 -9 3
v -1 7 4
v -1 8 4
v 0 7 4
v 0 8 4
v 1 8 4
v 1 7 4
v -8 0 4
v -8 1 4
v -7 1 4
v -7 0 4
v 7 0 4
v 7 1 4
v 8 1 4
v 8 0 4
v -8 -1 4
v -7 -1 4
v 7 -1 4
v 8 -1 4
v -1 -8 4
v -1 -7 4
v 0 -8 4
v 0 -7 4
v 1 -7 4
v 1 -8 4
v -1 7 5
v -1 8 5
v 0 8 5
v 0 7 5
v 1 8 5
v 1 7 5
v -1 6 4
v -1 6 5
v 0 6 4
v 0 6 5
v 1 6 4
v 1 6 5
v -8 0 5
v -8 1 5
v -7 1 5
v -7 0 5
v -6 0 4
v -6 1 4
v -6 1 5
v -6 0 5
v 6 0 4
v 6 0 5
v 6 1 5
v 6 1 4
v 7 1 5
v 8 1 5
v 8 0 5
v 7 0 5
v -8 -1 5
v -7 -1 5
v -6 -1 4
v -6 -1 5
v 6 -1 4
v 6 -1 5
v 7 -1 5
v 8 -1 5
v -1 -7 5
v -1 -6 5
v -1 -6 4
v 0 -6 5
v 0 -6 4
v 1 -6 4
v 1 -6 5
v 1 -7 5
v -1 -8 5
v 0 -8 5
v 0 -7 5
v 1 -8 5
v -1 6 6
v -1 7 6
v 0 6 6
v 0 7 6
v 1 7 6
v 1 6 6
v -7 0 6
v -7 1 6
v -6 1 6
v -6 0 6
v 6 0 6
v 6 1 6
v 7 1 6
v 7 0 6
v -7 -1 6
v -6 -1 6
v 6 -1 6
v 7 -1 6
v -1 -7 6
v -1 -6 6
v 0 -7 6
v 0 -6 6
v 1 -6 6
v 1 -7 6
v -1 5 6
v -1 5 7
v -1 6 7
v 0 6 7
v 0 5 6
v 0 5 7
v 1 5 6
v 1 6 7
v 1 5 7
v -1 4 6
v -1 4 7
v 0 4 6
v 0 4 7
v 1 4 6
v 1 4 7
v -6 0 7
v -6 1 7
v -5 1 7
v -5 1 6
v -5 0 6
v -5 0 7
v -4 0 6
v -4 1 6
v -4 1 7
v -4 0 7
v 4 0 6
v 4 0 7
v 4 1 7
v 4 1 6
v 5 1 7
v 5 1 6
v 5 0 6
v 6 1 7
v 6 0 7
v 5 0 7
v -6 -1 7
v -5 -1 6
v -5 -1 7
v -4 -1 6
v -4 -1 7
v 4 -1 6
v 4 -1 7
v 5 -1 6
v 5 -1 7
v 6 -1 7
v -1 -5 6
v -1 -5 7
v -1 -4 7
v -1 -4 6
v 0 -4 7
v 0 -4 6
v 0 -5 6
v 1 -5 6
v 1 -4 6
v 1 -4 7
v 1 -5 7
v -1 -6 7
v 0 -6 7
v 0 -5 7
v 1 -6 7
v -1 4 8
v -1 5 8
v 0 5 8
v 0 4 8
v 1 5 8
v 1 4 8
v -1 3 7
v -1 3 8
v 0 3 7
v 0 3 8
v 1 3 7
v 1 3 8
v -1 2 7
v -1 2 8
v 0 2 7
v 0 2 8
v 1 2 7
v 1 2 8
v -5 0 8
v -5 1 8
v -4 1 8
v -4 0 8
v -3 1 8
v -3 1 7
v -3 0 7
v -3 0 8
v -2 0 7
v -2 1 7
v -2 1 8
v -2 0 8
v 2 0 7
v 2 0 8
v 2 1 8
v 2 1 7
v 3 1 8
v 3 1 7
v 3 0 7
v 4 1 8
v 3 0 8
v 4 0 8
v 5 1 8
v 5 0 8
v -5 -1 8
v -4 -1 8
v -3 -1 7
v -3 -1 8
v -2 -1 7
v -2 -1 8
v 2 -1 7
v 2 -1 8
v 3 -1 7
v 3 -1 8
v 4 -1 8
v 5 -1 8
v -1 -3 7
v -1 -3 8
v -1 -2 8
v -1 -2 7
v 0 -2 8
v 0 -2 7
v 0 -3 7
v 1 -3 7
v 1 -2 7
v 1 -2 8
v 1 -3 8
v -1 -4 8
v 0 -4 8
v 0 -3 8
v 1 -4 8
v -1 -5 8
v 0 -5 8
v 1 -5 8
v -1 2 9
v -1 3 9
v 0 3 9
v 0 2 9
v 1 3 9
v 1 2 9
v -1 1 8
v -1 1 9
v 0 1 8
v 0 1 9
v 1 1 8
v 1 1 9
v -3 0 9
v -3 1 9
v -2 1 9
v -2 0 9
v -1 0 8
v -1 0 9
v 0 0 8
v 0 0 9
v 1 0 8
v 1 0 9
v 2 1 9
v 2 0 9
v 3 1 9
v 3 0 9
v -3 -1 9
v -2 -1 9
v -1 -1 8
v -1 -1 9
v 0 -1 8
v 0 -1 9
v 1 -1 8
v 1 -1 9
v 2 -1 9
v 3 -1 9
v -1 -2 9
v 0 -2 9
v 1 -2 9
v -1 -3 9
v 0 -3 9
v 1 -3 9
vn -1 0 0
vn 1 0 0
vn 0 -1 0
vn 0 1 0
vn 0 0 -1
vn 0 0 1
s off
g glyph_35
f 384//1 385//1 386//1 387//1
f 387//4 386//4 388//4 389//4
f 384//5 387//5 389//5 390//5
f 390//3 343//3 391//3 392//3
f 389//4 388//4 393//4 344//4
f 390//5 389//5 344//5 343//5
f 348//3 398//3 399//3 396//3
f 347//4 397//4 400//4 401//4
f 348//5 347//5 401//5 398//5
f 402//2 403//2 404//2 405//2
f 401//4 400//4 404//4 403//4
f 398//5 401//5 403//5 402//5
f 406//1 407//1 408//1 409//1
f 409//4 408//4 410//4 411//4
f 406//5 409//5 411//5 412//5
f 412//3 413//3 414//3 415//3
f 411//4 410//4 385//4 384//4
f 412//5 411//5 384//5 413//5
f 416//2 390//2 392//2 417//2
f 413//3 416//3 417//3 414//3
f 413//5 384//5 390//5 416//5
f 418//1 419//1 399//1 398//1
f 418//3 420//3 421//3 419//3
f 418//5 398//5 402//5 420//5
f 420//3 422//3 423//3 421//3
f 402//4 405//4 424//4 425//4
f 420//5 402//5 425//5 422//5
f 426//2 427//2 428//2 429//2
f 425//4 424//4 428//4 427//4
f 422//5 425//5 427//5 426//5
f 430//1 431//1 432//1 433//1
f 430//3 434//3 435//3 431//3
f 433//4 432//4 407//4 406//4
f 430//5 433//5 406//5 434//5
f 436//2 412//2 415//2 437//2
f 434//3 436//3 437//3 435//3
f 434//5 406//5 412//5 436//5
f 438//1 439//1 423//1 422//1
f 438//3 440//3 441//3 439//3
f 438//5 422//5 426//5 440//5
f 442//2 443//2 444//2 445//2
f 440//3 442//3 445//3 441//3
f 426//4 429//4 444//4 443//4
f 440//5 426//5 443//5 442//5
f 446//1 447//1 448//1 449//1
f 450//2 430//2 431//2 451//2
f 449//4 448//4 431//4 430//4
f 446//5 449//5 430//5 450//5
f 452//1 453//1 445//1 442//1
f 454//2 455//2 456//2 457//2
f 442//4 445//4 456//4 455//4
f 452//5 442//5 455//5 454//5
f 458//1 459//1 460//1 461//1
f 461//4 460//4 447//4 446//4
f 458//5 461//5 446//5 462//5
f 463//2 450//2 451//2 464//2
f 462//3 463//3 464//3 465//3
f 462//5 446//5 450//5 463//5
f 466//1 467//1 453//1 452//1
f 466//3 468//3 469//3 467//3
f 466//5 452//5 454//5 468//5
f 470//2 471//2 472//2 473//2
f 454//4 457//4 472//4 471//4
f 468//5 454//5 471//5 470//5
f 474//1 475//1 459//1 458//1
f 476//2 462//2 465//2 477//2
f 474//5 458//5 462//5 476//5
f 478//1 479//1 469//1 468//1
f 480//2 470//2 473//2 481//2
f 478//5 468//5 470//5 480//5
f 482//1 483//1 484//1 485//1
f 485//4 484//4 475//4 474//4
f 482//5 485//5 474//5 486//5
f 487//2 476//2 477//2 488//2
f 486//3 487//3 488//3 489//3
f 486//5 474//5 476//5 487//5
f 490//1 491//1 479//1 478//1
f 490//3 492//3 493//3 491//3
f 490//5 478//5 480//5 492//5
f 494//2 495//2 496//2 497//2
f 480//4 481//4 496//4 495//4
f 492//5 480//5 495//5 494//5
f 350//1 498//1 483//1 482//1
f 351//2 486//2 489//2 499//2
f 350//5 482//5 486//5 351//5
f 365//1 508//1 493//1 492//1
f 366//2 494//2 497//2 509//2
f 365//5 492//5 494//5 366//5
f 532//1 533//1 522//1 368//1
f 534//2 369//2 523//2 535//2
f 532//5 368//5 369//5 534//5
f 542//1 543//1 530//1 376//1
f 544//2 377//2 531//2 545//2
f 542//5 376//5 377//5 544//5
f 546//1 547//1 533//1 532//1
f 546//3 548//3 549//3 547//3
f 546//5 532//5 534//5 548//5
f 550//2 551//2 552//2 553//2
f 534//4 535//4 552//4 551//4
f 548//5 534//5 551//5 550//5
f 554//1 555//1 556//1 557//1
f 557//4 556//4 543//4 542//4
f 554//5 557//5 542//5 558//5
f 559//2 544//2 545//2 560//2
f 558//3 559//3 560//3 561//3
f 558//5 542//5 544//5 559//5
f 562//1 563//1 549//1 548//1
f 564//2 550//2 553//2 565//2
f 562//5 548//5 550//5 564//5
f 566//1 567//1 555//1 554//1
f 568//2 558//2 561//2 569//2
f 566//5 554//5 558//5 568//5
f 570//1 571//1 563//1 562//1
f 570//3 572//3 573//3 571//3
f 570//5 562//5 564//5 572//5
f 574//2 575//2 576//2 577//2
f 564//4 565//4 576//4 575//4
f 572//5 564//5 575//5 574//5
f 578//1 579//1 580//1 581//1
f 581//4 580//4 567//4 566//4
f 578//5 581//5 566//5 582//5
f 583//2 568//2 569//2 584//2
f 582//3 583//3 584//3 585//3
f 582//5 566//5 568//5 583//5
f 586//1 587//1 573//1 572//1
f 588//2 574//2 577//2 589//2
f 586//3 588//3 589//3 587//3
f 586//5 572//5 574//5 588//5
f 590//1 591//1 579//1 578//1
f 592//2 582//2 585//2 593//2
f 590//3 592//3 593//3 591//3
f 590//5 578//5 582//5 592//5
f 594//1 595//1 589//1 588//1
f 594//3 596//3 597//3 595//3
f 588//4 589//4 598//4 599//4
f 594//5 588//5 599//5 596//5
f 600//2 601//2 602//2 603//2
f 599//4 598//4 602//4 601//4
f 596//5 599//5 601//5 600//5
f 604//1 605//1 606//1 607//1
f 607//4 606//4 608//4 609//4
f 604//5 607//5 609//5 610//5
f 611//2 590//2 591//2 612//2
f 610//3 611//3 612//3 613//3
f 609//4 608//4 591//4 590//4
f 610//5 609//5 590//5 611//5
f 614//1 615//1 597//1 596//1
f 614//3 616//3 617//3 615//3
f 614//5 596//5 600//5 616//5
f 616//3 618//3 619//3 617//3
f 600//4 603//4 620//4 621//4
f 616//5 600//5 621//5 618//5
f 622//2 623//2 624//2 625//2
f 621//4 620//4 624//4 623//4
f 618//5 621//5 623//5 622//5
f 626//1 627//1 628//1 629//1
f 629//4 628//4 630//4 631//4
f 626//5 629//5 631//5 632//5
f 632//3 633//3 634//3 635//3
f 631//4 630//4 605//4 604//4
f 632//5 631//5 604//5 633//5
f 636//2 610//2 613//2 637//2
f 633//3 636//3 637//3 634//3
f 633//5 604//5 610//5 636//5
f 638//1 639//1 619//1 618//1
f 638//3 640//3 641//3 639//3
f 638//5 618//5 622//5 640//5
f 640//3 378//3 642//3 641//3
f 622//4 625//4 643//4 379//4
f 640//5 622//5 379//5 378//5
f 383//3 648//3 649//3 646//3
f 382//4 647//4 627//4 626//4
f 383//5 382//5 626//5 648//5
f 650//2 632//2 635//2 651//2
f 648//3 650//3 651//3 649//3
f 648//5 626//5 632//5 650//5
f 385//1 652//1 653//1 386//1
f 386//4 653//4 654//4 388//4
f 652//6 655//6 654//6 653//6
f 392//3 391//3 656//3 655//3
f 388//4 654//4 657//4 393//4
f 655//6 656//6 657//6 654//6
f 396//3 399//3 662//3 660//3
f 397//4 661//4 663//4 400//4
f 660//6 662//6 663//6 661//6
f 405//2 404//2 664//2 665//2
f 400//4 663//4 664//4 404//4
f 662//6 665//6 664//6 663//6
f 407//1 666//1 667//1 408//1
f 408//4 667//4 668//4 410//4
f 666//6 669//6 668//6 667//6
f 415//3 414//3 670//3 669//3
f 410//4 668//4 652//4 385//4
f 669//6 670//6 652//6 668//6
f 417//2 392//2 655//2 671//2
f 414//3 417//3 671//3 670//3
f 670//6 671//6 655//6 652//6
f 419//1 672//1 662//1 399//1
f 419//3 421//3 673//3 672//3
f 672//6 673//6 665//6 662//6
f 421//3 423//3 674//3 673//3
f 405//4 665//4 675//4 424//4
f 673//6 674//6 675//6 665//6
f 429//2 428//2 676//2 677//2
f 424//4 675//4 676//4 428//4
f 674//6 677//6 676//6 675//6
f 431//1 678//1 679//1 432//1
f 431//3 435//3 680//3 678//3
f 432//4 679//4 666//4 407//4
f 678//6 680//6 666//6 679//6
f 437//2 415//2 669//2 681//2
f 435//3 437//3 681//3 680//3
f 680//6 681//6 669//6 666//6
f 439//1 682//1 674//1 423//1
f 439//3 441//3 683//3 682//3
f 682//6 683//6 677//6 674//6
f 445//2 444//2 684//2 685//2
f 441//3 445//3 685//3 683//3
f 429//4 677//4 684//4 444//4
f 683//6 685//6 684//6 677//6
f 447//1 686//1 687//1 448//1
f 451//2 431//2 678//2 688//2
f 448//4 687//4 678//4 431//4
f 686//6 688//6 678//6 687//6
f 453//1 689//1 685//1 445//1
f 457//2 456//2 690//2 691//2
f 445//4 685//4 690//4 456//4
f 689//6 691//6 690//6 685//6
f 459//1 692//1 693//1 460//1
f 460//4 693//4 686//4 447//4
f 692//6 694//6 686//6 693//6
f 464//2 451//2 688//2 695//2
f 465//3 464//3 695//3 694//3
f 694//6 695//6 688//6 686//6
f 467//1 696//1 689//1 453//1
f 467//3 469//3 697//3 696//3
f 696//6 697//6 691//6 689//6
f 473//2 472//2 698//2 699//2
f 457//4 691//4 698//4 472//4
f 697//6 699//6 698//6 691//6
f 475//1 700//1 692//1 459//1
f 477//2 465//2 694//2 701//2
f 700//6 701//6 694//6 692//6
f 479//1 702//1 697//1 469//1
f 481//2 473//2 699//2 703//2
f 702//6 703//6 699//6 697//6
f 483//1 704//1 705//1 484//1
f 484//4 705//4 700//4 475//4
f 704//6 706//6 700//6 705//6
f 488//2 477//2 701//2 707//2
f 489//3 488//3 707//3 706//3
f 706//6 707//6 701//6 700//6
f 491//1 708//1 702//1 479//1
f 491//3 493//3 709//3 708//3
f 708//6 709//6 703//6 702//6
f 497//2 496//2 710//2 711//2
f 481//4 703//4 710//4 496//4
f 709//6 711//6 710//6 703//6
f 498//1 712//1 704//1 483//1
f 499//2 489//2 706//2 713//2
f 712//6 713//6 706//6 704//6
f 508//1 720//1 709//1 493//1
f 509//2 497//2 711//2 721//2
f 720//6 721//6 711//6 709//6
f 533//1 740//1 732//1 522//1
f 535//2 523//2 733//2 741//2
f 740//6 741//6 733//6 732//6
f 543//1 746//1 738//1 530//1
f 545//2 531//2 739//2 747//2
f 746//6 747//6 739//6 738//6
f 547//1 748//1 740//1 533//1
f 547//3 549//3 749//3 748//3
f 748//6 749//6 741//6 740//6
f 553//2 552//2 750//2 751//2
f 535//4 741//4 750//4 552//4
f 749//6 751//6 750//6 741//6
f 555//1 752//1 753//1 556//1
f 556//4 753//4 746//4 543//4
f 752//6 754//6 746//6 753//6
f 560//2 545//2 747//2 755//2
f 561//3 560//3 755//3 754//3
f 754//6 755//6 747//6 746//6
f 563//1 756//1 749//1 549//1
f 565//2 553//2 751//2 757//2
f 756//6 757//6 751//6 749//6
f 567//1 758//1 752//1 555//1
f 569//2 561//2 754//2 759//2
f 758//6 759//6 754//6 752//6
f 571//1 760//1 756//1 563//1
f 571//3 573//3 761//3 760//3
f 760//6 761//6 757//6 756//6
f 577//2 576//2 762//2 763//2
f 565//4 757//4 762//4 576//4
f 761//6 763//6 762//6 757//6
f 579//1 764//1 765//1 580//1
f 580//4 765//4 758//4 567//4
f 764//6 766//6 758//6 765//6
f 584//2 569//2 759//2 767//2
f 585//3 584//3 767//3 766//3
f 766//6 767//6 759//6 758//6
f 587//1 768//1 761//1 573//1
f 589//2 577//2 763//2 769//2
f 587//3 589//3 769//3 768//3
f 768//6 769//6 763//6 761//6
f 591//1 770//1 764//1 579//1
f 593//2 585//2 766//2 771//2
f 591//3 593//3 771//3 770//3
f 770//6 771//6 766//6 764//6
f 595//1 772//1 769//1 589//1
f 595//3 597//3 773//3 772//3
f 589//4 769//4 774//4 598//4
f 772//6 773//6 774//6 769//6
f 603//2 602//2 775//2 776//2
f 598//4 774//4 775//4 602//4
f 773//6 776//6 775//6 774//6
f 605//1 777//1 778//1 606//1
f 606//4 778//4 779//4 608//4
f 777//6 780//6 779//6 778//6
f 612//2 591//2 770//2 781//2
f 613//3 612//3 781//3 780//3
f 608//4 779//4 770//4 591//4
f 780//6 781//6 770//6 779//6
f 615//1 782//1 773//1 597//1
f 615//3 617//3 783//3 782//3
f 782//6 783//6 776//6 773//6
f 617//3 619//3 784//3 783//3
f 603//4 776//4 785//4 620//4
f 783//6 784//6 785//6 776//6
f 625//2 624//2 786//2 787//2
f 620//4 785//4 786//4 624//4
f 784//6 787//6 786//6 785//6
f 627//1 788//1 789//1 628//1
f 628//4 789//4 790//4 630//4
f 788//6 791//6 790//6 789//6
f 635//3 634//3 792//3 791//3
f 630//4 790//4 777//4 605//4
f 791//6 792//6 777//6 790//6
f 637//2 613//2 780//2 793//2
f 634//3 637//3 793//3 792//3
f 792//6 793//6 780//6 777//6
f 639//1 794//1 784//1 619//1
f 639//3 641//3 795//3 794//3
f 794//6 795//6 787//6 784//6
f 641//3 642//3 796//3 795//3
f 625//4 787//4 797//4 643//4
f 795//6 796//6 797//6 787//6
f 646//3 649//3 802//3 800//3
f 647//4 801//4 788//4 627//4
f 800//6 802//6 788//6 801//6
f 651//2 635//2 791//2 803//2
f 649//3 651//3 803//3 802//3
f 802//6 803//6 791//6 788//6
g glyph_42
f 353//1 354//1 355//1 356//1
f 356//4 355//4 357//4 358//4
f 353//5 356//5 358//5 359//5
f 360//2 361//2 362//2 363//2
f 358//4 357//4 362//4 361//4
f 359//5 358//5 361//5 360//5
f 370//1 371//1 354//1 353//1
f 370//3 372//3 373//3 371//3
f 370//5 353//5 359//5 372//5
f 374//2 360//2 363//2 375//2
f 372//3 374//3 375//3 373//3
f 372//5 359//5 360//5 374//5
f 355//1 500//1 501//1 502//1
f 502//4 501//4 503//4 504//4
f 355//5 502//5 504//5 357//5
f 362//2 505//2 506//2 507//2
f 504//4 503//4 506//4 505//4
f 357//5 504//5 505//5 362//5
f 512//1 513//1 514//1 515//1
f 515//4 514//4 500//4 355//4
f 512//5 515//5 355//5 354//5
f 516//2 517//2 518//2 519//2
f 362//4 507//4 518//4 517//4
f 363//5 362//5 517//5 516//5
f 524//1 525//1 513//1 512//1
f 524//3 371//3 526//3 525//3
f 524//5 512//5 354//5 371//5
f 527//2 516//2 519//2 528//2
f 375//3 527//3 528//3 529//3
f 375//5 363//5 516//5 527//5
f 536//1 537//1 526//1 371//1
f 536//3 538//3 539//3 537//3
f 536//5 371//5 373//5 538//5
f 540//2 375//2 529//2 541//2
f 538//3 540//3 541//3 539//3
f 538//5 373//5 375//5 540//5
f 500//1 714//1 715//1 501//1
f 501//4 715//4 716//4 503//4
f 714//6 717//6 716//6 715//6
f 507//2 506//2 718//2 719//2
f 503//4 716//4 718//4 506//4
f 717//6 719//6 718//6 716//6
f 513//1 724//1 725//1 514//1
f 514//4 725//4 714//4 500//4
f 724//6 726//6 714//6 725//6
f 519//2 518//2 727//2 728//2
f 507//4 719//4 727//4 518//4
f 729//6 728//6 727//6 719//6
f 525//1 734//1 724//1 513//1
f 525//3 526//3 735//3 734//3
f 734//6 735//6 726//6 724//6
f 528//2 519//2 728//2 736//2
f 529//3 528//3 736//3 737//3
f 737//6 736//6 728//6 729//6
f 537//1 742//1 735//1 526//1
f 537//3 539//3 743//3 742//3
f 742//6 743//6 744//6 735//6
f 541//2 529//2 737//2 745//2
f 539//3 541//3 745//3 743//3
f 743//6 745//6 737//6 744//6
f 726//1 814//1 815//1 714//1
f 714//4 815//4 816//4 717//4
f 814//6 817//6 816//6 815//6
f 729//2 719//2 818//2 819//2
f 717//4 816//4 818//4 719//4
f 817//6 819//6 818//6 816//6
f 735//1 826//1 814//1 726//1
f 735//3 744//3 827//3 826//3
f 826//6 827//6 817//6 814//6
f 737//2 729//2 819//2 828//2
f 744//3 737//3 828//3 827//3
f 827//6 828//6 819//6 817//6
g glyph_43
f 1//1 2//1 3//1 4//1
f 4//4 3//4 5//4 6//4
f 1//5 4//5 6//5 7//5
f 8//2 9//2 10//2 11//2
f 6//4 5//4 10//4 9//4
f 7//5 6//5 9//5 8//5
f 12//1 13//1 2//1 1//1
f 12//5 1//5 7//5 14//5
f 13//6 15//6 16//6 2//6
f 17//2 8//2 11//2 18//2
f 14//5 7//5 8//5 17//5
f 15//6 18//6 11//6 16//6
f 55//1 56//1 46//1 45//1
f 55//5 45//5 47//5 57//5
f 56//6 58//6 48//6 46//6
f 59//2 49//2 50//2 60//2
f 57//5 47//5 49//5 59//5
f 58//6 60//6 50//6 48//6
f 61//1 62//1 56//1 55//1
f 61//3 63//3 64//3 62//3
f 61//5 55//5 57//5 63//5
f 65//2 59//2 60//2 66//2
f 63//3 65//3 66//3 64//3
f 63//5 57//5 59//5 65//5
f 67//1 68//1 69//1 70//1
f 70//4 69//4 71//4 72//4
f 67//5 70//5 72//5 73//5
f 74//2 75//2 76//2 77//2
f 72//4 71//4 76//4 75//4
f 73//5 72//5 75//5 74//5
f 3//1 78//1 68//1 67//1
f 3//5 67//5 73//5 5//5
f 78//6 79//6 80//6 68//6
f 10//2 74//2 77//2 81//2
f 5//5 73//5 74//5 10//5
f 79//6 81//6 77//6 80//6
f 2//1 82//1 78//1 3//1
f 2//3 16//3 83//3 82//3
f 82//6 83//6 79//6 78//6
f 11//2 10//2 81//2 84//2
f 16//3 11//3 84//3 83//3
f 83//6 84//6 81//6 79//6
f 62//1 121//1 122//1 56//1
f 56//4 122//4 123//4 58//4
f 121//6 124//6 123//6 122//6
f 66//2 60//2 125//2 126//2
f 58//4 123//4 125//4 60//4
f 124//6 126//6 125//6 123//6
f 127//1 128//1 121//1 62//1
f 127//5 62//5 64//5 129//5
f 128//6 130//6 124//6 121//6
f 131//2 66//2 126//2 132//2
f 129//5 64//5 66//5 131//5
f 130//6 132//6 126//6 124//6
f 133//1 134//1 128//1 127//1
f 133//3 135//3 136//3 134//3
f 133//5 127//5 129//5 135//5
f 137//2 131//2 132//2 138//2
f 135//3 137//3 138//3 136//3
f 135//5 129//5 131//5 137//5
f 69//1 139//1 140//1 141//1
f 141//4 140//4 142//4 143//4
f 69//5 141//5 143//5 71//5
f 139//6 144//6 142//6 140//6
f 76//2 145//2 146//2 147//2
f 143//4 142//4 146//4 145//4
f 71//5 143//5 145//5 76//5
f 144//6 147//6 146//6 142//6
f 68//1 148//1 139//1 69//1
f 68//3 80//3 149//3 148//3
f 148//6 149//6 144//6 139//6
f 77//2 76//2 147//2 150//2
f 80//3 77//3 150//3 149//3
f 149//6 150//6 147//6 144//6
f 134//1 175//1 176//1 128//1
f 128//4 176//4 177//4 130//4
f 175//6 178//6 177//6 176//6
f 138//2 132//2 179//2 180//2
f 130//4 177//4 179//4 132//4
f 178//6 180//6 179//6 177//6
f 181//1 182//1 175//1 134//1
f 181//3 183//3 184//3 182//3
f 181//5 134//5 136//5 183//5
f 182//6 184//6 178//6 175//6
f 185//2 138//2 180//2 186//2
f 183//3 185//3 186//3 184//3
f 183//5 136//5 138//5 185//5
f 184//6 186//6 180//6 178//6
f 140//1 187//1 188//1 189//1
f 140//3 142//3 190//3 187//3
f 189//4 188//4 191//4 192//4
f 140//5 189//5 192//5 142//5
f 146//2 193//2 194//2 195//2
f 142//3 146//3 195//3 190//3
f 192//4 191//4 194//4 193//4
f 142//5 192//5 193//5 146//5
f 214//1 215//1 216//1 182//1
f 214//3 217//3 218//3 215//3
f 182//4 216//4 219//4 184//4
f 214//5 182//5 184//5 217//5
f 220//2 186//2 221//2 222//2
f 217//3 220//3 222//3 218//3
f 184//4 219//4 221//4 186//4
f 217//5 184//5 186//5 220//5
f 188//1 223//1 224//1 225//1
f 225//4 224//4 226//4 227//4
f 188//5 225//5 227//5 191//5
f 194//2 228//2 229//2 230//2
f 227//4 226//4 229//4 228//4
f 191//5 227//5 228//5 194//5
f 187//1 231//1 223//1 188//1
f 187//3 190//3 232//3 231//3
f 231//6 232//6 233//6 223//6
f 195//2 194//2 230//2 234//2
f 190//3 195//3 234//3 232//3
f 232//6 234//6 230//6 233//6
f 215//1 259//1 260//1 216//1
f 216//4 260//4 261//4 219//4
f 259//6 262//6 261//6 260//6
f 222//2 221//2 263//2 264//2
f 219//4 261//4 263//4 221//4
f 262//6 264//6 263//6 261//6
f 265//1 266//1 259//1 215//1
f 265//3 267//3 268//3 266//3
f 265//5 215//5 218//5 267//5
f 269//2 222//2 264//2 270//2
f 267//3 269//3 270//3 268//3
f 267//5 218//5 222//5 269//5
f 223//1 271//1 272//1 224//1
f 223//3 233//3 273//3 271//3
f 224//4 272//4 274//4 226//4
f 230//2 229//2 275//2 276//2
f 233//3 230//3 276//3 273//3
f 226//4 274//4 275//4 229//4
f 266//1 289//1 290//1 259//1
f 266//3 268//3 291//3 289//3
f 259//4 290//4 292//4 262//4
f 270//2 264//2 293//2 294//2
f 268//3 270//3 294//3 291//3
f 262//4 292//4 293//4 264//4
f 272//1 295//1 296//1 297//1
f 297//4 296//4 298//4 299//4
f 272//5 297//5 299//5 274//5
f 275//2 300//2 301//2 302//2
f 299//4 298//4 301//4 300//4
f 274//5 299//5 300//5 275//5
f 271//1 303//1 295//1 272//1
f 271//3 273//3 304//3 303//3
f 303//6 304//6 305//6 295//6
f 276//2 275//2 302//2 306//2
f 273//3 276//3 306//3 304//3
f 304//6 306//6 302//6 305//6
f 289//1 331//1 332//1 290//1
f 290//4 332//4 333//4 292//4
f 331//6 334//6 333//6 332//6
f 294//2 293//2 335//2 336//2
f 292//4 333//4 335//4 293//4
f 334//6 336//6 335//6 333//6
f 337//1 338//1 331//1 289//1
f 337//3 339//3 340//3 338//3
f 337//5 289//5 291//5 339//5
f 341//2 294//2 336//2 342//2
f 339//3 341//3 342//3 340//3
f 339//5 291//5 294//5 341//5
f 295//1 343//1 344//1 296//1
f 295//3 305//3 345//3 343//3
f 296//4 344//4 346//4 298//4
f 302//2 301//2 347//2 348//2
f 305//3 302//3 348//3 345//3
f 298//4 346//4 347//4 301//4
f 338//1 378//1 379//1 331//1
f 338//3 340//3 380//3 378//3
f 331//4 379//4 381//4 334//4
f 342//2 336//2 382//2 383//2
f 340//3 342//3 383//3 380//3
f 334//4 381//4 382//4 336//4
f 343//3 345//3 394//3 391//3
f 344//4 393//4 395//4 346//4
f 345//3 348//3 396//3 394//3
f 346//4 395//4 397//4 347//4
f 378//3 380//3 644//3 642//3
f 379//4 643//4 645//4 381//4
f 380//3 383//3 646//3 644//3
f 381//4 645//4 647//4 382//4
f 391//3 394//3 658//3 656//3
f 393//4 657//4 659//4 395//4
f 394//3 396//3 660//3 658//3
f 395//4 659//4 661//4 397//4
f 642//3 644//3 798//3 796//3
f 643//4 797//4 799//4 645//4
f 644//3 646//3 800//3 798//3
f 645//4 799//4 801//4 647//4
f 656//1 804//1 805//1 657//1
f 656//3 658//3 806//3 804//3
f 657//4 805//4 807//4 659//4
f 660//2 661//2 808//2 809//2
f 658//3 660//3 809//3 806//3
f 659//4 807//4 808//4 661//4
f 796//1 831//1 832//1 797//1
f 796//3 798//3 833//3 831//3
f 797//4 832//4 834//4 799//4
f 800//2 801//2 835//2 836//2
f 798//3 800//3 836//3 833//3
f 799//4 834//4 835//4 801//4
f 804//1 837//1 838//1 805//1
f 805//4 838//4 839//4 807//4
f 837//6 840//6 839//6 838//6
f 809//2 808//2 841//2 842//2
f 807//4 839//4 841//4 808//4
f 840//6 842//6 841//6 839//6
f 843//1 844//1 837//1 804//1
f 843//3 845//3 846//3 844//3
f 843//5 804//5 806//5 845//5
f 847//2 809//2 842//2 848//2
f 845//3 847//3 848//3 846//3
f 845//5 806//5 809//5 847//5
f 832//1 873//1 874//1 875//1
f 875//4 874//4 876//4 877//4
f 832//5 875//5 877//5 834//5
f 835//2 878//2 879//2 880//2
f 877//4 876//4 879//4 878//4
f 834//5 877//5 878//5 835//5
f 831//1 881//1 873//1 832//1
f 831//3 833//3 882//3 881//3
f 881//6 882//6 883//6 873//6
f 836//2 835//2 880//2 884//2
f 833//3 836//3 884//3 882//3
f 882//6 884//6 880//6 883//6
f 844//1 885//1 886//1 837//1
f 844//3 846//3 887//3 885//3
f 837//4 886//4 888//4 840//4
f 848//2 842//2 889//2 890//2
f 846//3 848//3 890//3 887//3
f 840//4 888//4 889//4 842//4
f 873//1 903//1 904//1 874//1
f 873//3 883//3 905//3 903//3
f 874//4 904//4 906//4 876//4
f 880//2 879//2 907//2 908//2
f 883//3 880//3 908//3 905//3
f 876//4 906//4 907//4 879//4
f 885//1 909//1 910//1 886//1
f 886//4 910//4 911//4 888//4
f 909//6 912//6 911//6 910//6
f 890//2 889//2 913//2 914//2
f 888//4 911//4 913//4 889//4
f 912//6 914//6 913//6 911//6
f 915//1 916//1 909//1 885//1
f 915//3 917//3 918//3 916//3
f 915//5 885//5 887//5 917//5
f 919//2 890//2 914//2 920//2
f 917//3 919//3 920//3 918//3
f 917//5 887//5 890//5 919//5
f 904//1 945//1 946//1 947//1
f 947//4 946//4 948//4 949//4
f 904//5 947//5 949//5 906//5
f 907//2 950//2 951//2 952//2
f 949//4 948//4 951//4 950//4
f 906//5 949//5 950//5 907//5
f 903//1 953//1 945//1 904//1
f 903//3 905//3 954//3 953//3
f 953//6 954//6 955//6 945//6
f 908//2 907//2 952//2 956//2
f 905//3 908//3 956//3 954//3
f 954//6 956//6 952//6 955//6
f 916//1 957//1 958//1 909//1
f 916//3 918//3 959//3 957//3
f 909//4 958//4 960//4 912//4
f 957//6 959//6 960//6 958//6
f 920//2 914//2 961//2 962//2
f 918//3 920//3 962//3 959//3
f 912//4 960//4 961//4 914//4
f 959//6 962//6 961//6 960//6
f 945//1 975//1 976//1 946//1
f 945//3 955//3 977//3 975//3
f 946//4 976//4 978//4 948//4
f 975//6 977//6 978//6 976//6
f 952//2 951//2 979//2 980//2
f 955//3 952//3 980//3 977//3
f 948//4 978//4 979//4 951//4
f 977//6 980//6 979//6 978//6
f 981//1 982//1 983//1 957//1
f 957//4 983//4 984//4 959//4
f 981//5 957//5 959//5 985//5
f 982//6 986//6 984//6 983//6
f 987//2 962//2 988//2 989//2
f 959//4 984//4 988//4 962//4
f 985//5 959//5 962//5 987//5
f 986//6 989//6 988//6 984//6
f 990//1 991//1 982//1 981//1
f 990//3 992//3 993//3 991//3
f 990//5 981//5 985//5 992//5
f 994//2 987//2 989//2 995//2
f 992//3 994//3 995//3 993//3
f 992//5 985//5 987//5 994//5
f 1026//1 1027//1 1028//1 1029//1
f 1029//4 1028//4 1030//4 1031//4
f 1026//5 1029//5 1031//5 1032//5
f 1033//2 1034//2 1035//2 1036//2
f 1031//4 1030//4 1035//4 1034//4
f 1032//5 1031//5 1034//5 1033//5
f 976//1 1037//1 1027//1 1026//1
f 976//3 978//3 1038//3 1037//3
f 976//5 1026//5 1032//5 978//5
f 1037//6 1038//6 1039//6 1027//6
f 979//2 1033//2 1036//2 1040//2
f 978//3 979//3 1040//3 1038//3
f 978//5 1032//5 1033//5 979//5
f 1038//6 1040//6 1036//6 1039//6
f 991//1 1041//1 1042//1 982//1
f 982//4 1042//4 1043//4 986//4
f 1041//6 1044//6 1043//6 1042//6
f 995//2 989//2 1045//2 1046//2
f 986//4 1043//4 1045//4 989//4
f 1044//6 1046//6 1045//6 1043//6
f 1047//1 1048//1 1041//1 991//1
f 1047//5 991//5 993//5 1049//5
f 1048//6 1050//6 1044//6 1041//6
f 1051//2 995//2 1046//2 1052//2
f 1049//5 993//5 995//5 1051//5
f 1050//6 1052//6 1046//6 1044//6
f 1053//1 1054//1 1048//1 1047//1
f 1053//3 1055//3 1056//3 1054//3
f 1053//5 1047//5 1049//5 1055//5
f 1057//2 1051//2 1052//2 1058//2
f 1055//3 1057//3 1058//3 1056//3
f 1055//5 1049//5 1051//5 1057//5
f 1095//1 1096//1 1097//1 1098//1
f 1098//4 1097//4 1099//4 1100//4
f 1095//5 1098//5 1100//5 1101//5
f 1102//2 1103//2 1104//2 1105//2
f 1100//4 1099//4 1104//4 1103//4
f 1101//5 1100//5 1103//5 1102//5
f 1028//1 1106//1 1096//1 1095//1
f 1028//5 1095//5 1101//5 1030//5
f 1106//6 1107//6 1108//6 1096//6
f 1035//2 1102//2 1105//2 1109//2
f 1030//5 1101//5 1102//5 1035//5
f 1107//6 1109//6 1105//6 1108//6
f 1027//1 1110//1 1106//1 1028//1
f 1027//3 1039//3 1111//3 1110//3
f 1110//6 1111//6 1107//6 1106//6
f 1036//2 1035//2 1109//2 1112//2
f 1039//3 1036//3 1112//3 1111//3
f 1111//6 1112//6 1109//6 1107//6
f 1054//1 1113//1 1114//1 1048//1
f 1048//4 1114//4 1115//4 1050//4
f 1113//6 1116//6 1115//6 1114//6
f 1058//2 1052//2 1117//2 1118//2
f 1050//4 1115//4 1117//4 1052//4
f 1116//6 1118//6 1117//6 1115//6
f 1119//1 1120//1 1113//1 1054//1
f 1119//5 1054//5 1056//5 1121//5
f 1120//6 1122//6 1116//6 1113//6
f 1123//2 1058//2 1118//2 1124//2
f 1121//5 1056//5 1058//5 1123//5
f 1122//6 1124//6 1118//6 1116//6
f 1097//1 1149//1 1142//1 1141//1
f 1097//5 1141//5 1143//5 1099//5
f 1149//6 1150//6 1144//6 1142//6
f 1104//2 1145//2 1146//2 1151//2
f 1099//5 1143//5 1145//5 1104//5
f 1150//6 1151//6 1146//6 1144//6
f 1096//1 1152//1 1149//1 1097//1
f 1096//3 1108//3 1153//3 1152//3
f 1152//6 1153//6 1150//6 1149//6
f 1105//2 1104//2 1151//2 1154//2
f 1108//3 1105//3 1154//3 1153//3
f 1153//6 1154//6 1151//6 1150//6
g glyph_64
f 19//1 20//1 21//1 22//1
f 22//4 21//4 23//4 24//4
f 19//5 22//5 24//5 25//5
f 24//4 23//4 13//4 12//4
f 25//5 24//5 12//5 26//5
f 27//6 28//6 13//6 23//6
f 26//5 12//5 14//5 29//5
f 28//6 30//6 15//6 13//6
f 29//5 14//5 17//5 31//5
f 30//6 32//6 18//6 15//6
f 17//4 18//4 33//4 34//4
f 31//5 17//5 34//5 35//5
f 32//6 36//6 33//6 18//6
f 37//2 38//2 39//2 40//2
f 34//4 33//4 39//4 38//4
f 35//5 34//5 38//5 37//5
f 41//1 42//1 20//1 19//1
f 41//3 43//3 44//3 42//3
f 41//5 19//5 25//5 43//5
f 43//3 45//3 46//3 44//3
f 43//5 25//5 26//5 45//5
f 44//6 46//6 28//6 27//6
f 45//5 26//5 29//5 47//5
f 46//6 48//6 30//6 28//6
f 47//5 29//5 31//5 49//5
f 48//6 50//6 32//6 30//6
f 49//3 51//3 52//3 50//3
f 49//5 31//5 35//5 51//5
f 50//6 52//6 36//6 32//6
f 53//2 37//2 40//2 54//2
f 51//3 53//3 54//3 52//3
f 51//5 35//5 37//5 53//5
f 85//1 86//1 87//1 88//1
f 88//4 87//4 89//4 90//4
f 85//5 88//5 90//5 91//5
f 90//4 89//4 92//4 21//4
f 91//5 90//5 21//5 20//5
f 93//6 94//6 92//6 89//6
f 27//2 23//2 95//2 96//2
f 21//4 92//4 95//4 23//4
f 94//6 96//6 95//6 92//6
f 36//1 97//1 98//1 33//1
f 33//4 98//4 99//4 39//4
f 97//6 100//6 99//6 98//6
f 39//4 99//4 101//4 102//4
f 40//5 39//5 102//5 103//5
f 100//6 104//6 101//6 99//6
f 105//2 106//2 107//2 108//2
f 102//4 101//4 107//4 106//4
f 103//5 102//5 106//5 105//5
f 109//1 110//1 86//1 85//1
f 109//3 111//3 112//3 110//3
f 109//5 85//5 91//5 111//5
f 111//3 42//3 113//3 112//3
f 111//5 91//5 20//5 42//5
f 112//6 113//6 94//6 93//6
f 44//2 27//2 96//2 114//2
f 42//3 44//3 114//3 113//3
f 113//6 114//6 96//6 94//6
f 52//1 115//1 97//1 36//1
f 52//3 54//3 116//3 115//3
f 115//6 116//6 100//6 97//6
f 54//3 117//3 118//3 116//3
f 54//5 40//5 103//5 117//5
f 116//6 118//6 104//6 100//6
f 119//2 105//2 108//2 120//2
f 117//3 119//3 120//3 118//3
f 117//5 103//5 105//5 119//5
f 151//1 152//1 153//1 154//1
f 154//4 153//4 155//4 87//4
f 151//5 154//5 87//5 86//5
f 152//6 156//6 155//6 153//6
f 93//2 89//2 157//2 158//2
f 87//4 155//4 157//4 89//4
f 156//6 158//6 157//6 155//6
f 104//1 159//1 160//1 101//1
f 101//4 160//4 161//4 107//4
f 159//6 162//6 161//6 160//6
f 163//2 164//2 165//2 166//2
f 107//4 161//4 165//4 164//4
f 108//5 107//5 164//5 163//5
f 162//6 166//6 165//6 161//6
f 167//1 168//1 152//1 151//1
f 167//3 110//3 169//3 168//3
f 167//5 151//5 86//5 110//5
f 168//6 169//6 156//6 152//6
f 112//2 93//2 158//2 170//2
f 110//3 112//3 170//3 169//3
f 169//6 170//6 158//6 156//6
f 118//1 171//1 159//1 104//1
f 118//3 120//3 172//3 171//3
f 171//6 172//6 162//6 159//6
f 173//2 163//2 166//2 174//2
f 120//3 173//3 174//3 172//3
f 120//5 108//5 163//5 173//5
f 172//6 174//6 166//6 162//6
f 196//1 197//1 198//1 199//1
f 152//2 153//2 200//2 201//2
f 199//4 198//4 200//4 153//4
f 196//5 199//5 153//5 152//5
f 166//1 202//1 203//1 165//1
f 204//2 205//2 206//2 207//2
f 165//4 203//4 206//4 205//4
f 166//5 165//5 205//5 204//5
f 208//1 209//1 197//1 196//1
f 168//2 152//2 201//2 210//2
f 208//3 168//3 210//3 209//3
f 208//5 196//5 152//5 168//5
f 174//1 211//1 202//1 166//1
f 212//2 204//2 207//2 213//2
f 174//3 212//3 213//3 211//3
f 174//5 166//5 204//5 212//5
f 235//1 236//1 237//1 238//1
f 238//4 237//4 239//4 198//4
f 235//5 238//5 198//5 197//5
f 201//2 200//2 240//2 241//2
f 198//4 239//4 240//4 200//4
f 242//6 241//6 240//6 239//6
f 202//1 243//1 244//1 203//1
f 203//4 244//4 245//4 206//4
f 243//6 246//6 245//6 244//6
f 247//2 248//2 249//2 250//2
f 206//4 245//4 249//4 248//4
f 207//5 206//5 248//5 247//5
f 251//1 252//1 236//1 235//1
f 251//3 209//3 253//3 252//3
f 251//5 235//5 197//5 209//5
f 210//2 201//2 241//2 254//2
f 209//3 210//3 254//3 253//3
f 253//6 254//6 241//6 242//6
f 211//1 255//1 243//1 202//1
f 211//3 213//3 256//3 255//3
f 255//6 256//6 246//6 243//6
f 257//2 247//2 250//2 258//2
f 213//3 257//3 258//3 256//3
f 213//5 207//5 247//5 257//5
f 236//1 277//1 278//1 237//1
f 242//2 239//2 279//2 280//2
f 237//4 278//4 279//4 239//4
f 246//1 281//1 282//1 245//1
f 250//2 249//2 283//2 284//2
f 245//4 282//4 283//4 249//4
f 252//1 285//1 277//1 236//1
f 253//2 242//2 280//2 286//2
f 252//3 253//3 286//3 285//3
f 256//1 287//1 281//1 246//1
f 258//2 250//2 284//2 288//2
f 256//3 258//3 288//3 287//3
f 307//1 308//1 309//1 310//1
f 310//4 309//4 311//4 278//4
f 307//5 310//5 278//5 277//5
f 280//2 279//2 312//2 313//2
f 278//4 311//4 312//4 279//4
f 314//6 313//6 312//6 311//6
f 281//1 315//1 316//1 282//1
f 282//4 316//4 317//4 283//4
f 315//6 318//6 317//6 316//6
f 319//2 320//2 321//2 322//2
f 283//4 317//4 321//4 320//4
f 284//5 283//5 320//5 319//5
f 323//1 324//1 308//1 307//1
f 323//3 285//3 325//3 324//3
f 323//5 307//5 277//5 285//5
f 286//2 280//2 313//2 326//2
f 285//3 286//3 326//3 325//3
f 325//6 326//6 313//6 314//6
f 287//1 327//1 315//1 281//1
f 287//3 288//3 328//3 327//3
f 327//6 328//6 318//6 315//6
f 329//2 319//2 322//2 330//2
f 288//3 329//3 330//3 328//3
f 288//5 284//5 319//5 329//5
f 308//1 349//1 350//1 309//1
f 314//2 311//2 351//2 352//2
f 309//4 350//4 351//4 311//4
f 318//1 364//1 365//1 317//1
f 322//2 321//2 366//2 367//2
f 317//4 365//4 366//4 321//4
f 324//1 368//1 349//1 308//1
f 325//2 314//2 352//2 369//2
f 324//3 325//3 369//3 368//3
f 328//1 376//1 364//1 318//1
f 330//2 322//2 367//2 377//2
f 328//3 330//3 377//3 376//3
f 349//1 510//1 498//1 350//1
f 352//2 351//2 499//2 511//2
f 364//1 520//1 508//1 365//1
f 367//2 366//2 509//2 521//2
f 368//1 522//1 510//1 349//1
f 369//2 352//2 511//2 523//2
f 376//1 530//1 520//1 364//1
f 377//2 367//2 521//2 531//2
f 510//1 722//1 712//1 498//1
f 511//2 499//2 713//2 723//2
f 520//1 730//1 720//1 508//1
f 521//2 509//2 721//2 731//2
f 522//1 732//1 722//1 510//1
f 523//2 511//2 723//2 733//2
f 530//1 738//1 730//1 520//1
f 531//2 521//2 731//2 739//2
f 722//1 810//1 811//1 712//1
f 723//2 713//2 812//2 813//2
f 712//4 811//4 812//4 713//4
f 730//1 820//1 821//1 720//1
f 731//2 721//2 822//2 823//2
f 720//4 821//4 822//4 721//4
f 732//1 824//1 810//1 722//1
f 733//2 723//2 813//2 825//2
f 732//3 733//3 825//3 824//3
f 738//1 829//1 820//1 730//1
f 739//2 731//2 823//2 830//2
f 738//3 739//3 830//3 829//3
f 810//1 849//1 850//1 811//1
f 811//4 850//4 851//4 812//4
f 849//6 852//6 851//6 850//6
f 853//2 854//2 855//2 856//2
f 812//4 851//4 855//4 854//4
f 813//5 812//5 854//5 853//5
f 857//1 858//1 859//1 860//1
f 860//4 859//4 861//4 821//4
f 857//5 860//5 821//5 820//5
f 823//2 822//2 862//2 863//2
f 821//4 861//4 862//4 822//4
f 864//6 863//6 862//6 861//6
f 824//1 865//1 849//1 810//1
f 824//3 825//3 866//3 865//3
f 865//6 866//6 852//6 849//6
f 867//2 853//2 856//2 868//2
f 825//3 867//3 868//3 866//3
f 825//5 813//5 853//5 867//5
f 869//1 870//1 858//1 857//1
f 869//3 829//3 871//3 870//3
f 869//5 857//5 820//5 829//5
f 830//2 823//2 863//2 872//2
f 829//3 830//3 872//3 871//3
f 871//6 872//6 863//6 864//6
f 852//1 891//1 892//1 851//1
f 856//2 855//2 893//2 894//2
f 851//4 892//4 893//4 855//4
f 858//1 895//1 896//1 859//1
f 864//2 861//2 897//2 898//2
f 859//4 896//4 897//4 861//4
f 866//1 899//1 891//1 852//1
f 868//2 856//2 894//2 900//2
f 866//3 868//3 900//3 899//3
f 870//1 901//1 895//1 858//1
f 871//2 864//2 898//2 902//2
f 870//3 871//3 902//3 901//3
f 891//1 921//1 922//1 892//1
f 892//4 922//4 923//4 893//4
f 921//6 924//6 923//6 922//6
f 925//2 926//2 927//2 928//2
f 893//4 923//4 927//4 926//4
f 894//5 893//5 926//5 925//5
f 929//1 930//1 931//1 932//1
f 932//4 931//4 933//4 896//4
f 929//5 932//5 896//5 895//5
f 898//2 897//2 934//2 935//2
f 896//4 933//4 934//4 897//4
f 936//6 935//6 934//6 933//6
f 899//1 937//1 921//1 891//1
f 899//3 900//3 938//3 937//3
f 937//6 938//6 924//6 921//6
f 939//2 925//2 928//2 940//2
f 900//3 939//3 940//3 938//3
f 900//5 894//5 925//5 939//5
f 941//1 942//1 930//1 929//1
f 941//3 901//3 943//3 942//3
f 941//5 929//5 895//5 901//5
f 902//2 898//2 935//2 944//2
f 901//3 902//3 944//3 943//3
f 943//6 944//6 935//6 936//6
f 924//1 963//1 964//1 923//1
f 928//2 927//2 965//2 966//2
f 923//4 964//4 965//4 927//4
f 963//6 966//6 965//6 964//6
f 930//1 967//1 968//1 931//1
f 936//2 933//2 969//2 970//2
f 931//4 968//4 969//4 933//4
f 967//6 970//6 969//6 968//6
f 938//1 971//1 963//1 924//1
f 940//2 928//2 966//2 972//2
f 938//3 940//3 972//3 971//3
f 971//6 972//6 966//6 963//6
f 942//1 973//1 967//1 930//1
f 943//2 936//2 970//2 974//2
f 942//3 943//3 974//3 973//3
f 973//6 974//6 970//6 967//6
f 966//1 996//1 997//1 965//1
f 965//4 997//4 998//4 999//4
f 966//5 965//5 999//5 1000//5
f 996//6 1001//6 998//6 997//6
f 1002//2 1003//2 1004//2 1005//2
f 999//4 998//4 1004//4 1003//4
f 1000//5 999//5 1003//5 1002//5
f 1006//1 1007//1 1008//1 1009//1
f 1009//4 1008//4 1010//4 1011//4
f 1006//5 1009//5 1011//5 1012//5
f 967//2 968//2 1013//2 1014//2
f 1011//4 1010//4 1013//4 968//4
f 1012//5 1011//5 968//5 967//5
f 1015//6 1014//6 1013//6 1010//6
f 972//1 1016//1 996//1 966//1
f 972//3 1017//3 1018//3 1016//3
f 972//5 966//5 1000//5 1017//5
f 1016//6 1018//6 1001//6 996//6
f 1019//2 1002//2 1005//2 1020//2
f 1017//3 1019//3 1020//3 1018//3
f 1017//5 1000//5 1002//5 1019//5
f 1021//1 1022//1 1007//1 1006//1
f 1021//3 1023//3 1024//3 1022//3
f 1021//5 1006//5 1012//5 1023//5
f 973//2 967//2 1014//2 1025//2
f 1023//3 973//3 1025//3 1024//3
f 1023//5 1012//5 967//5 973//5
f 1024//6 1025//6 1014//6 1015//6
f 1001//1 1059//1 1060//1 998//1
f 998//4 1060//4 1061//4 1004//4
f 1059//6 1062//6 1061//6 1060//6
f 1004//4 1061//4 1063//4 1064//4
f 1005//5 1004//5 1064//5 1065//5
f 1062//6 1066//6 1063//6 1061//6
f 1067//2 1068//2 1069//2 1070//2
f 1064//4 1063//4 1069//4 1068//4
f 1065//5 1064//5 1068//5 1067//5
f 1071//1 1072//1 1073//1 1074//1
f 1074//4 1073//4 1075//4 1076//4
f 1071//5 1074//5 1076//5 1077//5
f 1076//4 1075//4 1078//4 1008//4
f 1077//5 1076//5 1008//5 1007//5
f 1079//6 1080//6 1078//6 1075//6
f 1015//2 1010//2 1081//2 1082//2
f 1008//4 1078//4 1081//4 1010//4
f 1080//6 1082//6 1081//6 1078//6
f 1018//1 1083//1 1059//1 1001//1
f 1018//3 1020//3 1084//3 1083//3
f 1083//6 1084//6 1062//6 1059//6
f 1020//3 1085//3 1086//3 1084//3
f 1020//5 1005//5 1065//5 1085//5
f 1084//6 1086//6 1066//6 1062//6
f 1087//2 1067//2 1070//2 1088//2
f 1085//3 1087//3 1088//3 1086//3
f 1085//5 1065//5 1067//5 1087//5
f 1089//1 1090//1 1072//1 1071//1
f 1089//3 1091//3 1092//3 1090//3
f 1089//5 1071//5 1077//5 1091//5
f 1091//3 1022//3 1093//3 1092//3
f 1091//5 1077//5 1007//5 1022//5
f 1092//6 1093//6 1080//6 1079//6
f 1024//2 1015//2 1082//2 1094//2
f 1022//3 1024//3 1094//3 1093//3
f 1093//6 1094//6 1082//6 1080//6
f 1066//1 1125//1 1126//1 1063//1
f 1063//4 1126//4 1127//4 1069//4
f 1125//6 1128//6 1127//6 1126//6
f 1069//4 1127//4 1120//4 1119//4
f 1070//5 1069//5 1119//5 1129//5
f 1128//6 1130//6 1120//6 1127//6
f 1129//5 1119//5 1121//5 1131//5
f 1130//6 1132//6 1122//6 1120//6
f 1131//5 1121//5 1123//5 1133//5
f 1132//6 1134//6 1124//6 1122//6
f 1123//4 1124//4 1135//4 1073//4
f 1133//5 1123//5 1073//5 1072//5
f 1134//6 1136//6 1135//6 1124//6
f 1079//2 1075//2 1137//2 1138//2
f 1073//4 1135//4 1137//4 1075//4
f 1136//6 1138//6 1137//6 1135//6
f 1086//1 1139//1 1125//1 1066//1
f 1086//3 1088//3 1140//3 1139//3
f 1139//6 1140//6 1128//6 1125//6
f 1088//3 1141//3 1142//3 1140//3
f 1088//5 1070//5 1129//5 1141//5
f 1140//6 1142//6 1130//6 1128//6
f 1141//5 1129//5 1131//5 1143//5
f 1142//6 1144//6 1132//6 1130//6
f 1143//5 1131//5 1133//5 1145//5
f 1144//6 1146//6 1134//6 1132//6
f 1145//3 1090//3 1147//3 1146//3
f 1145//5 1133//5 1072//5 1090//5
f 1146//6 1147//6 1136//6 1134//6
f 1092//2 1079//2 1138//2 1148//2
f 1090//3 1092//3 1148//3 1147//3
f 1147//6 1148//6 1138//6 1136//6
