# Rook occupied-cell surface mesh
# Pixel bonsai
# One cell is one unit. Y points up; Z follows the 3md slice index.
o sculpture
v -7 -7 -6
v -7 -7 -5
v -7 -6 -5
v -7 -6 -6
v -6 -6 -5
v -6 -6 -6
v -6 -7 -6
v -5 -6 -5
v -5 -6 -6
v -5 -7 -6
v -6 -7 -5
v -5 -7 -5
v -4 -6 -5
v -4 -6 -6
v -4 -7 -6
v -4 -7 -5
v -3 -6 -5
v -3 -6 -6
v -3 -7 -6
v -3 -7 -5
v -2 -6 -5
v -2 -6 -6
v -2 -7 -6
v -2 -7 -5
v -1 -6 -5
v -1 -6 -6
v -1 -7 -6
v -1 -7 -5
v 0 -6 -5
v 0 -6 -6
v 0 -7 -6
v 0 -7 -5
v 1 -6 -5
v 1 -6 -6
v 1 -7 -6
v 1 -7 -5
v 2 -6 -5
v 2 -6 -6
v 2 -7 -6
v 2 -7 -5
v 3 -6 -5
v 3 -6 -6
v 3 -7 -6
v 3 -7 -5
v 4 -6 -5
v 4 -6 -6
v 4 -7 -6
v 4 -7 -5
v 5 -6 -5
v 5 -6 -6
v 5 -7 -6
v 5 -7 -5
v 6 -6 -5
v 6 -6 -6
v 6 -7 -6
v 6 -7 -5
v 7 -7 -6
v 7 -6 -6
v 7 -6 -5
v 7 -7 -5
v -7 -8 -6
v -7 -8 -5
v -6 -8 -6
v -5 -8 -6
v -4 -8 -6
v -3 -8 -6
v -2 -8 -6
v -1 -8 -6
v 0 -8 -6
v 1 -8 -6
v 2 -8 -6
v 3 -8 -6
v 4 -8 -6
v 5 -8 -6
v 6 -8 -6
v 7 -8 -6
v 7 -8 -5
v -7 -9 -6
v -7 -9 -5
v -6 -9 -6
v -6 -9 -5
v -5 -9 -6
v -5 -9 -5
v -4 -9 -6
v -4 -9 -5
v -3 -9 -6
v -3 -9 -5
v -2 -9 -6
v -2 -9 -5
v -1 -9 -6
v -1 -9 -5
v 0 -9 -6
v 0 -9 -5
v 1 -9 -6
v 1 -9 -5
v 2 -9 -6
v 2 -9 -5
v 3 -9 -6
v 3 -9 -5
v 4 -9 -6
v 4 -9 -5
v 5 -9 -6
v 5 -9 -5
v 6 -9 -6
v 6 -9 -5
v 7 -9 -6
v 7 -9 -5
v -6 3 -5
v -6 3 -4
v -6 4 -4
v -6 4 -5
v -5 4 -4
v -5 4 -5
v -5 3 -5
v -4 4 -4
v -4 4 -5
v -4 3 -5
v -3 4 -4
v -3 4 -5
v -3 3 -5
v -2 4 -4
v -2 4 -5
v -2 3 -5
v -1 3 -5
v -1 4 -5
v -1 4 -4
v -1 3 -4
v -6 2 -5
v -6 2 -4
v -5 2 -5
v -4 2 -5
v -3 2 -5
v -2 2 -5
v -1 2 -5
v -1 2 -4
v -6 1 -5
v -6 1 -4
v -5 1 -5
v -5 1 -4
v -4 1 -5
v -4 1 -4
v -3 1 -5
v -3 1 -4
v -2 1 -5
v -2 1 -4
v -1 1 -5
v -1 1 -4
v -7 -7 -4
v -7 -6 -4
v -6 -6 -4
v -6 -7 -4
v 6 -7 -4
v 6 -6 -4
v 7 -6 -4
v 7 -7 -4
v -7 -8 -4
v -5 -7 -4
v -4 -7 -4
v -3 -7 -4
v -2 -7 -4
v -1 -7 -4
v 0 -7 -4
v 1 -7 -4
v 2 -7 -4
v 3 -7 -4
v 4 -7 -4
v 5 -7 -4
v 7 -8 -4
v -7 -9 -4
v -6 -9 -4
v -5 -9 -4
v -4 -9 -4
v -3 -9 -4
v -2 -9 -4
v -1 -9 -4
v 0 -9 -4
v 1 -9 -4
v 2 -9 -4
v 3 -9 -4
v 4 -9 -4
v 5 -9 -4
v 6 -9 -4
v 7 -9 -4
v 2 5 -4
v 2 5 -3
v 2 6 -3
v 2 6 -4
v 3 6 -3
v 3 6 -4
v 3 5 -4
v 4 6 -3
v 4 6 -4
v 4 5 -4
v 5 5 -4
v 5 6 -4
v 5 6 -3
v 5 5 -3
v -5 4 -3
v -5 5 -3
v -5 5 -4
v -4 5 -3
v -4 5 -4
v -3 5 -3
v -3 5 -4
v -2 5 -4
v -2 5 -3
v -2 4 -3
v 1 4 -4
v 1 4 -3
v 1 5 -3
v 1 5 -4
v 2 4 -4
v 2 4 -3
v 3 4 -4
v 4 4 -4
v 5 4 -4
v 6 4 -4
v 6 5 -4
v 6 5 -3
v 6 4 -3
v 5 4 -3
v -7 3 -4
v -7 3 -3
v -7 4 -3
v -7 4 -4
v -6 4 -3
v -1 4 -3
v 0 3 -4
v 0 4 -4
v 0 4 -3
v 0 3 -3
v 2 3 -4
v 2 3 -3
v 3 3 -4
v 3 3 -3
v 4 3 -4
v 4 3 -3
v 5 3 -4
v 5 3 -3
v -7 2 -4
v -7 2 -3
v 0 2 -4
v 0 2 -3
v -7 1 -4
v -7 1 -3
v -6 1 -3
v -5 1 -3
v -1 1 -3
v -2 1 -3
v 0 1 -4
v 0 1 -3
v -5 0 -4
v -5 0 -3
v -4 0 -4
v -4 0 -3
v -3 0 -4
v -3 0 -3
v -2 0 -4
v -2 0 -3
v -7 -7 -3
v -7 -6 -3
v -6 -6 -3
v -6 -7 -3
v 6 -7 -3
v 6 -6 -3
v 7 -6 -3
v 7 -7 -3
v -7 -8 -3
v -5 -7 -3
v -4 -7 -3
v -3 -7 -3
v -2 -7 -3
v -1 -7 -3
v 0 -7 -3
v 1 -7 -3
v 2 -7 -3
v 3 -7 -3
v 4 -7 -3
v 5 -7 -3
v 7 -8 -3
v -7 -9 -3
v -6 -9 -3
v -5 -9 -3
v -4 -9 -3
v -3 -9 -3
v -2 -9 -3
v -1 -9 -3
v 0 -9 -3
v 1 -9 -3
v 2 -9 -3
v 3 -9 -3
v 4 -9 -3
v 5 -9 -3
v 6 -9 -3
v 7 -9 -3
v 2 6 -2
v 2 7 -2
v 2 7 -3
v 3 7 -2
v 3 7 -3
v 4 7 -2
v 4 7 -3
v 5 7 -3
v 5 7 -2
v 5 6 -2
v 0 5 -3
v 0 5 -2
v 0 6 -2
v 0 6 -3
v 1 6 -2
v 1 6 -3
v 6 6 -2
v 6 6 -3
v 7 5 -3
v 7 6 -3
v 7 6 -2
v 7 5 -2
v -6 4 -2
v -6 5 -2
v -6 5 -3
v -5 5 -2
v -4 5 -2
v -3 5 -2
v -2 5 -2
v -1 5 -3
v -1 5 -2
v -1 4 -2
v 0 4 -2
v 7 4 -3
v 7 4 -2
v -7 3 -2
v -7 4 -2
v 1 3 -3
v 1 3 -2
v 0 3 -2
v 2 3 -2
v 6 3 -3
v 6 3 -2
v 5 3 -2
v 7 3 -3
v 7 3 -2
v -7 2 -2
v 0 2 -2
v 2 2 -3
v 2 2 -2
v 3 2 -3
v 3 2 -2
v 4 2 -3
v 4 2 -2
v 5 2 -3
v 5 2 -2
v -7 1 -2
v -6 1 -2
v 0 1 -2
v -1 1 -2
v -6 0 -3
v -6 0 -2
v -5 0 -2
v -4 0 -2
v -3 0 -2
v -2 0 -2
v -1 0 -3
v -1 0 -2
v -7 -7 -2
v -7 -6 -2
v -6 -6 -2
v -6 -7 -2
v 6 -7 -2
v 6 -6 -2
v 7 -6 -2
v 7 -7 -2
v -7 -8 -2
v -5 -7 -2
v -4 -7 -2
v -3 -7 -2
v -2 -7 -2
v -1 -7 -2
v 0 -7 -2
v 1 -7 -2
v 2 -7 -2
v 3 -7 -2
v 4 -7 -2
v 5 -7 -2
v 7 -8 -2
v -7 -9 -2
v -6 -9 -2
v -5 -9 -2
v -4 -9 -2
v -3 -9 -2
v -2 -9 -2
v -1 -9 -2
v 0 -9 -2
v 1 -9 -2
v 2 -9 -2
v 3 -9 -2
v 4 -9 -2
v 5 -9 -2
v 6 -9 -2
v 7 -9 -2
v 1 6 -1
v 1 7 -1
v 1 7 -2
v 2 7 -1
v 3 7 -1
v 4 7 -1
v 5 7 -1
v 6 7 -2
v 6 7 -1
v 6 6 -1
v 0 5 -1
v 0 6 -1
v 7 6 -1
v 7 5 -1
v -6 4 -1
v -6 5 -1
v -5 5 -1
v -4 5 -1
v -3 5 -1
v -2 5 -1
v -1 5 -1
v 8 4 -2
v 8 5 -2
v 8 5 -1
v 8 4 -1
v 7 4 -1
v -7 3 -1
v -7 4 -1
v 1 3 -1
v 0 3 -1
v 7 3 -1
v 6 3 -1
v -7 2 -1
v 0 2 -1
v 1 2 -2
v 1 2 -1
v 4 2 -1
v 3 2 -1
v 5 2 -1
v 6 2 -2
v 6 2 -1
v -7 1 -1
v -6 1 -1
v 0 1 -1
v -1 1 -1
v 1 1 -2
v 2 1 -2
v 3 1 -2
v 3 1 -1
v -6 0 -1
v -5 0 -1
v -4 0 -1
v -3 0 -1
v -2 0 -1
v -1 0 -1
v 0 0 -2
v 0 0 -1
v 1 0 -2
v 2 0 -2
v 3 0 -2
v 3 0 -1
v 0 -1 -2
v 0 -1 -1
v 1 -1 -2
v 2 -1 -2
v 3 -1 -2
v 3 -1 -1
v 2 -1 -1
v -1 -2 -2
v -1 -2 -1
v -1 -1 -1
v -1 -1 -2
v 0 -2 -2
v 1 -2 -2
v 2 -2 -2
v 2 -2 -1
v -1 -3 -2
v -1 -3 -1
v 0 -3 -2
v 1 -3 -2
v 2 -3 -2
v 2 -3 -1
v -1 -4 -2
v -1 -4 -1
v 0 -4 -2
v 1 -4 -2
v 2 -4 -2
v 2 -4 -1
v 1 -4 -1
v -2 -5 -2
v -2 -5 -1
v -2 -4 -1
v -2 -4 -2
v -1 -5 -2
v 0 -5 -2
v 1 -5 -2
v 1 -5 -1
v -2 -6 -2
v -2 -6 -1
v -1 -6 -2
v 0 -6 -2
v 1 -6 -2
v 1 -6 -1
v -7 -7 -1
v -7 -6 -1
v -6 -6 -1
v -6 -7 -1
v -2 -7 -1
v 1 -7 -1
v 6 -7 -1
v 6 -6 -1
v 7 -6 -1
v 7 -7 -1
v -7 -8 -1
v -5 -7 -1
v -4 -7 -1
v -3 -7 -1
v 2 -7 -1
v 3 -7 -1
v 4 -7 -1
v 5 -7 -1
v 7 -8 -1
v -7 -9 -1
v -6 -9 -1
v -5 -9 -1
v -4 -9 -1
v -3 -9 -1
v -2 -9 -1
v -1 -9 -1
v 0 -9 -1
v 1 -9 -1
v 2 -9 -1
v 3 -9 -1
v 4 -9 -1
v 5 -9 -1
v 6 -9 -1
v 7 -9 -1
v 0 6 0
v 0 7 0
v 0 7 -1
v 1 7 0
v 2 7 0
v 3 7 0
v 4 7 0
v 5 7 0
v 6 7 0
v 7 7 -1
v 7 7 0
v 7 6 0
v -1 5 0
v -1 6 0
v -1 6 -1
v 8 6 -1
v 8 6 0
v 8 5 0
v -6 4 0
v -6 5 0
v -5 5 0
v -5 4 0
v -4 5 0
v -3 5 0
v -2 5 0
v -2 4 0
v -1 4 0
v 8 4 0
v -7 3 0
v -7 4 0
v 8 3 -1
v 8 3 0
v 7 3 0
v -7 2 0
v 4 2 0
v 3 2 0
v 5 2 0
v 6 2 0
v 7 2 -1
v 7 2 0
v -7 1 0
v -6 1 0
v 3 1 0
v -6 0 0
v -5 0 0
v -5 1 0
v -2 0 0
v -1 0 0
v -1 1 0
v -2 1 0
v 0 0 0
v 0 1 0
v 3 0 0
v -5 -1 -1
v -5 -1 0
v -4 -1 -1
v -4 -1 0
v -4 0 0
v -3 -1 -1
v -3 -1 0
v -3 0 0
v -2 -1 -1
v -2 -1 0
v -1 -1 0
v 0 -1 0
v 3 -1 0
v 2 -1 0
v -5 -2 -1
v -5 -2 0
v -4 -2 -1
v -4 -2 0
v -3 -2 -1
v -3 -2 0
v -2 -2 -1
v -2 -2 0
v -1 -2 0
v 2 -2 0
v -1 -3 0
v 2 -3 0
v -1 -4 0
v 2 -4 0
v 1 -4 0
v -2 -5 0
v -2 -4 0
v 1 -5 0
v -2 -6 0
v 1 -6 0
v -7 -7 0
v -7 -6 0
v -6 -6 0
v -6 -7 0
v -2 -7 0
v 1 -7 0
v 6 -7 0
v 6 -6 0
v 7 -6 0
v 7 -7 0
v -7 -8 0
v -5 -7 0
v -4 -7 0
v -3 -7 0
v 2 -7 0
v 3 -7 0
v 4 -7 0
v 5 -7 0
v 7 -8 0
v -7 -9 0
v -6 -9 0
v -5 -9 0
v -4 -9 0
v -3 -9 0
v -2 -9 0
v -1 -9 0
v 0 -9 0
v 1 -9 0
v 2 -9 0
v 3 -9 0
v 4 -9 0
v 5 -9 0
v 6 -9 0
v 7 -9 0
v 0 6 1
v 0 7 1
v 1 7 1
v 2 7 1
v 3 7 1
v 4 7 1
v 5 7 1
v 6 7 1
v 7 7 1
v 7 6 1
v -1 5 1
v -1 6 1
v 8 6 1
v 8 5 1
v -5 4 1
v -5 5 1
v -4 5 1
v -4 4 1
v -3 5 1
v -3 4 1
v -2 5 1
v -2 4 1
v -1 4 1
v 8 4 1
v -7 3 1
v -7 4 1
v -6 4 1
v -6 3 1
v 8 3 1
v 7 3 1
v -7 2 1
v -6 2 1
v -1 2 1
v 0 2 1
v 0 3 1
v -1 3 1
v 4 2 1
v 3 2 1
v 5 2 1
v 6 2 1
v 7 2 1
v -7 1 1
v -6 1 1
v -5 1 1
v -1 1 1
v -2 1 1
v 0 1 1
v 1 1 1
v 1 2 1
v 2 1 1
v 2 2 1
v 3 1 1
v -5 0 1
v -4 0 1
v -4 1 1
v -3 0 1
v -3 1 1
v -2 0 1
v 0 0 1
v 1 0 1
v 2 0 1
v 3 0 1
v 0 -1 1
v 1 -1 1
v 2 -1 1
v 3 -1 1
v -1 -2 1
v -1 -1 1
v 0 -2 1
v 1 -2 1
v 2 -2 1
v -1 -3 1
v 0 -3 1
v 1 -3 1
v 2 -3 1
v -1 -4 1
v 0 -4 1
v 1 -4 1
v 2 -4 1
v -2 -5 1
v -2 -4 1
v -1 -5 1
v 0 -5 1
v 1 -5 1
v -2 -6 1
v -1 -6 1
v 0 -6 1
v 1 -6 1
v -7 -7 1
v -7 -6 1
v -6 -6 1
v -6 -7 1
v -2 -7 1
v -1 -7 1
v 0 -7 1
v 1 -7 1
v 6 -7 1
v 6 -6 1
v 7 -6 1
v 7 -7 1
v -7 -8 1
v -5 -7 1
v -4 -7 1
v -3 -7 1
v 2 -7 1
v 3 -7 1
v 4 -7 1
v 5 -7 1
v 7 -8 1
v -7 -9 1
v -6 -9 1
v -5 -9 1
v -4 -9 1
v -3 -9 1
v -2 -9 1
v -1 -9 1
v 0 -9 1
v 1 -9 1
v 2 -9 1
v 3 -9 1
v 4 -9 1
v 5 -9 1
v 6 -9 1
v 7 -9 1
v 0 6 2
v 0 7 2
v 1 7 2
v 1 6 2
v 2 7 2
v 3 7 2
v 4 7 2
v 5 7 2
v 6 7 2
v 7 7 2
v 7 6 2
v 6 6 2
v -1 5 2
v -1 6 2
v 0 5 2
v 8 6 2
v 8 5 2
v 7 5 2
v -1 4 2
v 8 4 2
v -6 3 2
v -6 4 2
v -5 4 2
v -5 3 2
v -4 4 2
v -4 3 2
v -3 4 2
v -3 3 2
v -2 4 2
v -2 3 2
v -1 3 2
v 0 3 2
v 0 4 2
v 8 3 2
v 7 3 2
v 7 4 2
v -6 2 2
v -5 2 2
v -4 2 2
v -3 2 2
v -2 2 2
v -1 2 2
v 0 2 2
v 1 2 2
v 2 2 2
v 3 2 2
v 4 2 2
v 5 2 2
v 6 2 2
v 7 2 2
v 6 3 2
v -6 1 2
v -5 1 2
v -4 1 2
v -3 1 2
v -2 1 2
v -1 1 2
v -7 -7 2
v -7 -6 2
v -6 -6 2
v -6 -7 2
v 6 -7 2
v 6 -6 2
v 7 -6 2
v 7 -7 2
v -7 -8 2
v -5 -7 2
v -4 -7 2
v -3 -7 2
v -2 -7 2
v -1 -7 2
v 0 -7 2
v 1 -7 2
v 2 -7 2
v 3 -7 2
v 4 -7 2
v 5 -7 2
v 7 -8 2
v -7 -9 2
v -6 -9 2
v -5 -9 2
v -4 -9 2
v -3 -9 2
v -2 -9 2
v -1 -9 2
v 0 -9 2
v 1 -9 2
v 2 -9 2
v 3 -9 2
v 4 -9 2
v 5 -9 2
v 6 -9 2
v 7 -9 2
v 1 6 3
v 1 7 3
v 2 7 3
v 2 6 3
v 3 7 3
v 4 7 3
v 5 7 3
v 6 7 3
v 6 6 3
v 5 6 3
v 0 5 3
v 0 6 3
v 7 6 3
v 7 5 3
v -1 4 3
v -1 5 3
v 0 4 3
v 8 5 3
v 8 4 3
v 7 4 3
v 0 3 3
v 7 3 3
v 6 3 3
v 0 2 3
v 5 2 3
v 4 2 3
v 6 2 3
v 5 3 3
v -1 1 3
v -1 2 3
v 0 1 2
v 0 1 3
v 1 1 2
v 2 1 2
v 3 1 2
v 4 1 2
v 4 1 3
v 3 1 3
v 0 0 2
v 0 0 3
v 1 0 2
v 1 0 3
v 2 0 2
v 2 0 3
v 3 0 2
v 3 0 3
v -7 -7 3
v -7 -6 3
v -6 -6 3
v -6 -7 3
v 6 -7 3
v 6 -6 3
v 7 -6 3
v 7 -7 3
v -7 -8 3
v -5 -7 3
v -4 -7 3
v -3 -7 3
v -2 -7 3
v -1 -7 3
v 0 -7 3
v 1 -7 3
v 2 -7 3
v 3 -7 3
v 4 -7 3
v 5 -7 3
v 7 -8 3
v -7 -9 3
v -6 -9 3
v -5 -9 3
v -4 -9 3
v -3 -9 3
v -2 -9 3
v -1 -9 3
v 0 -9 3
v 1 -9 3
v 2 -9 3
v 3 -9 3
v 4 -9 3
v 5 -9 3
v 6 -9 3
v 7 -9 3
v 2 6 4
v 2 7 4
v 3 7 4
v 3 6 4
v 4 7 4
v 4 6 4
v 5 7 4
v 5 6 4
v 0 5 4
v 0 6 4
v 1 6 4
v 1 5 4
v 2 5 4
v 6 6 4
v 5 5 4
v 6 5 4
v 7 6 4
v 7 5 4
v 0 4 4
v 1 4 4
v 7 4 4
v 6 4 4
v 0 3 4
v 1 3 4
v 2 3 4
v 2 4 4
v 6 3 4
v 5 3 4
v 5 4 4
v 7 3 4
v -1 2 4
v -1 3 4
v -1 3 3
v 5 2 4
v 4 2 4
v 4 3 4
v -1 1 4
v 4 1 4
v -1 0 3
v -1 0 4
v 0 0 4
v 1 0 4
v 2 0 4
v 3 0 4
v 4 0 3
v 4 0 4
v -7 -7 4
v -7 -6 4
v -6 -6 4
v -6 -7 4
v 6 -7 4
v 6 -6 4
v 7 -6 4
v 7 -7 4
v -7 -8 4
v -5 -7 4
v -4 -7 4
v -3 -7 4
v -2 -7 4
v -1 -7 4
v 0 -7 4
v 1 -7 4
v 2 -7 4
v 3 -7 4
v 4 -7 4
v 5 -7 4
v 7 -8 4
v -7 -9 4
v -6 -9 4
v -5 -9 4
v -4 -9 4
v -3 -9 4
v -2 -9 4
v -1 -9 4
v 0 -9 4
v 1 -9 4
v 2 -9 4
v 3 -9 4
v 4 -9 4
v 5 -9 4
v 6 -9 4
v 7 -9 4
v 2 5 5
v 2 6 5
v 3 6 5
v 3 5 5
v 4 6 5
v 4 5 5
v 5 6 5
v 5 5 5
v 1 4 5
v 1 5 5
v 2 4 5
v 3 4 5
v 4 4 5
v 5 4 5
v 6 5 5
v 6 4 5
v 2 3 5
v 3 3 5
v 4 3 5
v 5 3 5
v -1 2 5
v -1 3 5
v 0 3 5
v 1 3 5
v 4 2 5
v -1 1 5
v 4 1 5
v -1 0 5
v 0 0 5
v 1 0 5
v 2 0 5
v 3 0 5
v 4 0 5
v -7 -7 5
v -7 -6 5
v -6 -6 5
v -6 -7 5
v 6 -7 5
v 6 -6 5
v 7 -6 5
v 7 -7 5
v -7 -8 5
v -5 -7 5
v -4 -7 5
v -3 -7 5
v -2 -7 5
v -1 -7 5
v 0 -7 5
v 1 -7 5
v 2 -7 5
v 3 -7 5
v 4 -7 5
v 5 -7 5
v 7 -8 5
v -7 -9 5
v -6 -9 5
v -5 -9 5
v -4 -9 5
v -3 -9 5
v -2 -9 5
v -1 -9 5
v 0 -9 5
v 1 -9 5
v 2 -9 5
v 3 -9 5
v 4 -9 5
v 5 -9 5
v 6 -9 5
v 7 -9 5
v -1 2 6
v -1 3 6
v 0 3 6
v 0 2 6
v 1 3 6
v 2 3 6
v 3 3 6
v 4 3 6
v 4 2 6
v 3 2 6
v -1 1 6
v 4 1 6
v -1 0 6
v 0 0 6
v 0 1 6
v 1 0 6
v 2 0 6
v 3 0 6
v 4 0 6
v 3 1 6
v -7 -7 6
v -7 -6 6
v -6 -6 6
v -6 -7 6
v -5 -6 6
v -5 -6 5
v -5 -7 6
v -4 -6 6
v -4 -6 5
v -4 -7 6
v -3 -6 6
v -3 -6 5
v -3 -7 6
v -2 -6 6
v -2 -6 5
v -2 -7 6
v -1 -6 6
v -1 -6 5
v -1 -7 6
v 0 -6 6
v 0 -6 5
v 0 -7 6
v 1 -6 6
v 1 -6 5
v 1 -7 6
v 2 -6 6
v 2 -6 5
v 2 -7 6
v 3 -6 6
v 3 -6 5
v 3 -7 6
v 4 -6 6
v 4 -6 5
v 4 -7 6
v 5 -6 6
v 5 -6 5
v 5 -7 6
v 6 -6 6
v 6 -7 6
v 7 -6 6
v 7 -7 6
v -7 -8 6
v -6 -8 6
v -5 -8 6
v -4 -8 6
v -3 -8 6
v -2 -8 6
v -1 -8 6
v 0 -8 6
v 1 -8 6
v 2 -8 6
v 3 -8 6
v 4 -8 6
v 5 -8 6
v 6 -8 6
v 7 -8 6
v -7 -9 6
v -6 -9 6
v -5 -9 6
v -4 -9 6
v -3 -9 6
v -2 -9 6
v -1 -9 6
v 0 -9 6
v 1 -9 6
v 2 -9 6
v 3 -9 6
v 4 -9 6
v 5 -9 6
v 6 -9 6
v 7 -9 6
v 0 2 7
v 0 3 7
v 1 3 7
v 1 2 7
v 2 3 7
v 2 2 7
v 3 3 7
v 3 2 7
v -1 1 7
v -1 2 7
v 0 1 7
v 1 1 7
v 2 1 7
v 3 1 7
v 4 2 7
v 4 1 7
v 0 0 7
v 1 0 7
v 2 0 7
v 3 0 7
vn -1 0 0
vn 1 0 0
vn 0 -1 0
vn 0 1 0
vn 0 0 -1
vn 0 0 1
s off
g glyph_35
f 343//4 433//4 435//4 434//4
f 354//5 343//5 434//5 445//5
f 445//5 434//5 345//5 446//5
f 447//2 347//2 437//2 448//2
f 446//5 345//5 347//5 447//5
f 455//1 456//1 443//1 354//1
f 455//5 354//5 445//5 457//5
f 457//5 445//5 446//5 458//5
f 459//2 447//2 448//2 460//2
f 458//5 446//5 447//5 459//5
f 461//1 462//1 456//1 455//1
f 461//5 455//5 457//5 463//5
f 463//5 457//5 458//5 464//5
f 465//2 459//2 460//2 466//2
f 464//3 465//3 466//3 467//3
f 464//5 458//5 459//5 465//5
f 468//1 469//1 470//1 471//1
f 471//4 470//4 462//4 461//4
f 468//5 471//5 461//5 472//5
f 472//5 461//5 463//5 473//5
f 474//2 464//2 467//2 475//2
f 473//5 463//5 464//5 474//5
f 476//1 477//1 469//1 468//1
f 476//5 468//5 472//5 478//5
f 478//5 472//5 473//5 479//5
f 480//2 474//2 475//2 481//2
f 479//5 473//5 474//5 480//5
f 482//1 483//1 477//1 476//1
f 482//5 476//5 478//5 484//5
f 484//5 478//5 479//5 485//5
f 486//2 480//2 481//2 487//2
f 485//3 486//3 487//3 488//3
f 485//5 479//5 480//5 486//5
f 489//1 490//1 491//1 492//1
f 492//4 491//4 483//4 482//4
f 489//5 492//5 482//5 493//5
f 493//5 482//5 484//5 494//5
f 495//2 485//2 488//2 496//2
f 494//5 484//5 485//5 495//5
f 497//1 498//1 490//1 489//1
f 497//5 489//5 493//5 499//5
f 499//5 493//5 494//5 500//5
f 501//2 495//2 496//2 502//2
f 500//5 494//5 495//5 501//5
f 376//1 507//1 498//1 497//1
f 376//5 497//5 499//5 377//5
f 377//5 499//5 500//5 378//5
f 379//2 501//2 502//2 508//2
f 378//5 500//5 501//5 379//5
f 448//2 437//2 572//2 579//2
f 583//6 584//6 585//6 586//6
f 454//5 444//5 443//5 456//5
f 584//6 587//6 588//6 585//6
f 460//2 448//2 579//2 589//2
f 590//1 591//1 581//1 450//1
f 590//5 450//5 451//5 592//5
f 591//6 593//6 594//6 581//6
f 592//5 451//5 452//5 595//5
f 593//6 596//6 597//6 594//6
f 595//5 452//5 453//5 598//5
f 596//6 599//6 583//6 597//6
f 598//5 453//5 454//5 470//5
f 599//6 600//6 584//6 583//6
f 470//5 454//5 456//5 462//5
f 600//6 601//6 587//6 584//6
f 466//2 460//2 589//2 602//2
f 467//3 466//3 602//3 603//3
f 604//1 605//1 591//1 590//1
f 604//3 606//3 607//3 605//3
f 604//5 590//5 592//5 606//5
f 605//6 607//6 593//6 591//6
f 606//3 608//3 609//3 607//3
f 606//5 592//5 595//5 608//5
f 607//6 609//6 596//6 593//6
f 608//3 610//3 611//3 609//3
f 608//5 595//5 598//5 610//5
f 609//6 611//6 599//6 596//6
f 610//3 469//3 612//3 611//3
f 610//5 598//5 470//5 469//5
f 611//6 612//6 600//6 599//6
f 475//2 467//2 603//2 613//2
f 477//1 614//1 612//1 469//1
f 481//2 475//2 613//2 615//2
f 483//1 616//1 614//1 477//1
f 487//2 481//2 615//2 617//2
f 488//3 487//3 617//3 618//3
f 490//1 619//1 620//1 491//1
f 491//4 620//4 616//4 483//4
f 496//2 488//2 618//2 621//2
f 498//1 622//1 619//1 490//1
f 502//2 496//2 621//2 623//2
f 507//1 628//1 622//1 498//1
f 508//2 502//2 623//2 629//2
f 704//6 705//6 706//6 691//6
f 705//6 707//6 708//6 706//6
f 579//2 572//2 695//2 709//2
f 707//6 709//6 695//6 708//6
f 587//1 716//1 704//1 588//1
f 716//6 717//6 705//6 704//6
f 717//6 718//6 707//6 705//6
f 589//2 579//2 709//2 719//2
f 718//6 719//6 709//6 707//6
f 601//1 720//1 716//1 587//1
f 720//6 721//6 717//6 716//6
f 721//6 722//6 718//6 717//6
f 602//2 589//2 719//2 723//2
f 603//3 602//3 723//3 722//3
f 722//6 723//6 719//6 718//6
f 612//1 724//1 725//1 600//1
f 600//4 725//4 720//4 601//4
f 724//6 726//6 720//6 725//6
f 726//6 727//6 721//6 720//6
f 613//2 603//2 722//2 728//2
f 727//6 728//6 722//6 721//6
f 614//1 729//1 724//1 612//1
f 729//6 730//6 726//6 724//6
f 730//6 731//6 727//6 726//6
f 615//2 613//2 728//2 732//2
f 731//6 732//6 728//6 727//6
f 616//1 733//1 729//1 614//1
f 733//6 734//6 730//6 729//6
f 734//6 735//6 731//6 730//6
f 617//2 615//2 732//2 736//2
f 618//3 617//3 736//3 735//3
f 735//6 736//6 732//6 731//6
f 619//1 737//1 738//1 620//1
f 620//4 738//4 733//4 616//4
f 737//6 739//6 733//6 738//6
f 739//6 740//6 734//6 733//6
f 621//2 618//2 735//2 741//2
f 740//6 741//6 735//6 734//6
f 622//1 742//1 737//1 619//1
f 742//6 743//6 739//6 737//6
f 743//6 744//6 740//6 739//6
f 623//2 621//2 741//2 745//2
f 744//6 745//6 741//6 740//6
f 628//1 750//1 742//1 622//1
f 750//6 751//6 743//6 742//6
f 751//6 752//6 744//6 743//6
f 629//2 623//2 745//2 753//2
f 752//6 753//6 745//6 744//6
g glyph_58
f 11//4 151//4 157//4 12//4
f 12//4 157//4 158//4 16//4
f 16//4 158//4 159//4 20//4
f 20//4 159//4 160//4 24//4
f 24//4 160//4 161//4 28//4
f 28//4 161//4 162//4 32//4
f 32//4 162//4 163//4 36//4
f 36//4 163//4 164//4 40//4
f 40//4 164//4 165//4 44//4
f 44//4 165//4 166//4 48//4
f 48//4 166//4 167//4 52//4
f 52//4 167//4 152//4 56//4
f 151//4 263//4 269//4 157//4
f 157//4 269//4 270//4 158//4
f 158//4 270//4 271//4 159//4
f 159//4 271//4 272//4 160//4
f 160//4 272//4 273//4 161//4
f 161//4 273//4 274//4 162//4
f 162//4 274//4 275//4 163//4
f 163//4 275//4 276//4 164//4
f 164//4 276//4 277//4 165//4
f 165//4 277//4 278//4 166//4
f 166//4 278//4 279//4 167//4
f 167//4 279//4 264//4 152//4
f 263//4 367//4 373//4 269//4
f 269//4 373//4 374//4 270//4
f 270//4 374//4 375//4 271//4
f 271//4 375//4 376//4 272//4
f 272//4 376//4 377//4 273//4
f 273//4 377//4 378//4 274//4
f 274//4 378//4 379//4 275//4
f 275//4 379//4 380//4 276//4
f 276//4 380//4 381//4 277//4
f 277//4 381//4 382//4 278//4
f 278//4 382//4 383//4 279//4
f 279//4 383//4 368//4 264//4
f 367//4 506//4 514//4 373//4
f 373//4 514//4 515//4 374//4
f 374//4 515//4 516//4 375//4
f 375//4 516//4 507//4 376//4
f 379//4 508//4 517//4 380//4
f 380//4 517//4 518//4 381//4
f 381//4 518//4 519//4 382//4
f 382//4 519//4 520//4 383//4
f 383//4 520//4 509//4 368//4
f 506//4 627//4 635//4 514//4
f 514//4 635//4 636//4 515//4
f 515//4 636//4 637//4 516//4
f 516//4 637//4 628//4 507//4
f 508//4 629//4 638//4 517//4
f 517//4 638//4 639//4 518//4
f 518//4 639//4 640//4 519//4
f 519//4 640//4 641//4 520//4
f 520//4 641//4 630//4 509//4
f 627//4 749//4 759//4 635//4
f 635//4 759//4 760//4 636//4
f 636//4 760//4 761//4 637//4
f 637//4 761//4 750//4 628//4
f 629//4 753//4 762//4 638//4
f 638//4 762//4 763//4 639//4
f 639//4 763//4 764//4 640//4
f 640//4 764//4 765//4 641//4
f 641//4 765//4 754//4 630//4
f 749//4 842//4 848//4 759//4
f 759//4 848//4 849//4 760//4
f 760//4 849//4 850//4 761//4
f 761//4 850//4 851//4 750//4
f 750//4 851//4 852//4 751//4
f 751//4 852//4 853//4 752//4
f 752//4 853//4 854//4 753//4
f 753//4 854//4 855//4 762//4
f 762//4 855//4 856//4 763//4
f 763//4 856//4 857//4 764//4
f 764//4 857//4 858//4 765//4
f 765//4 858//4 843//4 754//4
f 842//4 924//4 930//4 848//4
f 848//4 930//4 931//4 849//4
f 849//4 931//4 932//4 850//4
f 850//4 932//4 933//4 851//4
f 851//4 933//4 934//4 852//4
f 852//4 934//4 935//4 853//4
f 853//4 935//4 936//4 854//4
f 854//4 936//4 937//4 855//4
f 855//4 937//4 938//4 856//4
f 856//4 938//4 939//4 857//4
f 857//4 939//4 940//4 858//4
f 858//4 940//4 925//4 843//4
f 924//4 1006//4 1012//4 930//4
f 930//4 1012//4 1013//4 931//4
f 931//4 1013//4 1014//4 932//4
f 932//4 1014//4 1015//4 933//4
f 933//4 1015//4 1016//4 934//4
f 934//4 1016//4 1017//4 935//4
f 935//4 1017//4 1018//4 936//4
f 936//4 1018//4 1019//4 937//4
f 937//4 1019//4 1020//4 938//4
f 938//4 1020//4 1021//4 939//4
f 939//4 1021//4 1022//4 940//4
f 940//4 1022//4 1007//4 925//4
f 1006//4 1075//4 1081//4 1012//4
f 1012//4 1081//4 1082//4 1013//4
f 1013//4 1082//4 1083//4 1014//4
f 1014//4 1083//4 1084//4 1015//4
f 1015//4 1084//4 1085//4 1016//4
f 1016//4 1085//4 1086//4 1017//4
f 1017//4 1086//4 1087//4 1018//4
f 1018//4 1087//4 1088//4 1019//4
f 1019//4 1088//4 1089//4 1020//4
f 1020//4 1089//4 1090//4 1021//4
f 1021//4 1090//4 1091//4 1022//4
f 1022//4 1091//4 1076//4 1007//4
g glyph_61
f 1//1 2//1 3//1 4//1
f 4//4 3//4 5//4 6//4
f 1//5 4//5 6//5 7//5
f 6//4 5//4 8//4 9//4
f 7//5 6//5 9//5 10//5
f 11//6 12//6 8//6 5//6
f 9//4 8//4 13//4 14//4
f 10//5 9//5 14//5 15//5
f 12//6 16//6 13//6 8//6
f 14//4 13//4 17//4 18//4
f 15//5 14//5 18//5 19//5
f 16//6 20//6 17//6 13//6
f 18//4 17//4 21//4 22//4
f 19//5 18//5 22//5 23//5
f 20//6 24//6 21//6 17//6
f 22//4 21//4 25//4 26//4
f 23//5 22//5 26//5 27//5
f 24//6 28//6 25//6 21//6
f 26//4 25//4 29//4 30//4
f 27//5 26//5 30//5 31//5
f 28//6 32//6 29//6 25//6
f 30//4 29//4 33//4 34//4
f 31//5 30//5 34//5 35//5
f 32//6 36//6 33//6 29//6
f 34//4 33//4 37//4 38//4
f 35//5 34//5 38//5 39//5
f 36//6 40//6 37//6 33//6
f 38//4 37//4 41//4 42//4
f 39//5 38//5 42//5 43//5
f 40//6 44//6 41//6 37//6
f 42//4 41//4 45//4 46//4
f 43//5 42//5 46//5 47//5
f 44//6 48//6 45//6 41//6
f 46//4 45//4 49//4 50//4
f 47//5 46//5 50//5 51//5
f 48//6 52//6 49//6 45//6
f 50//4 49//4 53//4 54//4
f 51//5 50//5 54//5 55//5
f 52//6 56//6 53//6 49//6
f 57//2 58//2 59//2 60//2
f 54//4 53//4 59//4 58//4
f 55//5 54//5 58//5 57//5
f 61//1 62//1 2//1 1//1
f 61//5 1//5 7//5 63//5
f 63//5 7//5 10//5 64//5
f 64//5 10//5 15//5 65//5
f 65//5 15//5 19//5 66//5
f 66//5 19//5 23//5 67//5
f 67//5 23//5 27//5 68//5
f 68//5 27//5 31//5 69//5
f 69//5 31//5 35//5 70//5
f 70//5 35//5 39//5 71//5
f 71//5 39//5 43//5 72//5
f 72//5 43//5 47//5 73//5
f 73//5 47//5 51//5 74//5
f 74//5 51//5 55//5 75//5
f 76//2 57//2 60//2 77//2
f 75//5 55//5 57//5 76//5
f 78//1 79//1 62//1 61//1
f 78//3 80//3 81//3 79//3
f 78//5 61//5 63//5 80//5
f 80//3 82//3 83//3 81//3
f 80//5 63//5 64//5 82//5
f 82//3 84//3 85//3 83//3
f 82//5 64//5 65//5 84//5
f 84//3 86//3 87//3 85//3
f 84//5 65//5 66//5 86//5
f 86//3 88//3 89//3 87//3
f 86//5 66//5 67//5 88//5
f 88//3 90//3 91//3 89//3
f 88//5 67//5 68//5 90//5
f 90//3 92//3 93//3 91//3
f 90//5 68//5 69//5 92//5
f 92//3 94//3 95//3 93//3
f 92//5 69//5 70//5 94//5
f 94//3 96//3 97//3 95//3
f 94//5 70//5 71//5 96//5
f 96//3 98//3 99//3 97//3
f 96//5 71//5 72//5 98//5
f 98//3 100//3 101//3 99//3
f 98//5 72//5 73//5 100//5
f 100//3 102//3 103//3 101//3
f 100//5 73//5 74//5 102//5
f 102//3 104//3 105//3 103//3
f 102//5 74//5 75//5 104//5
f 106//2 76//2 77//2 107//2
f 104//3 106//3 107//3 105//3
f 104//5 75//5 76//5 106//5
f 2//1 148//1 149//1 3//1
f 11//2 5//2 150//2 151//2
f 3//4 149//4 150//4 5//4
f 56//1 152//1 153//1 53//1
f 60//2 59//2 154//2 155//2
f 53//4 153//4 154//4 59//4
f 62//1 156//1 148//1 2//1
f 77//2 60//2 155//2 168//2
f 79//1 169//1 156//1 62//1
f 79//3 81//3 170//3 169//3
f 81//3 83//3 171//3 170//3
f 83//3 85//3 172//3 171//3
f 85//3 87//3 173//3 172//3
f 87//3 89//3 174//3 173//3
f 89//3 91//3 175//3 174//3
f 91//3 93//3 176//3 175//3
f 93//3 95//3 177//3 176//3
f 95//3 97//3 178//3 177//3
f 97//3 99//3 179//3 178//3
f 99//3 101//3 180//3 179//3
f 101//3 103//3 181//3 180//3
f 103//3 105//3 182//3 181//3
f 107//2 77//2 168//2 183//2
f 105//3 107//3 183//3 182//3
f 148//1 260//1 261//1 149//1
f 151//2 150//2 262//2 263//2
f 149//4 261//4 262//4 150//4
f 152//1 264//1 265//1 153//1
f 155//2 154//2 266//2 267//2
f 153//4 265//4 266//4 154//4
f 156//1 268//1 260//1 148//1
f 168//2 155//2 267//2 280//2
f 169//1 281//1 268//1 156//1
f 169//3 170//3 282//3 281//3
f 170//3 171//3 283//3 282//3
f 171//3 172//3 284//3 283//3
f 172//3 173//3 285//3 284//3
f 173//3 174//3 286//3 285//3
f 174//3 175//3 287//3 286//3
f 175//3 176//3 288//3 287//3
f 176//3 177//3 289//3 288//3
f 177//3 178//3 290//3 289//3
f 178//3 179//3 291//3 290//3
f 179//3 180//3 292//3 291//3
f 180//3 181//3 293//3 292//3
f 181//3 182//3 294//3 293//3
f 183//2 168//2 280//2 295//2
f 182//3 183//3 295//3 294//3
f 260//1 364//1 365//1 261//1
f 263//2 262//2 366//2 367//2
f 261//4 365//4 366//4 262//4
f 264//1 368//1 369//1 265//1
f 267//2 266//2 370//2 371//2
f 265//4 369//4 370//4 266//4
f 268//1 372//1 364//1 260//1
f 280//2 267//2 371//2 384//2
f 281//1 385//1 372//1 268//1
f 281//3 282//3 386//3 385//3
f 282//3 283//3 387//3 386//3
f 283//3 284//3 388//3 387//3
f 284//3 285//3 389//3 388//3
f 285//3 286//3 390//3 389//3
f 286//3 287//3 391//3 390//3
f 287//3 288//3 392//3 391//3
f 288//3 289//3 393//3 392//3
f 289//3 290//3 394//3 393//3
f 290//3 291//3 395//3 394//3
f 291//3 292//3 396//3 395//3
f 292//3 293//3 397//3 396//3
f 293//3 294//3 398//3 397//3
f 295//2 280//2 384//2 399//2
f 294//3 295//3 399//3 398//3
f 364//1 503//1 504//1 365//1
f 367//2 366//2 505//2 506//2
f 365//4 504//4 505//4 366//4
f 368//1 509//1 510//1 369//1
f 371//2 370//2 511//2 512//2
f 369//4 510//4 511//4 370//4
f 372//1 513//1 503//1 364//1
f 384//2 371//2 512//2 521//2
f 385//1 522//1 513//1 372//1
f 385//3 386//3 523//3 522//3
f 386//3 387//3 524//3 523//3
f 387//3 388//3 525//3 524//3
f 388//3 389//3 526//3 525//3
f 389//3 390//3 527//3 526//3
f 390//3 391//3 528//3 527//3
f 391//3 392//3 529//3 528//3
f 392//3 393//3 530//3 529//3
f 393//3 394//3 531//3 530//3
f 394//3 395//3 532//3 531//3
f 395//3 396//3 533//3 532//3
f 396//3 397//3 534//3 533//3
f 397//3 398//3 535//3 534//3
f 399//2 384//2 521//2 536//2
f 398//3 399//3 536//3 535//3
f 503//1 624//1 625//1 504//1
f 506//2 505//2 626//2 627//2
f 504//4 625//4 626//4 505//4
f 509//1 630//1 631//1 510//1
f 512//2 511//2 632//2 633//2
f 510//4 631//4 632//4 511//4
f 513//1 634//1 624//1 503//1
f 521//2 512//2 633//2 642//2
f 522//1 643//1 634//1 513//1
f 522//3 523//3 644//3 643//3
f 523//3 524//3 645//3 644//3
f 524//3 525//3 646//3 645//3
f 525//3 526//3 647//3 646//3
f 526//3 527//3 648//3 647//3
f 527//3 528//3 649//3 648//3
f 528//3 529//3 650//3 649//3
f 529//3 530//3 651//3 650//3
f 530//3 531//3 652//3 651//3
f 531//3 532//3 653//3 652//3
f 532//3 533//3 654//3 653//3
f 533//3 534//3 655//3 654//3
f 534//3 535//3 656//3 655//3
f 536//2 521//2 642//2 657//2
f 535//3 536//3 657//3 656//3
f 624//1 746//1 747//1 625//1
f 627//2 626//2 748//2 749//2
f 625//4 747//4 748//4 626//4
f 630//1 754//1 755//1 631//1
f 633//2 632//2 756//2 757//2
f 631//4 755//4 756//4 632//4
f 634//1 758//1 746//1 624//1
f 642//2 633//2 757//2 766//2
f 643//1 767//1 758//1 634//1
f 643//3 644//3 768//3 767//3
f 644//3 645//3 769//3 768//3
f 645//3 646//3 770//3 769//3
f 646//3 647//3 771//3 770//3
f 647//3 648//3 772//3 771//3
f 648//3 649//3 773//3 772//3
f 649//3 650//3 774//3 773//3
f 650//3 651//3 775//3 774//3
f 651//3 652//3 776//3 775//3
f 652//3 653//3 777//3 776//3
f 653//3 654//3 778//3 777//3
f 654//3 655//3 779//3 778//3
f 655//3 656//3 780//3 779//3
f 657//2 642//2 766//2 781//2
f 656//3 657//3 781//3 780//3
f 746//1 839//1 840//1 747//1
f 749//2 748//2 841//2 842//2
f 747//4 840//4 841//4 748//4
f 754//1 843//1 844//1 755//1
f 757//2 756//2 845//2 846//2
f 755//4 844//4 845//4 756//4
f 758//1 847//1 839//1 746//1
f 766//2 757//2 846//2 859//2
f 767//1 860//1 847//1 758//1
f 767//3 768//3 861//3 860//3
f 768//3 769//3 862//3 861//3
f 769//3 770//3 863//3 862//3
f 770//3 771//3 864//3 863//3
f 771//3 772//3 865//3 864//3
f 772//3 773//3 866//3 865//3
f 773//3 774//3 867//3 866//3
f 774//3 775//3 868//3 867//3
f 775//3 776//3 869//3 868//3
f 776//3 777//3 870//3 869//3
f 777//3 778//3 871//3 870//3
f 778//3 779//3 872//3 871//3
f 779//3 780//3 873//3 872//3
f 781//2 766//2 859//2 874//2
f 780//3 781//3 874//3 873//3
f 839//1 921//1 922//1 840//1
f 842//2 841//2 923//2 924//2
f 840//4 922//4 923//4 841//4
f 843//1 925//1 926//1 844//1
f 846//2 845//2 927//2 928//2
f 844//4 926//4 927//4 845//4
f 847//1 929//1 921//1 839//1
f 859//2 846//2 928//2 941//2
f 860//1 942//1 929//1 847//1
f 860//3 861//3 943//3 942//3
f 861//3 862//3 944//3 943//3
f 862//3 863//3 945//3 944//3
f 863//3 864//3 946//3 945//3
f 864//3 865//3 947//3 946//3
f 865//3 866//3 948//3 947//3
f 866//3 867//3 949//3 948//3
f 867//3 868//3 950//3 949//3
f 868//3 869//3 951//3 950//3
f 869//3 870//3 952//3 951//3
f 870//3 871//3 953//3 952//3
f 871//3 872//3 954//3 953//3
f 872//3 873//3 955//3 954//3
f 874//2 859//2 941//2 956//2
f 873//3 874//3 956//3 955//3
f 921//1 1003//1 1004//1 922//1
f 924//2 923//2 1005//2 1006//2
f 922//4 1004//4 1005//4 923//4
f 925//1 1007//1 1008//1 926//1
f 928//2 927//2 1009//2 1010//2
f 926//4 1008//4 1009//4 927//4
f 929//1 1011//1 1003//1 921//1
f 941//2 928//2 1010//2 1023//2
f 942//1 1024//1 1011//1 929//1
f 942//3 943//3 1025//3 1024//3
f 943//3 944//3 1026//3 1025//3
f 944//3 945//3 1027//3 1026//3
f 945//3 946//3 1028//3 1027//3
f 946//3 947//3 1029//3 1028//3
f 947//3 948//3 1030//3 1029//3
f 948//3 949//3 1031//3 1030//3
f 949//3 950//3 1032//3 1031//3
f 950//3 951//3 1033//3 1032//3
f 951//3 952//3 1034//3 1033//3
f 952//3 953//3 1035//3 1034//3
f 953//3 954//3 1036//3 1035//3
f 954//3 955//3 1037//3 1036//3
f 956//2 941//2 1023//2 1038//2
f 955//3 956//3 1038//3 1037//3
f 1003//1 1072//1 1073//1 1004//1
f 1006//2 1005//2 1074//2 1075//2
f 1004//4 1073//4 1074//4 1005//4
f 1007//1 1076//1 1077//1 1008//1
f 1010//2 1009//2 1078//2 1079//2
f 1008//4 1077//4 1078//4 1009//4
f 1011//1 1080//1 1072//1 1003//1
f 1023//2 1010//2 1079//2 1092//2
f 1024//1 1093//1 1080//1 1011//1
f 1024//3 1025//3 1094//3 1093//3
f 1025//3 1026//3 1095//3 1094//3
f 1026//3 1027//3 1096//3 1095//3
f 1027//3 1028//3 1097//3 1096//3
f 1028//3 1029//3 1098//3 1097//3
f 1029//3 1030//3 1099//3 1098//3
f 1030//3 1031//3 1100//3 1099//3
f 1031//3 1032//3 1101//3 1100//3
f 1032//3 1033//3 1102//3 1101//3
f 1033//3 1034//3 1103//3 1102//3
f 1034//3 1035//3 1104//3 1103//3
f 1035//3 1036//3 1105//3 1104//3
f 1036//3 1037//3 1106//3 1105//3
f 1038//2 1023//2 1092//2 1107//2
f 1037//3 1038//3 1107//3 1106//3
f 1072//1 1128//1 1129//1 1073//1
f 1073//4 1129//4 1130//4 1074//4
f 1128//6 1131//6 1130//6 1129//6
f 1074//4 1130//4 1132//4 1133//4
f 1075//5 1074//5 1133//5 1081//5
f 1131//6 1134//6 1132//6 1130//6
f 1133//4 1132//4 1135//4 1136//4
f 1081//5 1133//5 1136//5 1082//5
f 1134//6 1137//6 1135//6 1132//6
f 1136//4 1135//4 1138//4 1139//4
f 1082//5 1136//5 1139//5 1083//5
f 1137//6 1140//6 1138//6 1135//6
f 1139//4 1138//4 1141//4 1142//4
f 1083//5 1139//5 1142//5 1084//5
f 1140//6 1143//6 1141//6 1138//6
f 1142//4 1141//4 1144//4 1145//4
f 1084//5 1142//5 1145//5 1085//5
f 1143//6 1146//6 1144//6 1141//6
f 1145//4 1144//4 1147//4 1148//4
f 1085//5 1145//5 1148//5 1086//5
f 1146//6 1149//6 1147//6 1144//6
f 1148//4 1147//4 1150//4 1151//4
f 1086//5 1148//5 1151//5 1087//5
f 1149//6 1152//6 1150//6 1147//6
f 1151//4 1150//4 1153//4 1154//4
f 1087//5 1151//5 1154//5 1088//5
f 1152//6 1155//6 1153//6 1150//6
f 1154//4 1153//4 1156//4 1157//4
f 1088//5 1154//5 1157//5 1089//5
f 1155//6 1158//6 1156//6 1153//6
f 1157//4 1156//4 1159//4 1160//4
f 1089//5 1157//5 1160//5 1090//5
f 1158//6 1161//6 1159//6 1156//6
f 1160//4 1159//4 1162//4 1163//4
f 1090//5 1160//5 1163//5 1091//5
f 1161//6 1164//6 1162//6 1159//6
f 1163//4 1162//4 1165//4 1077//4
f 1091//5 1163//5 1077//5 1076//5
f 1164//6 1166//6 1165//6 1162//6
f 1079//2 1078//2 1167//2 1168//2
f 1077//4 1165//4 1167//4 1078//4
f 1166//6 1168//6 1167//6 1165//6
f 1080//1 1169//1 1128//1 1072//1
f 1169//6 1170//6 1131//6 1128//6
f 1170//6 1171//6 1134//6 1131//6
f 1171//6 1172//6 1137//6 1134//6
f 1172//6 1173//6 1140//6 1137//6
f 1173//6 1174//6 1143//6 1140//6
f 1174//6 1175//6 1146//6 1143//6
f 1175//6 1176//6 1149//6 1146//6
f 1176//6 1177//6 1152//6 1149//6
f 1177//6 1178//6 1155//6 1152//6
f 1178//6 1179//6 1158//6 1155//6
f 1179//6 1180//6 1161//6 1158//6
f 1180//6 1181//6 1164//6 1161//6
f 1181//6 1182//6 1166//6 1164//6
f 1092//2 1079//2 1168//2 1183//2
f 1182//6 1183//6 1168//6 1166//6
f 1093//1 1184//1 1169//1 1080//1
f 1093//3 1094//3 1185//3 1184//3
f 1184//6 1185//6 1170//6 1169//6
f 1094//3 1095//3 1186//3 1185//3
f 1185//6 1186//6 1171//6 1170//6
f 1095//3 1096//3 1187//3 1186//3
f 1186//6 1187//6 1172//6 1171//6
f 1096//3 1097//3 1188//3 1187//3
f 1187//6 1188//6 1173//6 1172//6
f 1097//3 1098//3 1189//3 1188//3
f 1188//6 1189//6 1174//6 1173//6
f 1098//3 1099//3 1190//3 1189//3
f 1189//6 1190//6 1175//6 1174//6
f 1099//3 1100//3 1191//3 1190//3
f 1190//6 1191//6 1176//6 1175//6
f 1100//3 1101//3 1192//3 1191//3
f 1191//6 1192//6 1177//6 1176//6
f 1101//3 1102//3 1193//3 1192//3
f 1192//6 1193//6 1178//6 1177//6
f 1102//3 1103//3 1194//3 1193//3
f 1193//6 1194//6 1179//6 1178//6
f 1103//3 1104//3 1195//3 1194//3
f 1194//6 1195//6 1180//6 1179//6
f 1104//3 1105//3 1196//3 1195//3
f 1195//6 1196//6 1181//6 1180//6
f 1105//3 1106//3 1197//3 1196//3
f 1196//6 1197//6 1182//6 1181//6
f 1107//2 1092//2 1183//2 1198//2
f 1106//3 1107//3 1198//3 1197//3
f 1197//6 1198//6 1183//6 1182//6
g glyph_111
f 108//1 109//1 110//1 111//1
f 111//4 110//4 112//4 113//4
f 108//5 111//5 113//5 114//5
f 113//4 112//4 115//4 116//4
f 114//5 113//5 116//5 117//5
f 116//4 115//4 118//4 119//4
f 117//5 116//5 119//5 120//5
f 119//4 118//4 121//4 122//4
f 120//5 119//5 122//5 123//5
f 124//2 125//2 126//2 127//2
f 122//4 121//4 126//4 125//4
f 123//5 122//5 125//5 124//5
f 128//1 129//1 109//1 108//1
f 128//5 108//5 114//5 130//5
f 130//5 114//5 117//5 131//5
f 131//5 117//5 120//5 132//5
f 132//5 120//5 123//5 133//5
f 134//2 124//2 127//2 135//2
f 133//5 123//5 124//5 134//5
f 136//1 137//1 129//1 128//1
f 136//3 138//3 139//3 137//3
f 136//5 128//5 130//5 138//5
f 138//3 140//3 141//3 139//3
f 138//5 130//5 131//5 140//5
f 140//3 142//3 143//3 141//3
f 140//5 131//5 132//5 142//5
f 142//3 144//3 145//3 143//3
f 142//5 132//5 133//5 144//5
f 146//2 134//2 135//2 147//2
f 144//3 146//3 147//3 145//3
f 144//5 133//5 134//5 146//5
f 184//1 185//1 186//1 187//1
f 187//4 186//4 188//4 189//4
f 184//5 187//5 189//5 190//5
f 189//4 188//4 191//4 192//4
f 190//5 189//5 192//5 193//5
f 194//2 195//2 196//2 197//2
f 192//4 191//4 196//4 195//4
f 193//5 192//5 195//5 194//5
f 112//1 198//1 199//1 200//1
f 200//4 199//4 201//4 202//4
f 112//5 200//5 202//5 115//5
f 202//4 201//4 203//4 204//4
f 115//5 202//5 204//5 118//5
f 121//2 205//2 206//2 207//2
f 204//4 203//4 206//4 205//4
f 118//5 204//5 205//5 121//5
f 208//1 209//1 210//1 211//1
f 208//3 212//3 213//3 209//3
f 211//4 210//4 185//4 184//4
f 208//5 211//5 184//5 212//5
f 212//5 184//5 190//5 214//5
f 214//5 190//5 193//5 215//5
f 215//5 193//5 194//5 216//5
f 217//2 218//2 219//2 220//2
f 216//3 217//3 220//3 221//3
f 194//4 197//4 219//4 218//4
f 216//5 194//5 218//5 217//5
f 222//1 223//1 224//1 225//1
f 225//4 224//4 226//4 110//4
f 222//5 225//5 110//5 109//5
f 110//4 226//4 198//4 112//4
f 121//4 207//4 227//4 126//4
f 228//2 229//2 230//2 231//2
f 126//4 227//4 230//4 229//4
f 127//5 126//5 229//5 228//5
f 232//1 233//1 213//1 212//1
f 232//3 234//3 235//3 233//3
f 232//5 212//5 214//5 234//5
f 234//3 236//3 237//3 235//3
f 234//5 214//5 215//5 236//5
f 238//2 216//2 221//2 239//2
f 236//3 238//3 239//3 237//3
f 236//5 215//5 216//5 238//5
f 240//1 241//1 223//1 222//1
f 240//5 222//5 109//5 129//5
f 242//2 228//2 231//2 243//2
f 135//5 127//5 228//5 242//5
f 244//1 245//1 241//1 240//1
f 244//3 137//3 246//3 245//3
f 244//5 240//5 129//5 137//5
f 137//3 139//3 247//3 246//3
f 145//3 147//3 248//3 249//3
f 250//2 242//2 243//2 251//2
f 147//3 250//3 251//3 248//3
f 147//5 135//5 242//5 250//5
f 252//1 253//1 247//1 139//1
f 252//3 254//3 255//3 253//3
f 252//5 139//5 141//5 254//5
f 254//3 256//3 257//3 255//3
f 254//5 141//5 143//5 256//5
f 258//2 145//2 249//2 259//2
f 256//3 258//3 259//3 257//3
f 256//5 143//5 145//5 258//5
f 186//1 296//1 297//1 298//1
f 298//4 297//4 299//4 300//4
f 186//5 298//5 300//5 188//5
f 300//4 299//4 301//4 302//4
f 188//5 300//5 302//5 191//5
f 196//2 303//2 304//2 305//2
f 302//4 301//4 304//4 303//4
f 191//5 302//5 303//5 196//5
f 306//1 307//1 308//1 309//1
f 309//4 308//4 310//4 311//4
f 306//5 309//5 311//5 210//5
f 311//4 310//4 296//4 186//4
f 210//5 311//5 186//5 185//5
f 196//4 305//4 312//4 313//4
f 197//5 196//5 313//5 219//5
f 314//2 315//2 316//2 317//2
f 313//4 312//4 316//4 315//4
f 219//5 313//5 315//5 314//5
f 226//1 318//1 319//1 320//1
f 320//4 319//4 321//4 199//4
f 226//5 320//5 199//5 198//5
f 199//4 321//4 322//4 201//4
f 201//4 322//4 323//4 203//4
f 203//4 323//4 324//4 206//4
f 227//2 325//2 326//2 327//2
f 206//4 324//4 326//4 325//4
f 207//5 206//5 325//5 227//5
f 230//1 328//1 307//1 306//1
f 230//5 306//5 210//5 209//5
f 329//2 314//2 317//2 330//2
f 220//5 219//5 314//5 329//5
f 223//1 331//1 332//1 224//1
f 224//4 332//4 318//4 226//4
f 227//4 327//4 328//4 230//4
f 231//3 333//3 334//3 335//3
f 231//5 230//5 209//5 333//5
f 333//3 233//3 336//3 334//3
f 333//5 209//5 213//5 233//5
f 239//3 337//3 338//3 339//3
f 239//5 221//5 220//5 337//5
f 340//2 329//2 330//2 341//2
f 337//3 340//3 341//3 338//3
f 337//5 220//5 329//5 340//5
f 241//1 342//1 331//1 223//1
f 243//2 231//2 335//2 343//2
f 344//1 345//1 336//1 233//1
f 344//3 346//3 347//3 345//3
f 344//5 233//5 235//5 346//5
f 346//3 348//3 349//3 347//3
f 346//5 235//5 237//5 348//5
f 350//2 239//2 339//2 351//2
f 348//3 350//3 351//3 349//3
f 348//5 237//5 239//5 350//5
f 245//1 352//1 342//1 241//1
f 245//3 246//3 353//3 352//3
f 251//2 243//2 343//2 354//2
f 248//3 251//3 354//3 355//3
f 356//1 357//1 353//1 246//1
f 356//3 253//3 358//3 357//3
f 356//5 246//5 247//5 253//5
f 253//3 255//3 359//3 358//3
f 255//3 257//3 360//3 359//3
f 257//3 259//3 361//3 360//3
f 362//2 248//2 355//2 363//2
f 259//3 362//3 363//3 361//3
f 259//5 249//5 248//5 362//5
f 310//1 400//1 401//1 402//1
f 402//4 401//4 403//4 297//4
f 310//5 402//5 297//5 296//5
f 297//4 403//4 404//4 299//4
f 299//4 404//4 405//4 301//4
f 301//4 405//4 406//4 304//4
f 312//2 407//2 408//2 409//2
f 304//4 406//4 408//4 407//4
f 305//5 304//5 407//5 312//5
f 307//1 410//1 411//1 308//1
f 308//4 411//4 400//4 310//4
f 317//2 316//2 412//2 413//2
f 312//4 409//4 412//4 316//4
f 318//1 414//1 415//1 319//1
f 319//4 415//4 416//4 321//4
f 321//4 416//4 417//4 322//4
f 322//4 417//4 418//4 323//4
f 323//4 418//4 419//4 324//4
f 324//4 419//4 420//4 326//4
f 326//4 420//4 410//4 307//4
f 327//5 326//5 307//5 328//5
f 421//2 422//2 423//2 424//2
f 330//3 421//3 424//3 425//3
f 317//4 413//4 423//4 422//4
f 330//5 317//5 422//5 421//5
f 331//1 426//1 427//1 332//1
f 332//4 427//4 414//4 318//4
f 335//3 334//3 428//3 429//3
f 341//2 330//2 425//2 430//2
f 338//3 341//3 430//3 431//3
f 342//1 432//1 426//1 331//1
f 343//2 335//2 429//2 433//2
f 434//1 435//1 428//1 334//1
f 434//5 334//5 336//5 345//5
f 347//3 349//3 436//3 437//3
f 349//3 351//3 438//3 436//3
f 439//2 338//2 431//2 440//2
f 351//3 439//3 440//3 438//3
f 351//5 339//5 338//5 439//5
f 352//1 441//1 432//1 342//1
f 352//3 353//3 442//3 441//3
f 355//3 354//3 443//3 444//3
f 357//1 449//1 442//1 353//1
f 357//3 358//3 450//3 449//3
f 358//3 359//3 451//3 450//3
f 359//3 360//3 452//3 451//3
f 360//3 361//3 453//3 452//3
f 363//2 355//2 444//2 454//2
f 361//3 363//3 454//3 453//3
f 411//1 537//1 538//1 539//1
f 539//4 538//4 540//4 401//4
f 411//5 539//5 401//5 400//5
f 401//4 540//4 541//4 403//4
f 403//4 541//4 542//4 404//4
f 404//4 542//4 543//4 405//4
f 405//4 543//4 544//4 406//4
f 406//4 544//4 545//4 408//4
f 412//2 546//2 547//2 548//2
f 408//4 545//4 547//4 546//4
f 409//5 408//5 546//5 412//5
f 420//1 549//1 550//1 551//1
f 551//4 550//4 537//4 411//4
f 420//5 551//5 411//5 410//5
f 423//2 552//2 553//2 554//2
f 412//4 548//4 553//4 552//4
f 413//5 412//5 552//5 423//5
f 414//1 555//1 556//1 415//1
f 415//4 556//4 557//4 416//4
f 555//6 558//6 557//6 556//6
f 416//4 557//4 559//4 417//4
f 417//4 559//4 560//4 418//4
f 418//4 560//4 561//4 419//4
f 419//4 561//4 549//4 420//4
f 562//6 563//6 549//6 561//6
f 424//2 423//2 554//2 564//2
f 426//1 565//1 566//1 427//1
f 427//4 566//4 555//4 414//4
f 567//2 424//2 564//2 568//2
f 430//3 567//3 568//3 569//3
f 430//5 425//5 424//5 567//5
f 432//1 570//1 565//1 426//1
f 433//5 429//5 428//5 435//5
f 437//3 436//3 571//3 572//3
f 436//3 438//3 573//3 571//3
f 438//3 440//3 574//3 573//3
f 575//2 430//2 569//2 576//2
f 440//3 575//3 576//3 574//3
f 440//5 431//5 430//5 575//5
f 441//1 577//1 570//1 432//1
f 441//3 442//3 578//3 577//3
f 449//1 580//1 578//1 442//1
f 449//3 450//3 581//3 580//3
f 580//6 581//6 582//6 578//6
f 537//1 658//1 659//1 538//1
f 538//4 659//4 660//4 540//4
f 540//4 660//4 661//4 541//4
f 541//4 661//4 662//4 542//4
f 542//4 662//4 663//4 543//4
f 543//4 663//4 664//4 544//4
f 544//4 664//4 665//4 545//4
f 548//2 547//2 666//2 667//2
f 545//4 665//4 666//4 547//4
f 549//1 668//1 669//1 550//1
f 550//4 669//4 658//4 537//4
f 554//2 553//2 670//2 671//2
f 548//4 667//4 670//4 553//4
f 558//1 672//1 673//1 557//1
f 557//4 673//4 674//4 559//4
f 672//6 675//6 674//6 673//6
f 559//4 674//4 676//4 560//4
f 675//6 677//6 676//6 674//6
f 562//2 561//2 678//2 679//2
f 560//4 676//4 678//4 561//4
f 677//6 679//6 678//6 676//6
f 563//1 680//1 668//1 549//1
f 564//2 554//2 671//2 681//2
f 565//1 682//1 683//1 566//1
f 566//4 683//4 684//4 555//4
f 682//6 685//6 684//6 683//6
f 555//4 684//4 672//4 558//4
f 562//4 679//4 680//4 563//4
f 568//2 564//2 681//2 686//2
f 569//3 568//3 686//3 687//3
f 570//1 688//1 682//1 565//1
f 688//6 689//6 685//6 682//6
f 690//6 691//6 692//6 693//6
f 572//3 571//3 694//3 695//3
f 571//3 573//3 696//3 694//3
f 573//3 574//3 697//3 696//3
f 576//2 569//2 687//2 698//2
f 574//3 576//3 698//3 697//3
f 577//1 699//1 688//1 570//1
f 577//3 578//3 700//3 699//3
f 699//6 700//6 689//6 688//6
f 578//3 582//3 701//3 700//3
f 586//3 585//3 702//3 703//3
f 585//3 588//3 704//3 702//3
f 702//6 704//6 691//6 690//6
f 581//1 710//1 701//1 582//1
f 581//3 594//3 711//3 710//3
f 710//6 711//6 712//6 701//6
f 594//3 597//3 713//3 711//3
f 711//6 713//6 714//6 712//6
f 583//2 586//2 703//2 715//2
f 597//3 583//3 715//3 713//3
f 713//6 715//6 703//6 714//6
f 658//1 782//1 783//1 659//1
f 659//4 783//4 784//4 660//4
f 782//6 785//6 784//6 783//6
f 660//4 784//4 786//4 661//4
f 661//4 786//4 787//4 662//4
f 662//4 787//4 788//4 663//4
f 663//4 788//4 789//4 664//4
f 664//4 789//4 790//4 665//4
f 667//2 666//2 791//2 792//2
f 665//4 790//4 791//4 666//4
f 793//6 792//6 791//6 790//6
f 668//1 794//1 795//1 669//1
f 669//4 795//4 782//4 658//4
f 794//6 796//6 782//6 795//6
f 671//2 670//2 797//2 798//2
f 667//4 792//4 797//4 670//4
f 799//6 798//6 797//6 792//6
f 680//1 800//1 794//1 668//1
f 681//2 671//2 798//2 801//2
f 685//1 802//1 803//1 684//1
f 684//4 803//4 804//4 672//4
f 802//6 805//6 804//6 803//6
f 672//4 804//4 806//4 675//4
f 805//6 807//6 806//6 804//6
f 675//4 806//4 808//4 677//4
f 807//6 809//6 808//6 806//6
f 677//4 808//4 810//4 679//4
f 809//6 811//6 810//6 808//6
f 679//4 810//4 800//4 680//4
f 811//6 812//6 800//6 810//6
f 693//3 692//3 813//3 812//3
f 812//6 813//6 814//6 800//6
f 686//2 681//2 801//2 815//2
f 687//3 686//3 815//3 816//3
f 816//6 815//6 801//6 817//6
f 689//1 818//1 802//1 685//1
f 818//6 819//6 805//6 802//6
f 819//6 820//6 807//6 805//6
f 820//6 821//6 809//6 807//6
f 821//6 822//6 811//6 809//6
f 690//2 693//2 812//2 823//2
f 822//6 823//6 812//6 811//6
f 691//1 824//1 813//1 692//1
f 691//3 706//3 825//3 824//3
f 706//3 708//3 826//3 825//3
f 708//3 695//3 827//3 826//3
f 695//3 694//3 828//3 827//3
f 694//3 696//3 829//3 828//3
f 696//3 697//3 830//3 829//3
f 698//2 687//2 816//2 831//2
f 697//3 698//3 831//3 830//3
f 830//6 831//6 816//6 832//6
f 700//1 833//1 818//1 689//1
f 700//3 701//3 834//3 833//3
f 833//6 834//6 819//6 818//6
f 701//3 712//3 835//3 834//3
f 834//6 835//6 820//6 819//6
f 712//3 714//3 836//3 835//3
f 835//6 836//6 821//6 820//6
f 714//3 703//3 837//3 836//3
f 836//6 837//6 822//6 821//6
f 702//2 690//2 823//2 838//2
f 703//3 702//3 838//3 837//3
f 837//6 838//6 823//6 822//6
f 785//1 875//1 876//1 784//1
f 784//4 876//4 877//4 786//4
f 875//6 878//6 877//6 876//6
f 786//4 877//4 879//4 787//4
f 787//4 879//4 880//4 788//4
f 788//4 880//4 881//4 789//4
f 793//2 790//2 882//2 883//2
f 789//4 881//4 882//4 790//4
f 884//6 883//6 882//6 881//6
f 796//1 885//1 886//1 782//1
f 782//4 886//4 875//4 785//4
f 799//2 792//2 887//2 888//2
f 793//4 883//4 887//4 792//4
f 800//1 889//1 890//1 794//1
f 800//3 814//3 891//3 889//3
f 794//4 890//4 885//4 796//4
f 889//6 891//6 885//6 890//6
f 801//2 798//2 892//2 893//2
f 817//3 801//3 893//3 894//3
f 799//4 888//4 892//4 798//4
f 894//6 893//6 892//6 888//6
f 813//1 895//1 891//1 814//1
f 816//2 817//2 894//2 896//2
f 832//3 816//3 896//3 897//3
f 824//1 898//1 895//1 813//1
f 828//3 829//3 899//3 900//3
f 830//2 832//2 897//2 901//2
f 829//3 830//3 901//3 899//3
f 899//6 901//6 897//6 902//6
f 838//1 903//1 904//1 823//1
f 838//3 905//3 906//3 903//3
f 823//4 904//4 898//4 824//4
f 838//5 823//5 824//5 905//5
f 905//5 824//5 825//5 907//5
f 907//5 825//5 826//5 908//5
f 908//5 826//5 827//5 909//5
f 910//2 828//2 900//2 911//2
f 909//3 910//3 911//3 912//3
f 909//5 827//5 828//5 910//5
f 913//1 914//1 906//1 905//1
f 913//3 915//3 916//3 914//3
f 913//5 905//5 907//5 915//5
f 915//3 917//3 918//3 916//3
f 915//5 907//5 908//5 917//5
f 919//2 909//2 912//2 920//2
f 917//3 919//3 920//3 918//3
f 917//5 908//5 909//5 919//5
f 878//1 957//1 958//1 877//1
f 877//4 958//4 959//4 879//4
f 957//6 960//6 959//6 958//6
f 879//4 959//4 961//4 880//4
f 960//6 962//6 961//6 959//6
f 884//2 881//2 963//2 964//2
f 880//4 961//4 963//4 881//4
f 962//6 964//6 963//6 961//6
f 885//1 965//1 966//1 886//1
f 886//4 966//4 967//4 875//4
f 965//6 968//6 967//6 966//6
f 875//4 967//4 957//4 878//4
f 968//6 969//6 957//6 967//6
f 884//4 964//4 970//4 883//4
f 971//6 972//6 970//6 964//6
f 888//2 887//2 973//2 974//2
f 883//4 970//4 973//4 887//4
f 972//6 974//6 973//6 970//6
f 891//1 975//1 965//1 885//1
f 975//6 976//6 968//6 965//6
f 894//2 888//2 974//2 977//2
f 978//6 977//6 974//6 972//6
f 895//1 979//1 975//1 891//1
f 979//6 980//6 976//6 975//6
f 980//6 981//6 982//6 976//6
f 902//3 897//3 983//3 984//3
f 984//6 983//6 978//6 985//6
f 896//2 894//2 977//2 986//2
f 897//3 896//3 986//3 983//3
f 983//6 986//6 977//6 978//6
f 904//1 987//1 988//1 989//1
f 989//4 988//4 979//4 895//4
f 904//5 989//5 895//5 898//5
f 899//2 902//2 984//2 990//2
f 900//3 899//3 990//3 991//3
f 991//6 990//6 984//6 992//6
f 903//1 993//1 987//1 904//1
f 911//2 900//2 991//2 994//2
f 995//1 996//1 993//1 903//1
f 995//3 914//3 997//3 996//3
f 995//5 903//5 906//5 914//5
f 914//3 916//3 998//3 997//3
f 916//3 918//3 999//3 998//3
f 918//3 920//3 1000//3 999//3
f 1001//2 911//2 994//2 1002//2
f 920//3 1001//3 1002//3 1000//3
f 920//5 912//5 911//5 1001//5
f 969//1 1039//1 1040//1 957//1
f 957//4 1040//4 1041//4 960//4
f 1039//6 1042//6 1041//6 1040//6
f 960//4 1041//4 1043//4 962//4
f 1042//6 1044//6 1043//6 1041//6
f 971//2 964//2 1045//2 1046//2
f 962//4 1043//4 1045//4 964//4
f 1044//6 1046//6 1045//6 1043//6
f 976//1 1047//1 1048//1 968//1
f 976//3 982//3 1049//3 1047//3
f 968//4 1048//4 1039//4 969//4
f 1047//6 1049//6 1039//6 1048//6
f 1049//6 1050//6 1042//6 1039//6
f 1050//6 1051//6 1044//6 1042//6
f 1051//6 1052//6 1046//6 1044//6
f 978//2 972//2 1053//2 1054//2
f 985//3 978//3 1054//3 1052//3
f 971//4 1046//4 1053//4 972//4
f 1052//6 1054//6 1053//6 1046//6
f 981//1 1055//1 1049//1 982//1
f 1055//6 1056//6 1050//6 1049//6
f 1056//6 1057//6 1051//6 1050//6
f 984//2 985//2 1052//2 1058//2
f 992//3 984//3 1058//3 1057//3
f 1057//6 1058//6 1052//6 1051//6
f 987//1 1059//1 1060//1 988//1
f 988//4 1060//4 1061//4 979//4
f 979//4 1061//4 1062//4 980//4
f 980//4 1062//4 1055//4 981//4
f 991//2 992//2 1057//2 1063//2
f 993//1 1064//1 1059//1 987//1
f 994//2 991//2 1063//2 1065//2
f 996//1 1066//1 1064//1 993//1
f 996//3 997//3 1067//3 1066//3
f 997//3 998//3 1068//3 1067//3
f 998//3 999//3 1069//3 1068//3
f 999//3 1000//3 1070//3 1069//3
f 1002//2 994//2 1065//2 1071//2
f 1000//3 1002//3 1071//3 1070//3
f 1059//1 1108//1 1109//1 1060//1
f 1060//4 1109//4 1110//4 1061//4
f 1108//6 1111//6 1110//6 1109//6
f 1061//4 1110//4 1112//4 1062//4
f 1062//4 1112//4 1113//4 1055//4
f 1055//4 1113//4 1114//4 1056//4
f 1063//2 1057//2 1115//2 1116//2
f 1056//4 1114//4 1115//4 1057//4
f 1117//6 1116//6 1115//6 1114//6
f 1064//1 1118//1 1108//1 1059//1
f 1065//2 1063//2 1116//2 1119//2
f 1066//1 1120//1 1118//1 1064//1
f 1066//3 1067//3 1121//3 1120//3
f 1120//6 1121//6 1122//6 1118//6
f 1067//3 1068//3 1123//3 1121//3
f 1068//3 1069//3 1124//3 1123//3
f 1069//3 1070//3 1125//3 1124//3
f 1071//2 1065//2 1119//2 1126//2
f 1070//3 1071//3 1126//3 1125//3
f 1125//6 1126//6 1119//6 1127//6
f 1111//1 1199//1 1200//1 1110//1
f 1110//4 1200//4 1201//4 1112//4
f 1199//6 1202//6 1201//6 1200//6
f 1112//4 1201//4 1203//4 1113//4
f 1202//6 1204//6 1203//6 1201//6
f 1117//2 1114//2 1205//2 1206//2
f 1113//4 1203//4 1205//4 1114//4
f 1204//6 1206//6 1205//6 1203//6
f 1118//1 1207//1 1208//1 1108//1
f 1118//3 1122//3 1209//3 1207//3
f 1108//4 1208//4 1199//4 1111//4
f 1207//6 1209//6 1199//6 1208//6
f 1209//6 1210//6 1202//6 1199//6
f 1210//6 1211//6 1204//6 1202//6
f 1211//6 1212//6 1206//6 1204//6
f 1119//2 1116//2 1213//2 1214//2
f 1127//3 1119//3 1214//3 1212//3
f 1117//4 1206//4 1213//4 1116//4
f 1212//6 1214//6 1213//6 1206//6
f 1121//1 1215//1 1209//1 1122//1
f 1121//3 1123//3 1216//3 1215//3
f 1215//6 1216//6 1210//6 1209//6
f 1123//3 1124//3 1217//3 1216//3
f 1216//6 1217//6 1211//6 1210//6
f 1125//2 1127//2 1212//2 1218//2
f 1124//3 1125//3 1218//3 1217//3
f 1217//6 1218//6 1212//6 1211//6
